<?xml version="1.0" encoding="UTF-8"?><svg id="Layer_1" xmlns="http://www.w3.org/2000/svg" viewBox="0 0 3006.03 489.72"><defs><style>.cls-1{fill:#fff;stroke:#fff;stroke-width:3.86px;}.cls-1,.cls-2,.cls-3,.cls-4,.cls-5{stroke-miterlimit:10;}.cls-6{fill:#12838a;}.cls-2{fill:#a17cb6;}.cls-2,.cls-3,.cls-4,.cls-5{stroke:#f2f2f2;stroke-width:2.92px;}.cls-7{fill:#d03435;}.cls-8{fill:#f8f7f8;}.cls-9{fill:#0f8188;}.cls-10{fill:#d87274;}.cls-11{fill:#8956a3;}.cls-12{fill:#0d8188;}.cls-13{fill:#7a4199;}.cls-14{fill:#19858c;}.cls-15{fill:#d65757;}.cls-3{fill:#c29fc9;}.cls-16{fill:#118289;}.cls-4{fill:#d5b8d7;}.cls-17{fill:#b281b9;}.cls-18{fill:#13838a;}.cls-19{fill:#999;}.cls-20{fill:#e69b9b;}.cls-5{fill:#916bad;}.cls-21{fill:#c9a1ca;}</style></defs><g><path class="cls-3" d="M96.34,430.53c25.3-9.48,51.12-13.76,77.15-15.49-5.42-26.83-13.23-52.85-23.87-75.85-16.05-34.72-38.48-62.59-68.64-76.05-22.32,68.9-37.03,108.64-1.88,174.87,5.68-2.79,11.43-5.29,17.24-7.47Z"/><path class="cls-2" d="M188.93,142.51H74.15c22.42,29.77,17.91,77.39,6.83,120.62,30.16,13.46,52.59,41.33,68.64,76.05,66.72-7.55,22.86-71.74,39.17-108.9-8.42-27.92-8.5-59.54,.14-87.77Z"/><path class="cls-4" d="M188.93,142.51c-8.65,28.23-8.56,59.85-.14,87.77,51.84-50.41,142.73,38.09,160.26-87.77H188.93Z"/><path class="cls-4" d="M222.49,414.11c1.61-2.5,3.97-4.2,7.11-4.27,9.4-.23,18.8-.24,28.19-.05,.85-23.15-.46-46.54-5.27-67.63-9.16-53.69-51.01-62.84-63.74-111.88-16.3,37.06,27.53,101.42-39.17,108.9,10.63,23.01,18.45,49.02,23.87,75.85,16.29-1.09,32.65-1.18,49.01-.92Z"/><path class="cls-3" d="M257.79,409.79c29.56,.59,59.03,3.29,88.33,8.06-3.66-18.92-3.89-38.39,.97-56.53,2.48-9.61,7.53-17.59,13.8-24.22-28.88-41.84-71.81-11.96-108.37,5.06,4.81,21.09,6.12,44.48,5.27,67.63Z"/><path class="cls-5" d="M400.58,429.14c5.35,1,10.7,2.24,16.04,3.77,.82,.24,1.59,.65,2.29,1.19,7.05,2,14.08,4.09,21.1,6.34,1.79,.57,3.2,1.61,4.29,2.94h34.5c-5.08-26.25-16.22-48.94-35.71-58.81-11-5.47-21,5.47-31,9.57-27.89,12.52-35.34-34.81-51.2-57.04-18.63,19.32-20.43,51.32-14.69,80.75,18.2,2.96,36.34,6.72,54.38,11.28Z"/><path class="cls-2" d="M453.18,279.18c30.78-30.81,31.43-95.08,11.81-136.67h-115.94c-17.65,125.96-108.28,37.29-160.26,87.77,12.72,49.03,54.59,58.22,63.74,111.88,36.56-17.02,79.48-46.9,108.37-5.06,27.49-27.71,66.09-29.47,92.28-57.92"/><path class="cls-4" d="M618.75,318.53c-44.91-132.13-114.5,77.76-165.58-39.35-26.2,28.45-64.78,30.21-92.28,57.92,15.86,22.22,23.32,69.55,51.2,57.04,10-4.1,20-15.04,31-9.57,19.48,9.87,30.63,32.55,35.71,58.81h147.27c-.67-42.44,3.68-88.26-7.32-124.84"/><path class="cls-3" d="M656.73,291.82c10.7-22.39,3.31-48.82-16.63-54.95-14.56-13.73-33.97-16.47-51.48-26.4"/><path class="cls-3" d="M562.09,164.39s.08-.09,.12-.13c-4.03-1.7-8.04-3.48-12.03-5.33-4.6-1.13-9.21-2.15-13.84-3.01-5.61,1.3-11.23,2.34-16.93,2.48-9.25,.23-18.16-2.91-27.13-4.95-7.65-.21-15.3-.34-22.95-.35,14.94,41.25,12.1,97.81-16.17,126.09,51.06,117.1,120.69-92.78,165.58,39.35,14.42-2.74,30.36-7.61,37.98-26.71l-68.11-81.35c-15.17-8.56-27.04-21.24-26.52-46.08Z"/><path class="cls-5" d="M590.27,174.45c-11.1-3.3-22.04-7.5-32.86-12.26-.35,1.2-.61,2.46-.77,3.76-3.92,28.74,16.79,35.96,31.96,44.52,7-19.63,16.7-27.94,27.81-30.44-8.8-.86-17.56-3.03-26.15-5.58Z"/><path class="cls-5" d="M678.08,187.41c-12.91-1.69-25.39-5.09-37.85-9.45-.66,.46-1.36,.81-2.11,.98-1.66,.37-3.32,.65-4.98,.88,20.25,3,42.7,14.86,61.44,10.25,1.59-.15,3.17-.42,4.74-.77-7.09-.42-14.18-.95-21.24-1.88Z"/><path class="cls-2" d="M698.09,295.67c-13.19,1-29.6,4.19-41.37-3.86-7.62,19.1-23.55,23.97-37.98,26.71,11,36.58,6.65,82.4,7.32,124.84h50.23c-4.06-16.76-3.38-33.6,9.79-45.13,28.87-22.73,73.03-62.2,59.55-105.6-15.81-.41-31.97,2.3-47.55,3.03Z"/><path class="cls-4" d="M694.58,190.06c-35.31,8.7-84-41.25-105.96,20.41,17.52,9.94,32.96,14.42,51.48,26.4,18.47,11.94,27.34,32.58,16.63,54.95,27.54,13.07,59.93-1.73,88.92,.83-13.11-34.14-53.25-60.14-51.07-102.58Z"/><path class="cls-5" d="M806.21,324.14c-15.91-22.03-38.42-31.57-60.56-31.49,13.48,43.4-30.69,82.87-59.55,105.6-13.17,11.53-13.85,28.37-9.79,45.13h152.38c1.65-40.53,1.64-89.62-22.48-119.23"/><path class="cls-2" d="M809.31,193.03c-23.4,2.05-46.81,1.97-70.46-.96-13.15-1.63-26.35-2-39.54-2.78-1.57,.35-3.15,.62-4.74,.77-2.17,42.47,37.95,68.43,51.07,102.58,22.13-.08,44.66,9.46,60.56,31.49,8.87-25.65,38.98-35.47,42.38-66.17,4.2-31.81-23.27-46.02-39.28-64.93Z"/><path class="cls-3" d="M900.88,292.83c-11.96-20.17-32.62-33.68-52.28-34.87-3.4,30.69-33.52,40.53-42.38,66.17,24.12,29.62,24.12,78.69,22.48,119.23h112.29c-44.94-71.29-17.27-108.01-40.1-150.54"/><path class="cls-4" d="M910.55,174.04c-18.62,4.44-37.24,8.91-55.96,12.54-15.13,2.93-30.21,5.13-45.29,6.46,16.01,18.9,43.48,33.08,39.29,64.93,19.66,1.19,40.32,14.69,52.28,34.87,14.33-12.51,28.81-24.52,39.56-41.59,17.03-24.42,16.37-56.14,10.01-86.42-13.38,2.24-26.68,6.07-39.89,9.22Z"/><path class="cls-5" d="M1012.71,379c-18.17,6.34-36.31,7.78-45.62-14.94-8-16.41,8-36.92,3-56.07-4.86-22.17-15.64-42.53-29.66-56.74-10.74,17.07-25.23,29.08-39.56,41.59,22.72,41.95-4.72,79.61,40.1,150.54h134.34c.82-30.99-4.07-85.06-36.23-75.22-8.05,3.21-17.22,7.65-26.38,10.84"/><path class="cls-2" d="M1066,286.39c-17.01-11.52-32.19-25.11-39.91-49.53-7.55-25.34,4.69-49.4,18.6-72.61-26.24,2.54-53.21-2.59-79.39-1.16-4.97,.27-9.92,.89-14.87,1.72,6.36,30.28,7.03,62.02-10.01,86.42,14.02,14.21,24.8,34.57,29.66,56.74,5,19.15-11,39.66-3,56.07,9.31,22.73,27.45,21.28,45.62,14.94-36.67-90.76,7.99-70.81,53.29-92.6Z"/><path class="cls-4" d="M1131.09,158.92c-1.88-6.09-4.36-11.5-7.26-16.41h-66.02c-41.76,59.83-49.44,105.85,8.19,143.89,38.94-14.63,82.74-69.81,65.09-127.48Z"/><path class="cls-3" d="M1075.31,430.63c3.47-1.26,6.96-2.45,10.48-3.51,13.8-4.16,27.93-5.59,41.95-7.82,4.94-2.49,9.92-4.79,15.02-6.58,1.99-.7,4.01-1.34,6.03-1.94-.23-14.56-2.35-28.89-6.45-42.25-12.14-44.02-46.98-63.89-76.33-82.13-45.41,21.8-89.93,1.91-53.29,92.6,9.16-3.2,18.33-7.63,26.38-10.84,28.08-8.58,35.36,31.52,36.22,62.48Z"/><path class="cls-2" d="M1179.09,183.53c13.38-22.61,31.1-32.5,49.75-41.03h-105.01c33.69,57.9-14.14,128.94-57.83,143.89,29.34,18.23,64.2,38.13,76.33,82.13,90.24-71.35,7.01-123.41,36.76-184.99Z"/><path class="cls-3" d="M1205.92,406.55c1.41-.17,2.82-.35,4.24-.51,12.42-1.35,25.23-2.84,37.68-1.45,4.7,.52,9.33,1.47,13.92,2.71-3.51-24.63-13.66-48.34-20.83-70.75-15.02,7.68-33.23,20-36.83,41.18-1.82,9.56-1.89,19.11-.73,28.52,.85,.1,1.71,.19,2.56,.31Z"/><path class="cls-4" d="M1203.25,406.23c-3.75-31.52,7.68-57.03,37.68-69.68-13.59-37.76-11.33-81.19,8.17-116.09,13.91-22.58,27.05-48.27,23.03-77.95h-43.28c-18.64,8.52-36.36,18.42-49.75,41.03-29.73,61.42,53.44,113.79-36.76,184.99,4.1,13.36,6.22,27.69,6.45,42.25,17.63-5.24,36.21-6.64,54.46-4.54Z"/><path class="cls-3" d="M1349.04,313.66c33.49-2.72,70.04-30.13,76.32-75.84-27.3-18.2-73.61-43.16-66.31-95.31h-86.94c5.69,74.66-65.33,92.34-31.19,194.05,34.6-17.28,70.95-15.82,108.11-22.89"/><path class="cls-4" d="M1424.09,199.94c-6.62-27.16-22.98-43.22-40.33-57.44h-24.71c-7.28,52.17,38.99,77.09,66.31,95.31,1.87-12.05,1.64-24.86-1.27-37.87Z"/><path class="cls-2" d="M1269.47,409.68c12.61-3.24,25.16-6.87,37.82-9.7,17.19-3.84,34.61-6.33,52.04-4.63,14.31,1.39,28.66,4.2,42.88,6.92,5.84-.61,11.68-.91,17.53-.95-.34-.75-.69-1.49-1.06-2.22-3.15-6.07-7.54-11.09-13.59-14.54-24.81-13.57-52.36-34.63-56.05-70.9-37.16,7.07-73.51,5.61-108.11,22.89,7.17,22.4,17.32,46.11,20.83,70.75,2.59,.7,5.15,1.52,7.71,2.39Z"/><path class="cls-3" d="M1474.9,406.4c14.75,2.32,29.44,5.7,44.28,6.59,12.86,.78,25.73,1.04,38.59,1.75,12.01,.66,24.03,1.56,35.95,3.72-.16-24.07-2.65-48-8.37-69.11-8.99-35.67-29.93-62.84-59.09-70.14-9.91,50.32-41.8,86.84-82.17,101.24-8.16,3.04-20.16,6.85-25.41,18.64,.37,.72,.72,1.46,1.06,2.22,18.43-.15,36.87,2.21,55.15,5.08Z"/><path class="cls-4" d="M1623.26,336.18c27.77-16.66,56.16-53.4,15.83-81.54-35.33-18.24-74.87-34.61-33.74-80.83"/><path class="cls-4" d="M1710.95,158.24c-9.99-2.42-19.54-6.44-27.73-15.73h-173.27c19,40.33,24.09,92.51,16.31,136.71,29.17,7.3,50.1,34.46,59.09,70.14,13.16-2.3,26.07-6.19,37.91-13.17l-17.91-162.36c9.01-8.42,52.36-12.74,105.59-15.58Z"/><path class="cls-2" d="M1662.49,443.37h120.06c-2.68-24.06-14.07-46.9-30.46-56.07-32.06-12.26-53.16,31.61-96.55-3.44-2.16,19.19,1.29,39.73,6.95,59.51Z"/><path class="cls-4" d="M1641.86,415.55c4.89,.15,9.79,.46,14.68,1.01-1.66-11.08-2.18-22.09-.99-32.7-14.25-11.05-26.15-27.94-32.29-47.68-11.84,6.98-24.75,10.87-37.91,13.17,5.31,19.62,7.84,41.66,8.3,64,15.91,2.93,32.22,1.7,48.21,2.2Z"/><path class="cls-5" d="M1660.09,364.05c-2.33,6.37-3.78,13.01-4.55,19.81,43.45,35.05,64.23-8.77,96.55,3.44,16.39,9.18,27.78,32.02,30.46,56.07h40.08c-13.48-213.65-87.64-50.73-120.24-133.97-17.73,11.89-32.67,28.86-42.3,54.65Z"/><path class="cls-3" d="M1601.39,177.25c-41.14,46.31,2.39,59.12,37.7,77.39,40.32,28.1,11.92,64.94-15.84,81.54,6.13,19.74,18.04,36.62,32.29,47.68,4.46-34.5,25.56-60.26,46.85-74.46-7.66-21.96-6.46-46.2-13.3-68.43-13.48-49.55-52.93-61.68-87.7-63.72Z"/><path class="cls-2" d="M1839.19,183.19c-38.06-1.58-77.08-7.05-112.63-26.83-3.9-2.17-6.88-6.39-7.3-11.82-48.74,3.23-93.25,11.03-113.91,29.28,34.77,2.04,70.26,17.6,83.74,67.15,6.85,22.24,5.65,46.48,13.3,68.43,48.42-34.94,121.56-17.12,158.46-82.24,7.5-12.64,12.73-27.63,15.95-43.58-12.54,.16-25.07,.12-37.61-.39Z"/><path class="cls-4" d="M1887.09,420.12c-2.85,8.78-.11,16.85,4.23,23.25h36.15c5.16-18.74,5.17-38.41,3.24-58.46-15.01,9.23-34.91,15.43-43.62,35.21Z"/><path class="cls-2" d="M1893.09,253.28c-10.05-11.78-21.01-19.48-32.24-26.12-36.91,65.14-110.02,47.3-158.46,82.24,32.52,83.19,106.8-79.62,120.24,133.97h68.69c-20.31-32.37,23.01-48.54,39.39-58.46-6.29-46.37-9.84-99.01-37.62-131.63Z"/><path class="cls-5" d="M2015.18,337.19c-23.94,21.94-55.89,33.18-84.46,47.72,1.93,20.04,1.92,39.71-3.24,58.46h125.29c-21.65-26.58-35.9-66.52-37.6-106.18Z"/><path class="cls-2" d="M2037.37,308.69c-6.01,11.32-14.12,21.1-22.74,28.99,1.7,39.66,8.86,79.11,30.51,105.69h81.6c1.57-2.16,57.99-68.08,59.68-111.17-50.17,19.4-105,16.98-149.06-23.5Z"/><path class="cls-3" d="M2109.42,180.99c-7.6,1.06-15.21,2.05-22.82,2.42-15.27,.75-30.57,0-45.87-.34,13.41,40.21,12.91,87.75-3.35,125.62,44.06,40.48,98,45.26,148.17,25.86,.41-16.38-2.73-32.46-10.45-47.09-22.81-34.2-65.58-64.61-65.67-106.48Z"/><path class="cls-3" d="M2295.33,156.6c-5.87,2.61-11.62,5.59-17.16,8.39-6.01,3.03-12,6.06-18.03,8.81,6.9,23.08,21.77,42.8,36.29,55.29,11.41-23.87,20.76-49.98,30.51-75.75-10.52,1.78-21.06,2.78-31.61,3.26Z"/><path class="cls-5" d="M2260.31,173.71c-13.65,6.24-27.49,11.11-42.15,11.53-7.74,.22-15.44-.46-23.13-1.49-11.34,46.84,20.25,73.08,23.5,134.26,31.71-18.63,60.42-49.39,77.9-88.92-15.73-13-28.41-31.84-36.11-55.37Z"/><path class="cls-4" d="M2195.03,183.75c-13.88-1.87-27.71-4.9-41.63-5.99-14.76-1.16-29.5,1.22-44.24,3.27-1.16,57.7,80.45,84.44,76.38,153.53,11.24-4.34,22.28-9.91,32.98-16.55-3.26-61.2-34.83-87.43-23.5-134.26Z"/><path class="cls-5" d="M2218.53,318.01c-10.7,6.64-21.75,12.2-32.98,16.55-7.9,37.31-27.32,68.88-51.45,101.98-1.57,1.08-3.14,4.68-4.72,6.84h72.16c15.54-38.17,21.11-81.93,16.99-125.36Z"/><path class="cls-2" d="M2463.09,316.19c.75,1.13,1.48,2.28,2.2,3.43,27.72-70.31-67.42-113.11-37.44-177.11h-96.77c-11.3,29.22-21.63,59.35-34.65,86.58,54.02,39.48,124.12,19.89,166.67,87.1Z"/><path class="cls-4" d="M2465.3,319.61c-41.96-70.8-113.97-50.6-168.87-90.53-17.48,39.53-46.19,70.3-77.9,88.92,4.12,43.44-1.45,87.19-16.99,125.36h89.95c-6.19-16.89-16.75-35.58-11.4-54.7,9-27.35,35-42.4,57-36.92,42.62,15.9,104.12,34.14,128.2-32.13Z"/><path class="cls-4" d="M2498.27,419.04c-1.07-7.19-2.3-14.33-3.74-21.37-12.16,7.77-23.6,17.11-33.92,28.74,12.38-2.17,24.75-4.56,37.13-6.89,.18-.16,.35-.33,.53-.49Z"/><path class="cls-2" d="M2385.47,434.3c25.23-.08,50.21-3.52,75.13-7.88,10.32-11.63,21.76-20.98,33.92-28.74-5.8-28.39-14.84-55.2-29.23-78.06-9.04,25.06-29.72,44.58-51.2,47.17-27,2.74-51-6.84-77-15.04-22-5.47-48,9.57-57,36.92-5.37,19.13,5.22,37.81,11.39,54.7h84.85c1.14-4.99,4.18-9.06,9.14-9.07Z"/><path class="cls-3" d="M2641.96,292.36c-24.48-11.01-51.25,2.23-75.87-8.99-38.61-15.27-109.08-88.58-60.93-140.86h-77.31c-29.99,63.89,65.18,106.91,37.44,177.11,14.39,22.86,23.43,49.67,29.23,78.06,31.98-20.43,68.94-29.99,103.57-41.83,22.93-7.84,36.99-33.21,43.87-63.49Z"/><path class="cls-4" d="M2640.09,291.57c.63,.25,1.25,.52,1.87,.79,12.63-53.02,2.14-109.41-25.41-149.85h-111.39c-48.14,52.31,22.31,125.55,60.93,140.86,24,10.94,50-1.36,74,8.21Z"/><path class="cls-5" d="M2515.28,408.57c22.97-8.89,48.06-5.46,71.35-1.17,1.05,.19,2.1,.4,3.15,.61,9.57-.38,19.15-.57,28.73-.7,14.52-20.95,36.76-33.65,57.04-35.51,.75-34.23-6.82-70.71-33.59-79.43-6.88,30.27-20.93,55.65-43.87,63.49-34.63,11.84-71.58,21.4-103.57,41.83,1.44,7.04,2.67,14.17,3.74,21.37,5.12-4.64,10.83-8.08,17.02-10.47Z"/><path class="cls-3" d="M2673.01,406.4c1.71-11.26,2.57-22.84,2.54-34.61-20.27,1.86-42.52,14.56-57.04,35.51,18.17-.25,36.34-.28,54.5-.91Z"/><path class="cls-3" d="M2778.37,251.19c-18.49,.44-37.08,.56-55.27-2.01-36.02-4.1-62.54-60.6-48.85-106.67h-57.68c27.55,40.44,38.03,96.84,25.41,149.85,26.77,8.73,34.33,45.21,33.59,79.43,22.08-3.18,44.43-.98,64.55-13.21,28.47-17.66,42.33-67.97,38.27-107.39Z"/><path class="cls-5" d="M2674.24,142.51c-13.69,46.08,12.84,102.57,48.86,106.67,18.2,2.57,36.78,2.46,55.27,2.01-3.92-39.14-22.87-73.21-40.44-108.68h-63.68Z"/><path class="cls-3" d="M2850.49,415.48c4.46,.57,9.05,.78,13.72,.81-2.13-26.86-5.48-53.53-11.36-79.13-28.2,10.45-57.87,27.16-70.03,65.94,12.37,1.55,24.62,4.44,36.64,9.41,7.56,3.12,15.1,6.28,22.67,9.34,1.81-3.93,4.92-6.81,8.36-6.37Z"/><path class="cls-5" d="M2685.69,405.86c31.9-1.69,64.81-6.77,96.89-2.8,10.48-35.41,43.66-57.51,70.28-65.9-5.75-22-21.84-83.86-41.76-86.62-10.8,0-21.75,.38-32.73,.64,4.06,39.43-9.8,89.72-38.27,107.39-20.12,12.23-42.47,10.03-64.55,13.21,.03,11.77-.83,23.34-2.54,34.61,4.23-.15,8.45-.31,12.68-.54Z"/><path class="cls-2" d="M2940.84,428.2c2.81,.13,5.6,.57,8.37,1.33-.04-17.61-1.01-35.2-3.11-53.17-3.71-30.46-26.4-48.94-38.51-73.47-14.32,18.1-34.68,27.83-54.73,34.27,5.88,25.6,9.23,52.27,11.36,79.13,25.88,.16,54.16-5.37,76.63,11.91Z"/><path class="cls-5" d="M3002.09,142.51h-75c7.16,52.96,9.61,119.74-19.51,160.39,39.19,62.8,41.59,52.23,41.47,140.48h53.04V142.51Z"/><path class="cls-4" d="M2850.9,142.51h-112.98c17.57,35.47,36.52,69.55,40.44,108.68,10.98-.26,34.53,4.03,44.16,11.97,11.37,6.9,24.53,51.86,30.33,74,20.05-6.44,40.41-16.16,54.73-34.27-26.68-47.5-51.15-99.85-56.69-160.39Z"/><path class="cls-2" d="M2924.09,268.32c9-41.03,10-83.42,3-125.82h-76.19c5.54,60.55,30,112.88,56.69,160.39,7.31-9.2,13.08-20.52,16.51-34.57Z"/><path class="cls-5" d="M2015.18,337.19c8.61-7.89,16.19-17.18,22.2-28.5"/><path class="cls-5" d="M1372.09,307.98c-7.71,2.42-15.4,4.23-23.05,5.68,3.7,36.27,31.24,57.33,56.05,70.9,6.05,3.45,10.44,8.47,13.59,14.54,5.25-11.8,17.25-15.6,25.41-18.64,40.37-14.4,72.26-50.93,82.17-101.24-34.65-12.17-68.81-22.58-100.9-41.4-5.19,33.54-26.79,61.11-53.27,70.16Z"/><path class="cls-2" d="M1509.95,142.51h-126.18c25.49,18.32,49.18,53.59,41.6,95.31,32.09,18.83,66.25,29.23,100.9,41.4,7.78-44.19,2.68-96.39-16.31-136.71Z"/><path class="cls-2" d="M53.59,436.67c7.21-2.2,14.4-4.4,21.63-6.28-30.17-61.88-15.68-100.98,5.75-167.26,11.09-43.23,15.59-90.86-6.83-120.62H2.09V443.37H47.23c1.03-3.15,3.08-5.7,6.37-6.7Z"/><path class="cls-4" d="M2019.83,183.02c-21.66,.6-43.2,.31-64.85-.24-26.06-.67-52.12,.48-78.17,.8-3.21,15.95-8.45,30.94-15.95,43.58,52.47,25.44,20.67,170.38,69.86,157.75,33.17-8.51,95.02-44.53,106.66-76.22,17.15-37.34,16.49-85.35,2.98-125.63-6.84-.15-13.69-.23-20.53-.04Z"/></g><path class="cls-1" d="M3004.1,180.52c-58.14-3.89-175.86-33.52-333.09-34.9-157.23-1.38-338.29,34.92-338.29,34.92,0,0-115.62,34.16-308.24,34.91-192.61,.75-314.52-34.91-314.52-34.91,0,0-161.82-33.53-347.52-34.88-185.7-1.34-307.06,34.9-307.06,34.9,0,0-85.68,30.59-248.79,34.6-163.11,4.01-319.86-33.41-319.86-33.41,0,0-117.85-35.41-229.34-36.08-111.49-.67-254.93,42.09-254.93,42.09v-41.52s143.44-42.76,254.93-42.09c111.49,.67,229.34,36.08,229.34,36.08,0,0,156.75,37.41,319.86,33.41,163.11-4.01,248.79-34.6,248.79-34.6,0,0,121.36-36.24,307.06-34.9,185.7,1.34,347.52,34.88,347.52,34.88,0,0,121.91,35.66,314.52,34.91,192.61-.75,308.24-34.91,308.24-34.91,0,0,181.06-36.3,338.29-34.92,157.23,1.38,274.95,31.01,333.09,34.9v41.52Z"/><path class="cls-1" d="M3003.58,452.85c-58.14-3.89-175.86-33.52-333.09-34.9-157.23-1.38-338.29,34.92-338.29,34.92,0,0-115.62,34.16-308.24,34.91-192.61,.75-314.52-34.91-314.52-34.91,0,0-161.82-33.53-347.52-34.88-185.7-1.34-307.06,34.9-307.06,34.9,0,0-85.68,30.59-248.79,34.6-163.11,4.01-319.86-33.41-319.86-33.41,0,0-117.85-35.41-229.34-36.08-111.49-.67-254.93,42.09-254.93,42.09v-41.52s143.44-42.76,254.93-42.09c111.49,.67,229.34,36.08,229.34,36.08,0,0,156.75,37.41,319.86,33.41,163.11-4.01,248.79-34.6,248.79-34.6,0,0,121.36-36.24,307.06-34.9,185.7,1.34,347.52,34.88,347.52,34.88,0,0,121.91,35.66,314.52,34.91,192.61-.75,308.24-34.91,308.24-34.91,0,0,181.06-36.3,338.29-34.92,157.23,1.38,274.95,31.01,333.09,34.9v41.52Z"/><g><path class="cls-8" d="M1718.65,265.93c-1.39-32.19,.31-65.26-11.47-96.64,1-35.73-11.31-73.24-48.41-88-58.8-55.96-139-91.1-223.12-78.85-59.88,6.79-115.52,36.47-155.39,79.59-1.46,1.62-3.93,2.66-6.16,3.1-11.01,2.29-22.09,4.28-33.17,6.42-33.25,6.87-23.47,56.11-15.01,78.77,1,2.44,1.31,5.46,.85,8.05-2.08,12.62-5.08,25.18-6.77,37.8-2.15,15.95-1.77,31.97-.08,47.91,.23,2.58-.08,4.43-3.16,5.32-28.17,7.6-9.31,43.41-3.62,60.76,5.39,7.68,17.39-.96,24.47,2.29,3.39,7.31,7.31,14.47,9.54,22.07,3.31,14.99,3.93,30.86,9.08,45.55,2.15,6.57,6.62,8.56,13.55,7.16,5.93-.07,13.16-6.64,17.7-1.92,94.67,99.89,273.07,98.19,365.5-3.69,1.92-1.99,3.54-2.66,6.31-1.62,59.65,15.28,76.35-30.86,42.72-73.09,23.47,13.51,30.02-6.57,29.71-26.28,.31-13.07-2.92-25.1-13.08-34.7Zm-4.77,8.79c-19.63-.3-37.48-7.38-56.72-7.75,7.85-12.4,48.33-6.57,56.72,7.75Zm-6.39-17.5c-27.17-9.52-52.34-11.66-70.27,15.43-5.85-7.46-11.62-14.84-17.86-22.81,4.39,0,8.16-.37,11.85,.07,35.02,3.47,68.04-24.81,70.88-57.81,5.7,21.48,7.08,43.12,5.39,65.12Zm-174.17,70.65c4.16-2.51,8.39-5.02,12.7-7.53,.38,.15,.69,.22,1.08,.37-.85,6.57-1.69,13.07-2.54,19.64-.31,.07-.62,.22-.92,.37-3.31-4.06-6.62-8.19-10.31-12.85Zm5.7,44.74c-2.46,6.87-11.16,3.4-16.62,2.58-6.31-1.7-1.46-16.54-11.24-28.65,6.16-.96,21.09-8.86,23.94-3.77,5.62,8.93,8,19.79,3.93,29.83Zm-11.01-52.64c-9.93,6.35,4.46,11.52-3.46,15.28-6.08,2.66-12.24,5.32-18.32,7.97-.31-.3-.54-.59-.85-.89,10.54-30.49,24.09-59.73,35.63-90,10.31,12.11,8.93,27.46,6.54,41.86-2,11.59-10.08,19.34-19.55,25.77Zm-52.87,35.59c-2.77,1.11-3.31-.59-2.23-2.88-.69-7.83-1.39-15.58-1.92-23.4-1.15-10.34-1.54-22.22,9.39-27.83,3.31-1.03,9.85-9.15,12.16-4.8,8.16,12.92,21.24,2.44,18.24,10.56-4.54,12.26-9,24.58-13.62,36.84-.54,1.33-1.46,2.95-2.69,3.47-6.31,2.81-12.85,5.46-19.32,8.05Zm7.54,18.75c-4.31-.74-16.16-3.1-10.47-9.08,3.69-3.25,8.24-6.28,13.31-7.31,8.39-2.07,8.54-1.85,8.77,6.35,1.08,8.49-4.85,10.63-11.62,10.04Zm-88.51-16.98c.08-3.54,2.62-5.83,6.16-6.72,7.16-2.88,19.7-.66,21.17-10.04,1.31-9.38,.77-17.28,.85-27.17,16.16,9.3,7.77,17.28,16.62,26.06,4.69,3.17,35.17,35.22,18.47,34.4-19.01,1.99-38.1,2.07-57.18,.66-7.77-1.7-5.46-11.44-6.08-17.2Zm-111.91-104.84c-18.32-3.47-35.02,7.83-52.34,12.4-2.62-27.02-1.15-53.6,5.62-79.88,.69-2.44,1.69-2.95,4.39-3.25,11.78-1.03,23.47-4.06,35.33-4.8,32.09,.89,10.93,53.97,26.63,72.5-6.31,3.47-12.47,5.09-19.63,3.03Zm12.01,45.7c-.23,2.14-1.15,4.36-1.62,6.5-2.23-.81-4.77-1.18-6.46-2.51-10.39-8.34-20.63-16.91-31.17-25.62,7.08-7.01,12.85-15.58,24.32-16.54,5.46-.52,7.23,.3,8.39,5.32,2.46,10.93,4.39,21.93,6.54,32.85Zm93.13-175.56h.69c-.46,7.46-.92,14.91-1.23,22.44,.54,6.42-16.32,16.98-20.86,8.34-6.62-45.04-36.17-34.33,10.93-51.83,5.39-1.26,10.31-2.14,9.7,4.87,.23,5.39,.54,10.78,.77,16.17Zm-28.17,34.33c-7.08,1.11-12.85,1.48-18.78,4.72-3.31,2.07-4.31,.81-6.16-1.77-6.39-8.19-11.47-16.76-19.7-23.55,7.77-5.76,14.78-10.78,22.4-16.09,2.31-1.7,4.16-1.55,6.46,.22,11.39,9.23,12.31,23.26,15.78,36.47Zm-50.72,86.01c8.31-9.89,20.86-11.81,29.09-19.93,9.16,16.32-16.62,22.96-29.09,19.93Zm12.78,19.42c-3.23-1.85-6-3.32-9.24-5.09,6.46-2.66,9.47-.96,9.24,5.09Zm-4.46-115.25c17.93,16.61,17.39,41.93,22.63,63.79-.69,5.24-14.7,20.23-17.7,10.11-1.46-18.24-5.08-36.03-10.93-53.38-3.23-12.7-19.63-13.58-11.62-19.79,7.31-7.09,10.01-8.71,17.62-.74Zm-.92,77.22c.69,7.24-10.54,14.91-11.93,6.35-1.39-16.76-2.85-33.52-6.7-49.91-2.23-12.26-17.78-10.71-13.47-17.13,3.46-6.2,7.77-6.94,13.16-2.14,17.01,16.54,14.55,41.57,18.93,62.83Zm-10.78,36.77c6.23,3.03,12.16,6.79,17.62,10.93,1.77,1.33,1.92,5.02,2.31,7.68,1.08,8.12,1.62,16.32,2.85,24.44,1.08,9.89,13.93,4.8,20.55,3.54,7.16-3.1,4.16-13.36,3.85-19.64,4.39,.44,15.32,5.09,11.62,9.6-10.24,10.19-20.01,20.75-31.09,30.05-2.23,2.07-4.31,1.85-6.85,.22-6.93-4.43-14.08-8.49-20.93-12.92-1.46-.89-2.85-2.95-3-4.58-1.15-15.13-3.31-30.34-3.39-45.55,.46-5.46,1.23-6.28,6.46-3.77Zm44.1,6.5c.62-7.75,1.92-15.21,10.31-19.12,5.46-2.44,14.62-2.95,17.09,3.32,2.23,9.52,4.16,19.12,5.93,28.79-.31,2.88-6.62,9.38-9.24,9.82-4.85-.52-10.24-6.05-15.39-7.53-7.16-2.88-9.31-8.34-8.7-15.28Zm-46.33,52.34c7.31,4.65,14.62,9.38,22.55,14.4-7.08,5.83-13.16,10.78-19.63,16.09-4.46-9.6-2.31-19.79-4.08-29.53,.38-.3,.77-.66,1.15-.96Zm9.62,43.04c5.7,.89,11.39,1.62,17.01,2.81,7.08,1.48,7.08,1.62,7.08,8.64s-.08,7.68-7.08,10.26c-5.85,1.4-16.86,7.09-18.93-1.62-.08-4.65-8-23.03,1.92-20.08Zm22.94-14.54c-.08,3.4,2.62,9.15-1.08,11.15-7.93-.89-15.85-1.92-23.78-2.88-.08-.59-.23-1.18-.31-1.77,16.32-14.4,32.71-28.79,49.1-43.12,4.23,5.24,5.93,44.67,1.46,51.46-2.39-9.89-2-19.42-7-28.2-2-2.73-4.54-3.77-8-2.29-8,3.32-11.78,6.72-10.39,15.65Zm45.33,27.32c-5.85,5.83-14.93,6.2-17.86-2.29,6.16,.74,11.47,1.4,17.86,2.29Zm-1.46-6.2q-11.24-1.4-11.24-12.4c0-16.54,.15-33.15,.08-49.76-.08-8.49,8.77-10.11,14.7-15.8,1.92,24.95,3,47.84,3.08,72.28,.08,5.17-1.31,6.35-6.62,5.68Zm6.39-126.02c-.54,.59-2.77,.3-3.93-.22-13.93-6.94-41.87-2.58-41.48,15.65,1.08,12.7,3.54,25.25,4,38.02,.23,3.62-2.08,5.32-6.16,5.46-3.69,.07-4.08-2.44-4.31-4.95-.77-10.56-1.23-21.11-2.39-31.6-.54-4.73-2-9.38-3.77-13.81-1.23-3.03-.31-4.06,2.39-4.8,10.93-1.55,16.32-5.32,17.16-16.17,1.69-16.46-2.31-32.78-3.85-49.1-1.08-14.91,1-14.03,12.7-15.87,12.31-2.29,24.24-1.48,35.63-7.53,8.85,25.32,5.77,52.93,23.32,75.23-10.47,3.32-21.24,1.62-29.32,9.67Zm74.66-83.5c9.85,2.51,19.63,5.02,27.09,12.33,3.08,3.1,6.77,7.16,1.23,9.97-4.46,2.07-5.93,9.6-11.62,8.34-10.7-2.29-16.55,1.11-19.55,11.3-3.54,10.78-3.69,31.45-18.47,31.38-17.78,1.55-23.4-10.04-27.01-23.62,4.77,1.7,8.16,3.47,11.7,4.28,9,1.7,18.55-8.19,16.32-16.69-5.31-13.51-22.7-11.22-30.48,.3-.62-5.54-4.93-10.71-1.62-15.06,7.39-7.01,14.78-13.95,22.24-20.89,8.7-6.42,7.77,15.65,21.01,6.2,3.31-1.77,5.31-7.09,9.16-7.83Zm.69-22.22c20.32-3.62,15.62,6.72,17.39,21.41-5.85-2.51-19.86-3.03-20.7-8.93-.38-4.36-1.77-10.26,3.31-12.48Zm50.49,.81c3.77-5.32,9.08,1.4,14.08,2.81-9.93,11.96-16.24,24.95-17.62,39.72-18.63-4.5-4.46-33.37,3.54-42.52Zm-10.47,.74v-9.67c.31-.22,.69-.44,1-.66,1.39,1.18,4.16,2.58,3.93,3.47-.54,2.58-2.15,4.95-3.39,7.38-.54-.15-1-.37-1.54-.52Zm31.94,5.61c1.77,19.49-4.31,38.1-5.85,57.44-26.09-5.39-9.39-48.36,5.85-57.44Zm-.69-9.82c-7.39-2.36-15.16-4.13-22.01-7.46-15.55-6.28-14.39-22.74-10.16-36.69,2.85-13.36,17.7-14.03,29.17-11.89,3.39,.52,5.54,2.73,5.85,6.35,.77,8.79,1.54,17.57,2.15,23.85-.54,9.3-.92,16.02-1.23,22.81-.08,2.44-1,3.91-3.77,3.03Zm-32.32,52.2c6.23,5.98,12.08,12.33,18.24,18.38,9.47,11.15-1.39,24.22-15.08,22.96-13.01-.59-13.93-1.26-15.93-13.58-.85-5.46-1.62-10.93-2.08-16.46-.92-7.53,7.85-16.39,14.85-11.3Zm18.63,92.58c-1.62,3.84-3,7.97-5.16,11.66-3.62,5.24-13.93,6.2-14.16-1.99-.54-5.54-1.23-11-1.23-16.54,2.92-11,20.55-7.09,19.7,6.5,.31,.15,.54,.22,.85,.37Zm-.08-16.69c4-2.95,7.93-5.76,11.85-8.64,.62,.3,1.15,.66,1.77,1.03-1.77,5.24-3.46,10.48-5.54,16.91-3-3.4-5.16-5.91-8.08-9.3Zm11.39-15.21c-10.24,11.66-24.86,14.77-40.33,13.58v-.07c-5.16-1.03-19.47,3.25-18.7-4.72-.23-7.38,1.39-14.99,10.16-16.69,16.09-4.13,32.09-.74,47.64,3.62,2.85,.81,3.16,2.29,1.23,4.28Zm-94.9,66.67c-3.93-3.32-5.54-5.24-9.39-7.9-10.01-6.28-2.85-22.3-9.85-32.63-1-13.73,31.4-6.64,40.18-6.72,.08,.44,.08,.81,.15,1.26-1.46,.3-2.92,.96-4.39,.89-24.4-2.14-15.01,30.42-16.7,45.11Zm13.55-53.82v-.44c-4.85-.44-10.31,1.33-14.47-1.55,2-3.84,6.54-5.09,9.85-7.6,5.08-2.14,12.39-12.99,17.16-5.68,6.39,14.32,1.85,16.02-12.55,15.28Zm-24.09-66c11.31-.66,11.31,12.92,.54,12.85-9,.44-11.62-13.58-.54-12.85Zm9.85-43.78c-.23,1.18-1.39,2.36-2.39,3.17-9.08,7.24-18.24,14.4-27.4,21.63-.38-.15-.85-.22-1.31-.3-4.77-33.37-9.85-33.67,26.17-47.1,8.31-1.99,5.93,17.94,4.93,22.59Zm0-38.54c.08,7.75-.15,7.31-7.62,10.34-8.31,3.47-16.24,7.83-24.24,11.89-8.77,7.68-7.62-27.61-7.54-31.75,.15-2.66,1.31-3.47,4.23-3.1,10.31,1.33,20.78,2.51,31.17,3.47,5.77,0,3.62,5.54,4,9.15Zm-11.54-15.58c-.08,.3-.15,.66-.23,.96-8.7-1.77-17.47-3.47-26.17-5.17-2.23-.44-3-1.55-1.54-3.69,5.46-8.19,23.01-12.62,31.94-7.97,4.77,2.44,6.77,6.5,6.85,11.52,.46,6.05-6.77,3.99-10.85,4.36Zm-29.71,153.34c14.85-8.79,33.33-7.68,50.03-7.53,.15,.37,.38,.66,.62,1.03-9.85,7.53-20.24,14.4-30.09,21.85-5.54,4.13-18.16,11.37-22.01,2.29-1.39-5.83-5.54-13.58,1.46-17.64Zm19.7,54.41c-1.15,39.28,8.62,33.59-20.4,38.24-.62-20.97-1.31-41.86-2-62.46,27.01,0,19.24-3.25,22.4,24.22Zm41.02,38.69c6.39-1.92,12.08,3.99,9.24,13.88-4.54-3.84-7.31-8.42-9.24-13.88Zm-7-8.56c-2.62,.07-3.62-.89-3.85-3.32-1.69-15.36-1-30.71,1.46-45.92,.46-6.5,6.77-6.87,12.16-7.68,2.92-.59,4.39,.74,4.54,3.47,1,17.64,2.69,36.03,3.31,53.38-6.23,0-11.93-.15-17.62,.07Zm12.7-103.29c3-8.64,3.54-23.85,9.85-30.05,4.54-3.69,7.39-2.66,8.47,2.95,1.54,8.34,3.23,16.61,4.69,24.95,.15,.96-.23,2.58-.85,2.88-5.39,2.14-9.7,4.58-15.55,5.76-1.69-1.55-7.47-2.81-6.62-6.5Zm10.39,40.75c.08-4.13,.85-4.95,5.23-4.95,5.85,.74,17.39-2.58,17.32,6.05,1,13.88-10.47,20.01-21.24,27.39-2.31-10.04-1.08-18.53-1.31-28.5Zm78.96-24.29c-16.62-17.79-32.56-9.75-24.63-18.68l-.08-.22,.23-.15c1.39-2.73,2.69-5.46,3.77-8.34l-.08-.3,.31-.22c3.16-7.68,5.23-15.73,6.7-23.85l-.08-.15,.15-.15c1.46-7.83,3-15.65,3.85-23.55,.31-.07,.54-.15,.85-.22,2,5.76,2.54,11.81,4.08,17.64,1.15,4.28,2.77,8.42,4.31,12.55l.23,.15-.08,.22c2.16,4.87,4.93,9.38,7.62,13.95l.31,.15v.3c6.7,8.64,13.24,14.84,22.63,21.56-7.31,1.92-13.7,.37-21.01,.52-7.93-.81-7.16,2.51-9.08,8.79Zm44.18-97.01c14.55,9.3-1.23,27.24,17.24,36.4,12.24,6.42,32.71,3.25,36.56-15.8,1.39-6.94,2.31-7.01,9.85-6.57,13.85,1.48,27.17-2.29,40.33-4.95-1.39,16.98-.62,35.44-8.62,51.09-2.85,5.02-7.23,7.9-13.24,9.15-33.17,7.83-61.34-11.81-91.97-20.16-7.54-2.21-15.55-1.4-22.86,2.14-10.78,5.02-12.31-48.43-10.39-55.08,3.39-18.16,34.56-4.21,43.1,3.77Zm-36.87-25.69c1.31-2.36,3.23-4.5,4.23-7.01,6-14.47,24.09-5.83,35.63-4.36,4.16,.96,4.62,2.58,3.16,6.35-2.62,6.72-5.23,13.51-8,20.52-10.24-4.58-21.4-9.08-33.09-7.09-6.16,1.18-3.46-5.54-1.92-8.42Zm50.8,43.56c.38-19.93,29.48-23.7,32.56-3.84,1.54,22.89-32.48,27.54-32.56,3.84Zm-10.24,118.12c-10.93-9.23-14.93,7.24-20.63,.22-2.62-4.36-19.01-17.5-4.62-16.69,15.47,.89,32.25,1.85,48.95,2.88,6.93,.44,7.7,.81,9.24,7.16,1.46,6.05,2.31,12.33,3.23,18.53,.46,3.03-.85,4.72-4.23,5.39-35.79,9.23-10.39-.07-31.94-17.5Zm-15.47,50.72c1.31-13.07,2.31-26.43,4.16-39.72,1-6.72,3.77-7.31,9.24-2.88,15.62,10.71,8.31,46.88-13.39,42.6Zm-4.69-22.59c-.23,2.73-1.46,4.06-4.39,4.58-6.31,1.26-11.54,3.32-18.09,4.95,.62-17.57,1.31-34.55,1.92-51.46,.31-.22,.54-.37,.85-.52,6.77,7.31,12.93,15.06,18.86,22.96,4.23,5.76,1.08,13.07,.85,19.49Zm45.1-48.58c-20.16-1.26-40.33-1.99-60.49-2.81-4.31-.15-5.39-1.18-5.08-5.39,.69-9.67,1.39-10.56,11.62-10.85,19.93-.89,40.94,2.73,54.95,17.57-.38,.52-.69,.96-1,1.48Zm-22.63-28.79c-7.08,0-46.95-24.95-34.17-30.49,13.39-4.21,27.71,.22,39.87,5.91,3.39,1.7,5.08,5.46,5.85,10.78-2.62,5.17-3,16.39-11.54,13.81Zm74.35-12.11c-12.01,18.68-41.41,16.69-60.88,13.66,1.46-6.72,2.85-12.99,4.31-19.56,17.24,8.79,36.25,9.6,56.57,5.91Zm-121.14,107.72c.38-.15,.77-.3,1.15-.44,5.62,8.93,6.46,20.01,9.85,29.9,.69,5.24-6.77,9.75-12.16,11.15-1.54-13.95-.08-27.32,1.15-40.61Zm13.16,39.79c6.46,.96,4.39,5.02-.38,7.53-2.31-1.48-4.69-2.21-5.7-3.69-.85-1.33,3.39-3.99,6.08-3.84Zm2.62-15.06c-2.85-8.27-4.62-16.91-7.23-25.18-2.85-6.35,6.62-5.17,10.47-6.79,8.16-1.62,4.39,9.52,5.54,13.95,.54,6.35,3.54,8.19,9.85,6.35,13.78-3.69,18.32-16.69,21.93-28.42h1.08c2.85,6.87,11.54,26.21,.77,29.24-12.01,4.43-24.55,7.83-36.25,13.07-3.54,1.55-4.93,1.4-6.16-2.21Zm10.78,7.46c11.08-5.32,23.24-8.19,34.94-12.03,2.77-1.03,3.69,.07,4.46,2.21,2.62,6.87,0,14.54-6.7,19.2-7.39,5.17-16.32,7.97-26.01,7.97-3.54,.37-6.85-.74-9.16-4.06-5.08-6.94-4.39-9.89,2.46-13.29Zm36.79-47.47c-2-5.54,2.23-6.94,7-7.97,9-1.55,11.08,.81,10.08,10.04,.23,.07,.54,.07,.77,.15-1.31,6.87-2.54,13.73-3.93,20.52-.77,4.72-7.08,3.77-8.31,.07-2.08-7.53-3.77-15.21-5.62-22.81Zm82.04-174.53c1.77,9.89,2,10.19-8.47,12.4-9.31,1.99-18.86,3.1-28.25,4.65,0-.37-.08-.66-.15-1.03-14.16,.81-14.93-.59-15.78-13.88-.23-10.63,13.85-2.81,20.16-3.77,9.08-.15,18.09-.74,27.09-1.7,3.23-.37,4.77-.22,5.39,3.32Zm-18.7-38.02c4.77,6.5,9.62,13.07,13.55,20.01,6,9.97-12.39,9.75-18.24,11.74-7.7-1.18-14.62-2.21-21.55-3.17-2.46-.37-3.08-1.62-2.62-3.91,1.85-9.6,8.47-15.8,16.24-21.11,3.39-2.21,8.7-6.57,12.62-3.54Zm-35.79-17.2c3.16-3.99,5.39-4.58,9.93-2.07,6.08,3.32,11.85,7.09,17.7,10.71-.15,.44-.31,.96-.46,1.4-18.86,10.26-28.71,29.01-31.25,49.54-11.16-3.91-22.94-7.9-32.56,1.26-2.39,2.14-3.69,.52-4.77-1.26-4.93-7.75-3.23-15.43,1-22.74,9.62-15.95,29.32-22,40.41-36.84Zm-5.23-3.1c-9.62,8.42-20.16,15.87-30.79,23.18-7.47,1.92-18.63-3.1-26.71-3.69-4.08-.74-4.85-1.62-2.54-4.95,13.24-17.05,38.64-21.26,59.19-15.95,.31,.44,.54,.96,.85,1.4Zm-4.39-12.11c-50.64-3.25-64.03,13.14-87.43,52.42-.46-.07-.85-.15-1.31-.22-1.08-15.21,4.31-31.01-1.92-45.63-8.47-15.13-33.79-10.85-45.87-1.62-3.69,2.73-5.54,6.57-5.62,10.93-.38,13.66-.54,27.24-.69,40.9-.62,9.52,1.62,19.34-1.62,28.57-.54,.07-1.15,.07-1.69,.15-6.08-8.19,2.62-27.39-12.01-27.54-30.17-.59-24.71,2.44-27.55,27.91-11.54-4.5-2.31-20.67-3.39-29.68,1.08-23.99,2-68.66-36.48-56.55-4.85,1.85-9.47,4.28-14.08,6.72-9.39,5.32-12.24-10.19-31.79-6.13-22.4,2.81-45.1,9.38-67.65,8.93,87.51-92.43,245.75-96.2,339.1-9.15Zm-353.34,24.73c4-4.43,9-5.83,14.78-6.72,24.47-3.84,46.41-8.49,71.58-11.37,4.08,1.18,9.31,2.58,14.47,4.28,4.39,2.51,7.7,8.93,.31,10.19-18.93,5.54-36.56,13.58-53.03,23.99-18.47,11.66-34.4,25.99-48.64,42.08-4.46,5.02-10.01,7.68-16.86,8.64-5.54,.74-11.01,2.21-16.47,3.47-6.39,1.48-8.24,.81-9.77-5.32-.62-5.61-7.93-25.84-2.62-28.42,17.24-11.74,32.56-25.47,46.26-40.83Zm-5.46-3.54c-13.7,15.5-28.78,28.2-44.64,40.53-13.01-31.67,18.16-41.64,44.64-40.53Zm-62.65,204.8c-4.39-9.6-1.15-18.75,8.85-22.59,10.7-3.54,21.7-7.9,32.79-9.67,.38,.44,.77,.89,1.15,1.33-12.55,10.56-26.01,20.3-37.4,31.89-2.69,2.73-3.77,2.58-5.39-.96Zm28.71,25.03c-9.7-1.33-26.17,6.79-26.48-9.3,4.46-10.93,17.01-18.6,25.24-27.17,3.93-2.73,8.39-9.97,13.55-5.54,5.23,4.36,10.24,8.79,15.32,13.29,2.31,2.07,2,3.99-.15,6.28-5.23,5.54-10.78,10.93-15.08,17.13-3.31,4.73-6.16,7.24-12.39,5.32Zm13.62,24.88c-1.62-4.87-3.31-9.82-4.39-14.84-.85-7.16,17.55-22.81,22.47-29.68,1-1.11,3.69-1.77,5-1.26,1.69,.96,8.39,4.21,5.85,6.5-12.7,4.87-17.62,8.34-14.85,22.3-.46,4.58,8.39,22.89-.62,20.89-4.31-1.18-11.08,.37-13.47-3.91Zm5,32.48c-1.15-7.6-2.31-15.21-3.62-23.7,5.93,.52,11.24,.96,18.09,1.55-4.62,8.05-8.77,15.21-12.93,22.37-.46-.07-1-.15-1.54-.22Zm21.17,11.15c.15,6.5-8.08,4.21-12.62,5.39-17.7,1.18,5.08-23.63,8.08-30.71,3.08,9.08,5.16,16.98,4.54,25.32Zm9.93,1.7c-.85-.89-1.69-2.36-1.69-3.54,0-14.62-4.46-28.42-8.39-42.3-1.92-6.87-3.39-13.88-5-20.82-.77-3.4,.54-5.91,3.85-7.09,4.39-.66,15.7-7.68,15.55,.37,.62,7.6,1,15.21,1.62,22.81,1.08,13.29,1.62,26.65,6.39,39.28,5.31,14.03,5.31,12.4,18.7,12.11,26.71-.66,23.78-21.41,21.47-40.61-.31-3.32,1-17.64,6.47-10.34,1.31,3.84,2.62,7.68,3.31,11.66,1.31,7.6,2,15.36,3.23,22.96,.77,4.8,3.85,7.38,9.08,7.97,18.93,2.95,22.47-9.82,27.32-6.2,6.54,4.72,14.08,6.05,21.93,5.02,17.32-2.14,34.56-4.65,51.8-7.01,9.47-.37,19.01,1.18,28.55,1.26,9.08-.37,5.08-12.7,6.39-18.53,.15-2.66-.15-6.05,3.31-6.72,5.46-2.14,6.47,16.46,7.62,20.08,.62,3.99,2.39,6.35,6.54,7.68,8.24,2.66,16.24,3.69,24.17-.74,3.62-.37,7.7,2.88,11.31,3.32,8.08,1.48,16.24,2.36,24.24,4.06,21.63,5.17,37.02-6.28,49.56-21.85,3.77,11.66,8.7,19.27,18.09,27.32-90.28,99.74-265.29,99.96-355.42-.15Zm368.2-14.77c-.08,4.13,1.15,11.22-5.54,8.42-5.08-1.62-8.47-5.24-11.24-9.52-6.54-10.41-9.47-25.84,.54-34.99,10.93-8.42,9.08,10.11,9.77,16.17,.38,7.6,7.08,11.44,7.16,19.79-.23,.07-.46,.07-.69,.15Zm-1-35.59c-2-10.26-10.47-11.3-19.86-8.93,1.08-8.64,2-16.61,3.08-24.73,.54,.15,1,.22,1,.3,3,11.96,12.16,19.56,20.78,27.61,3.46,4.43,17.09,14.32,11.7,19.71-3.93,5.76-4.46,9.23-11.93,5.54-8.08-2.95-2.08-13.36-4.77-19.49Zm29.32-15.8c-27.01,4.65-23.86,6.64-35.33-17.42-2.77-4.8,10.62-4.43,13.62-5.46,5.16-.81,17.24,18.24,21.7,22.89Zm4.16-34.4c3.62,3.99,4.77,20.97,1.23,26.58-8-5.98-15.08-11.66-15.39-22-1.62-7.75,9.85-10.93,14.16-4.58Zm4.62,44.96c-.31,7.38-.69,14.77-1.31,22.07-.85,9.3-2,18.53-3,27.83-.54,4.87-1.54,5.76-6.47,5.76s-10.24,.15-15.32-.22c-9.08,.22-4.08-12.11-5.23-17.64-.77-9.45,19.7,3.77,19.7-18.16,.15-9.38-6.08-16.09-10.62-23.63,6.39-2.36,12.78-2.14,19.09-1.55,3.23,.37,3.23,3.25,3.16,5.54Zm-25.55-46.81c-2.62,7.16-13.08,12.99-20.7,10.78-5.16-2.51-4.46-10.93-6.08-14.91,1.15-7.01,.46-16.02,9.85-15.28,20.86,1.33,41.48,5.91,62.03,9.52,4.31,1.55,6.23,3.77,5.23,6.5-1.39,3.69-4.54,2.21-7.23,2.14-3.85-.15-7.7-.44-11.54-.37-2.39,.07-3.93-.66-5.46-2.51-8.31-10.78-23.01-7.9-26.09,4.13Zm31.25,96.57c-3.46,1.62-4.85,.89-4.54-2.81,1.23-13.88,3-27.76,3.77-41.71,.46-.15,.85-.3,1.31-.44,9.24,12.11,14.78,35.29-.54,44.96Zm13.16-64.89c-4.16-1.26-7.39-3.69-8.54-7.75-1.77-6.28-3-12.62-4.77-20.38,6.39,.74,16.78-2.21,19.86,2.51,3.85,6.13,5.23,28.28-6.54,25.62Z"/><path class="cls-12" d="M1627.83,367.22c3.69,11.66,8.62,19.27,18.24,27.39-90.36,99.74-265.3,99.96-355.42-.15-.92-.89-1.69-2.36-1.69-3.54,0-14.62-4.54-28.35-8.39-42.3-1.92-6.87-3.39-13.88-5-20.82-.77-3.4,.54-5.91,3.85-7.09,4.31-.66,15.78-7.6,15.55,.37,.62,7.6,1,15.21,1.62,22.81,1,13.22,1.62,26.65,6.39,39.28,5.31,14.03,5.39,12.4,18.7,12.11,26.78-.74,23.7-21.41,21.47-40.61,.62-19.49,7.54-13.73,9.77,1.33,1.31,7.6,2,15.36,3.23,22.96,.77,4.8,3.85,7.46,9.08,7.97,18.78,2.95,22.55-9.82,27.32-6.2,6.54,4.65,14.08,5.98,21.93,5.02,17.24-2.21,34.48-4.73,51.8-7.01,9.54-.3,19.09,1.26,28.55,1.26,9.16-.44,5-12.7,6.39-18.53,.15-2.66-.23-6.05,3.31-6.72,5.54-2.14,6.46,16.46,7.62,20.08,.62,3.99,2.39,6.35,6.54,7.68,8.24,2.66,16.16,3.69,24.17-.74,3.62-.44,7.7,2.81,11.31,3.32,8.08,1.48,16.24,2.36,24.24,4.06,21.47,5.09,36.94-6.35,49.41-21.93Z"/><path class="cls-12" d="M1633.53,73.16c-50.72-3.25-64.03,13.14-87.35,52.49-.46-.07-.85-.15-1.31-.22-1.08-15.21,4.31-31.01-1.92-45.55-8.54-15.21-33.86-10.85-45.87-1.62-3.69,2.73-5.54,6.57-5.62,10.93-.38,13.66-.54,27.24-.69,40.9-.54,9.52,1.62,19.42-1.62,28.57-.54,.07-1.15,.07-1.69,.15-6.08-8.19,2.62-27.39-12.01-27.54-30.25-.59-24.78,2.51-27.55,27.91-11.47-4.5-2.31-20.67-3.39-29.68,1.08-23.92,2-68.66-36.48-56.55-4.85,1.85-9.54,4.28-14.08,6.72-9.39,5.39-12.31-10.19-31.79-6.13-22.47,2.81-45.1,9.38-67.65,8.93,87.51-92.58,245.67-96.35,339.03-9.3Z"/><path class="cls-13" d="M1697.02,160.13c-1.39,17.05-.62,35.44-8.54,51.16-2.77,4.95-7.16,7.9-13.24,9.15-33.25,7.83-61.34-11.81-91.97-20.16-7.62-2.21-15.55-1.4-22.86,2.14-10.7,5.17-12.24-48.51-10.39-55.08,3.39-18.16,34.63-4.13,43.1,3.77,14.47,9.3-1.23,27.32,17.24,36.4,12.16,6.35,32.71,3.25,36.56-15.8,1.39-6.94,2.31-7.01,9.85-6.57,13.78,1.4,27.09-2.44,40.25-5.02Z"/><path class="cls-13" d="M1366.54,79.81c4.08,1.18,9.31,2.58,14.39,4.21,4.31,2.58,7.77,8.93,.31,10.19-18.86,5.54-36.56,13.58-53.03,23.99-18.47,11.66-34.33,26.06-48.64,42.08-4.46,5.02-10.01,7.75-16.86,8.64-5.54,.74-11.01,2.29-16.47,3.47-6.39,1.4-8.24,.74-9.77-5.32-.69-5.61-7.85-25.84-2.62-28.42,17.24-11.74,32.56-25.47,46.26-40.83,4-4.5,8.93-5.83,14.78-6.72,24.55-3.77,46.41-8.42,71.65-11.3Z"/><path class="cls-9" d="M1391.7,158.66c8.85,25.32,5.77,52.93,23.32,75.3-10.47,3.32-21.24,1.62-29.32,9.67-.62,.59-2.85,.3-3.93-.22-13.85-6.94-41.87-2.58-41.48,15.65,1.08,12.7,3.54,25.25,4,38.02,.15,3.62-2.15,5.32-6.16,5.46-3.62,.07-4.08-2.44-4.31-4.95-.77-10.56-1.23-21.11-2.39-31.6-.54-4.65-2-9.38-3.77-13.81-1.15-3.03-.31-4.06,2.39-4.8,10.93-1.55,16.32-5.32,17.16-16.17,1.69-16.46-2.39-32.78-3.85-49.1-1.08-14.91,1-14.1,12.7-15.87,12.31-2.36,24.24-1.48,35.63-7.6Z"/><path class="cls-12" d="M1301.89,249.47c-6.31,3.47-12.47,5.09-19.63,3.03-18.39-3.47-35.1,7.83-52.34,12.4-2.62-27.02-1.15-53.53,5.62-79.88,.62-2.51,1.69-3.03,4.39-3.25,11.85-1.03,23.55-4.06,35.33-4.8,32.09,.96,10.85,53.97,26.63,72.5Z"/><path class="cls-17" d="M1412.02,209.75c4.77,1.7,8.16,3.47,11.78,4.21,9.08,1.7,18.55-8.19,16.32-16.69-5.31-13.51-22.7-11.22-30.48,.3-.69-5.46-4.93-10.71-1.62-15.06,7.31-7.01,14.78-13.95,22.24-20.89,8.62-6.42,7.77,15.73,21.01,6.2,3.31-1.77,5.31-7.09,9.16-7.83,9.77,2.51,19.63,5.02,27.09,12.33,3.08,3.17,6.77,7.09,1.23,9.97-4.46,2.07-5.93,9.6-11.62,8.34-10.7-2.29-16.55,1.11-19.55,11.3-3.54,10.78-3.69,31.45-18.47,31.38-17.86,1.62-23.47-9.97-27.09-23.55Z"/><path class="cls-13" d="M1670.31,98.41c-18.86,10.34-28.71,29.01-31.25,49.46-11.24-3.91-23.01-7.9-32.56,1.26-2.39,2.14-3.69,.52-4.77-1.26-4.93-7.75-3.16-15.43,1-22.74,9.62-15.95,29.32-22,40.41-36.84,3.16-3.99,5.39-4.5,9.93-2.07,6,3.32,11.78,7.09,17.7,10.71-.15,.52-.31,.96-.46,1.48Z"/><path class="cls-15" d="M1422.34,313.4c16.24,9.45,7.7,17.28,16.78,26.06,4.69,3.17,35.17,35.29,18.47,34.4-19.01,1.99-38.17,2.07-57.18,.66-7.77-1.7-5.46-11.44-6.08-17.2,.08-3.54,2.54-5.83,6.16-6.72,7.16-2.88,19.7-.66,21.17-10.04,1.08-9.38,.62-17.28,.69-27.17Z"/><path class="cls-7" d="M1352.3,288.08c4.54,.52,15.32,5.17,11.62,9.6-10.16,10.19-20.01,20.75-31.09,30.05-2.31,2.07-4.31,1.77-6.85,.22-6.93-4.36-14.08-8.42-20.93-12.92-1.46-.96-2.85-2.95-3-4.58-1.15-15.13-3.39-30.34-3.39-45.55,.46-5.46,1.31-6.35,6.46-3.77,6.23,3.03,12.16,6.72,17.62,10.93,1.77,1.33,1.92,5.02,2.31,7.68,1.08,8.12,1.62,16.32,2.85,24.44,1.08,9.89,13.93,4.8,20.55,3.54,7.16-3.1,4.16-13.36,3.85-19.64Z"/><path class="cls-11" d="M1537.32,109.34c-.54,9.3-.92,16.02-1.31,22.74-.15,2.36-1.08,3.91-3.77,3.03-7.39-2.36-15.08-4.06-22.01-7.46-15.55-6.28-14.39-22.74-10.16-36.69,2.85-13.36,17.62-14.03,29.17-11.89,3.46,.52,5.54,2.73,5.85,6.35,.85,8.86,1.69,17.64,2.23,23.92Z"/><path class="cls-18" d="M1702.1,192.1c5.7,21.41,7.08,43.04,5.46,65.12-27.17-9.52-52.34-11.66-70.27,15.43-5.85-7.46-11.62-14.84-17.86-22.81,4.39,0,8.16-.37,11.85,.07,34.94,3.47,67.96-24.73,70.81-57.81Z"/><path class="cls-10" d="M1472.9,352.68c-.69-7.83-1.39-15.58-1.92-23.4-1.15-10.34-1.54-22.22,9.39-27.83,3.39-.96,9.85-9.08,12.16-4.8,8.24,12.92,21.24,2.36,18.24,10.56-4.54,12.26-9,24.58-13.62,36.84-.46,1.33-1.46,2.88-2.69,3.47-6.39,2.88-12.85,5.46-19.32,8.05-2.77,1.11-3.31-.59-2.23-2.88Z"/><path class="cls-15" d="M1214.3,314.88c4.39-10.93,17.01-18.6,25.24-27.17,3.93-2.73,8.39-9.97,13.55-5.54,5.23,4.28,10.24,8.79,15.32,13.29,2.31,2.07,2,3.99-.15,6.28-5.23,5.54-10.77,10.93-15.08,17.13-3.31,4.72-6.08,7.31-12.39,5.32-9.62-1.33-26.17,6.79-26.48-9.3Z"/><path class="cls-15" d="M1541.01,252.35c10.31,12.11,8.93,27.46,6.46,41.86-2,11.59-10.01,19.34-19.55,25.77-9.93,6.35,4.46,11.44-3.46,15.28-6.08,2.66-12.24,5.32-18.32,7.97-.31-.3-.54-.59-.85-.89,10.62-30.49,24.17-59.73,35.71-90Z"/><path class="cls-11" d="M1339.45,210.93c-.69,5.24-14.7,20.23-17.7,10.11-1.46-18.16-5.08-35.95-10.93-53.38-3.23-12.77-19.63-13.58-11.62-19.79,7.31-7.09,9.93-8.71,17.62-.74,17.93,16.69,17.39,41.93,22.63,63.79Z"/><path class="cls-11" d="M1388.09,122.63c-.38,7.46-.92,14.91-1.23,22.37,.54,6.5-16.32,17.05-20.86,8.34-6.54-44.96-36.17-34.4,10.93-51.83,5.39-1.26,10.31-2.14,9.7,4.87,.15,5.39,.46,10.78,.77,16.17,.23,.07,.46,.07,.69,.07Z"/><path class="cls-6" d="M1537.55,182.73c.46-2.81,.77-5.54,1.31-8.34,.62,.22,1.23,.44,1.85,.74,1.85,9.3,3.62,18.53,7.54,27.32l-.08,.22,.23,.15c2.08,4.87,4.93,9.38,7.62,13.95v.3c7.08,8.34,13.31,14.99,22.94,21.63-7.31,1.92-13.7,.37-21.01,.52-7.93-.81-7.16,2.51-9.08,8.79-7.16-7.46-15.62-11.81-25.48-13.81-.08-1.03-.23-1.99-.31-3.03,.38-.59,.77-1.18,1.08-1.85l.23-.15-.08-.22c5.31-10.34,8.7-21.41,10.7-32.71l.31-.07-.23-.22c1-4.36,1.69-8.79,2.46-13.22Z"/><path class="cls-20" d="M1571.49,270.58c15.47,.89,32.25,1.85,48.95,2.88,6.93,.44,7.7,.81,9.24,7.16,1.54,6.05,2.31,12.33,3.23,18.53,.46,3.03-.92,4.8-4.23,5.39-35.71,9.23-10.39-.07-31.94-17.5-11.01-9.15-14.93,7.31-20.63,.3-2.69-4.43-19.01-17.57-4.62-16.76Z"/><path class="cls-16" d="M1392.4,343.01c-.69-20.97-1.39-41.86-2-62.46,27.01,0,19.32-3.25,22.4,24.22-1.08,39.28,8.62,33.59-20.4,38.24Z"/><path class="cls-10" d="M1382.85,291.62c1.85,24.95,2.92,47.77,3.08,72.35,.08,5.17-1.31,6.28-6.62,5.68q-11.24-1.4-11.24-12.4c0-16.61,.15-33.22,.08-49.76-.08-8.49,8.77-10.19,14.7-15.87Z"/><path class="cls-7" d="M1673.55,334.81c6.39-2.36,12.78-2.14,19.16-1.48,3.23,.37,3.23,3.17,3.16,5.54-.31,7.38-.62,14.69-1.31,22.07-.85,9.3-1.92,18.53-3,27.83-.54,4.87-1.46,5.76-6.46,5.76s-10.24,.15-15.32-.22c-9.08,.3-4.08-12.11-5.23-17.64-.85-9.45,19.7,3.77,19.7-18.16,.08-9.45-6.16-16.17-10.7-23.7Z"/><path class="cls-21" d="M1503.15,228.72c-13.01-.59-13.93-1.26-15.93-13.66-1.31-9.75-6.31-26.5,7.7-29.24,6.54-.81,17.55,15.58,23.24,19.93,9.54,11.15-1.31,24.22-15.01,22.96Z"/><path class="cls-6" d="M1464.44,334.81c-6.23,0-11.93-.07-17.62,.07-2.62,.07-3.62-.89-3.85-3.32-1.69-15.36-1-30.64,1.46-45.92,.54-6.5,6.77-6.87,12.16-7.68,3-.59,4.39,.74,4.54,3.47,1.08,17.64,2.69,35.95,3.31,53.38Z"/><path class="cls-21" d="M1359.23,156.96c-7.08,1.11-12.85,1.48-18.78,4.8-3.23,2.07-4.31,.81-6.16-1.77-6.39-8.19-11.47-16.76-19.7-23.55,7.7-5.68,14.78-10.71,22.4-16.09,2.31-1.77,4.23-1.62,6.46,.22,11.39,9.15,12.31,23.18,15.78,36.4Z"/><path class="cls-7" d="M1489.6,261.57c-5.16-1.03-19.39,3.32-18.63-4.72-.31-7.38,1.39-15.06,10.16-16.69,16.09-4.06,32.17-.74,47.64,3.62,2.85,.74,3.16,2.29,1.23,4.28-10.31,11.74-24.86,14.77-40.33,13.58-.08,0-.08-.07-.08-.07Z"/><path class="cls-10" d="M1643.45,287.86c1.15-7.01,.46-16.02,9.85-15.28,6.08,.22,12.24,.96,18.24,1.92,13.85,2.21,27.71,4.72,41.56,7.09,4.23,.59,9.08,3.84,7.47,7.09-1.31,3.62-4.54,2.21-7.23,2.14-5.54-1.11-12.93,1.7-17.01-2.88-8.39-10.85-23.01-7.9-26.09,4.13-2.62,7.16-13.16,12.99-20.7,10.78-5.23-2.58-4.46-11-6.08-14.99Z"/><path class="cls-20" d="M1349.22,267.63c.62-7.75,1.92-15.21,10.31-19.12,5.39-2.44,14.62-2.95,17.09,3.32,2.23,9.52,4.16,19.2,5.93,28.79-.38,2.88-6.62,9.3-9.24,9.82-4.85-.59-10.24-6.05-15.39-7.53-7.16-2.95-9.24-8.34-8.7-15.28Z"/><path class="cls-11" d="M1403.25,175.64c-4.77-33.44-9.77-33.74,26.17-47.18,8.39-1.99,5.93,17.94,4.93,22.59-.23,1.18-1.39,2.36-2.39,3.17-9.08,7.31-18.24,14.47-27.4,21.63-.38,0-.85-.07-1.31-.22Z"/><path class="cls-21" d="M1434.34,112.59c0,7.75-.15,7.31-7.54,10.34-8.31,3.47-16.24,7.75-24.24,11.89-8.85,7.68-7.62-27.54-7.54-31.75,.15-2.73,1.31-3.47,4.23-3.1,10.39,1.33,20.78,2.51,31.17,3.47,5.7,0,3.54,5.61,3.93,9.15Z"/><path class="cls-7" d="M1255.02,276.56c7.08-7.09,12.85-15.58,24.32-16.61,5.46-.52,7.23,.3,8.39,5.32,2.46,10.85,4.39,21.85,6.54,32.85-.31,2.21-1.15,4.36-1.62,6.5-2.15-.81-4.77-1.11-6.46-2.51-10.47-8.19-20.63-16.76-31.17-25.54Z"/><path class="cls-10" d="M1609.67,318.05c3.69,7.83,6.08,16.02,5.85,24.73-3,6.94-19.09,8.42-26.09,11.81-5.16,1.77-10.24,3.84-15.24,5.98-3.54,1.48-4.93,1.33-6.16-2.21-2.85-8.27-4.54-16.91-7.23-25.18-2.85-6.42,6.62-5.24,10.47-6.79,8.16-1.62,4.39,9.52,5.54,13.95,.54,6.35,3.54,8.19,9.85,6.35,13.78-3.69,18.32-16.69,21.93-28.42,.38-.22,.77-.22,1.08-.22Z"/><path class="cls-21" d="M1610.59,224c-2.62,5.09-3,16.39-11.54,13.81-7,0-46.95-25.03-34.17-30.49,13.39-4.13,27.71,.3,39.87,5.91,3.46,1.7,5.08,5.46,5.85,10.78Z"/><path class="cls-17" d="M1674.24,137.32c-7.7-1.11-14.62-2.21-21.55-3.17-2.46-.37-3.08-1.62-2.62-3.91,2.46-12.18,13.01-20.08,23.78-25.4,1.46-.52,4.31-.22,5.08,.74,4.77,6.5,9.62,12.99,13.55,20.01,6,9.97-12.39,9.75-18.24,11.74Z"/><path class="cls-21" d="M1637.91,85.27c-9.62,8.42-20.16,15.87-30.79,23.18-7.39,1.92-18.7-3.1-26.71-3.69-4-.66-4.85-1.62-2.54-4.95,13.24-17.05,38.64-21.34,59.19-15.95,.31,.44,.62,.89,.85,1.4Z"/><path class="cls-17" d="M1591.2,140.87c-10.24-4.58-21.4-9.08-33.02-7.09-6.23,1.18-3.46-5.54-1.92-8.42,1.31-2.36,3.16-4.5,4.23-7.01,5.93-14.4,24.01-5.83,35.63-4.36,4.16,.96,4.54,2.58,3.16,6.35-2.69,6.72-5.39,13.51-8.08,20.52Z"/><path class="cls-20" d="M1443.73,243.86c-9.77,7.6-20.16,14.47-30.09,21.85-5.46,4.13-18.09,11.3-22.01,2.29-1.39-5.91-5.54-13.66,1.46-17.64,14.78-8.71,33.33-7.6,50.03-7.53,.15,.3,.38,.66,.62,1.03Z"/><path class="cls-7" d="M1310.28,354.97c16.32-14.4,32.71-28.79,49.03-43.19,4.23,5.17,5.93,44.59,1.46,51.46-2.31-9.82-2-19.42-7-28.2-1.92-2.73-4.54-3.69-8-2.29-8,3.32-11.78,6.72-10.39,15.65,0,3.32,2.62,9.15-1.08,11.15-7.93-.81-15.85-1.85-23.78-2.88,0-.52-.15-1.11-.23-1.7Z"/><path class="cls-15" d="M1621.67,266.59c-20.16-1.26-40.33-1.99-60.49-2.81-4.31-.15-5.31-1.18-5.08-5.39,.62-9.75,1.39-10.63,11.62-10.93,19.86-.81,40.94,2.73,54.95,17.57-.31,.52-.69,1.03-1,1.55Z"/><path class="cls-21" d="M1315.89,224.36c.69,7.24-10.54,14.84-11.85,6.28-1.46-16.69-2.85-33.52-6.7-49.91-2.31-12.33-17.78-10.63-13.47-17.13,3.46-6.2,7.77-6.94,13.16-2.14,16.93,16.61,14.47,41.71,18.86,62.9Z"/><path class="cls-11" d="M1660.77,159.62c-14.16,.81-14.93-.59-15.78-13.95-.23-10.63,13.85-2.81,20.16-3.77,9-.15,18.09-.74,27.09-1.7,3.31-.37,4.77-.22,5.39,3.32,1.77,9.89,2,10.19-8.47,12.4-9.31,1.99-18.78,3.17-28.25,4.65-.08-.3-.08-.66-.15-.96Z"/><path class="cls-7" d="M1585.5,382.95c-3.54,.37-6.85-.74-9.24-3.99-5-6.94-4.31-9.97,2.46-13.29,11.08-5.32,23.24-8.27,34.94-12.03,2.85-1.03,3.69,.07,4.46,2.21,2.62,6.87-.08,14.62-6.7,19.2-7.31,5.09-16.24,7.83-25.94,7.9Z"/><path class="cls-11" d="M1230.08,134.88c-13.01-31.67,18.16-41.64,44.64-40.53-13.7,15.43-28.78,28.2-44.64,40.53Z"/><path class="cls-16" d="M1606.97,168.92c.38-20.01,29.48-23.7,32.56-3.84,1.54,22.89-32.4,27.54-32.56,3.84Z"/><path class="cls-7" d="M1556.87,272.72c6.77,7.24,12.93,15.06,18.93,22.89,4.23,5.76,1.08,13.07,.85,19.49-.23,2.73-1.46,4.06-4.39,4.58-6.39,1.33-11.62,3.32-18.09,4.95,.69-17.57,1.31-34.48,1.92-51.46,.23-.07,.54-.22,.77-.44Z"/><path class="cls-7" d="M1435.04,314.73c-3.93-3.32-5.62-5.24-9.31-7.83-9.93-6.2-2.85-22.3-9.85-32.63-1-13.81,31.32-6.64,40.18-6.72,.08,.44,.08,.81,.15,1.26-1.46,.3-3,.96-4.39,.89-24.47-2.21-15.08,30.34-16.78,45.04Z"/><path class="cls-7" d="M1511.15,346.55c6.16-.96,21.01-8.86,23.94-3.77,5.62,8.93,8,19.79,3.93,29.83-2.54,6.87-11.24,3.4-16.62,2.58-1.46-.44-3.39-2.29-3.39-3.54-.46-8.64-2-16.83-7.85-25.1Z"/><path class="cls-11" d="M1612.51,239.35c1.46-6.72,2.85-12.92,4.31-19.56,17.24,8.79,36.25,9.52,56.57,5.91-12.01,18.6-41.41,16.61-60.88,13.66Z"/><path class="cls-18" d="M1581.27,337.76c1.31-13.14,2.31-26.43,4.23-39.72,1-6.72,3.77-7.31,9.24-2.88,15.62,10.71,8.24,46.88-13.47,42.6Z"/><path class="cls-11" d="M1527.16,202.44c-26.09-5.32-9.47-48.28,5.85-57.44,1.77,19.49-4.31,38.02-5.85,57.44Z"/><path class="cls-20" d="M1267.87,352.97c-4.31-1.26-11.01,.37-13.47-3.91-1.69-4.87-3.31-9.82-4.39-14.84-.92-7.09,17.55-22.89,22.47-29.68,1-1.11,3.69-1.77,5-1.26,1.69,.96,8.39,4.28,5.85,6.5-12.7,4.87-17.62,8.34-14.85,22.3-.54,4.65,8.31,22.89-.62,20.89Z"/><path class="cls-15" d="M1658.69,379.62c-.08,4.13,1.15,11.22-5.62,8.42-5.16-1.7-8.54-5.24-11.24-9.52-6.54-10.41-9.47-25.84,.54-34.99,10.93-8.42,9.16,10.19,9.77,16.17,.38,7.68,7.16,11.44,7.16,19.79-.23,.07-.46,.07-.62,.15Z"/><path class="cls-14" d="M1637.84,335.11c1.08-8.64,2.08-16.61,3.08-24.66,.62,.15,1,.15,1,.3,3,11.89,12.16,19.49,20.78,27.61,3.46,4.43,17.09,14.32,11.7,19.71-4,5.68-4.46,9.23-11.93,5.54-8.08-2.95-2.15-13.36-4.77-19.49-2-10.41-10.54-11.37-19.86-9.01Z"/><path class="cls-18" d="M1466.13,238.1c-1.69-1.55-7.39-2.81-6.54-6.42,3-8.64,3.54-23.77,9.85-30.05,4.54-3.69,7.39-2.66,8.47,2.95,1.54,8.34,3.23,16.61,4.69,24.95,.15,.89-.23,2.58-.85,2.88-5.46,2.07-9.77,4.5-15.62,5.68Z"/><path class="cls-15" d="M1336.6,374.46c0,7.31-.08,7.68-7.16,10.26-5.85,1.4-16.86,7.09-18.93-1.62-.08-4.65-8-23.03,1.92-20.08,5.7,.89,11.39,1.62,17.01,2.81,7.23,1.48,7.16,1.62,7.16,8.64Z"/><path class="cls-20" d="M1254.86,268.22c-12.47,10.56-26.01,20.23-37.4,31.89-2.69,2.81-3.77,2.58-5.39-.96-4.39-9.6-1.15-18.75,8.85-22.59,10.7-3.54,21.63-7.9,32.79-9.67,.38,.44,.77,.89,1.15,1.33Z"/><path class="cls-7" d="M1471.21,300.85c-2.31-10.04-1.08-18.6-1.31-28.57,0-4.21,.85-4.95,5.23-4.95,5.85,.74,17.39-2.58,17.32,6.05,1.08,13.95-10.39,20.08-21.24,27.46Z"/><path class="cls-7" d="M1687.02,328.24c-27.01,4.65-23.86,6.57-35.33-17.5-2.77-4.8,10.62-4.43,13.62-5.46,5.08-.74,17.32,18.31,21.7,22.96Z"/><path class="cls-13" d="M1422.57,97.97c-8.7-1.77-17.47-3.47-26.17-5.24-10.54-4.21,19.63-18.97,30.4-11.66,4.77,2.51,6.77,6.5,6.85,11.52,.46,6.05-6.77,4.06-10.85,4.36-.08,.37-.15,.66-.23,1.03Z"/><path class="cls-21" d="M1525.62,141.46c-9.93,11.96-16.24,24.95-17.62,39.79-18.63-4.5-4.54-33.44,3.54-42.52,3.77-5.39,9.08,1.33,14.08,2.73Z"/><path class="cls-7" d="M1701.33,295.53c6.39,.74,16.7-2.21,19.86,2.51,3.85,6.13,5.23,28.28-6.54,25.62-4.16-1.33-7.39-3.69-8.54-7.75-1.77-6.28-3-12.62-4.77-20.38Z"/><path class="cls-18" d="M1518.62,279.96c-1.69,3.91-3.08,7.97-5.23,11.59-3.62,5.24-13.93,6.2-14.16-1.99-.46-5.54-1.15-11-1.23-16.54,3-11,20.55-7.09,19.7,6.5,.38,.15,.69,.3,.92,.44Z"/><path class="cls-7" d="M1633.45,320.34c-1.31,6.87-2.54,13.73-3.93,20.52-.69,4.65-7.08,3.77-8.31,.07-2.08-7.53-3.69-15.21-5.62-22.81-2-5.54,2.15-6.94,7-7.97,9-1.55,11.08,.81,10.08,10.04,.31,.07,.54,.15,.77,.15Z"/><path class="cls-7" d="M1713.88,274.72c-19.63-.3-37.48-7.38-56.72-7.75,7.85-12.4,48.33-6.57,56.72,7.75Z"/><path class="cls-20" d="M1702.02,343.6c9.24,12.11,14.78,35.29-.54,44.96-3.46,1.62-4.85,.89-4.54-2.81,1.23-13.88,3-27.76,3.77-41.71,.46-.15,.92-.3,1.31-.44Z"/><path class="cls-18" d="M1692.4,320.41c-8-5.98-15.08-11.66-15.39-22-1.62-7.75,9.85-10.93,14.16-4.58,3.62,4.06,4.77,20.97,1.23,26.58Z"/><path class="cls-7" d="M1276.03,367.37c3.08,9.01,5.08,16.98,4.54,25.32,.15,6.5-8.08,4.21-12.62,5.39-17.62,1.18,5.08-23.55,8.08-30.71Z"/><path class="cls-13" d="M1478.44,159.25c-5.93-2.51-19.93-3.1-20.78-9.01-.38-4.28-1.77-10.26,3.31-12.48,20.47-3.47,15.7,6.87,17.47,21.48Z"/><path class="cls-7" d="M1325.44,334.37c-7.08,5.83-13.16,10.78-19.55,16.09-4.46-9.6-2.39-19.79-4.08-29.53,.38-.3,.77-.66,1.15-.96,7.23,4.72,14.55,9.38,22.47,14.4Z"/><path class="cls-7" d="M1551.1,374.01c-1.54-14.03-.08-27.32,1.15-40.61,.38-.15,.77-.3,1.15-.44,5.7,8.93,6.54,20.01,9.85,29.9,.69,5.32-6.77,9.82-12.16,11.15Z"/><path class="cls-7" d="M1448.58,260.47c-4.85-.44-10.24,1.33-14.47-1.48,2-3.84,6.54-5.09,9.85-7.6,5.08-2.14,12.47-12.99,17.16-5.68,6.39,14.32,1.77,16.02-12.55,15.28v-.52Z"/><path class="cls-7" d="M1494.3,364.27c1.62,12.7-12.55,11.07-20.32,7.46-10.24-4.58,6.46-12.92,11.54-13.88,8.39-1.99,8.54-1.77,8.77,6.42Z"/><path class="cls-13" d="M1308.51,242.97c8.31-9.89,20.86-11.89,29.09-19.93,9.16,16.32-16.62,22.96-29.09,19.93Z"/><path class="cls-7" d="M1259.4,381.54c-1.15-7.6-2.31-15.21-3.62-23.7,5.93,.52,11.31,.96,18.09,1.55-4.62,8.05-8.77,15.21-12.93,22.37-.54-.15-1-.15-1.54-.22Z"/><path class="cls-13" d="M1425.03,207.75c-9,.52-11.62-13.58-.54-12.85,11.31-.74,11.31,12.85,.54,12.85Z"/><path class="cls-14" d="M1533.32,327.87c4.16-2.51,8.39-5.02,12.62-7.53,.38,.15,.69,.22,1.08,.37-.85,6.57-1.69,13.07-2.54,19.64-.31,.15-.62,.3-.92,.37-3.23-4.06-6.54-8.19-10.24-12.85Z"/><path class="cls-7" d="M1532.16,255.67c-1.69,5.24-3.46,10.48-5.54,16.91-3-3.47-5.16-5.98-8.08-9.3,4-2.88,7.93-5.76,11.85-8.64,.54,.3,1.15,.66,1.77,1.03Z"/><path class="cls-7" d="M1453.81,343.45c6.39-1.92,12.08,3.99,9.24,13.88-4.54-3.84-7.31-8.42-9.24-13.88Z"/><path class="cls-7" d="M1362.92,373.5c6.16,.81,11.47,1.48,17.86,2.29-5.85,5.76-14.93,6.13-17.86-2.29Z"/><path class="cls-15" d="M1565.03,379.18c-2.39-1.48-4.69-2.21-5.7-3.69-.85-1.33,3.39-3.91,6.08-3.84,6.46,1.03,4.46,5.02-.38,7.53Z"/><path class="cls-13" d="M1502.07,129.05c1.39,1.18,4.16,2.58,3.93,3.4-.54,2.58-2.15,4.95-3.39,7.38-.54-.15-1-.37-1.54-.52v-9.67c.38-.15,.69-.37,1-.59Z"/><path class="cls-7" d="M1323.21,263.86c-3.23-1.77-11.16-6.57-13.85-7.53,6.39-2.58,14.08,1.4,13.85,7.53Z"/><path class="cls-19" d="M1540.78,175.12c-.62-.22-1.23-.44-1.85-.74,0-.66,.08-1.26,.08-1.92,.31-.07,.54-.15,.85-.22,.31,.96,.62,1.92,.92,2.88Z"/><path class="cls-19" d="M1543.94,189.89c-.31-1.4-.69-2.73-1-4.13,.31,1.4,.62,2.73,1,4.13Z"/><path class="cls-19" d="M1545.48,195.13c-.38-1.18-.69-2.36-1.08-3.54,.38,1.18,.77,2.36,1.08,3.54Z"/><path class="cls-19" d="M1530.62,214.47c-.46,1.18-.85,2.29-1.31,3.47,.46-1.18,.85-2.29,1.31-3.47Z"/><path class="cls-19" d="M1523.16,231.16c.08,1.03,.23,1.99,.31,3.03-2.16-.59-2.16-.89-.31-3.03Z"/><path class="cls-19" d="M1536.78,187.3c-.15,.89-.31,1.77-.46,2.66,.15-.96,.31-1.77,.46-2.66Z"/><path class="cls-19" d="M1537.55,182.73c-.15,.66-.23,1.4-.38,2.07,.15-.66,.31-1.4,.38-2.07Z"/><path class="cls-19" d="M1542.48,183.32c-.15-.66-.23-1.4-.38-2.07,.15,.66,.23,1.4,.38,2.07Z"/><path class="cls-19" d="M1538.32,177.48c-.08,.66-.15,1.26-.23,1.92,.08-.66,.15-1.26,.23-1.92Z"/><path class="cls-19" d="M1551.1,208.27c-.23-.52-.54-1.03-.77-1.55,.23,.59,.54,1.03,.77,1.55Z"/><path class="cls-19" d="M1532.93,206.42c-.15,.44-.23,.81-.38,1.26,.15-.44,.23-.81,.38-1.26Z"/><path class="cls-19" d="M1536.01,191.58c-.08,.44-.15,.81-.23,1.26,.15-.37,.15-.81,.23-1.26Z"/><path class="cls-19" d="M1534.47,199.71c-.08,.44-.23,.89-.31,1.33,.15-.44,.23-.89,.31-1.33Z"/><path class="cls-19" d="M1526.93,223.85c-.23,.52-.46,.96-.69,1.48,.23-.52,.46-1.03,.69-1.48Z"/><path class="cls-19" d="M1533.7,203.4c-.15,.44-.23,.89-.38,1.33,.15-.44,.23-.89,.38-1.33Z"/><path class="cls-19" d="M1531.47,211.52c-.08,.44-.23,.81-.31,1.26,.08-.44,.15-.89,.31-1.26Z"/><path class="cls-19" d="M1556.41,217.2l-.31-.15c0-.37-.08-.37,.31-.22v.37Z"/><path class="cls-19" d="M1535.17,196.01l.23,.22c-.15,.07-.31,.15-.38-.07l.15-.15Z"/><path class="cls-19" d="M1528.47,220.08c-.08,.15-.15,.37-.23,.52l-.08-.37,.31-.15Z"/><path class="cls-19" d="M1524.47,229.02l.08,.22q-.23,.15-.31-.15l.23-.07Z"/><path class="cls-19" d="M1548.48,202.81l-.23-.15q.08-.3,.38-.07l-.15,.22Z"/></g></svg>