<?xml version="1.0" encoding="UTF-8"?><svg id="Layer_1" xmlns="http://www.w3.org/2000/svg" viewBox="0 0 422.87 140.56"><defs><style>.cls-1{fill:#fff;}.cls-2{fill:#dd7360;}.cls-3{fill:#916bad;}.cls-4{fill:#f2f2f2;}</style></defs><g><path class="cls-2" d="M21.43,4.76c90.21,9.43,186.62,3.58,278.78,8.19,153.24-18.05,125.82,56.19,91.02,121.68-126.53-1.51-251.67,6.8-378.46-5.64C-1.11,125.23,4.2-.47,21.43,4.76"/><path class="cls-4" d="M21.43,9.36c48.62,5.02,97.54,5.7,146.37,5.95,24.73,.13,49.46,.13,74.19,.49,12.44,.18,24.88,.45,37.32,.88,5.7,.2,11.41,.42,17.11,.69s11.75-.73,17.63-1.24c17.31-1.5,34.99-2.2,52.27,.05,11.08,1.44,22.55,4.17,32,10.36,13.95,9.13,17.08,25.08,14.64,40.68-3.61,23.05-14.9,44.7-25.71,65.08l3.98-2.28c-94.87-1.1-189.76,3.28-284.62,.24-23.72-.76-47.42-1.99-71.08-3.87-5.61-.45-11.22-.93-16.82-1.45-.9-.08-2.95-.55-3.96-.38-3.22,.56,.61-.2-.4,.11,.36-.11,.14,.19,.01-.05-.64-1.16-1.59-3.62-2.24-6.4-4.59-19.82-3.14-41.95-1.61-62.04,.87-11.41,2.13-22.91,4.9-34.04,.91-3.65,1.98-7.6,3.63-10.55,1.03-1.84,.82-1.26,1.92-2.61-.13,.15-.67,.25-.77,.22,5.74,1.52,8.19-7.37,2.45-8.89-7.2-1.91-11.3,5.34-13.5,10.93-3.55,9.03-4.94,18.95-6.18,28.52C-.04,63.05-1.22,87.43,1.62,110.79c.78,6.44,1.45,15.39,6.25,20.36,1,1.04,2.19,1.81,3.57,2.25,5.45,1.7,12.47,1.25,18.16,1.73,12.83,1.08,25.68,1.97,38.54,2.68,50.5,2.81,101.1,3.03,151.66,2.58,57.14-.5,114.28-1.81,171.43-1.15,1.57,.02,3.23-.88,3.98-2.28,10.3-19.4,20.65-39.68,25.48-61.26,3.91-17.43,3.54-36.87-9.57-50.48-17.8-18.48-48.57-19.92-72.44-19.6-10.5,.14-20.99,.88-31.43,1.95-12.41,1.27-25.02-.04-37.49-.39-25.62-.73-51.26-.87-76.9-.97-57.18-.23-114.5-.17-171.45-6.05-5.89-.61-5.85,8.61,0,9.22h0Z"/></g><g><path class="cls-3" d="M28.61,113.06c-3.72-27.41-7.49-63.75,14.52-83.48,10.78-7.46,24.87-6.53,36.28-.75,6.16,12.26,9.14,26.62,10.65,40.37,1.24,14.34-1.84,28.53-2.11,42.66-5.27,2.78-15.42,5.25-21.5,1.6-2.65-5.26,.49-13.52-1.74-19.78-.61-8.62-8.89-9.27-11.57-1.77-1.42,24.03-3.48,19.05-24.53,21.15"/><path class="cls-1" d="M31.58,112.24c-1.95-14.47-3.59-29.2-2.28-43.81,1.18-13.12,5.64-30.92,18.15-37.9,7.64-4.26,17.17-3.94,25.25-1.22,5.65,1.9,6.59,6.2,8.38,11.52,1.31,3.89,2.37,7.86,3.25,11.87,2.05,9.29,3.23,18.68,2.86,28.2-.41,10.35-2.01,20.61-2.3,30.96l1.52-2.65c-3.71,1.84-12.98,5.28-16.83,2.33-2.89-2.21-.65-12.07-1.24-15.89-.62-4.05-1.51-8.92-5.48-11.06-3.29-1.77-7.19-.85-9.77,1.71-3.59,3.56-3.05,8.12-3.55,12.77-.26,2.44-.35,6.44-2.16,8.38-1.42,1.53-3.92,1.54-5.85,1.69-4.3,.32-8.61,.43-12.9,.84-3.9,.37-3.94,6.52,0,6.15,6.29-.6,14.99,.61,20.75-2.53s5.99-10.64,6.48-16.27c.19-2.21-.3-5.89,2.1-7.14,2.92-1.51,3.41,2.27,3.81,4.3,1.19,6.09-.63,12.67,1.26,18.61,3.04,9.54,20.42,4.43,26.5,1.41,.97-.48,1.49-1.62,1.52-2.65,.26-9.39,1.58-18.68,2.15-28.05,.51-8.43-.08-16.63-1.44-24.95s-3.39-16.67-6.54-24.56c-1.04-2.62-1.97-6.34-4.24-8.13-2.46-1.94-6.73-2.93-9.7-3.68-13.76-3.48-27.63,.02-36.32,11.5-7.66,10.11-10.82,22.69-11.85,35.15-1.24,14.94,.56,29.94,2.55,44.74,.53,3.9,6.45,2.24,5.93-1.63h0Z"/></g><path class="cls-1" d="M49.35,62.24c.56-2.56,.43-5.6,1.19-8.07,.61-1.98,2.6-3.68,4.13-5.02,1.86-1.63,5.49-2.99,7.84-1.72,3.27,1.78,5.31,8.45,6.53,11.64,.12,.3,.73,2.56,.98,2.62,.27,.06,.27-1.72,.26-1.72-.14-.12-2.4,.39-2.71,.42-2.52,.22-5.08,.12-7.6,0-4.37-.2-8.79-.53-13.12-1.18-3.87-.58-5.54,5.34-1.63,5.93,6.77,1.01,13.77,1.71,20.61,1.48,2.75-.09,6.61-.08,8.79-2.09,2.87-2.64,.75-6.14-.44-9.12-1.93-4.81-4.26-10.16-8.6-13.3-3.08-2.23-8.55-1.31-11.9,.12-3.11,1.32-6.42,4.94-8.11,7.85s-1.42,7.24-2.14,10.53c-.84,3.86,5.09,5.5,5.93,1.63h0Z"/><g><path class="cls-3" d="M106.88,29.2c5.25,26.92,1.73,54.96,4.22,81.96,1.24,4.45,9.16-.16,12.86,1.17,13.22-.79,27.76,2.39,37.48-9.98,6.55-5.54,5.35-10.76,3.89-17.23-1.21-5.36-4.59-9.79-9.17-11.97-5.69-2.71-11.97-5.04-17.75-5.32,9.06-2.07,32.79-10.7,27.22-25.03-5.47-12.14-10.29-15.5-22.46-16.25-12.23-1.43-23.99,5.81-36.29,3.02"/><path class="cls-1" d="M103.92,30.02c3.25,17.36,3.01,35.02,3.07,52.6,.03,8.58,.14,17.16,.8,25.72,.39,5.1,2.15,8.19,7.73,7.81,2.41-.16,4.71-.9,7.13-.92,2.95-.03,5.96,.03,8.94,.02,5.96,0,12.07,.07,17.87-1.51,10.36-2.81,21.38-12.67,19.86-24.16-.89-6.74-3.21-13.31-8.91-17.44-6.07-4.39-14.61-6.8-21.98-7.38l.82,6.04c13.45-3.18,36.73-13.34,28.43-30.9-4.11-8.7-9.99-14.5-19.73-15.92-5.77-.84-11.39-.73-17.13,.29-7.69,1.37-15.22,3.86-23.1,2.36-3.86-.74-5.52,5.18-1.63,5.93,11.18,2.13,21.12-2.57,32.13-3.06,8.57-.38,16.88,1.11,21.64,8.8,2.06,3.33,4.45,7.25,3.13,11.27-1.04,3.15-3.93,5.59-6.56,7.41-5.59,3.86-12.23,6.35-18.81,7.91-3.55,.84-2.48,5.77,.82,6.04,7.23,.57,17.53,3.4,21.75,9.76,1.78,2.68,2.6,6.1,3.04,9.28,.63,4.63-.84,6.87-3.93,10.24-4.88,5.32-10.06,7.96-17.29,8.65-5.94,.56-12.09,.42-18.06,.34-2.23-.03-4.2,.13-6.43,.47-1.52,.23-2.49,.9-3.48-.37-.5-.64-.34-4.85-.39-5.68-.46-8.26-.48-16.54-.5-24.82-.03-16.88-.16-33.75-3.28-50.4-.73-3.88-6.65-2.24-5.93,1.63h0Z"/></g><path class="cls-1" d="M124,41.73c1.45,4.74-1.41,12.98,3.92,15.99,2.18,1.23,5.29,.43,7.64,.09,3.2-.47,6.31-1.44,9.25-2.78,4.71-2.15,10.56-6.81,7.29-12.58-2.16-3.81-5.64-4.88-9.73-5.17-5.18-.36-10.27-.03-15.42,.55-3.88,.44-3.93,6.59,0,6.15,3.4-.39,6.8-.73,10.22-.75,2.42,0,7.55-.69,9.14,1.66,1.79,2.66-4.37,4.8-6.31,5.48-1.82,.64-3.74,1.21-5.66,1.44-.72,.09-1.47,0-2.18,.08-1.68,.22-1.24,.19-1.05,.49-.91-1.5-.49-4.32-.53-5.97-.05-2.11-.06-4.29-.68-6.33-1.15-3.77-7.08-2.16-5.93,1.63h0Z"/><path class="cls-1" d="M124,82.71c1.01,5.8-.97,11.74,1.1,17.42,.46,1.28,1.54,2.27,2.96,2.26,6.75-.06,14.24,.28,19.03-5.36,3.38-3.98,5.34-9.17,1.2-13.24-3.83-3.77-22.01-11.75-24.3-2.7-.97,3.84,4.96,5.47,5.93,1.63-.33,1.3-1.05,.28-.44,.72,.21,.15,1.34-.04,1.59-.04,1.49,.04,2.98,.37,4.41,.75,2.71,.71,5.87,1.73,8.03,3.6,.33,.29,1.21,1.38,1.19,1.3,.19,.8-2.2,4.13-3.32,5.04-3.53,2.86-9.12,2.12-13.33,2.16l2.96,2.26c-1.99-5.45-.11-11.73-1.1-17.42-.67-3.89-6.6-2.24-5.93,1.63h0Z"/><g><path class="cls-3" d="M225.04,26.31c-16.33-3.55-35.3,.06-38.04,19.09-4.95,16.62-7.39,43.43,5.43,58.85,4.25,4.83,10.42,10.17,17.58,10.19,10.9-2.4,26.89-9.29,29.95-20.76,4.59-22.02-3.43-64.74-14.92-67.37"/><path class="cls-1" d="M225.85,23.35c-15.31-3.15-34.62-.74-40.57,16.1-6.06,17.13-8.24,39.33-1.28,56.44,3.51,8.63,10.38,16.98,19.31,20.34,8.23,3.09,17.78-1.35,25-5.43,7.61-4.3,13.81-10.47,15.15-19.37,1.26-8.35,1.07-16.9,.2-25.27-.98-9.55-2.69-19.25-6.17-28.23-2.16-5.57-5.32-12.78-11.64-14.56-3.81-1.08-5.44,4.85-1.63,5.93s6.05,6.94,7.35,10.27c2.46,6.3,3.96,13,5.03,19.66,1.15,7.13,1.71,14.39,1.57,21.62s-.44,14.04-5.7,19.33c-5.29,5.31-12.77,8.48-19.88,10.47-8.92,2.5-17.34-6.24-21.24-13.45-7.62-14.09-6.17-32.5-2.34-47.5,1.99-7.81,3.6-14.81,11.43-18.71,7.26-3.61,16.05-3.28,23.78-1.68,3.86,.8,5.51-5.13,1.63-5.93h0Z"/></g><path class="cls-1" d="M210.97,43.36c-9.32,3.5-13.06,14.59-13.13,23.81-.06,7.21,3.86,20.72,13.65,19.26,8.12-1.21,8.06-14.34,7.94-20.29s-.01-18.88-6.09-22.47c-3.41-2.01-6.51,3.3-3.1,5.31,2.39,1.41,2.75,11.35,2.93,14.22,.21,3.46,.26,7.02-.2,10.47-.18,1.37-.55,5.76-2.07,6.5-1.79,.86-4.24-2.4-4.99-3.75-1.62-2.92-2-6.46-1.91-9.74,.16-5.96,2.29-15.01,8.61-17.39,3.67-1.38,2.08-7.32-1.63-5.93h0Z"/><g><path class="cls-3" d="M257.87,43.82c2.55,20.15-.48,35.58,6.25,55.14,5.24,12.24,22.63,28.67,33.25,14.63,12.85-12.34,17.57-31.85,19.34-50.08-.39-5.27,1.75-10.39-.29-15.41-1.65-5.61-.8-14.04-6.01-17.19-7.65-1.36-12.7,7.9-10.71,15.52,1.27,11.51-2.03,22.44-2.82,33.68-.65,3.95-3.84,6.04-5.88,9.03-14.13,2.1-11.18-17.89-12.66-27.95-.31-5.5-4.59-20.26-6.32-22.16-1.64-3.67-5.06-7.28-8.87-7.65-4.45,1.15-5.72,6.18-5.29,12.43"/><path class="cls-1" d="M254.8,43.82c1.3,10.89,1.02,21.84,1.85,32.75,.72,9.44,2.02,19.89,6.99,28.13,6.93,11.48,22.88,24.54,35.01,12.16,13.4-13.68,18.67-31.67,20.82-50.3,.55-4.8,1.28-10.28,.85-15.1-.38-4.25-1.66-8.83-2.47-13.05-1.33-6.88-5.77-13.13-13.42-9.71-3.51,1.57-5.99,4.87-7.23,8.44-1.55,4.47-.48,8.54-.29,13.11,.31,7.25-1.16,14.45-2.15,21.59-.41,2.97-.21,6.63-1.42,9.38-1.02,2.31-3.46,4.35-4.97,6.38l2.65-1.52c-8.95,.99-8.68-9.8-8.99-16.24-.35-7.31-1.18-14.24-3.17-21.31-1.95-6.91-4.55-15.35-11.38-18.96-9.64-5.1-13,7.19-12.67,14.25,.18,3.94,6.33,3.96,6.15,0-.11-2.27-.63-7.19,1.62-8.71,2.82-1.89,5.83,3.7,6.81,5.48,1.75,3.16,2.75,6.67,3.71,10.16,2.11,7.63,2.42,14.98,3,22.81,.47,6.28,1.4,14.47,7.75,17.66,2.6,1.31,6.89,1.91,9.34,.1,3.96-2.91,6.45-8.42,6.93-13.08,.68-6.53,1.95-12.99,2.58-19.53,.34-3.44,.5-6.91,.26-10.37-.21-2.9-.99-5.54-.2-8.42,.61-2.25,2.37-5.65,5.07-5.95s3.3,2.51,3.83,4.79c1.3,5.5,2.83,12.27,2.38,17.81-.97,11.88-2.14,23.52-6.31,34.82-2.06,5.57-4.83,11-8.53,15.66-3.25,4.1-7.28,9.64-13.18,8.75-12.03-1.81-19.15-16.15-21.43-26.55-3.27-14.89-1.85-30.35-3.64-45.43-.46-3.88-6.61-3.93-6.15,0h0Z"/></g><g><path class="cls-3" d="M328.9,34.89c-.64,7.59-3.84,16.38,2.82,21.88,1.33,1.5,3.24,2.6,4.91,1.1,4.03-1.47,8.16-.58,12.08,.52,1.7,1.29,.55,3.93,1.41,5.78,1.32,11.11,2.49,22.3,2.38,33.51,.11,7.42-1.26,16.91,4.74,22.08,4.07,1.02,8.26,.03,11.19-3.29,2.45-2.58,6.04-4.53,7.29-8.17-2.24-15.35-3.85-31.1-2.44-46.69-.67-5.11,5.16-1.17,7.45-.87,5.25,.5,10.52,1.31,15.72,1.91,3.53-2.96,.06-9.62,1.15-13.95,1.82-14.56-10.66-13.88-20.22-12.36-15.84,1.15-31.61-2.77-47.43-2.22"/><path class="cls-1" d="M325.83,34.89c-.9,8.86-3.6,18.81,4.81,25.07,1.4,1.04,2.92,1.76,4.71,1.66,3.09-.19,6.8-3.04,10-.91s2.82,13.23,3.18,17.23c.61,6.8,.93,13.59,.91,20.42-.02,4.69-.35,9.46,.57,14.09,.69,3.5,2.58,8.47,6.06,10.13s8.72,.4,11.8-1.57c3.23-2.06,7.57-5.99,9.57-9.27,2.91-4.76,.18-11.74-.37-16.94-.73-6.8-1.21-13.63-1.23-20.48,0-3.26,.08-6.51,.3-9.76l.07-.98c.75-1.99,.38-2.48-1.11-1.45,.9,.1,1.76,.6,2.61,.88,4.97,1.63,10.64,1.72,15.83,2.37,4.66,.58,7.14-1.2,7.58-6.11,.19-2.14-.34-4.2-.49-6.32s.18-4.2,.23-6.37c.08-3.58-.73-7.28-3.27-9.94-5.78-6.05-14.79-3.66-22.08-3.25-15.21,.86-30.31-2.7-45.53-2.33-3.95,.09-3.96,6.24,0,6.15,11.45-.28,22.74,1.53,34.14,2.2,4.86,.28,9.77,.4,14.61-.17,3.29-.38,6.71-.94,10.01-.36,8.23,1.46,5.46,10.51,6.07,16.67,.3,3.01,.87,3.66-2.25,3.56-2.61-.09-5.27-.68-7.87-1-3.18-.39-6.75-2.3-9.92-2.13-2.4,.13-3.83,1.5-4.48,3.74-1.32,4.58-.64,10.82-.6,15.58,.05,5.86,.44,11.72,1.02,17.56,.26,2.59,.56,5.17,.89,7.76,.26,2.05,1.49,5.5,.9,7.45-.85,2.82-7.5,7.99-10.05,8.71-6.31,1.79-6.81-6.35-6.92-10.73-.27-10.4-.11-20.66-1.14-31.05-.5-5.05-.45-11.02-1.87-15.91-1.24-4.27-5.93-4.66-9.81-4.95-2.59-.19-4.86,.98-7.26,.95-2.53-.03-4.12-3.37-4.57-5.58-.95-4.73,.61-9.87,1.09-14.6,.4-3.93-5.75-3.9-6.15,0h0Z"/></g></svg>