<?xml version="1.0" encoding="UTF-8"?>
<svg id="Layer_2" data-name="Layer 2" xmlns="http://www.w3.org/2000/svg" viewBox="0 0 4162.13 947.18">
  <defs>
    <style>
      .cls-1 {
        fill: #13aeb7;
      }

      .cls-2 {
        fill: #b6d8f1;
      }

      .cls-3 {
        fill: #f59986;
      }

      .cls-4 {
        fill: #14aeb7;
      }
    </style>
  </defs>
  <g>
    <polygon class="cls-4" points="0 144.05 0 431.58 92.37 431.58 193.72 294.09 94.17 144.05 0 144.05"/>
    <polygon class="cls-4" points="95.27 144.05 193.72 294.09 225.61 250.44 225.61 250.44 303.35 144.05 95.27 144.05"/>
    <polygon class="cls-4" points="506.31 266.9 412.7 144.05 303.35 144.05 225.61 250.44 353.19 311.99 353.19 311.99 508.52 386.88 558.51 335.52 506.31 266.9"/>
    <polyline class="cls-4" points="193.72 294.09 93.48 431.58 265.51 431.58 353.19 311.99 225.61 250.44 193.72 294.09"/>
    <path class="cls-4" d="M472.9,423.61l35.76-36.73-155.33-74.89-87.81,119.59h194.41c3.45-3.79,8.01-6.53,12.98-7.97Z"/>
    <path class="cls-4" d="M488.92,420.08c43.08-2.35,86.16-5.62,129.37-6.01l-59.92-78.68-49.84,51.49-35.76,36.73c1.79-.52,3.73-.91,5.52-1.05,3.45-1.44,7.04-2.22,10.63-2.48h0Z"/>
    <polygon class="cls-4" points="619.12 273.18 680.56 209.79 638.31 166.01 506.31 266.9 558.51 335.52 619.12 273.18"/>
    <polygon class="cls-4" points="617.19 144.05 412.7 144.05 506.31 266.9 638.31 166.01 617.19 144.05"/>
    <polygon class="cls-4" points="744.49 144.05 617.19 144.05 638.31 166.01 638.31 166.01 680.56 209.79 744.49 144.05"/>
    <path class="cls-4" d="M740.49,430.53c1.1,.26,2.21,.52,3.31,.91h2.21l-126.89-158.4-60.61,62.34,52.74,69.27c43.91,4.18,86.02,16.86,129.24,25.88h0Z"/>
    <polygon class="cls-4" points="796.27 329.77 680.56 209.79 619.12 273.18 746.01 431.58 894.44 431.58 796.27 329.77"/>
    <polygon class="cls-4" points="894.44 431.58 945.66 431.58 1019.25 253.31 796.27 329.77 894.44 431.58"/>
    <path class="cls-4" d="M910.87,164.7c-2.35-.39-25.13-16.08-24.3-20.65h-142.22l-63.93,65.74,115.71,119.98,222.99-76.46,33-79.59c-4.28,1.05-139.59-8.76-141.25-9.02Z"/>
    <polygon class="cls-4" points="1196.13 315.39 1362.23 335.39 1271.1 259.58 1196.13 315.39"/>
    <polygon class="cls-4" points="1362.23 335.39 1196.13 315.39 1039.97 431.58 1369.41 431.58 1446.45 405.31 1362.23 335.39"/>
    <polygon class="cls-4" points="1446.45 405.31 1369.41 431.58 1478.07 431.58 1446.45 405.31"/>
    <polygon class="cls-4" points="1375.9 181.56 1271.1 259.58 1362.23 335.39 1362.23 335.39 1446.45 405.31 1572.93 362.31 1627.19 277.23 1375.9 181.56"/>
    <polygon class="cls-4" points="1426.43 144.05 1375.9 181.56 1627.19 277.23 1712.11 144.05 1426.43 144.05"/>
    <polygon class="cls-4" points="1446.45 405.31 1478.07 431.58 1528.74 431.58 1572.93 362.31 1446.45 405.31"/>
    <polygon class="cls-4" points="1750.35 302.06 1866.33 262.59 1804.34 144.05 1712.11 144.05 1627.19 277.23 1627.19 277.23 1572.93 362.31 1750.35 302.06"/>
    <polygon class="cls-4" points="1567.54 362.31 1523.5 431.58 1628.85 431.58 1744.97 302.06 1567.54 362.31"/>
    <polygon class="cls-4" points="1866.33 262.59 1714.08 297.32 1611.81 424.55 1775.9 431.58 1897.68 322.19 1866.33 262.59"/>
    <polygon class="cls-4" points="1897.68 322.19 1775.9 431.58 1954.98 431.58 1897.68 322.19"/>
    <polygon class="cls-4" points="2214.97 144.05 2123.15 175.29 2238.85 252 2348.35 144.05 2214.97 144.05"/>
    <polygon class="cls-4" points="1866.33 262.59 1897.68 322.19 1897.68 322.19 1954.98 431.58 2057.01 431.58 2110.72 378.52 2071.92 192.67 1866.33 262.59"/>
    <polygon class="cls-4" points="2123.15 175.29 2071.92 192.67 2110.72 378.52 2238.85 252 2123.15 175.29"/>
    <polygon class="cls-4" points="2426.36 144.05 2348.35 144.05 2238.85 252 2498.15 424.13 2426.36 144.05"/>
    <polygon class="cls-4" points="2057.01 431.58 2121.77 431.58 2110.72 378.52 2057.01 431.58"/>
    <polygon class="cls-4" points="2498.15 424.13 2238.85 252 2110.72 378.52 2121.77 431.58 2500.09 431.58 2498.15 424.13"/>
    <polygon class="cls-4" points="2500.09 431.58 2509.34 431.58 2498.15 424.13 2500.09 431.58"/>
    <polygon class="cls-4" points="2605.99 311.99 2462.67 144.05 2426.36 144.05 2498.15 424.13 2509.34 431.58 2707.89 431.58 2605.99 311.99"/>
    <polygon class="cls-4" points="2883.65 144.05 2708.58 144.05 2868.88 205.61 2883.65 144.05"/>
    <polygon class="cls-4" points="2601.02 311.99 2703.06 431.58 2809.92 431.58 2854.25 246.38 2601.02 311.99"/>
    <polygon class="cls-4" points="2868.88 205.61 2708.58 144.05 2462.67 144.05 2605.99 311.99 2859.08 246.38 2868.88 205.61"/>
    <polygon class="cls-4" points="3318.58 431.58 3457.76 431.58 3369.67 397.73 3318.58 431.58"/>
    <polygon class="cls-4" points="3964.49 144.05 3853.89 144.05 3902.22 215.15 3964.49 144.05"/>
    <polygon class="cls-4" points="3853.89 144.05 3752.96 144.05 3656.17 208.09 3784.72 349.63 3902.22 215.15 3853.89 144.05"/>
    <polygon class="cls-4" points="3570.71 264.68 3767.05 369.63 3784.72 349.63 3656.17 208.09 3570.71 264.68"/>
    <polygon class="cls-4" points="3369.67 397.73 3457.76 431.58 3712.92 431.58 3742.19 398.12 3405.98 373.68 3369.67 397.73"/>
    <polygon class="cls-4" points="3570.71 264.68 3405.98 373.68 3742.19 398.12 3767.05 369.63 3570.71 264.68"/>
    <polygon class="cls-4" points="3902.22 215.15 3784.72 349.63 3784.72 349.63 3767.05 369.63 3836.77 406.88 3964.08 306.11 3902.22 215.15"/>
    <polygon class="cls-4" points="3991.28 346.24 3991.28 346.24 3964.08 306.11 3836.77 406.88 3883.03 431.58 4049.41 431.58 3991.28 346.24"/>
    <polygon class="cls-4" points="3836.77 406.88 3767.05 369.63 3742.19 398.12 3742.19 398.12 3712.92 431.58 3883.03 431.58 3836.77 406.88"/>
    <polygon class="cls-4" points="3964.49 144.05 3902.22 215.15 3964.08 306.11 3964.08 306.11 3991.28 346.24 4029.66 144.05 3964.49 144.05"/>
    <polygon class="cls-4" points="4030.9 144.05 3991.28 346.24 4051.06 431.58 4150.61 431.58 4150.61 144.05 4030.9 144.05"/>
    <polygon class="cls-4" points="3248.03 431.58 3318.58 431.58 3369.67 397.73 3290.97 367.54 3248.03 431.58"/>
    <polygon class="cls-4" points="3133.01 431.58 3248.03 431.58 3290.97 367.54 3019.24 263.24 3133.01 431.58"/>
    <polygon class="cls-4" points="3344.82 144.05 3415.51 181.82 3440.78 144.05 3344.82 144.05"/>
    <polygon class="cls-4" points="3656.17 208.09 3752.96 144.05 3440.78 144.05 3415.51 181.82 3570.71 264.68 3656.17 208.09"/>
    <polygon class="cls-4" points="2938.61 144.05 3019.24 263.24 3290.97 367.54 3346.2 285.2 3161.73 144.05 2938.61 144.05"/>
    <polygon class="cls-4" points="3344.82 144.05 3161.73 144.05 3346.2 285.2 3415.51 181.82 3344.82 144.05"/>
    <polygon class="cls-4" points="3405.98 373.68 3570.71 264.68 3415.51 181.82 3346.2 285.2 3346.2 285.2 3290.97 367.54 3369.67 397.73 3405.98 373.68"/>
    <polygon class="cls-4" points="2868.88 205.61 2820.22 246.38 2796.12 277.23 2783.73 431.58 3133.01 431.58 3019.24 263.24 2868.88 205.61"/>
    <polygon class="cls-4" points="2938.61 144.05 2883.65 144.05 2868.88 205.61 3019.24 263.24 2938.61 144.05"/>
    <polygon class="cls-4" points="2214.97 144.05 2076.07 144.05 2123.15 175.29 2214.97 144.05"/>
    <polygon class="cls-4" points="2071.92 192.67 2123.15 175.29 2076.07 144.05 1804.34 144.05 1866.33 262.59 2071.92 192.67"/>
    <path class="cls-4" d="M1131.78,144.05h-46.39c3.18,5.1,3.31,12.29-1.93,16.08-9.39,6.93-20.16,10.85-31.48,13.59l-32.86,79.59-73.59,178.27h94.3l156.3-116.19,74.97-55.68-139.32-115.67Z"/>
    <polygon class="cls-4" points="1375.9 181.56 1426.43 144.05 1131.78 144.05 1271.1 259.58 1375.9 181.56"/>
  </g>
  <path class="cls-4" d="M4146.06,121.7s-140.14,26.53-229.2,22.35c-89.06-4.18-173.42-21.83-330.13-22.35-156.71-.52-210.84,20.52-415.05,17.77-204.21-2.74-216.5-17.25-338.69-17.91s-307.21,25.49-414.36,22.48c-106.87-2.88-207.66-18.69-300.58-22.61-92.92-3.92-307.9,22.48-441.97,19.47-134.07-3.01-213.18-17.12-327.65-19.47s-272.97,26.14-351.12,27.84c-78.29,1.57-263.44-35.03-381.77-39.73s-234.72,28.62-361.48,31.76C127.3,144.44,3.87,121.31,3.87,121.31l.28,28.49s123.16,23.26,249.91,20,241.35-30.45,359.68-25.75c118.33,4.71,305.28,35.16,383.57,33.59s236.66-30.06,351.12-27.71c114.46,2.35,193.44,24.7,327.65,27.84,134.21,3.14,349.19-31.76,441.97-27.84,92.78,3.92,193.72,25.09,300.72,27.97,107.01,2.88,292.16-28.62,414.36-27.97,122.19,.65,133.65,25.35,337.73,28.1,204.21,2.74,259.16-28.62,415.88-28.1,156.71,.52,240.66,24.44,329.72,28.62,89.06,4.18,229.62-28.36,229.62-28.36v-28.49Z"/>
  <path class="cls-4" d="M4146.06,402.17s-140.14,26.53-229.2,22.35c-89.06-4.18-173.42-21.83-330.13-22.35-156.71-.52-210.84,20.52-415.05,17.77-204.21-2.74-216.5-17.25-338.69-17.91s-307.21,25.49-414.36,22.48c-107.14-2.88-207.8-18.69-300.72-22.61-92.92-3.92-307.9,22.48-441.97,19.47-134.07-3.01-213.18-17.12-327.65-19.47-114.46-2.35-272.83,26.14-351.12,27.84-78.29,1.57-263.31-35.03-381.63-39.73s-234.72,28.62-361.48,31.76c-126.75,3.14-250.19-20-250.19-20l.28,28.49s123.16,23.26,249.91,20c126.75-3.27,241.35-30.45,359.68-25.75,118.33,4.71,305.28,35.29,383.57,33.72,78.29-1.57,236.66-30.19,351.12-27.84,114.46,2.35,193.44,24.7,327.65,27.84,134.21,3.14,349.19-31.76,441.97-27.84s193.58,25.09,300.72,27.97c107.14,2.88,292.16-28.62,414.36-27.97,122.19,.65,133.65,25.35,337.73,28.1,204.21,2.74,259.16-28.62,415.88-27.97s240.66,24.44,329.72,28.62c89.06,4.18,229.62-28.49,229.62-28.49v-28.49h0Z"/>
  <path class="cls-2" d="M2154.93,3.46c55.2,8.3,103.62,31.61,145.2,68.66,28.83,25.69,51.61,56.1,68.08,91.22,15.28,32.57,24.05,66.79,26.48,102.54,1.58,23.39,.29,46.83-4.06,69.93-9.88,52.5-32.67,98.81-68.23,138.62-24.15,27.03-52.55,48.88-85.18,64.77-41.99,20.45-86.3,30.76-133.25,29.29-14.81-.47-29.49-1.51-44.01-4.26-62.92-11.92-116.22-41.18-159.54-88.56-19.67-21.52-35.56-45.44-47.85-71.84-13.08-28.09-21.04-57.56-24.66-88.32-.61-5.2,.28-10.61-1.81-15.64v-30.93c1.12-1.04,.93-2.42,.96-3.73,.23-11.98,2.08-23.81,4.45-35.48,12.7-62.58,42.66-115.37,90.39-157.98,30.58-27.3,65.47-46.86,104.57-59.11,42.12-13.19,85.04-15.69,128.46-9.17"/>
  <path class="cls-2" d="M2247.46,124.92c.31-4.48-.95-8.65-2.49-12.68-5.06-13.2-11.46-25.82-17.7-38.48-4.17-8.46-9.97-10.46-19.08-7.69-2.06,.63-4.04,1.51-6,2.41-50.76,23.26-101.51,46.53-152.26,69.81-67.21,30.83-134.4,61.7-201.65,92.45-5.99,2.74-8.89,7.06-9.47,13.41-.49,5.26,.29,10.24,2.52,15.03,3.94,8.47,6.93,17.27,8.89,26.4,1.39,6.49,2.43,13.06,3.86,19.55,1.77,8.06,4.89,9.91,12.84,7.96,6.66-1.63,12.87-4.46,19.06-7.29,108.76-49.84,217.52-99.7,326.25-149.61,8.91-4.09,17.83-8.24,25.63-14.31,5.53-4.3,10.16-9.23,9.6-16.97Z"/>
  <path class="cls-2" d="M1997.86,279.48c.05,1.88,.86,5.08,2.26,8.13,3.76,8.19,6.44,16.72,8.04,25.59,.74,4.08,1.39,8.19,2.43,12.19,1.49,5.71,3.89,7.12,9.49,5.7,3.04-.77,6.1-1.71,8.95-3,33.88-15.38,67.74-30.82,101.58-46.3,43.05-19.7,86.14-39.32,129.1-59.23,17.93-8.31,36.41-15.5,53.46-25.61,12.12-7.2,14.64-14.61,9.22-27.65-3.95-9.5-8.43-18.79-12.87-28.08-4.28-8.95-8.89-10.66-18.14-7.08-1.39,.54-2.77,1.12-4.13,1.75-22.04,10.12-44.08,20.25-66.13,30.36-70.82,32.47-141.62,65-212.52,97.31-6.59,3-10.8,6.91-10.73,15.93Z"/>
  <path class="cls-2" d="M2029.35,493.37c.5,16.01-.95,29.49,1.14,42.88,.91,5.82,3.15,7.8,8.98,7.86,16.12,.15,32.24,.22,48.37,.21,5.68,0,8.91-3.02,9.79-8.57,.92-5.77,1.03-11.57,1.04-17.39,.12-54.67-.77-109.35,.86-164.02,.43-14.28,.56-28.56,1.09-42.83,.16-4.34-1.03-4.28-4.28-2.49-4.65,2.56-9.51,4.74-14.31,7.02-13.8,6.56-27.84,12.62-40.76,20.91-4.63,2.97-7.52,6.85-7.72,12.56-.49,14.1-1.24,28.2-1.63,42.31-.96,34.7-1.77,69.4-2.57,101.55Z"/>
  <path class="cls-2" d="M2207.09,259.27c-1.03,.24-1.53,.26-1.94,.47-18.01,8.96-36.02,17.92-54.01,26.91-3.59,1.79-5.41,4.98-5.72,8.8-.71,8.77-1.29,17.55-1.7,26.33-1.4,30.03-2.82,60.05-3.99,90.09-.96,24.57-1.61,49.15-2.32,73.73-.49,17.09-1.86,34.18,.03,51.28,.52,4.71,2.54,7.38,7.53,7.38,12.97,0,25.95,.04,38.92,.09,4.13,.01,6.45-2.23,7.5-5.98,1.1-3.89,.95-7.9,.99-11.89,.38-38.07-.32-76.13,.61-114.21,.86-35.39,1.99-70.74,5.54-105.95,1.58-15.66,3.44-31.36,8.58-47.05Z"/>
  <path class="cls-4" d="M2247.46,124.92c.56,7.73-4.07,12.67-9.6,16.97-7.8,6.07-16.72,10.22-25.63,14.31-108.74,49.9-217.49,99.77-326.25,149.61-6.19,2.84-12.4,5.66-19.06,7.29-7.95,1.94-11.08,.1-12.84-7.96-1.42-6.49-2.47-13.05-3.86-19.55-1.95-9.13-4.95-17.93-8.89-26.4-2.23-4.79-3-9.77-2.52-15.03,.59-6.35,3.48-10.67,9.47-13.41,67.25-30.74,134.44-61.62,201.65-92.45,50.75-23.28,101.5-46.55,152.26-69.81,1.96-.9,3.95-1.79,6-2.41,9.11-2.77,14.9-.77,19.08,7.69,6.24,12.66,12.64,25.27,17.7,38.48,1.54,4.03,2.8,8.2,2.49,12.68Z"/>
  <path class="cls-3" d="M1997.86,279.48c-.07-9.02,4.14-12.92,10.73-15.93,70.9-32.31,141.7-64.84,212.52-97.31,22.05-10.11,44.08-20.25,66.13-30.36,1.36-.62,2.74-1.21,4.13-1.75,9.25-3.58,13.86-1.88,18.14,7.08,4.44,9.29,8.93,18.58,12.87,28.08,5.42,13.04,2.9,20.45-9.22,27.65-17.05,10.12-35.53,17.31-53.46,25.61-42.96,19.91-86.04,39.53-129.1,59.23-33.84,15.48-67.7,30.92-101.58,46.3-2.85,1.3-5.9,2.23-8.95,3-5.6,1.42-7.99,.01-9.49-5.7-1.05-4-1.7-8.11-2.43-12.19-1.6-8.87-4.28-17.4-8.04-25.59-1.4-3.05-2.21-6.25-2.26-8.13Z"/>
  <path class="cls-1" d="M2029.35,493.37c.81-32.14,1.62-66.85,2.57-101.55,.39-14.11,1.13-28.2,1.63-42.31,.2-5.71,3.09-9.6,7.72-12.56,12.91-8.29,26.96-14.35,40.76-20.91,4.8-2.28,9.66-4.46,14.31-7.02,3.25-1.79,4.44-1.85,4.28,2.49-.54,14.27-.67,28.56-1.09,42.83-1.63,54.67-.74,109.34-.86,164.02-.01,5.82-.12,11.62-1.04,17.39-.88,5.54-4.11,8.57-9.79,8.57-16.12,0-32.25-.06-48.37-.21-5.83-.06-8.07-2.03-8.98-7.86-2.09-13.39-.64-26.87-1.14-42.88Z"/>
  <path class="cls-3" d="M2207.09,259.27c-5.14,15.7-7,31.39-8.58,47.05-3.55,35.22-4.67,70.57-5.54,105.95-.93,38.08-.23,76.14-.61,114.21-.04,3.99,.11,8-.99,11.89-1.06,3.74-3.38,5.99-7.5,5.98-12.97-.05-25.95-.09-38.92-.09-4.99,0-7.01-2.67-7.53-7.38-1.88-17.1-.52-34.19-.03-51.28,.71-24.58,1.36-49.16,2.32-73.73,1.17-30.04,2.6-60.06,3.99-90.09,.41-8.78,.99-17.56,1.7-26.33,.31-3.83,2.14-7.01,5.72-8.8,17.99-9,36-17.96,54.01-26.91,.41-.21,.92-.23,1.94-.47Z"/>
</svg>