<?xml version="1.0" encoding="UTF-8"?><svg id="Layer_1" xmlns="http://www.w3.org/2000/svg" viewBox="0 0 395.68 146.52"><defs><style>.cls-1{fill:#fff;}.cls-2{fill:#dd7360;}.cls-3{fill:#916bad;}.cls-4{fill:#f2f2f2;}</style></defs><g><path class="cls-2" d="M5.08,102.12c-2.47-29.01,4.87-57.72,5.34-86.6-.79-3.04,2.84-5.54,8.64-4.64C103.06-.16,189.99,6.33,275.23,8.38c100.22,2.42,87.41-1.31,109.24,11.99,16.84,35.8-3.19,72.97-8.81,108.94,2.53,11.09-29.79,6.87-42.54,9.58-102.4,8.55-185.99-3.57-307.47-5.22-19.54,2.04-20.72-20.9-20.58-31.56"/><path class="cls-4" d="M9.69,102.12c-1.63-20.98,1.56-41.75,3.72-62.56,.5-4.8,.94-9.6,1.24-14.42,.16-2.54,.44-5.16,.35-7.7,.04,1.01,.51-2.85-.39-1.75,.68-.83,2.77-.28,3.63-.3,10.41-.18,21.09-2.32,31.5-3.19,41.32-3.47,82.84-3.4,124.26-2.37,41.53,1.03,83.03,2.87,124.57,3.65,20.36,.38,41.09-.44,61.39,1.48,2.39,.23,2.72,.21,5.4,.81,.84,.19,1.67,.4,2.49,.66,.48,.15,2.82,1.06,1.58,.53,3.37,1.45,6.45,3.5,9.55,5.42,.48,.3,1.09,.58,1.53,.95,.22,.19,.63,.28,.81,.5,.47,.56-.19,.3-.05,.54,2.31,3.99,3.36,9.58,4.16,14.09,1.71,9.57,1.22,19.53-.3,29.09-2.94,18.5-9.27,36.25-12.85,54.61-.35,1.78-.62,7.44-1.03,8.14-.2,.33-2.71,1.08-3.58,1.3-5.34,1.31-11.04,1.26-16.51,1.42-13.74,.41-27.36,2.09-41.09,2.85-34.28,1.91-68.61,1.66-102.91,.44-35.41-1.27-70.78-3.42-106.18-4.99-19.89-.88-39.78-1.59-59.68-2.01-4.87-.1-9.77-.33-14.65-.26-3.11,.05-6.15,.39-8.98-1.21-4.24-2.4-5.93-7.53-6.9-12.01s-1.13-9.15-1.08-13.74c.06-5.93-9.16-5.94-9.22,0-.1,10.37,.82,23.09,8.71,30.79,4.62,4.51,10.27,5.5,16.48,5.38,11.2-.22,22.49,.4,33.68,.73,39.77,1.16,79.48,3.49,119.22,5.34,36.28,1.69,72.61,2.83,108.93,1.73,17.15-.52,34.16-1.92,51.23-3.31,11.29-.92,24.94,1.25,35.48-3.68,4.88-2.28,5.75-5.73,6.1-10.31,.7-9.26,4.39-19.61,6.83-28.82,5.02-18.96,10.33-38.69,7.98-58.47-.56-4.72-1.46-9.39-2.89-13.93-1.23-3.9-2.47-8.93-5.84-11.43-1.9-1.41-4.1-2.56-6.12-3.79-3.38-2.06-6.89-3.93-10.71-5.02-4.94-1.41-10.21-1.71-15.31-1.97-9.77-.49-19.57-.52-29.35-.66-40.56-.59-81.08-1.89-121.62-3.22C158.2,0,113.06-1.02,68.04,1.68c-11.24,.67-22.47,1.58-33.67,2.77-5.02,.53-10.27,1.72-15.3,1.82-3.91,.08-7.79-.18-10.87,2.78-2.76,2.65-2.34,5.87-2.45,9.35-.18,5.78-.62,11.55-1.17,17.31-1.08,11.22-2.6,22.4-3.6,33.63S-.38,91.18,.47,102.12c.46,5.88,9.68,5.93,9.22,0h0Z"/></g><g><path class="cls-3" d="M37.4,37.73c0,2.39,.36,4.7,.35,7.07,0,1.98,.07,3.96-.08,5.94-.28,3.79-.26,7.49-.98,11.24-1.01,5.24-1.51,10.55-2.19,15.84-.63,4.91-1.21,9.78-1.65,14.69-.31,3.39-.03,6.92-.03,10.33,0,2.51,0,5.03,0,7.54,0,1.85-.67,4.82,1.89,4.87,3.36,.07,6.67,.34,10.04,.34,1.66,0,3.33-.07,4.98,0,2.49,.1,1.9-3.22,2.19-4.86,.34-1.91,.65-3.87,.97-5.8,.14-.84,.38-1.55,.37-2.42-.02-1.85,0-3.7,0-5.55,0-2.86,0-5.72,0-8.58,0-1.45,0-2.74,.27-4.17,.24-1.25,.45-2.45,.44-3.72,0-1.03-.47-3.4,.55-4.03,.44-.28,1.08-.12,1.52-.07,.97,.11,1.94,.16,2.91,.28,2.23,.27,4.51,.43,6.69,.98,.72,.18,1.3,.34,2.06,.26,.92-.09,1.36-.12,1.45,1.02,.3,3.74-.08,7.63-.35,11.35-.3,4.24-.03,8.6-.03,12.85,0,2.87-.19,5.79,.28,8.62,.18,1.08,.16,2.06,.51,3.14,.31,.95,.47,2.2,1.45,2.48,.83,.23,2.46-.19,3.22-.27,1.43-.15,2.87-.28,4.31-.38,3.88-.27,7.82-.07,11.71-.07,.8,0,1.92,.24,2.68,.03,1.18-.33,1.2-1.37,1.24-2.47,.19-5.52-.22-11.1-.48-16.61-.27-5.57,.04-11.06,.09-16.63,.02-3.24,.72-6.49,.98-9.73,.26-3.37,.96-6.43,1.53-9.73,.41-2.35,.49-4.79,.65-7.17,.13-1.97,.11-4.08-.32-6.02-.53-2.36-.39-4.83-.8-7.26-.35-2.06-.11-4.09-.33-6.16-.2-1.87-.2-3.62-.26-5.49-.04-1.19-.91-.96-1.92-.78-2.36,.44-4.47,1.42-6.91,1.64-1.1,.1-2.21,.06-3.31,.14-.69,.05-2.36,.07-2.99,.58-1.1,.87-.73,2.7-.72,3.94,.06,4.74-1.12,9.37-2.33,13.93-.56,2.13-1.55,4.17-1.85,6.37-.18,1.32-.37,2.14-.86,3.36-.4,.99-.65,2.07-1.06,3.05-.79,1.91-2.9,1.37-4.66,1.55-2.44,.24-4.84,.27-7.29,.27-.73,0-1.49,.06-2.22,.01-.66-.04-1.22-.3-1.87-.38-.27-.03-.51,.11-.78,0-.62-.28-.94-1.57-1.01-2.07-.22-1.41,.19-2.92,.27-4.33,.14-2.26,.29-4.52,.4-6.79s.37-4.39,.34-6.62c-.02-1.95,.58-3.64,.73-5.54,.1-1.28-.02-2.62-.02-3.9,0-.7,.22-1.95-.02-2.62-.71-2.01-6.01,1.15-7.39,1.6s-2.43,.71-3.89,.7c-1,0-2,.02-2.99,0-2.39-.04-4.25,1.56-5.44,3.52"/><path class="cls-1" d="M34.33,37.73c.31,9.8-.06,18.97-1.46,28.69-1.24,8.63-2.49,17.39-3.09,26.09-.28,4.06-.04,8.14-.03,12.21,0,3.09-.86,7.51,.37,10.46,.86,2.07,2.47,2.83,4.59,3.13,4.3,.6,9.03,.41,13.36,.31,7.15-.17,6.48-5.09,7.47-10.95,1.37-8.12,.34-16.35,1.26-24.51,.1-.93,.76-3.53,.15-4.26-1.02-1.23-.17,1.04-.92,.54,.4,.27,2.28,.21,2.91,.28,2.15,.23,4.26,.64,6.38,.99,.61,.1,1.23,.15,1.84,.24,.78,.04,.69,.01-.24-.07-1.14-.38-1.39,.22-.76,1.81-.82,4.05-.6,8.93-.59,13.07,.01,4.71-.2,9.57,.18,14.27,.47,5.93,1.41,11.03,8.28,10.18,4.09-.51,8.17-.57,12.29-.54,2.87,.02,7.32,1.06,9.59-1.37,1.79-1.93,1.36-5.43,1.35-7.79-.02-4.62-.4-9.23-.56-13.85-.33-9.57,.07-19.23,1.51-28.7,.6-3.97,1.4-7.82,1.66-11.84,.28-4.24-.29-8.12-.72-12.33s-.63-8.36-.84-12.55c-.12-2.42-.2-4.9-2.94-5.65-3.27-.9-7.36,1.46-10.67,1.69-2.46,.17-5.23-.08-7.06,1.85s-1.35,4.35-1.4,6.68c-.1,4.96-1.46,9.9-2.95,14.6-1.06,3.33-.87,8.86-4.71,9.7-3.61,.79-7.76,.33-11.38-.1,3.15,.37,.37,1.41,1.23-.44,.46-.98,.29-2.68,.37-3.74,.17-2.25,.26-4.51,.4-6.77,.26-4.21,.94-8.43,1.06-12.63,.07-2.52,.68-6.33-1.63-8.09-2.01-1.53-4.64-.67-6.73,.17-3.2,1.28-5.56,1.71-9.05,1.93-3.67,.23-6.04,2.13-8.1,5.04-2.29,3.24,3.04,6.31,5.31,3.1s6.07-1.65,9.18-2.43c1.47-.37,3.43-1.01,4.67-1.86,.49-.23,.99-.41,1.5-.56l-1.28-1.23c-.37,1.07,.02,2.82-.02,3.93-.1,2.57-.68,5.08-.79,7.67-.13,3.06-.34,6.12-.52,9.19-.16,2.71-.94,5.86-.37,8.54,.75,3.56,3.28,4.49,6.63,4.71,3.98,.26,10.52,.86,14.25-.93,3.92-1.89,4.18-7.47,5.14-11.18,1.51-5.91,3.65-11.55,3.92-17.72-.02,.55,.02-3.43-.27-3.15,.41-.4,3.81-.15,4.26-.2,2.04-.2,5.78-2.17,7.72-1.75l-2.15-2.15c.8,2.13,.47,5.53,.55,7.76,.09,2.52,.33,4.99,.58,7.5,.54,5.45,1.02,10.49,.23,15.97-1.48,10.21-2.72,20.08-2.8,30.43-.04,5.24,.37,10.46,.54,15.69,.05,1.41,.97,6.47,.03,7.38,1.08-1.06-.14-.42-.84-.63-1.42-.42-4.37-.06-5.86-.06-2.44,0-4.86,.05-7.29,.24-.53,.04-4.31,.74-4.62,.43-.91-.94-.65-6.37-.66-7.59-.03-2.68,.02-5.36-.03-8.05-.09-5.31,.5-10.54,.55-15.83,.03-2.88,.35-6.75-3.04-7.79s-8.11-1.09-11.78-1.47c-2.81-.29-5.38-.16-6.45,2.94-.45,1.31-.11,2.76-.14,4.1-.05,2.16-.6,4.32-.7,6.48-.26,5.42,.42,10.95-.13,16.34-.25,2.41-.68,5.06-1.21,7.42-.45,2.04,.08,1.73-2.44,1.77-2.23,.04-4.45-.04-6.68-.13-.2,0-2.97,.11-3.34-.15-.72,.49-.9,.21-.53-.85l.04-1c.12-5.95-.38-11.93,.03-17.86s1.35-12.16,2.09-18.22c.69-5.67,1.88-11.3,2.34-16.98,.54-6.58,.33-13,.12-19.58-.13-3.94-6.27-3.96-6.15,0h0Z"/></g><g><path class="cls-3" d="M152.58,30.4c-16.33-3.55-35.3,.06-38.04,19.09-4.95,16.62-7.39,43.43,5.43,58.85,4.25,4.83,10.42,10.17,17.58,10.19,10.9-2.4,26.89-9.29,29.95-20.76,4.59-22.02-3.43-64.74-14.92-67.37"/><path class="cls-1" d="M153.4,27.44c-15.31-3.15-34.62-.74-40.57,16.1-6.06,17.13-8.24,39.33-1.28,56.44,3.51,8.63,10.38,16.98,19.31,20.34,8.23,3.09,17.78-1.35,25-5.43,7.61-4.3,13.81-10.47,15.15-19.37,1.26-8.35,1.07-16.9,.2-25.27-.98-9.55-2.69-19.25-6.17-28.23-2.16-5.57-5.32-12.78-11.64-14.56-3.81-1.08-5.44,4.85-1.63,5.93s6.05,6.94,7.35,10.27c2.46,6.3,3.96,13,5.03,19.66,1.15,7.13,1.71,14.39,1.57,21.62s-.44,14.04-5.7,19.33-12.77,8.48-19.88,10.47c-8.92,2.5-17.34-6.24-21.24-13.45-7.62-14.09-6.17-32.5-2.34-47.5,1.99-7.81,3.6-14.81,11.43-18.71,7.26-3.61,16.05-3.28,23.78-1.68,3.86,.8,5.51-5.13,1.63-5.93h0Z"/></g><path class="cls-1" d="M138.51,47.45c-9.32,3.5-13.06,14.59-13.13,23.81-.06,7.21,3.86,20.72,13.65,19.26,8.12-1.21,8.06-14.34,7.94-20.29s-.01-18.88-6.09-22.47c-3.41-2.01-6.51,3.3-3.1,5.31,2.39,1.41,2.75,11.35,2.93,14.22,.21,3.46,.26,7.02-.2,10.47-.18,1.37-.55,5.76-2.07,6.5-1.79,.86-4.24-2.4-4.99-3.75-1.62-2.92-2-6.46-1.91-9.74,.16-5.96,2.29-15.01,8.61-17.39,3.67-1.38,2.08-7.32-1.63-5.93h0Z"/><g><path class="cls-3" d="M181.13,109.35c1.78-24.82,6.01-50.98,8.21-74.88,25.88-1.36,19.57,21.4,34.21,32.69,10.22-9.78,12.12-32.14,27.29-34.68,13.18-.86,15.65,44.28,16.91,62.05,.02,8.94,7.78,24.95-15.24,19.81-2.55-6.98-2.86-21.2-5.87-27.36-5.49-25.24-6.09-7.63-23.15-.29-6.73,.02-10.56-9.01-16.53-11.5-.68-.88-1.89-.98-1.85,.43-.88,8.92-6.06,16.92-7.55,25.89-4.03,11.73-3.97,9.07-16.44,7.83"/><path class="cls-1" d="M184.2,109.35c1.85-25.06,5.86-49.88,8.21-74.88l-3.07,3.07c9.92-.35,15.57,3.27,19.64,12.12,3.32,7.22,6.02,14.51,12.4,19.67,1.29,1.04,3.07,1.28,4.35,0,7.29-7.34,9.78-17.69,15.39-26.14,1.93-2.91,6.61-8.65,10.78-7.54,2.68,.71,4.22,4.81,5.11,7.06,6.91,17.39,5.77,36.94,7.93,55.19,.41,3.46,1.69,7.54,.86,11.01-1.24,5.19-8.8,3.25-12.47,2.48l2.15,2.15c-1.67-4.97-2.18-10.25-2.97-15.4-.73-4.69-2.02-9-3.25-13.54-1.14-4.2-2.24-14.67-8.83-13.7-4.93,.72-9.09,7.52-13.04,10.18-1.57,1.05-3.44,2.56-5.34,2.33-2.32-.28-4.73-3.49-6.27-5.05-2.41-2.45-6.56-7.17-10.34-6.71-1.44,.18-2.49,.85-2.96,2.26-1.61,4.8-2.36,9.83-4.16,14.66s-2.79,9.85-4.57,14.63c-.7,1.87-1.16,3.88-2.84,4.28-2.72,.65-7.04-.87-9.77-1.16-3.93-.42-3.9,5.73,0,6.15,6.14,.66,13.12,3.26,16.75-3.33,2.55-4.62,3.17-10,4.88-14.93,1.02-2.94,2.21-5.81,3.2-8.76,1.09-3.24,1.35-6.69,2.43-9.88l-2.96,2.26c2.86-.35,8.55,7.72,10.89,9.4,4.09,2.94,7.56,3.04,11.86,.62,3.46-1.95,6.53-4.52,9.38-7.27,.98-.94,2.46-1.98,3.21-3.08,.2-.29,.78-.37,.93-.64-.5,.89-1.2-.96-1.24,.01-.05,1.13,1.41,3.59,1.74,4.77,.75,2.72,1.31,5.43,2.25,8.08,1.84,5.23,2.23,10.99,3.09,16.43,.7,4.4,.66,10.43,5.72,11.53,4.03,.88,8.8,1.39,12.71-.21,6.14-2.51,6.5-9,5.8-14.73-.87-7.09-1.31-14.17-1.9-21.3-.78-9.53-1.77-19.1-3.67-28.48-1.38-6.81-3.13-15.29-8.22-20.43-6.37-6.44-15.4-1.06-20.09,4.77-6.78,8.43-8.82,20-16.5,27.74h4.35c-7.26-5.87-8.96-14.71-13.47-22.42-5.01-8.57-13.29-11.52-22.92-11.17-1.78,.06-2.91,1.36-3.07,3.07-2.35,25-6.36,49.83-8.21,74.88-.29,3.95,5.85,3.93,6.15,0h0Z"/></g><g><path class="cls-3" d="M293.32,30.95c0,24.03-3.43,48.24,.81,72.03,1.78,4.17-3.51,11.64,1.45,13.89,19.65,1.85,35.31,1.12,54.64-2.3,3.08-1.78,4.57-5.07,5.78-8.26-.08-2.8-4.7-3.78-6.88-4.94-10.96-5.97-23.69-3.25-35.56-2.81-2.49-.29-1.39-8.85-2.42-11.29-2.09-7.99,2.71-7.58,8.87-8.82,10.36-2.35,17.7,.29,27.91-3.56,7.22-1.24,9.22-2.55,4.45-9.23-3.54-6.59-21.87-2.68-33.84-5.82-7.14,1.9-5.12-8.18-5.73-12.61-.18-1.96,1.24-2.88,3.05-2.24,7.13,.31,14.26-.95,21.35-1.65,5.07-1.72,18.98,.52,16.83-5.62-3.3-9.4-10.28-9.44-37.54-6.35-9.35-.7-13.95-1.38-23.17-.4"/><path class="cls-1" d="M290.25,30.95c-.09,22.06-2.86,44.23-.07,66.23,.55,4.31,1.39,7.79,.64,12.07-.48,2.78-.97,5.78,.81,8.22,2.12,2.92,5.52,2.63,8.79,2.88,5.47,.41,10.95,.62,16.44,.57,9.87-.08,19.69-1.05,29.43-2.59,4.26-.67,6.91-1.31,9.54-4.89,1.73-2.35,4.04-6.19,2.81-9.19-1.05-2.54-3.6-3.63-5.95-4.68-3.71-1.65-7.23-3.39-11.25-4.19-4.3-.86-8.68-1-13.05-.84-2.21,.08-4.42,.25-6.62,.41-1.03,.07-6.1,1.02-6.6,.65-.81-.6-.45-6.11-.73-7.78-.67-4.06-1.22-4.98,3.11-5.83,8.63-1.69,17.45-.91,26.02-2.66,4.4-.9,14.01-1.89,14.45-7.91,.35-4.84-4.24-10.05-8.56-11.57-6.36-2.24-13.77-1.45-20.4-1.76-3.58-.17-7.02-.71-10.53-1.34-1.73-.31-1.54,.66-2.27-1.23-.54-1.4-.21-3.44-.24-4.92-.02-1.02-.36-2.42-.14-3.39-.3,1.32-1.4,.46-.02,.83,1,.27,2.78,.05,3.89,.03,5.76-.15,11.78-.74,17.46-1.68,5.07-.84,11.03-.22,15.85-2.1,5.12-2,4.82-6.86,2.34-10.99-2.13-3.55-5.59-5.54-9.59-6.3-7.02-1.34-14.56-.28-21.58,.44-5.45,.56-10.39,.58-15.85,.21-5.05-.35-10.02-.26-15.06,.23-3.9,.38-3.94,6.53,0,6.15,8.13-.8,16.04,.7,24.08,.3,7.04-.35,13.99-1.69,21.07-1.72,3.32-.02,7.73-.15,10.37,2.25,.73,.66,1.88,2.03,1.99,3.05s.79,.35-.98,.94c-1.28,.42-2.8,.38-4.13,.47-7.08,.47-14.04,1.72-21.12,2.32-4.87,.41-14.21-2.1-14.83,5.06-.34,3.86-.49,10.08,1.72,13.46,2.47,3.77,8.15,3.21,12.13,3.67,6.84,.79,13.83,.09,20.64,1.12,2.85,.43,4.77,1,6.33,3.52,.71,1.13,1.26,1.69,.71,2.48-.59,.85-4.05,1-5.08,1.28-8.36,2.29-16.75,1.41-25.22,2.89-4.13,.72-10.42,.95-12.61,5.26-1.12,2.21-.8,4.67-.36,7,.5,2.62,.54,5.21,.85,7.87,.78,6.64,4.52,6.47,10.41,6.04,8.91-.64,18.36-1.75,26.78,1.97,1.99,.88,6.31,1.96,6.15,4.22-.39,5.58-11.21,5.51-15.02,5.97-10.03,1.21-20.14,1.59-30.24,1.14-2.48-.11-6.12,.23-8.46-.54-2.77-.91-1.84-2.51-1.41-4.91,.64-3.61,.07-6.28-.47-9.87-3.38-22.62-.32-45.59-.23-68.31,.02-3.95-6.13-3.96-6.15,0h0Z"/></g></svg>