<?xml version="1.0" encoding="UTF-8"?><svg id="Layer_1" xmlns="http://www.w3.org/2000/svg" viewBox="0 0 411.81 151.85"><defs><style>.cls-1{fill:#fff;}.cls-2{fill:#dd7360;}.cls-3{fill:#916bad;}.cls-4{fill:#f2f2f2;}</style></defs><g><path class="cls-2" d="M18.81,8.12C95.87,18.73,425.52-27.45,406.69,55.01c.81,26.11-7.41,51.41-8.43,77.48-7.28,13.25-36.68,8.03-52.4,11.55-81.39-2.07-368.57,25.62-339.36-51.23,10.29-27.06,.2-61.32,12.32-84.69"/><path class="cls-4" d="M17.59,12.56c24.93,3.38,50.64,1.91,75.69,1.12,35.93-1.13,71.84-2.88,107.78-3.8,36.44-.93,73.02-1.33,109.4,1.31,14.93,1.08,29.87,2.68,44.54,5.68,10.95,2.24,22.16,5.11,32.05,10.49,4.02,2.19,7,4.18,10.02,7.33,2.36,2.46,4.12,5.29,5.01,8.29,.98,3.32,.78,6.74,.33,10.08-.99,7.31-.45,14.93-1.25,22.32-.89,8.21-2.31,16.35-3.64,24.49s-2.56,16.13-3.31,24.25c-.22,2.42,.28,5.72-1.1,7.66-1.15,1.63-3.57,2.59-5.38,3.24-10.04,3.62-21.57,2.51-32.05,3.18-4.04,.26-8.04,1.16-12.06,1.18-2.75,.01-5.51-.07-8.26-.07-6.37,0-12.73,.11-19.1,.24-33.99,.72-67.96,2.17-101.95,2.76-37.57,.65-75.29,.7-112.77-2.4-15.66-1.29-31.34-3.14-46.7-6.52-11.36-2.5-23.05-5.68-33.05-11.8-3.27-2-7.03-5.04-8.93-7.56-2.24-2.97-3.5-6.26-3.73-8.83-.45-4.96,.93-8.39,2.61-13.41,4.51-13.42,4.57-27.91,4.83-41.91,.25-13.23,.2-27.33,6.23-39.45,2.63-5.3-5.31-9.97-7.96-4.65C1.74,32.11,12.05,62.87,2.59,90.1c-3.21,9.23-4.17,18.71,1.41,27.31s15.23,13.95,24.62,17.77c12.95,5.27,26.86,8.1,40.63,10.22,36.73,5.67,74.18,6.45,111.27,6.45,37.5,0,74.98-1.34,112.46-2.46,14.33-.43,28.67-.87,43.01-.86,2.73,0,5.46,.08,8.18,.08,4.61,0,9.27-1.09,13.92-1.32,10.7-.53,22.34,.18,32.57-3.55,4.35-1.59,8.6-4.1,11.09-8.14,1.72-2.81,1.24-6.43,1.5-9.62,.37-4.53,.91-9.05,1.56-13.55,2.4-16.62,5.99-33.15,6.47-49.99,.3-10.55,2.26-20.68-4.19-29.96-5.72-8.22-14.7-13.27-23.77-16.99-12.09-4.96-25.06-7.67-37.94-9.68C310.52,.39,274.93-.16,239.7,.03c-38.61,.21-77.19,1.84-115.76,3.33-30,1.15-60.23,2.86-90.25,1.41-2.57-.12-5.14-.28-7.7-.49-1.77-.15-5.2-.51-5.95-.61-5.8-.79-8.31,8.09-2.45,8.89h0Z"/></g><g><path class="cls-3" d="M27.37,114.23c1.78-24.82,6.01-50.98,8.21-74.88,25.88-1.36,19.57,21.4,34.21,32.69,10.22-9.78,12.12-32.14,27.29-34.68,13.18-.86,15.65,44.28,16.91,62.05,.02,8.94,7.78,24.95-15.24,19.81-2.55-6.98-2.86-21.2-5.87-27.36-5.49-25.24-6.09-7.63-23.15-.29-6.73,.02-10.56-9.01-16.53-11.5-.68-.88-1.89-.98-1.85,.43-.88,8.92-6.06,16.92-7.55,25.89-4.03,11.73-3.97,9.07-16.44,7.83"/><path class="cls-1" d="M30.44,114.23c1.85-25.06,5.86-49.88,8.21-74.88l-3.07,3.07c9.92-.35,15.57,3.27,19.64,12.12,3.32,7.22,6.02,14.51,12.4,19.67,1.29,1.04,3.07,1.28,4.35,0,7.29-7.34,9.78-17.69,15.39-26.14,1.93-2.91,6.61-8.65,10.78-7.54,2.68,.71,4.22,4.81,5.11,7.06,6.91,17.39,5.77,36.94,7.93,55.19,.41,3.46,1.69,7.54,.86,11.01-1.24,5.19-8.8,3.25-12.47,2.48l2.15,2.15c-1.67-4.97-2.18-10.25-2.97-15.4-.73-4.69-2.02-9-3.25-13.54-1.14-4.2-2.24-14.67-8.83-13.7-4.93,.72-9.09,7.52-13.04,10.18-1.57,1.05-3.44,2.56-5.34,2.33-2.32-.28-4.73-3.49-6.27-5.05-2.41-2.45-6.56-7.17-10.34-6.71-1.44,.18-2.49,.85-2.96,2.26-1.61,4.8-2.36,9.83-4.16,14.66s-2.79,9.85-4.57,14.63c-.7,1.87-1.16,3.88-2.84,4.28-2.72,.65-7.04-.87-9.77-1.16-3.93-.42-3.9,5.73,0,6.15,6.14,.66,13.12,3.26,16.75-3.33,2.55-4.62,3.17-10,4.88-14.93,1.02-2.94,2.21-5.81,3.2-8.76,1.09-3.24,1.35-6.69,2.43-9.88l-2.96,2.26c2.86-.35,8.55,7.72,10.89,9.4,4.09,2.94,7.56,3.04,11.86,.62,3.46-1.95,6.53-4.52,9.38-7.27,.98-.94,2.46-1.98,3.21-3.08,.2-.29,.78-.37,.93-.64-.5,.89-1.2-.96-1.24,.01-.05,1.13,1.41,3.59,1.74,4.77,.75,2.72,1.31,5.43,2.25,8.08,1.84,5.23,2.23,10.99,3.09,16.43,.7,4.4,.66,10.43,5.72,11.53,4.03,.88,8.8,1.39,12.71-.21,6.14-2.51,6.5-9,5.8-14.73-.87-7.09-1.31-14.17-1.9-21.3-.78-9.53-1.77-19.1-3.67-28.48-1.38-6.81-3.13-15.29-8.22-20.43-6.37-6.44-15.4-1.06-20.09,4.77-6.78,8.43-8.82,20-16.5,27.74h4.35c-7.26-5.87-8.96-14.71-13.47-22.42-5.01-8.57-13.29-11.52-22.92-11.17-1.78,.06-2.91,1.36-3.07,3.07-2.35,25-6.36,49.83-8.21,74.88-.29,3.95,5.85,3.93,6.15,0h0Z"/></g><g><path class="cls-3" d="M125.29,47.72c2.55,20.15-.48,35.58,6.25,55.14,5.24,12.24,22.63,28.67,33.25,14.63,12.85-12.34,17.57-31.85,19.34-50.08-.39-5.27,1.75-10.39-.29-15.41-1.65-5.61-.8-14.04-6.01-17.19-7.65-1.36-12.7,7.9-10.71,15.52,1.27,11.51-2.03,22.44-2.82,33.68-.65,3.95-3.84,6.04-5.88,9.03-14.13,2.1-11.18-17.89-12.66-27.95-.31-5.5-4.59-20.26-6.32-22.16-1.64-3.67-5.06-7.28-8.87-7.65-4.45,1.15-5.72,6.18-5.29,12.43"/><path class="cls-1" d="M122.22,47.72c1.3,10.89,1.02,21.84,1.85,32.75,.72,9.44,2.02,19.89,6.99,28.13,6.93,11.48,22.88,24.54,35.01,12.16,13.4-13.68,18.67-31.67,20.82-50.3,.55-4.8,1.28-10.28,.85-15.1-.38-4.25-1.66-8.83-2.47-13.05-1.33-6.88-5.77-13.13-13.42-9.71-3.51,1.57-5.99,4.87-7.23,8.44-1.55,4.47-.48,8.54-.29,13.11,.31,7.25-1.16,14.45-2.15,21.59-.41,2.97-.21,6.63-1.42,9.38-1.02,2.31-3.46,4.35-4.97,6.38l2.65-1.52c-8.95,.99-8.68-9.8-8.99-16.24-.35-7.31-1.18-14.24-3.17-21.31-1.95-6.91-4.55-15.35-11.38-18.96-9.64-5.1-13,7.19-12.67,14.25,.18,3.94,6.33,3.96,6.15,0-.11-2.27-.63-7.19,1.62-8.71,2.82-1.89,5.83,3.7,6.81,5.48,1.75,3.16,2.75,6.67,3.71,10.16,2.11,7.63,2.42,14.98,3,22.81,.47,6.28,1.4,14.47,7.75,17.66,2.6,1.31,6.89,1.91,9.34,.1,3.96-2.91,6.45-8.42,6.93-13.08,.68-6.53,1.95-12.99,2.58-19.53,.34-3.44,.5-6.91,.26-10.37-.21-2.9-.99-5.54-.2-8.42,.61-2.25,2.37-5.65,5.07-5.95s3.3,2.51,3.83,4.79c1.3,5.5,2.83,12.27,2.38,17.81-.97,11.88-2.14,23.52-6.31,34.82-2.06,5.57-4.83,11-8.53,15.66-3.25,4.1-7.28,9.64-13.18,8.75-12.03-1.81-19.15-16.15-21.43-26.55-3.27-14.89-1.85-30.35-3.64-45.43-.46-3.88-6.61-3.93-6.15,0h0Z"/></g><g><path class="cls-3" d="M244.07,60.95c6.72,8.12,17.38,12.46,21.51-.26,.15-4.5-3.56-7.48-6.51-10.37-4.26-5.14-8.52-9.51-15.49-10.51-11.87-2.87-30.97-5.8-37.38,7.29-3.44,6.3-5.8,13.38-6.52,20.49,.65,4.13,11.1,13.01,13.51,14.3,9.3,5.5,15.52,1.47,24.07,7.83,3.65,1.89,5.62,14.9,1.17,15.49-10.91,1.59-16.37,4.69-27.01,.84-6.95-1.26-17.11-13.25-15.14,6.38,1.84,5.6,11.04,10.92,16.54,12.48,8.19,1.34,16.74,2.54,24.98,1.26,7.93-3.21,18.28-3.3,24.33-9.58,2.21-11.51,.15-26.12-10.18-33.46-7.81-5.77-16.33-12.47-26.54-12.4-7.73,1.12-7.53-11.44-.49-15.16,4.22-.63,14.84,1.8,19.14,5.36"/><path class="cls-1" d="M241.9,63.12c3.96,4.58,9.8,9.3,16.26,8.56,5.84-.66,11.48-7.3,10.3-13.26-.71-3.6-3.16-6.33-5.7-8.82-3.15-3.09-5.77-6.64-9.44-9.17-5.76-3.97-13.78-4.92-20.6-5.73s-14.17-.76-20.44,2.3c-6.98,3.42-10.23,10.49-12.74,17.5-1.39,3.89-3.56,9.7-2.83,13.9,.44,2.5,2.44,4.76,4.05,6.61,4,4.6,9.03,9.17,14.77,11.42,6.46,2.53,19.12,.76,21.68,8.83,.48,1.52,1.57,5.59,.4,6.99-.61,.73-6.13,1.1-7.32,1.34-2.49,.5-4.96,1.04-7.5,1.19-6.76,.39-12.16-2.27-18.03-5.01-3.41-1.59-7.54-2.62-10.12,.92-3.3,4.51-2.15,12.71,1.06,16.83,4.74,6.08,12.64,9.85,20.1,10.96,5.06,.75,10.16,1.38,15.29,1.3s9.3-1.44,14.17-2.7c5.92-1.53,16.56-3.09,19.69-9.31,1.66-3.29,1.2-9.11,.95-12.65-.3-4.31-1.17-8.56-2.85-12.56-3.65-8.68-11.41-14.06-19.18-18.88-4.2-2.61-8.78-4.77-13.69-5.6-3.55-.6-7.9,.85-7.4-4.1,.16-1.58,.94-3.73,2.28-4.74s2.81-.69,4.55-.44c4.5,.64,9.25,2.03,12.91,4.78,3.16,2.37,6.23-2.96,3.1-5.31-4.81-3.61-11.45-5.33-17.37-5.79-5.24-.4-8.97,2.56-10.78,7.48-1.45,3.96-1.37,9.32,2.16,12.19,1.82,1.48,3.57,1.51,5.79,1.64,4.86,.27,9.05,1.58,13.3,3.97,6.45,3.63,14.13,8.38,17.69,15.07,1.74,3.28,2.74,6.94,3.18,10.61,.36,3,1.14,8.73-.4,11.46-1.63,2.89-7.05,4.03-10.02,4.84-3.64,1-7.29,1.9-10.91,2.97-4.45,1.32-9.35,1.03-13.93,.65-5.05-.42-10.29-.84-14.9-3.09-3.02-1.48-6.52-3.46-8.6-6.17-.93-1.21-3.43-8.52-1.19-9.86,.73-.44,6.29,3.03,7.68,3.63,5.62,2.44,11.83,3.53,17.93,2.8,3.56-.43,7.04-1.29,10.56-1.94,2.69-.49,5.15-.53,6.81-2.93,2.55-3.68,1.53-9.69,.04-13.56-2.07-5.38-7.58-8.11-13-9.23-6.52-1.35-12.54-1.57-17.91-5.99-2.21-1.82-4.35-3.8-6.25-5.94-.75-.85-1.93-1.93-2.33-3.03-.78-2.12,.39-5.43,.97-7.6,2.32-8.67,5.88-17.43,15.4-19.45,6.91-1.46,14.34-.25,21.14,1.27,4.51,1.01,8.21,2.05,11.7,5.26,1.66,1.53,3,3.31,4.54,4.95,1.38,1.46,3.32,2.76,4.35,4.52,2.56,4.37-1.3,9.54-6.09,8.36-3.63-.89-6.56-3.88-8.91-6.6-2.59-3-6.92,1.36-4.35,4.35h0Z"/></g><g><path class="cls-3" d="M283.12,45.48c.06,5.76-.6,11.59-1.42,17.28-.48,3.29-.74,6.6-1.18,9.89-.46,3.44-.42,6.74-.55,10.18-.08,2.12-.4,4.21-.38,6.34,.02,2.3-.04,4.42-.44,6.69-.26,1.49-.38,3.02-.27,4.53,.04,.64,.26,1.2,.34,1.83,.11,.82-.07,1.64,.06,2.46,.3,1.97,.51,3.96,.67,5.96s.81,3.83,1.51,5.66c.55,1.43,.77,3.04,1.39,4.49,.29,.67,.76,1.46,1.38,1.86,1.47,.94,2.62-.03,3.79-.88,1.8-1.31,3.67-2.07,5.12-3.83,1.29-1.56,2.21-3.51,3.37-5.18,.44-.63,.68-1.26,1.04-1.93,.23-.43,.5-.76,.65-1.25,.1-.34,.02-.73,.14-1.06,.28-.79,.62-1.06,.64-1.96,.02-1.08-.06-2.16,.07-3.24,.2-1.7,.59-3.39,.65-5.11,.07-2.07-.09-4.15-.03-6.23,.14-4.91,1.27-9.77,1.44-14.69,.12-3.43,0-6.9-.03-10.34-.02-2.95,.52-5.93,.39-8.86-.08-1.71-.38-3.3-.38-5.02,0-2.84,.52-6.14-.86-8.75-1.2-2.27-2.88-3.52-5.2-4.4-2.06-.78-4.65-.74-6.61,.25-1.2,.6-2.13,1.23-2.84,2.41-.57,.94-.96,2.1-1.74,2.89"/><path class="cls-1" d="M280.04,45.48c-.02,8.57-1.39,17.03-2.39,25.53-.89,7.57-.6,15.22-1.34,22.79-.6,6.19-.26,12.22,.76,18.39,.71,4.31,2.42,13.58,8.12,13.87s10.64-6.38,13.13-10.45c3.26-5.31,3.64-9.5,4.28-15.68,.37-3.55-.01-7.13,.29-10.69,.39-4.57,1.22-9.06,1.31-13.65,.14-7.76-.07-15.5-.04-23.23,.03-6.69-1.09-13.02-8.34-15.38-2.91-.95-6.22-.87-8.98,.56s-3.85,3.95-5.68,6.4c-2.37,3.17,2.96,6.23,5.31,3.1s4.57-6.6,9.1-3.33c3.58,2.58,2.32,7.28,2.52,11.07,.35,6.9,.1,13.89-.02,20.81-.13,7.3-1.22,14.55-1.44,21.86-.18,6-.9,11.45-4.4,16.4-1.19,1.68-2.48,3.44-4.4,4.38-2.25,1.09-1.94,.93-2.94-1.26-1.35-2.97-1.78-6.12-2.15-9.31-.73-6.32-.29-12.14-.07-18.47,.5-14.61,3.49-29.11,3.53-43.7,.01-3.95-6.13-3.96-6.15,0h0Z"/></g><g><path class="cls-3" d="M357.73,59.14c6.13,1.42,16.93,5.83,16.39-4.85-6.96-9.13-13.8-12.84-24.83-14.19-20.38,2.18-36.01,21.66-37.71,41.5-1.46,32.21,21.79,53.36,57.25,36.45,4.56-3.32,1.26-15.22-3.76-17.97-5.71,1.97-14.2,4.81-20.56,5.21-9.44,.98-15.62-14.03-16.05-21.77-.9-16.14,17.82-27.69,29.27-24.39"/><path class="cls-1" d="M356.91,62.1c6.89,1.67,18.39,5.35,20.12-4.95,.96-5.7-4.65-10.11-8.8-13.24-4.48-3.37-9.71-5.38-15.21-6.35-12-2.12-24.76,6.23-32.22,15.02-7.91,9.31-12.69,21.34-12.32,33.62,.62,20.42,12.71,39.42,34.49,40.8,5.85,.37,11.82-.62,17.4-2.34,4.57-1.41,11.07-2.89,12.98-7.82,1.7-4.38,.39-9.86-1.72-13.86-.96-1.82-2.25-3.63-3.94-4.85-2.41-1.74-4.11-.77-6.72,.09-5.91,1.96-16.22,6.73-21.74,2.15-4.47-3.71-7.14-10.76-7.65-16.42-1.12-12.42,13.07-24.95,25.34-21.87,3.84,.96,5.47-4.96,1.63-5.93-16.74-4.2-35.05,12.21-32.96,29.18,.94,7.62,4.76,16.98,11.6,21.13,3.49,2.12,7.08,2.06,10.99,1.45,3.13-.48,6.2-1.27,9.23-2.15,1.23-.36,6.83-2.51,6.94-2.46,1.78,.79,2.86,4.64,3.23,6.33,.62,2.8,.74,4.87-1.77,6.41-4.79,2.94-11.91,4.34-17.44,4.75-8.76,.66-17.48-1.77-23.76-8.11-14.7-14.85-12.2-40.71,.53-55.79,4.16-4.93,9.42-9.07,15.43-11.5,6.41-2.6,12.58-2.43,18.9,.37,2.57,1.14,13.94,7.92,11.11,11.52-2.09,2.66-9.36-.49-12.04-1.14-3.84-.93-5.48,4.99-1.63,5.93h0Z"/></g></svg>