<?xml version="1.0" encoding="UTF-8"?>
<svg id="Layer_1" data-name="Layer 1" xmlns="http://www.w3.org/2000/svg" viewBox="0 0 4156.93 429.09">
  <defs>
    <style>
      .cls-1 {
        fill: #118289;
      }

      .cls-1, .cls-2, .cls-3, .cls-4, .cls-5, .cls-6, .cls-7, .cls-8, .cls-9, .cls-10, .cls-11, .cls-12, .cls-13, .cls-14, .cls-15, .cls-16, .cls-17, .cls-18, .cls-19, .cls-20, .cls-21 {
        stroke-miterlimit: 10;
      }

      .cls-1, .cls-2, .cls-3, .cls-4, .cls-5, .cls-6, .cls-7, .cls-8, .cls-9, .cls-10, .cls-11, .cls-13, .cls-14, .cls-15, .cls-16, .cls-17, .cls-18, .cls-19, .cls-20, .cls-21 {
        stroke: #f2f2f2;
      }

      .cls-2 {
        fill: #f8f7f8;
      }

      .cls-3 {
        fill: #d87274;
      }

      .cls-4 {
        fill: #0d8188;
      }

      .cls-5 {
        fill: #8956a3;
      }

      .cls-6 {
        fill: #d5b8d7;
      }

      .cls-6, .cls-7, .cls-16, .cls-21 {
        stroke-width: 2.92px;
      }

      .cls-7 {
        fill: #c29fc9;
      }

      .cls-8 {
        fill: #7a4199;
      }

      .cls-9 {
        fill: #0f8188;
      }

      .cls-10 {
        fill: #e69b9b;
      }

      .cls-11 {
        fill: #13838a;
      }

      .cls-12 {
        fill: #fff;
        stroke: #fff;
        stroke-width: 3.86px;
      }

      .cls-13 {
        fill: #d03435;
      }

      .cls-14 {
        fill: #c9a1ca;
      }

      .cls-15 {
        fill: #999;
      }

      .cls-16 {
        fill: #916bad;
      }

      .cls-17 {
        fill: #12838a;
      }

      .cls-18 {
        fill: #19858c;
      }

      .cls-19 {
        fill: #b281b9;
      }

      .cls-20 {
        fill: #d65757;
      }

      .cls-21 {
        fill: #a17cb6;
      }
    </style>
  </defs>
  <g>
    <path class="cls-7" d="M132.52,369.9c35-9.48,70.72-13.76,106.73-15.49-7.5-26.83-18.3-52.85-33.02-75.85-22.2-34.72-53.23-62.59-94.95-76.05-30.88,68.9-51.23,108.64-2.6,174.87,7.86-2.79,15.81-5.29,23.85-7.47h0Z"/>
    <path class="cls-21" d="M260.6,81.88H101.82c31.01,29.77,24.78,77.39,9.45,120.62,41.72,13.46,72.75,41.33,94.95,76.05,92.3-7.55,31.62-71.74,54.19-108.9-11.65-27.92-11.76-59.54,.19-87.77h0Z"/>
    <path class="cls-6" d="M260.6,81.88c-11.97,28.23-11.84,59.85-.19,87.77,71.71-50.41,197.45,38.09,221.7-87.77h-221.5Z"/>
    <path class="cls-6" d="M307.03,353.48c2.23-2.5,5.49-4.2,9.84-4.27,13-.23,26.01-.24,39-.05,1.18-23.15-.64-46.54-7.29-67.63-12.67-53.69-70.57-62.84-88.18-111.88-22.55,37.06,38.08,101.42-54.19,108.9,14.71,23.01,25.52,49.02,33.02,75.85,22.53-1.09,45.17-1.18,67.8-.92h0Z"/>
    <path class="cls-7" d="M355.86,349.16c40.89,.59,81.66,3.29,122.19,8.06-5.06-18.92-5.38-38.39,1.34-56.53,3.43-9.61,10.42-17.59,19.09-24.22-39.95-41.84-99.34-11.96-149.91,5.06,6.65,21.09,8.47,44.48,7.29,67.63h0Z"/>
    <path class="cls-16" d="M553.39,368.51c7.4,1,14.8,2.24,22.19,3.77,1.13,.24,2.2,.65,3.17,1.19,9.75,2,19.48,4.09,29.19,6.34,2.48,.57,4.43,1.61,5.93,2.94h47.73c-7.03-26.25-22.44-48.94-49.4-58.81-15.22-5.47-29.05,5.47-42.88,9.57-38.58,12.52-48.89-34.81-70.83-57.04-25.77,19.32-28.26,51.32-20.32,80.75,25.18,2.96,50.27,6.72,75.23,11.28h0Z"/>
    <path class="cls-21" d="M626.16,218.55c42.58-30.81,43.48-95.08,16.34-136.67h-160.39c-24.42,125.96-149.79,37.29-221.7,87.77,17.6,49.03,75.52,58.22,88.18,111.88,50.58-17.02,109.95-46.9,149.91-5.06,38.03-27.71,91.43-29.47,127.66-57.92"/>
    <path class="cls-6" d="M855.2,257.9c-62.13-132.13-158.39,77.76-229.06-39.35-36.24,28.45-89.61,30.21-127.66,57.92,21.94,22.22,32.26,69.55,70.83,57.04,13.83-4.1,27.67-15.04,42.88-9.57,26.95,9.87,42.37,32.55,49.4,58.81h203.73c-.93-42.44,5.09-88.26-10.13-124.84"/>
    <path class="cls-7" d="M907.74,231.19c14.8-22.39,4.58-48.82-23.01-54.95-20.14-13.73-46.99-16.47-71.22-26.4"/>
    <path class="cls-7" d="M776.82,103.76s.11-.09,.17-.13c-5.57-1.7-11.12-3.48-16.64-5.33-6.36-1.13-12.74-2.15-19.15-3.01-7.76,1.3-15.54,2.34-23.42,2.48-12.8,.23-25.12-2.91-37.53-4.95-10.58-.21-21.17-.34-31.75-.35,20.67,41.25,16.74,97.81-22.37,126.09,70.63,117.1,166.96-92.78,229.06,39.35,19.95-2.74,42-7.61,52.54-26.71l-94.22-81.35c-20.99-8.56-37.41-21.24-36.69-46.08h0Z"/>
    <path class="cls-16" d="M815.8,113.82c-15.36-3.3-30.49-7.5-45.46-12.26-.48,1.2-.84,2.46-1.07,3.76-5.42,28.74,23.23,35.96,44.21,44.52,9.68-19.63,23.1-27.94,38.47-30.44-12.17-.86-24.29-3.03-36.17-5.58h.01Z"/>
    <path class="cls-16" d="M937.28,126.78c-17.86-1.69-35.12-5.09-52.36-9.45-.91,.46-1.88,.81-2.92,.98-2.3,.37-4.59,.65-6.89,.88,28.01,3,59.07,14.86,84.99,10.25,2.2-.15,4.39-.42,6.56-.77-9.81-.42-19.62-.95-29.38-1.88h0Z"/>
    <path class="cls-21" d="M964.96,235.04c-18.25,1-40.95,4.19-57.23-3.86-10.54,19.1-32.58,23.97-52.54,26.71,15.22,36.58,9.2,82.4,10.13,124.84h69.49c-5.62-16.76-4.68-33.6,13.54-45.13,39.94-22.73,101.03-62.2,82.38-105.6-21.87-.41-44.23,2.3-65.78,3.03h.01Z"/>
    <path class="cls-6" d="M960.1,129.43c-48.85,8.7-116.2-41.25-146.58,20.41,24.24,9.94,45.6,14.42,71.22,26.4,25.55,11.94,37.82,32.58,23.01,54.95,38.1,13.07,82.9-1.73,123.01,.83-18.14-34.14-73.66-60.14-70.65-102.58h0Z"/>
    <path class="cls-16" d="M1114.53,263.51c-22.01-22.03-53.15-31.57-83.78-31.49,18.65,43.4-42.46,82.87-82.38,105.6-18.22,11.53-19.16,28.37-13.54,45.13h210.8c2.28-40.53,2.27-89.62-31.1-119.23"/>
    <path class="cls-21" d="M1118.81,132.4c-32.37,2.05-64.76,1.97-97.47-.96-18.19-1.63-36.45-2-54.7-2.78-2.17,.35-4.36,.62-6.56,.77-3,42.47,52.5,68.43,70.65,102.58,30.61-.08,61.78,9.46,83.78,31.49,12.27-25.65,53.92-35.47,58.63-66.17,5.81-31.81-32.19-46.02-54.34-64.93h.01Z"/>
    <path class="cls-7" d="M1245.49,232.2c-16.55-20.17-45.13-33.68-72.32-34.87-4.7,30.69-46.37,40.53-58.63,66.17,33.37,29.62,33.37,78.69,31.1,119.23h155.34c-62.17-71.29-23.89-108.01-55.47-150.54"/>
    <path class="cls-6" d="M1258.87,113.41c-25.76,4.44-51.52,8.91-77.41,12.54-20.93,2.93-41.79,5.13-62.65,6.46,22.15,18.9,60.15,33.08,54.35,64.93,27.2,1.19,55.78,14.69,72.32,34.87,19.82-12.51,39.85-24.52,54.73-41.59,23.56-24.42,22.65-56.14,13.85-86.42-18.51,2.24-36.91,6.07-55.18,9.22h0Z"/>
    <path class="cls-16" d="M1400.19,318.37c-25.14,6.34-50.23,7.78-63.11-14.94-11.07-16.41,11.07-36.92,4.15-56.07-6.72-22.17-21.64-42.53-41.03-56.74-14.86,17.07-34.9,29.08-54.73,41.59,31.43,41.95-6.53,79.61,55.47,150.54h185.84c1.13-30.99-5.63-85.06-50.12-75.22-11.14,3.21-23.82,7.65-36.49,10.84"/>
    <path class="cls-21" d="M1473.91,225.76c-23.53-11.52-44.53-25.11-55.21-49.53-10.44-25.34,6.49-49.4,25.73-72.61-36.3,2.54-73.61-2.59-109.83-1.16-6.88,.27-13.72,.89-20.57,1.72,8.8,30.28,9.73,62.02-13.85,86.42,19.39,14.21,34.31,34.57,41.03,56.74,6.92,19.15-15.22,39.66-4.15,56.07,12.88,22.73,37.97,21.28,63.11,14.94-50.73-90.76,11.05-70.81,73.72-92.6h.01Z"/>
    <path class="cls-6" d="M1563.95,98.29c-2.6-6.09-6.03-11.5-10.04-16.41h-91.33c-57.77,59.83-68.39,105.85,11.33,143.89,53.87-14.63,114.46-69.81,90.04-127.48h0Z"/>
    <path class="cls-7" d="M1486.79,370c4.8-1.26,9.63-2.45,14.5-3.51,19.09-4.16,38.64-5.59,58.03-7.82,6.83-2.49,13.72-4.79,20.78-6.58,2.75-.7,5.55-1.34,8.34-1.94-.32-14.56-3.25-28.89-8.92-42.25-16.79-44.02-64.99-63.89-105.59-82.13-62.82,21.8-124.41,1.91-73.72,92.6,12.67-3.2,25.36-7.63,36.49-10.84,38.84-8.58,48.92,31.52,50.11,62.48h-.01Z"/>
    <path class="cls-21" d="M1630.35,122.9c18.51-22.61,43.02-32.5,68.82-41.03h-145.27c46.61,57.9-19.56,128.94-80,143.89,40.59,18.23,88.81,38.13,105.59,82.13,124.83-71.35,9.7-123.41,50.85-184.99h0Z"/>
    <path class="cls-7" d="M1667.47,345.92c1.95-.17,3.9-.35,5.87-.51,17.18-1.35,34.9-2.84,52.13-1.45,6.5,.52,12.91,1.47,19.26,2.71-4.86-24.63-18.9-48.34-28.82-70.75-20.78,7.68-45.97,20-50.95,41.18-2.52,9.56-2.61,19.11-1.01,28.52,1.18,.1,2.37,.19,3.54,.31h-.01Z"/>
    <path class="cls-6" d="M1663.78,345.6c-5.19-31.52,10.62-57.03,52.13-69.68-18.8-37.76-15.67-81.19,11.3-116.09,19.24-22.58,37.42-48.27,31.86-77.95h-59.87c-25.79,8.52-50.3,18.42-68.82,41.03-41.13,61.42,73.93,113.79-50.85,184.99,5.67,13.36,8.6,27.69,8.92,42.25,24.39-5.24,50.09-6.64,75.34-4.54h0Z"/>
    <path class="cls-7" d="M1865.46,253.03c46.33-2.72,96.89-30.13,105.58-75.84-37.77-18.2-101.83-43.16-91.73-95.31h-120.27c7.87,74.66-90.37,92.34-43.15,194.05,47.86-17.28,98.15-15.82,149.56-22.89"/>
    <path class="cls-6" d="M1969.28,139.31c-9.16-27.16-31.79-43.22-55.79-57.44h-34.18c-10.07,52.17,53.94,77.09,91.73,95.31,2.59-12.05,2.27-24.86-1.76-37.87h0Z"/>
    <path class="cls-21" d="M1755.38,349.05c17.44-3.24,34.81-6.87,52.32-9.7,23.78-3.84,47.88-6.33,71.99-4.63,19.8,1.39,39.65,4.2,59.32,6.92,8.08-.61,16.16-.91,24.25-.95-.47-.75-.95-1.49-1.47-2.22-4.36-6.07-10.43-11.09-18.8-14.54-34.32-13.57-72.43-34.63-77.54-70.9-51.41,7.07-101.69,5.61-149.56,22.89,9.92,22.4,23.96,46.11,28.82,70.75,3.58,.7,7.12,1.52,10.67,2.39h0Z"/>
    <path class="cls-7" d="M2039.56,345.77c20.4,2.32,40.73,5.7,61.26,6.59,17.79,.78,35.59,1.04,53.38,1.75,16.61,.66,33.24,1.56,49.73,3.72-.22-24.07-3.67-48-11.58-69.11-12.44-35.67-41.4-62.84-81.74-70.14-13.71,50.32-57.82,86.84-113.67,101.24-11.29,3.04-27.89,6.85-35.15,18.64,.51,.72,1,1.46,1.47,2.22,25.5-.15,51,2.21,76.29,5.08h.01Z"/>
    <path class="cls-6" d="M2244.8,275.55c38.42-16.66,77.69-53.4,21.9-81.54-48.87-18.24-103.57-34.61-46.67-80.83"/>
    <path class="cls-6" d="M2366.11,97.61c-13.82-2.42-27.03-6.44-38.36-15.73h-239.69c26.28,40.33,33.33,92.51,22.56,136.71,40.35,7.3,69.31,34.46,81.74,70.14,18.21-2.3,36.06-6.19,52.44-13.17l-24.78-162.36c12.46-8.42,72.43-12.74,146.07-15.58h.01Z"/>
    <path class="cls-21" d="M2299.07,382.74h166.09c-3.71-24.06-19.46-46.9-42.14-56.07-44.35-12.26-73.54,31.61-133.56-3.44-2.99,19.19,1.78,39.73,9.61,59.51Z"/>
    <path class="cls-6" d="M2270.53,354.92c6.76,.15,13.54,.46,20.31,1.01-2.3-11.08-3.02-22.09-1.37-32.7-19.71-11.05-36.17-27.94-44.67-47.68-16.38,6.98-34.24,10.87-52.44,13.17,7.35,19.62,10.85,41.66,11.48,64,22.01,2.93,44.57,1.7,66.69,2.2h0Z"/>
    <path class="cls-16" d="M2295.75,303.42c-3.22,6.37-5.23,13.01-6.29,19.81,60.11,35.05,88.85-8.77,133.56,3.44,22.67,9.18,38.43,32.02,42.14,56.07h55.45c-18.65-213.65-121.24-50.73-166.34-133.97-24.53,11.89-45.19,28.86-58.52,54.65h0Z"/>
    <path class="cls-7" d="M2214.55,116.62c-56.91,46.31,3.31,59.12,52.15,77.39,55.78,28.1,16.49,64.94-21.91,81.54,8.48,19.74,24.96,36.62,44.67,47.68,6.17-34.5,35.36-60.26,64.81-74.46-10.6-21.96-8.94-46.2-18.4-68.43-18.65-49.55-73.22-61.68-121.32-63.72Z"/>
    <path class="cls-21" d="M2543.51,122.56c-52.65-1.58-106.63-7.05-155.81-26.83-5.4-2.17-9.52-6.39-10.1-11.82-67.42,3.23-129,11.03-157.58,29.28,48.1,2.04,97.19,17.6,115.84,67.15,9.48,22.24,7.82,46.48,18.4,68.43,66.98-34.94,168.16-17.12,219.21-82.24,10.38-12.64,17.61-27.63,22.06-43.58-17.35,.16-34.68,.12-52.03-.39h0Z"/>
    <path class="cls-6" d="M2609.77,359.49c-3.94,8.78-.15,16.85,5.85,23.25h50.01c7.14-18.74,7.15-38.41,4.48-58.46-20.76,9.23-48.29,15.43-60.34,35.21Z"/>
    <path class="cls-21" d="M2618.07,192.65c-13.9-11.78-29.06-19.48-44.6-26.12-51.06,65.14-152.2,47.3-219.21,82.24,44.99,83.19,147.74-79.62,166.34,133.97h95.02c-28.1-32.37,31.83-48.54,54.49-58.46-8.7-46.37-13.61-99.01-52.04-131.63h0Z"/>
    <path class="cls-16" d="M2786.97,276.56c-33.12,21.94-77.32,33.18-116.84,47.72,2.67,20.04,2.66,39.71-4.48,58.46h173.32c-29.95-26.58-49.66-66.52-52.01-106.18h.01Z"/>
    <path class="cls-21" d="M2817.66,248.06c-8.31,11.32-19.53,21.1-31.46,28.99,2.35,39.66,12.26,79.11,42.21,105.69h112.88c2.17-2.16,80.22-68.08,82.56-111.17-69.4,19.4-145.25,16.98-206.2-23.5h.01Z"/>
    <path class="cls-7" d="M2917.33,120.36c-10.51,1.06-21.04,2.05-31.57,2.42-21.12,.75-42.29,0-63.45-.34,18.55,40.21,17.86,87.75-4.63,125.62,60.95,40.48,135.57,45.26,204.97,25.86,.57-16.38-3.78-32.46-14.46-47.09-31.55-34.2-90.72-64.61-90.85-106.48h-.01Z"/>
    <path class="cls-7" d="M3174.52,95.97c-8.12,2.61-16.07,5.59-23.74,8.39-8.31,3.03-16.6,6.06-24.94,8.81,9.55,23.08,30.12,42.8,50.2,55.29,15.78-23.87,28.72-49.98,42.21-75.75-14.55,1.78-29.13,2.78-43.73,3.26h0Z"/>
    <path class="cls-16" d="M3126.07,113.08c-18.88,6.24-38.03,11.11-58.31,11.53-10.71,.22-21.36-.46-32-1.49-15.69,46.84,28.01,73.08,32.51,134.26,43.87-18.63,83.58-49.39,107.76-88.92-21.76-13-39.3-31.84-49.95-55.37h-.01Z"/>
    <path class="cls-6" d="M3035.76,123.12c-19.2-1.87-38.33-4.9-57.59-5.99-20.42-1.16-40.81,1.22-61.2,3.27-1.6,57.7,111.29,84.44,105.66,153.53,15.55-4.34,30.82-9.91,45.62-16.55-4.51-61.2-48.18-87.43-32.51-134.26h.01Z"/>
    <path class="cls-16" d="M3068.27,257.38c-14.8,6.64-30.09,12.2-45.62,16.55-10.93,37.31-37.79,68.88-71.17,101.98-2.17,1.08-4.34,4.68-6.53,6.84h99.82c21.5-38.17,29.2-81.93,23.5-125.36h0Z"/>
    <path class="cls-21" d="M3406.59,255.56c1.04,1.13,2.05,2.28,3.04,3.43,38.35-70.31-93.27-113.11-51.79-177.11h-133.87c-15.63,29.22-29.92,59.35-47.93,86.58,74.73,39.48,171.7,19.89,230.56,87.1h-.01Z"/>
    <path class="cls-6" d="M3409.65,258.98c-58.05-70.8-157.66-50.6-233.61-90.53-24.18,39.53-63.9,70.3-107.76,88.92,5.7,43.44-2.01,87.19-23.5,125.36h124.43c-8.56-16.89-23.17-35.58-15.77-54.7,12.45-27.35,48.42-42.4,78.85-36.92,58.96,15.9,144.04,34.14,177.35-32.13h.01Z"/>
    <path class="cls-6" d="M3455.25,358.41c-1.48-7.19-3.18-14.33-5.17-21.37-16.82,7.77-32.65,17.11-46.92,28.74,17.13-2.17,34.24-4.56,51.36-6.89,.25-.16,.48-.33,.73-.49h0Z"/>
    <path class="cls-21" d="M3299.21,373.67c34.9-.08,69.46-3.52,103.93-7.88,14.28-11.63,30.1-20.98,46.92-28.74-8.02-28.39-20.53-55.2-40.44-78.06-12.51,25.06-41.11,44.58-70.83,47.17-37.35,2.74-70.55-6.84-106.52-15.04-30.43-5.47-66.4,9.57-78.85,36.92-7.43,19.13,7.22,37.81,15.76,54.7h117.38c1.58-4.99,5.78-9.06,12.64-9.07h0Z"/>
    <path class="cls-7" d="M3654.03,231.73c-33.86-11.01-70.9,2.23-104.96-8.99-53.41-15.27-150.9-88.58-84.29-140.86h-106.95c-41.49,63.89,90.17,106.91,51.79,177.11,19.91,22.86,32.41,49.67,40.44,78.06,44.24-20.43,95.37-29.99,143.27-41.83,31.72-7.84,51.17-33.21,60.69-63.49Z"/>
    <path class="cls-6" d="M3651.44,230.94c.87,.25,1.73,.52,2.59,.79,17.47-53.02,2.96-109.41-35.15-149.85h-154.09c-66.59,52.31,30.86,125.55,84.29,140.86,33.2,10.94,69.17-1.36,102.37,8.21h0Z"/>
    <path class="cls-16" d="M3478.79,347.94c31.78-8.89,66.48-5.46,98.7-1.17,1.45,.19,2.91,.4,4.36,.61,13.24-.38,26.49-.57,39.74-.7,20.09-20.95,50.85-33.65,78.91-35.51,1.04-34.23-9.43-70.71-46.47-79.43-9.52,30.27-28.95,55.65-60.69,63.49-47.91,11.84-99.02,21.4-143.27,41.83,1.99,7.04,3.69,14.17,5.17,21.37,7.08-4.64,14.98-8.08,23.54-10.47v-.02Z"/>
    <path class="cls-7" d="M3696.98,345.77c2.37-11.26,3.56-22.84,3.51-34.61-28.04,1.86-58.82,14.56-78.91,35.51,25.14-.25,50.27-.28,75.39-.91h0Z"/>
    <path class="cls-7" d="M3842.73,190.56c-25.58,.44-51.3,.56-76.46-2.01-49.83-4.1-86.52-60.6-67.58-106.67h-79.79c38.11,40.44,52.61,96.84,35.15,149.85,37.03,8.73,47.49,45.21,46.47,79.43,30.54-3.18,61.46-.98,89.3-13.21,39.38-17.66,58.56-67.97,52.94-107.39h-.03Z"/>
    <path class="cls-16" d="M3698.68,81.88c-18.94,46.08,17.76,102.57,67.59,106.67,25.18,2.57,50.88,2.46,76.46,2.01-5.42-39.14-31.64-73.21-55.94-108.68h-88.11Z"/>
    <path class="cls-7" d="M3942.5,354.85c6.17,.57,12.52,.78,18.98,.81-2.95-26.86-7.58-53.53-15.72-79.13-39.01,10.45-80.06,27.16-96.88,65.94,17.11,1.55,34.06,4.44,50.69,9.41,10.46,3.12,20.89,6.28,31.36,9.34,2.5-3.93,6.81-6.81,11.57-6.37h0Z"/>
    <path class="cls-16" d="M3714.52,345.23c44.13-1.69,89.66-6.77,134.03-2.8,14.5-35.41,60.4-57.51,97.22-65.9-7.95-22-30.21-83.86-57.77-86.62-14.94,0-30.09,.38-45.28,.64,5.62,39.43-13.56,89.72-52.94,107.39-27.83,12.23-58.75,10.03-89.3,13.21,.04,11.77-1.15,23.34-3.51,34.61,5.85-.15,11.69-.31,17.54-.54h0Z"/>
    <path class="cls-21" d="M4067.49,367.57c3.89,.13,7.75,.57,11.58,1.33-.06-17.61-1.4-35.2-4.3-53.17-5.13-30.46-36.52-48.94-53.27-73.47-19.81,18.1-47.97,27.83-75.71,34.27,8.13,25.6,12.77,52.27,15.72,79.13,35.8,.16,74.92-5.37,106.01,11.91h-.01Z"/>
    <path class="cls-16" d="M4152.22,81.88h-103.75c9.9,52.96,13.29,119.74-26.99,160.39,54.21,62.8,57.53,52.23,57.37,140.48h73.37V81.88Z"/>
    <path class="cls-6" d="M3943.07,81.88h-156.29c24.31,35.47,50.52,69.55,55.94,108.68,15.19-.26,47.77,4.03,61.09,11.97,15.73,6.9,33.93,51.86,41.96,74,27.74-6.44,55.9-16.16,75.71-34.27-36.91-47.5-70.76-99.85-78.42-160.39h.01Z"/>
    <path class="cls-21" d="M4044.32,207.69c12.45-41.03,13.83-83.42,4.15-125.82h-105.4c7.66,60.55,41.5,112.88,78.42,160.39,10.11-9.2,18.09-20.52,22.84-34.57h-.01Z"/>
    <path class="cls-16" d="M2786.97,276.56c11.91-7.89,22.4-17.18,30.71-28.5"/>
    <path class="cls-16" d="M1897.34,247.35c-10.67,2.42-21.3,4.23-31.89,5.68,5.12,36.27,43.22,57.33,77.54,70.9,8.37,3.45,14.44,8.47,18.8,14.54,7.26-11.8,23.86-15.6,35.15-18.64,55.85-14.4,99.96-50.93,113.67-101.24-47.93-12.17-95.19-22.58-139.58-41.4-7.18,33.54-37.06,61.11-73.69,70.16h0Z"/>
    <path class="cls-21" d="M2088.05,81.88h-174.55c35.26,18.32,68.03,53.59,57.55,95.31,44.39,18.83,91.65,29.23,139.58,41.4,10.76-44.19,3.71-96.39-22.56-136.71h-.01Z"/>
    <path class="cls-21" d="M73.38,376.04c9.97-2.2,19.92-4.4,29.92-6.28-41.74-61.88-21.69-100.98,7.95-167.26,15.34-43.23,21.57-90.86-9.45-120.62H2.14V382.74h62.44c1.42-3.15,4.26-5.7,8.81-6.7h-.01Z"/>
    <path class="cls-6" d="M2793.4,122.39c-29.96,.6-59.76,.31-89.71-.24-36.05-.67-72.1,.48-108.14,.8-4.44,15.95-11.69,30.94-22.06,43.58,72.58,25.44,28.59,170.38,96.64,157.75,45.89-8.51,131.45-44.53,147.55-76.22,23.72-37.34,22.81-85.35,4.12-125.63-9.46-.15-18.94-.23-28.4-.04Z"/>
  </g>
  <path class="cls-12" d="M4155,119.89c-80.43-3.89-243.28-33.52-460.78-34.9s-467.98,34.92-467.98,34.92c0,0-159.94,34.16-426.41,34.91-266.45,.75-435.09-34.91-435.09-34.91,0,0-223.86-33.53-480.75-34.88-256.89-1.34-424.77,34.9-424.77,34.9,0,0-118.53,30.59-344.17,34.6-225.64,4.01-442.48-33.41-442.48-33.41,0,0-163.03-35.41-317.26-36.08S2.65,127.13,2.65,127.13v-41.52S201.08,42.85,355.31,43.52s317.26,36.08,317.26,36.08c0,0,216.84,37.41,442.48,33.41,225.64-4.01,344.17-34.6,344.17-34.6,0,0,167.88-36.24,424.77-34.9,256.89,1.34,480.75,34.88,480.75,34.88,0,0,168.65,35.66,435.09,34.91,266.45-.75,426.41-34.91,426.41-34.91,0,0,250.47-36.3,467.98-34.92,217.51,1.38,380.35,31.01,460.78,34.9v41.52Z"/>
  <path class="cls-12" d="M4154.28,392.22c-80.43-3.89-243.28-33.52-460.78-34.9s-467.98,34.92-467.98,34.92c0,0-159.94,34.16-426.41,34.91-266.45,.75-435.09-34.91-435.09-34.91,0,0-223.86-33.53-480.75-34.88-256.89-1.34-424.77,34.9-424.77,34.9,0,0-118.53,30.59-344.17,34.6s-442.48-33.41-442.48-33.41c0,0-163.03-35.41-317.26-36.08C200.36,356.7,1.93,399.46,1.93,399.46v-41.52s198.43-42.76,352.66-42.09,317.26,36.08,317.26,36.08c0,0,216.84,37.41,442.48,33.41,225.64-4.01,344.17-34.6,344.17-34.6,0,0,167.88-36.24,424.77-34.9,256.89,1.34,480.75,34.88,480.75,34.88,0,0,168.65,35.66,435.09,34.91,266.45-.75,426.41-34.91,426.41-34.91,0,0,250.47-36.3,467.98-34.92,217.51,1.38,380.35,31.01,460.78,34.9v41.52h0Z"/>
  <g>
    <path class="cls-2" d="M2303.58,232.5c-1.21-28.08,.27-56.93-10.01-84.31,.87-31.17-9.87-63.9-42.23-76.77-51.3-48.82-121.27-79.48-194.65-68.79-52.24,5.92-100.78,31.82-135.57,69.44-1.27,1.41-3.43,2.32-5.37,2.7-9.61,2-19.27,3.73-28.94,5.6-29.01,5.99-20.48,48.95-13.1,68.72,.87,2.13,1.14,4.76,.74,7.02-1.81,11.01-4.43,21.97-5.91,32.98-1.88,13.92-1.54,27.89-.07,41.8,.2,2.25-.07,3.86-2.76,4.64-24.58,6.63-8.12,37.87-3.16,53.01,4.7,6.7,15.17-.84,21.35,2,2.96,6.38,6.38,12.62,8.32,19.25,2.89,13.08,3.43,26.92,7.92,39.74,1.88,5.73,5.78,7.47,11.82,6.25,5.17-.06,11.48-5.79,15.44-1.68,82.59,87.15,238.23,85.66,318.87-3.22,1.68-1.74,3.09-2.32,5.51-1.41,52.04,13.33,66.61-26.92,37.27-63.77,20.48,11.79,26.19-5.73,25.92-22.93,.27-11.4-2.55-21.9-11.41-30.27h0Zm-4.16,7.67c-17.13-.26-32.7-6.44-49.48-6.76,6.85-10.82,42.16-5.73,49.48,6.76Zm-5.57-15.27c-23.7-8.31-45.66-10.17-61.3,13.46-5.1-6.51-10.14-12.95-15.58-19.9,3.83,0,7.12-.32,10.34,.06,30.55,3.03,59.36-21.64,61.84-50.43,4.97,18.74,6.18,37.62,4.7,56.81h0Zm-151.95,61.64c3.63-2.19,7.32-4.38,11.08-6.57,.33,.13,.6,.19,.94,.32-.74,5.73-1.47,11.4-2.22,17.13-.27,.06-.54,.19-.8,.32-2.89-3.54-5.78-7.15-8.99-11.21h0Zm4.97,39.03c-2.15,5.99-9.74,2.97-14.5,2.25-5.51-1.48-1.27-14.43-9.81-24.99,5.37-.84,18.4-7.73,20.89-3.29,4.9,7.79,6.98,17.27,3.43,26.02h0Zm-9.61-45.92c-8.66,5.54,3.89,10.05-3.02,13.33-5.3,2.32-10.68,4.64-15.98,6.95-.27-.26-.47-.51-.74-.78,9.2-26.6,21.02-52.11,31.08-78.52,8.99,10.56,7.79,23.96,5.71,36.52-1.74,10.11-8.79,16.87-17.06,22.48h0Zm-46.12,31.06c-2.42,.97-2.89-.51-1.95-2.51-.6-6.83-1.21-13.59-1.68-20.41-1-9.02-1.34-19.39,8.19-24.28,2.89-.9,8.59-7.98,10.61-4.19,7.12,11.27,18.53,2.13,15.91,9.21-3.96,10.7-7.85,21.44-11.88,32.14-.47,1.16-1.27,2.57-2.35,3.03-5.51,2.45-11.21,4.76-16.86,7.02h0Zm6.58,16.35c-3.76-.65-14.1-2.7-9.13-7.92,3.22-2.84,7.19-5.48,11.61-6.38,7.32-1.81,7.45-1.61,7.65,5.54,.94,7.41-4.23,9.27-10.14,8.76h0Zm-77.22-14.81c.07-3.09,2.29-5.09,5.37-5.86,6.25-2.51,17.19-.58,18.47-8.76,1.14-8.18,.67-15.08,.74-23.7,14.1,8.11,6.78,15.08,14.5,22.74,4.09,2.77,30.68,30.73,16.11,30.01-16.58,1.74-33.24,1.81-49.88,.58-6.78-1.48-4.76-9.98-5.3-15.01h0Zm-97.63-91.46c-15.98-3.03-30.55,6.83-45.66,10.82-2.29-23.57-1-46.76,4.9-69.69,.6-2.13,1.47-2.57,3.83-2.84,10.28-.9,20.48-3.54,30.82-4.19,28,.78,9.54,47.08,23.23,63.25-5.51,3.03-10.88,4.44-17.13,2.64h0Zm10.48,39.87c-.2,1.87-1,3.8-1.41,5.67-1.95-.71-4.16-1.03-5.64-2.19-9.06-7.28-18-14.75-27.19-22.35,6.18-6.12,11.21-13.59,21.22-14.43,4.76-.45,6.31,.26,7.32,4.64,2.15,9.54,3.83,19.13,5.71,28.66Zm81.25-153.16h.6c-.4,6.51-.8,13.01-1.07,19.58,.47,5.6-14.24,14.81-18.2,7.28-5.78-39.29-31.56-29.95,9.54-45.22,4.7-1.1,8.99-1.87,8.46,4.25,.2,4.7,.47,9.4,.67,14.11h0Zm-24.58,29.96c-6.18,.97-11.21,1.29-16.38,4.12-2.89,1.81-3.76,.71-5.37-1.54-5.57-7.15-10.01-14.62-17.19-20.55,6.78-5.03,12.89-9.4,19.54-14.04,2.02-1.48,3.63-1.35,5.64,.19,9.94,8.05,10.74,20.29,13.77,31.82Zm-44.25,75.04c7.25-8.63,18.2-10.3,25.38-17.39,7.99,14.24-14.5,20.03-25.38,17.39Zm11.15,16.94c-2.82-1.61-5.23-2.9-8.06-4.44,5.64-2.32,8.26-.84,8.06,4.44Zm-3.89-100.55c15.64,14.49,15.17,36.58,19.74,55.65-.6,4.57-12.82,17.65-15.44,8.82-1.27-15.91-4.43-31.43-9.54-46.57-2.82-11.08-17.13-11.85-10.14-17.27,6.38-6.19,8.73-7.6,15.37-.65h0Zm-.8,67.38c.6,6.32-9.2,13.01-10.41,5.54-1.21-14.62-2.49-29.24-5.85-43.54-1.95-10.7-15.51-9.34-11.75-14.94,3.02-5.41,6.78-6.05,11.48-1.87,14.84,14.43,12.69,36.27,16.51,54.81h0Zm-9.4,32.08c5.44,2.64,10.61,5.92,15.37,9.54,1.54,1.16,1.68,4.38,2.02,6.7,.94,7.08,1.41,14.24,2.49,21.32,.94,8.63,12.15,4.19,17.93,3.09,6.25-2.7,3.63-11.66,3.36-17.13,3.83,.38,13.37,4.44,10.14,8.38-8.93,8.89-17.46,18.1-27.12,26.22-1.95,1.81-3.76,1.61-5.98,.19-6.05-3.86-12.28-7.41-18.26-11.27-1.27-.78-2.49-2.57-2.62-4-1-13.2-2.89-26.47-2.96-39.74,.4-4.76,1.07-5.48,5.64-3.29Zm38.47,5.67c.54-6.76,1.68-13.27,8.99-16.68,4.76-2.13,12.75-2.57,14.91,2.9,1.95,8.31,3.63,16.68,5.17,25.12-.27,2.51-5.78,8.18-8.06,8.57-4.23-.45-8.93-5.28-13.43-6.57-6.25-2.51-8.12-7.28-7.59-13.33h0Zm-40.42,45.66c6.38,4.06,12.75,8.18,19.67,12.56-6.18,5.09-11.48,9.4-17.13,14.04-3.89-8.38-2.02-17.27-3.56-25.76,.33-.26,.67-.58,1-.84h0Zm8.39,37.55c4.97,.78,9.94,1.41,14.84,2.45,6.18,1.29,6.18,1.41,6.18,7.54s-.07,6.7-6.18,8.95c-5.1,1.22-14.71,6.19-16.51-1.41-.07-4.06-6.98-20.09,1.68-17.52h0Zm20.01-12.69c-.07,2.97,2.29,7.98-.94,9.73-6.92-.78-13.83-1.68-20.75-2.51-.07-.51-.2-1.03-.27-1.54,14.24-12.56,28.54-25.12,42.84-37.62,3.69,4.57,5.17,38.97,1.27,44.89-2.09-8.63-1.74-16.94-6.11-24.6-1.74-2.38-3.96-3.29-6.98-2-6.98,2.9-10.28,5.86-9.06,13.65h0Zm39.55,23.83c-5.1,5.09-13.03,5.41-15.58-2,5.37,.65,10.01,1.22,15.58,2Zm-1.27-5.41c-6.54-.81-9.81-4.42-9.81-10.82,0-14.43,.13-28.92,.07-43.41-.07-7.41,7.65-8.82,12.82-13.78,1.68,21.77,2.62,41.74,2.69,63.06,.07,4.51-1.14,5.54-5.78,4.96h0Zm5.57-109.94c-.47,.51-2.42,.26-3.43-.19-12.15-6.05-36.53-2.25-36.19,13.65,.94,11.08,3.09,22.03,3.49,33.17,.2,3.16-1.81,4.64-5.37,4.76-3.22,.06-3.56-2.13-3.76-4.32-.67-9.21-1.07-18.42-2.09-27.57-.47-4.13-1.74-8.18-3.29-12.05-1.07-2.64-.27-3.54,2.09-4.19,9.54-1.35,14.24-4.64,14.97-14.11,1.47-14.36-2.02-28.6-3.36-42.84-.94-13.01,.87-12.24,11.08-13.85,10.74-2,21.15-1.29,31.08-6.57,7.72,22.09,5.03,46.18,20.34,65.63-9.13,2.9-18.53,1.41-25.58,8.44v.02Zm65.14-72.85c8.59,2.19,17.13,4.38,23.63,10.76,2.69,2.7,5.91,6.25,1.07,8.7-3.89,1.81-5.17,8.38-10.14,7.28-9.33-2-14.44,.97-17.06,9.86-3.09,9.4-3.22,27.44-16.11,27.38-15.51,1.35-20.41-8.76-23.56-20.61,4.16,1.48,7.12,3.03,10.21,3.73,7.85,1.48,16.18-7.15,14.24-14.56-4.63-11.79-19.8-9.79-26.59,.26-.54-4.83-4.3-9.34-1.41-13.14,6.45-6.12,12.89-12.17,19.4-18.22,7.59-5.6,6.78,13.65,18.33,5.41,2.89-1.54,4.63-6.19,7.99-6.83h0Zm.6-19.39c17.73-3.16,13.63,5.86,15.17,18.68-5.1-2.19-17.33-2.64-18.06-7.79-.33-3.8-1.54-8.95,2.89-10.89h0Zm44.05,.71c3.29-4.64,7.92,1.22,12.28,2.45-8.66,10.43-14.17,21.77-15.37,34.65-16.25-3.93-3.89-29.11,3.09-37.1h0Zm-9.13,.64v-8.44c.27-.19,.6-.38,.87-.58,1.21,1.03,3.63,2.25,3.43,3.03-.47,2.25-1.88,4.32-2.96,6.44-.47-.13-.87-.32-1.34-.45Zm27.86,4.89c1.54,17-3.76,33.24-5.1,50.11-22.76-4.7-8.19-42.19,5.1-50.11Zm-.6-8.57c-6.45-2.06-13.23-3.6-19.2-6.51-13.57-5.48-12.55-19.84-8.86-32.01,2.49-11.66,15.44-12.24,25.45-10.37,2.96,.45,4.83,2.38,5.1,5.54,.67,7.67,1.34,15.33,1.88,20.81-.47,8.11-.8,13.98-1.07,19.9-.07,2.13-.87,3.41-3.29,2.64Zm-28.2,45.54c5.44,5.22,10.54,10.76,15.91,16.04,8.26,9.73-1.21,21.13-13.16,20.03-11.35-.51-12.15-1.1-13.9-11.85-.74-4.76-1.41-9.54-1.81-14.36-.8-6.57,6.85-14.3,12.96-9.86Zm16.25,80.77c-1.41,3.35-2.62,6.95-4.5,10.17-3.16,4.57-12.15,5.41-12.35-1.74-.47-4.83-1.07-9.6-1.07-14.43,2.55-9.6,17.93-6.19,17.19,5.67,.27,.13,.47,.19,.74,.32h0Zm-.07-14.56c3.49-2.57,6.92-5.03,10.34-7.54,.54,.26,1,.58,1.54,.9-1.54,4.57-3.02,9.14-4.83,14.75-2.62-2.97-4.5-5.16-7.05-8.11Zm9.94-13.27c-8.93,10.17-21.69,12.89-35.18,11.85v-.06c-4.5-.9-16.99,2.84-16.31-4.12-.2-6.44,1.21-13.08,8.86-14.56,14.04-3.6,28-.65,41.56,3.16,2.49,.71,2.76,2,1.07,3.73h0Zm-82.79,58.16c-3.43-2.9-4.83-4.57-8.19-6.89-8.73-5.48-2.49-19.45-8.59-28.47-.87-11.98,27.39-5.79,35.05-5.86,.07,.38,.07,.71,.13,1.1-1.27,.26-2.55,.84-3.83,.78-21.29-1.87-13.1,26.54-14.57,39.35h0Zm11.82-46.96v-.38c-4.23-.38-8.99,1.16-12.62-1.35,1.74-3.35,5.71-4.44,8.59-6.63,4.43-1.87,10.81-11.33,14.97-4.96,5.57,12.49,1.61,13.98-10.95,13.33h0Zm-21.02-57.59c9.87-.58,9.87,11.27,.47,11.21-7.85,.38-10.14-11.85-.47-11.21Zm8.59-38.19c-.2,1.03-1.21,2.06-2.09,2.77-7.92,6.32-15.91,12.56-23.9,18.87-.33-.13-.74-.19-1.14-.26-4.16-29.11-8.59-29.37,22.83-41.09,7.25-1.74,5.17,15.65,4.3,19.71h0Zm0-33.61c.07,6.76-.13,6.38-6.65,9.02-7.25,3.03-14.17,6.83-21.15,10.37-7.65,6.7-6.65-24.09-6.58-27.7,.13-2.32,1.14-3.03,3.69-2.7,8.99,1.16,18.13,2.19,27.19,3.03,5.03,0,3.16,4.83,3.49,7.98Zm-10.07-13.59c-.07,.26-.13,.58-.2,.84-7.59-1.54-15.24-3.03-22.83-4.51-1.95-.38-2.62-1.35-1.34-3.22,4.76-7.15,20.07-11.01,27.86-6.95,4.16,2.13,5.91,5.67,5.98,10.05,.4,5.28-5.91,3.48-9.47,3.8h0Zm-25.92,133.77c12.96-7.67,29.08-6.7,43.65-6.57,.13,.32,.33,.58,.54,.9-8.59,6.57-17.66,12.56-26.25,19.06-4.83,3.6-15.84,9.92-19.2,2-1.21-5.09-4.83-11.85,1.27-15.39h0Zm17.19,47.47c-1,34.27,7.52,29.3-17.8,33.36-.54-18.29-1.14-36.52-1.74-54.49,23.56,0,16.79-2.84,19.54,21.13Zm35.79,33.75c5.57-1.68,10.54,3.48,8.06,12.11-3.96-3.35-6.38-7.35-8.06-12.11Zm-6.11-7.47c-2.29,.06-3.16-.78-3.36-2.9-1.47-13.4-.87-26.79,1.27-40.06,.4-5.67,5.91-5.99,10.61-6.7,2.55-.51,3.83,.65,3.96,3.03,.87,15.39,2.35,31.43,2.89,46.57-5.44,0-10.41-.13-15.37,.06h0Zm11.08-90.11c2.62-7.54,3.09-20.81,8.59-26.22,3.96-3.22,6.45-2.32,7.39,2.57,1.34,7.28,2.82,14.49,4.09,21.77,.13,.84-.2,2.25-.74,2.51-4.7,1.87-8.46,4-13.57,5.03-1.47-1.35-6.52-2.45-5.78-5.67h0Zm9.06,35.56c.07-3.6,.74-4.32,4.56-4.32,5.1,.65,15.17-2.25,15.11,5.28,.87,12.11-9.13,17.46-18.53,23.9-2.02-8.76-.94-16.17-1.14-24.86h0Zm68.89-21.18c-14.5-15.52-28.41-8.51-21.49-16.3l-.07-.19,.2-.13c1.21-2.38,2.35-4.76,3.29-7.28l-.07-.26,.27-.19c2.76-6.7,4.56-13.72,5.85-20.81l-.07-.13,.13-.13c1.27-6.83,2.62-13.65,3.36-20.55,.27-.06,.47-.13,.74-.19,1.74,5.03,2.22,10.3,3.56,15.39,1,3.73,2.42,7.35,3.76,10.95l.2,.13-.07,.19c1.88,4.25,4.3,8.18,6.65,12.17l.27,.13v.26c5.85,7.54,11.55,12.95,19.74,18.81-6.38,1.68-11.95,.32-18.33,.45-6.92-.71-6.25,2.19-7.92,7.67h0Zm38.54-84.63c12.69,8.11-1.07,23.76,15.04,31.76,10.68,5.6,28.54,2.84,31.9-13.78,1.21-6.05,2.02-6.12,8.59-5.73,12.08,1.29,23.7-2,35.18-4.32-1.21,14.81-.54,30.92-7.52,44.57-2.49,4.38-6.31,6.89-11.55,7.98-28.94,6.83-53.51-10.3-80.24-17.59-6.58-1.93-13.57-1.22-19.94,1.87-9.4,4.38-10.74-42.25-9.06-48.05,2.96-15.84,30.15-3.67,37.6,3.29h0Zm-32.17-22.4c1.14-2.06,2.82-3.93,3.69-6.12,5.23-12.62,21.02-5.09,31.08-3.8,3.63,.84,4.03,2.25,2.76,5.54-2.29,5.86-4.56,11.79-6.98,17.9-8.93-4-18.67-7.92-28.87-6.19-5.37,1.03-3.02-4.83-1.68-7.35h0Zm44.32,38.01c.33-17.39,25.72-20.68,28.41-3.35,1.34,19.97-28.34,24.03-28.41,3.35Zm-8.93,103.05c-9.54-8.05-13.03,6.32-18,.19-2.29-3.8-16.58-15.27-4.03-14.56,13.5,.78,28.14,1.61,42.7,2.51,6.05,.38,6.72,.71,8.06,6.25,1.27,5.28,2.02,10.76,2.82,16.17,.4,2.64-.74,4.12-3.69,4.7-31.22,8.05-9.06-.06-27.86-15.27h0Zm-13.5,44.26c1.14-11.4,2.02-23.06,3.63-34.65,.87-5.86,3.29-6.38,8.06-2.51,13.63,9.34,7.25,40.9-11.68,37.17h0Zm-4.09-19.71c-.2,2.38-1.27,3.54-3.83,4-5.51,1.1-10.07,2.9-15.78,4.32,.54-15.33,1.14-30.14,1.68-44.89,.27-.19,.47-.32,.74-.45,5.91,6.38,11.28,13.14,16.45,20.03,3.69,5.03,.94,11.4,.74,17Zm39.35-42.38c-17.59-1.1-35.18-1.74-52.77-2.45-3.76-.13-4.7-1.03-4.43-4.7,.6-8.44,1.21-9.21,10.14-9.47,17.39-.78,35.72,2.38,47.94,15.33-.33,.45-.6,.84-.87,1.29Zm-19.74-25.12c-6.18,0-40.96-21.77-29.81-26.6,11.68-3.67,24.17,.19,34.78,5.16,2.96,1.48,4.43,4.76,5.1,9.4-2.29,4.51-2.62,14.3-10.07,12.05h0Zm64.86-10.57c-10.48,16.3-36.13,14.56-53.11,11.92,1.27-5.86,2.49-11.33,3.76-17.06,15.04,7.67,31.63,8.38,49.35,5.16h0Zm-105.68,93.97c.33-.13,.67-.26,1-.38,4.9,7.79,5.64,17.46,8.59,26.09,.6,4.57-5.91,8.51-10.61,9.73-1.34-12.17-.07-23.83,1-35.43h0Zm11.48,34.71c5.64,.84,3.83,4.38-.33,6.57-2.02-1.29-4.09-1.93-4.97-3.22-.74-1.16,2.96-3.48,5.3-3.35Zm2.29-13.14c-2.49-7.21-4.03-14.75-6.31-21.97-2.49-5.54,5.78-4.51,9.13-5.92,7.12-1.41,3.83,8.31,4.83,12.17,.47,5.54,3.09,7.15,8.59,5.54,12.02-3.22,15.98-14.56,19.13-24.79h.94c2.49,5.99,10.07,22.87,.67,25.51-10.48,3.86-21.42,6.83-31.63,11.4-3.09,1.35-4.3,1.22-5.37-1.93h0Zm9.4,6.5c9.67-4.64,20.27-7.15,30.48-10.5,2.42-.9,3.22,.06,3.89,1.93,2.29,5.99,0,12.68-5.85,16.75-6.45,4.51-14.24,6.95-22.69,6.95-3.09,.32-5.98-.65-7.99-3.54-4.43-6.05-3.83-8.63,2.15-11.59h0Zm32.1-41.41c-1.74-4.83,1.95-6.05,6.11-6.95,7.85-1.35,9.67,.71,8.79,8.76,.2,.06,.47,.06,.67,.13-1.14,5.99-2.22,11.98-3.43,17.9-.67,4.12-6.18,3.29-7.25,.06-1.81-6.57-3.29-13.27-4.9-19.9h0Zm71.57-152.26c1.54,8.63,1.74,8.89-7.39,10.82-8.12,1.74-16.45,2.7-24.65,4.06,0-.32-.07-.58-.13-.9-12.35,.71-13.03-.51-13.77-12.11-.2-9.27,12.08-2.45,17.59-3.29,7.92-.13,15.78-.65,23.63-1.48,2.82-.32,4.16-.19,4.7,2.9h0Zm-16.31-33.16c4.16,5.67,8.39,11.4,11.82,17.46,5.23,8.7-10.81,8.51-15.91,10.24-6.72-1.03-12.75-1.93-18.8-2.77-2.15-.32-2.69-1.41-2.29-3.41,1.61-8.38,7.39-13.78,14.17-18.42,2.96-1.93,7.59-5.73,11.01-3.09v-.02Zm-31.22-15.01c2.76-3.48,4.7-4,8.66-1.81,5.3,2.9,10.34,6.19,15.44,9.34-.13,.38-.27,.84-.4,1.22-16.45,8.95-25.05,25.31-27.26,43.22-9.74-3.41-20.01-6.89-28.41,1.1-2.09,1.87-3.22,.45-4.16-1.1-4.3-6.76-2.82-13.46,.87-19.84,8.39-13.92,25.58-19.19,35.25-32.14Zm-4.56-2.7c-8.39,7.35-17.59,13.85-26.86,20.22-6.52,1.68-16.25-2.7-23.3-3.22-3.56-.65-4.23-1.41-2.22-4.32,11.55-14.87,33.71-18.55,51.64-13.92,.27,.38,.47,.84,.74,1.22h0Zm-3.83-10.56c-44.18-2.84-55.86,11.46-76.28,45.73-.4-.06-.74-.13-1.14-.19-.94-13.27,3.76-27.05-1.68-39.81-7.39-13.2-29.48-9.47-40.02-1.41-3.22,2.38-4.83,5.73-4.9,9.54-.33,11.92-.47,23.76-.6,35.68-.54,8.31,1.41,16.87-1.41,24.92-.47,.06-1,.06-1.47,.13-5.3-7.15,2.29-23.9-10.48-24.03-26.32-.51-21.56,2.13-24.04,24.35-10.07-3.93-2.02-18.03-2.96-25.89,.94-20.93,1.74-59.9-31.83-49.34-4.23,1.61-8.26,3.73-12.28,5.86-8.19,4.64-10.68-8.89-27.73-5.35-19.54,2.45-39.35,8.18-59.02,7.79,76.35-80.64,214.4-83.93,295.84-7.98h0Zm-308.26,21.57c3.49-3.86,7.85-5.09,12.89-5.86,21.35-3.35,40.49-7.41,62.45-9.92,3.56,1.03,8.12,2.25,12.62,3.73,3.83,2.19,6.72,7.79,.27,8.89-16.51,4.83-31.9,11.85-46.26,20.93-16.11,10.17-30.01,22.67-42.43,36.71-3.89,4.38-8.73,6.7-14.71,7.54-4.83,.65-9.61,1.93-14.37,3.03-5.57,1.29-7.19,.71-8.52-4.64-.54-4.89-6.92-22.54-2.29-24.79,15.04-10.24,28.41-22.22,40.36-35.62h0Zm-4.76-3.08c-11.95,13.52-25.11,24.6-38.94,35.36-11.35-27.63,15.84-36.33,38.94-35.36Zm-54.66,178.67c-3.83-8.38-1-16.36,7.72-19.71,9.33-3.09,18.93-6.89,28.61-8.44,.33,.38,.67,.78,1,1.16-10.95,9.21-22.69,17.71-32.63,27.82-2.35,2.38-3.29,2.25-4.7-.84h0Zm25.05,21.84c-8.46-1.16-22.83,5.92-23.1-8.11,3.89-9.54,14.84-16.23,22.02-23.7,3.43-2.38,7.32-8.7,11.82-4.83,4.56,3.8,8.93,7.67,13.37,11.59,2.02,1.81,1.74,3.48-.13,5.48-4.56,4.83-9.4,9.54-13.16,14.94-2.89,4.13-5.37,6.32-10.81,4.64h0Zm11.88,21.7c-1.41-4.25-2.89-8.57-3.83-12.95-.74-6.25,15.31-19.9,19.6-25.89,.87-.97,3.22-1.54,4.36-1.1,1.47,.84,7.32,3.67,5.1,5.67-11.08,4.25-15.37,7.28-12.96,19.45-.4,4,7.32,19.97-.54,18.22-3.76-1.03-9.67,.32-11.75-3.41h0Zm4.36,28.34c-1-6.63-2.02-13.27-3.16-20.68,5.17,.45,9.81,.84,15.78,1.35-4.03,7.02-7.65,13.27-11.28,19.52-.4-.06-.87-.13-1.34-.19h0Zm18.47,9.73c.13,5.67-7.05,3.67-11.01,4.7-15.44,1.03,4.43-20.62,7.05-26.79,2.69,7.92,4.5,14.81,3.96,22.09h0Zm8.66,1.48c-.74-.78-1.47-2.06-1.47-3.09,0-12.75-3.89-24.79-7.32-36.9-1.68-5.99-2.96-12.11-4.36-18.16-.67-2.97,.47-5.16,3.36-6.19,3.83-.58,13.7-6.7,13.57,.32,.54,6.63,.87,13.27,1.41,19.9,.94,11.59,1.41,23.25,5.57,34.27,4.63,12.24,4.63,10.82,16.31,10.56,23.3-.58,20.75-18.68,18.73-35.43-.27-2.9,.87-15.39,5.64-9.02,1.14,3.35,2.29,6.7,2.89,10.17,1.14,6.63,1.74,13.4,2.82,20.03,.67,4.19,3.36,6.44,7.92,6.95,16.51,2.57,19.6-8.57,23.83-5.41,5.71,4.12,12.28,5.28,19.13,4.38,15.11-1.87,30.15-4.06,45.19-6.12,8.26-.32,16.58,1.03,24.91,1.1,7.92-.32,4.43-11.08,5.57-16.17,.13-2.32-.13-5.28,2.89-5.86,4.76-1.87,5.64,14.36,6.65,17.52,.54,3.48,2.09,5.54,5.71,6.7,7.19,2.32,14.17,3.22,21.09-.65,3.16-.32,6.72,2.51,9.87,2.9,7.05,1.29,14.17,2.06,21.15,3.54,18.87,4.51,32.3-5.48,43.24-19.06,3.29,10.17,7.59,16.81,15.78,23.83-78.76,87.01-231.44,87.21-310.07-.13h0Zm321.22-12.89c-.07,3.6,1,9.79-4.83,7.35-4.43-1.41-7.39-4.57-9.81-8.31-5.71-9.08-8.26-22.54,.47-30.53,9.54-7.35,7.92,8.82,8.52,14.11,.33,6.63,6.18,9.98,6.25,17.27-.2,.06-.4,.06-.6,.13v-.02Zm-.87-31.05c-1.74-8.95-9.13-9.86-17.33-7.79,.94-7.54,1.74-14.49,2.69-21.57,.47,.13,.87,.19,.87,.26,2.62,10.43,10.61,17.06,18.13,24.09,3.02,3.86,14.91,12.49,10.21,17.2-3.43,5.03-3.89,8.05-10.41,4.83-7.05-2.57-1.81-11.66-4.16-17h0Zm25.58-13.79c-23.56,4.06-20.82,5.79-30.82-15.2-2.42-4.19,9.27-3.86,11.88-4.76,4.5-.71,15.04,15.91,18.93,19.97h0Zm3.63-30.02c3.16,3.48,4.16,18.29,1.07,23.19-6.98-5.22-13.16-10.17-13.43-19.19-1.41-6.76,8.59-9.54,12.35-4Zm4.03,39.22c-.27,6.44-.6,12.89-1.14,19.25-.74,8.11-1.74,16.17-2.62,24.28-.47,4.25-1.34,5.03-5.64,5.03s-8.93,.13-13.37-.19c-7.92,.19-3.56-10.56-4.56-15.39-.67-8.24,17.19,3.29,17.19-15.84,.13-8.18-5.3-14.04-9.27-20.62,5.57-2.06,11.15-1.87,16.65-1.35,2.82,.32,2.82,2.84,2.76,4.83h0Zm-22.29-40.84c-2.29,6.25-11.41,11.33-18.06,9.4-4.5-2.19-3.89-9.54-5.3-13.01,1-6.12,.4-13.98,8.59-13.33,18.2,1.16,36.19,5.16,54.12,8.31,3.76,1.35,5.44,3.29,4.56,5.67-1.21,3.22-3.96,1.93-6.31,1.87-3.36-.13-6.72-.38-10.07-.32-2.09,.06-3.43-.58-4.76-2.19-7.25-9.4-20.07-6.89-22.76,3.6h0Zm27.26,84.25c-3.02,1.41-4.23,.78-3.96-2.45,1.07-12.11,2.62-24.22,3.29-36.39,.4-.13,.74-.26,1.14-.38,8.06,10.56,12.89,30.79-.47,39.22Zm11.48-56.61c-3.63-1.1-6.45-3.22-7.45-6.76-1.54-5.48-2.62-11.01-4.16-17.78,5.57,.65,14.64-1.93,17.33,2.19,3.36,5.35,4.56,24.67-5.71,22.35h0Z"/>
    <path class="cls-4" d="M2224.34,320.87c3.22,10.17,7.52,16.81,15.91,23.9-78.83,87.01-231.45,87.21-310.07-.13-.8-.78-1.47-2.06-1.47-3.09,0-12.75-3.96-24.73-7.32-36.9-1.68-5.99-2.96-12.11-4.36-18.16-.67-2.97,.47-5.16,3.36-6.19,3.76-.58,13.77-6.63,13.57,.32,.54,6.63,.87,13.27,1.41,19.9,.87,11.53,1.41,23.25,5.57,34.27,4.63,12.24,4.7,10.82,16.31,10.56,23.36-.65,20.68-18.68,18.73-35.43,.54-17,6.58-11.98,8.52,1.16,1.14,6.63,1.74,13.4,2.82,20.03,.67,4.19,3.36,6.51,7.92,6.95,16.38,2.57,19.67-8.57,23.83-5.41,5.71,4.06,12.28,5.22,19.13,4.38,15.04-1.93,30.08-4.13,45.19-6.12,8.32-.26,16.65,1.1,24.91,1.1,7.99-.38,4.36-11.08,5.57-16.17,.13-2.32-.2-5.28,2.89-5.86,4.83-1.87,5.64,14.36,6.65,17.52,.54,3.48,2.09,5.54,5.71,6.7,7.19,2.32,14.1,3.22,21.09-.65,3.16-.38,6.72,2.45,9.87,2.9,7.05,1.29,14.17,2.06,21.15,3.54,18.73,4.44,32.23-5.54,43.11-19.13h0Z"/>
    <path class="cls-4" d="M2229.32,64.32c-44.25-2.84-55.86,11.46-76.21,45.79-.4-.06-.74-.13-1.14-.19-.94-13.27,3.76-27.05-1.68-39.74-7.45-13.27-29.54-9.47-40.02-1.41-3.22,2.38-4.83,5.73-4.9,9.54-.33,11.92-.47,23.76-.6,35.68-.47,8.31,1.41,16.94-1.41,24.92-.47,.06-1,.06-1.47,.13-5.3-7.15,2.29-23.9-10.48-24.03-26.39-.51-21.62,2.19-24.04,24.35-10.01-3.93-2.02-18.03-2.96-25.89,.94-20.87,1.74-59.9-31.83-49.34-4.23,1.61-8.32,3.73-12.28,5.86-8.19,4.7-10.74-8.89-27.73-5.35-19.6,2.45-39.35,8.18-59.02,7.79,76.35-80.77,214.33-84.06,295.78-8.11h0Z"/>
    <path class="cls-8" d="M2284.71,140.2c-1.21,14.87-.54,30.92-7.45,44.63-2.42,4.32-6.25,6.89-11.55,7.98-29.01,6.83-53.51-10.3-80.24-17.59-6.65-1.93-13.57-1.22-19.94,1.87-9.33,4.51-10.68-42.32-9.06-48.05,2.96-15.84,30.21-3.6,37.6,3.29,12.62,8.11-1.07,23.83,15.04,31.76,10.61,5.54,28.54,2.84,31.9-13.78,1.21-6.05,2.02-6.12,8.59-5.73,12.02,1.22,23.63-2.13,35.11-4.38h0Z"/>
    <path class="cls-8" d="M1996.39,70.12c3.56,1.03,8.12,2.25,12.55,3.67,3.76,2.25,6.78,7.79,.27,8.89-16.45,4.83-31.9,11.85-46.26,20.93-16.11,10.17-29.95,22.74-42.43,36.71-3.89,4.38-8.73,6.76-14.71,7.54-4.83,.65-9.61,2-14.37,3.03-5.57,1.22-7.19,.65-8.52-4.64-.6-4.89-6.85-22.54-2.29-24.79,15.04-10.24,28.41-22.22,40.36-35.62,3.49-3.93,7.79-5.09,12.89-5.86,21.42-3.29,40.49-7.35,62.51-9.86h0Z"/>
    <path class="cls-9" d="M2018.34,138.91c7.72,22.09,5.03,46.18,20.34,65.69-9.13,2.9-18.53,1.41-25.58,8.44-.54,.51-2.49,.26-3.43-.19-12.08-6.05-36.53-2.25-36.19,13.65,.94,11.08,3.09,22.03,3.49,33.17,.13,3.16-1.88,4.64-5.37,4.76-3.16,.06-3.56-2.13-3.76-4.32-.67-9.21-1.07-18.42-2.09-27.57-.47-4.06-1.74-8.18-3.29-12.05-1-2.64-.27-3.54,2.09-4.19,9.54-1.35,14.24-4.64,14.97-14.11,1.47-14.36-2.09-28.6-3.36-42.84-.94-13.01,.87-12.3,11.08-13.85,10.74-2.06,21.15-1.29,31.08-6.63v.02Z"/>
    <path class="cls-4" d="M1939.99,218.14c-5.51,3.03-10.88,4.44-17.13,2.64-16.04-3.03-30.62,6.83-45.66,10.82-2.29-23.57-1-46.7,4.9-69.69,.54-2.19,1.47-2.64,3.83-2.84,10.34-.9,20.55-3.54,30.82-4.19,28,.84,9.47,47.08,23.23,63.25h0Z"/>
    <path class="cls-19" d="M2036.07,183.49c4.16,1.48,7.12,3.03,10.28,3.67,7.92,1.48,16.18-7.15,14.24-14.56-4.63-11.79-19.8-9.79-26.59,.26-.6-4.76-4.3-9.34-1.41-13.14,6.38-6.12,12.89-12.17,19.4-18.22,7.52-5.6,6.78,13.72,18.33,5.41,2.89-1.54,4.63-6.19,7.99-6.83,8.52,2.19,17.13,4.38,23.63,10.76,2.69,2.77,5.91,6.19,1.07,8.7-3.89,1.81-5.17,8.38-10.14,7.28-9.33-2-14.44,.97-17.06,9.86-3.09,9.4-3.22,27.44-16.11,27.38-15.58,1.41-20.48-8.7-23.63-20.55h0Z"/>
    <path class="cls-8" d="M2261.4,86.35c-16.45,9.02-25.05,25.31-27.26,43.15-9.81-3.41-20.07-6.89-28.41,1.1-2.09,1.87-3.22,.45-4.16-1.1-4.3-6.76-2.76-13.46,.87-19.84,8.39-13.92,25.58-19.19,35.25-32.14,2.76-3.48,4.7-3.93,8.66-1.81,5.23,2.9,10.28,6.19,15.44,9.34-.13,.45-.27,.84-.4,1.29Z"/>
    <path class="cls-20" d="M2045.07,273.91c14.17,8.24,6.72,15.08,14.64,22.74,4.09,2.77,30.68,30.79,16.11,30.01-16.58,1.74-33.3,1.81-49.88,.58-6.78-1.48-4.76-9.98-5.3-15.01,.07-3.09,2.22-5.09,5.37-5.86,6.25-2.51,17.19-.58,18.47-8.76,.94-8.18,.54-15.08,.6-23.7h0Z"/>
    <path class="cls-13" d="M1983.97,251.82c3.96,.45,13.37,4.51,10.14,8.38-8.86,8.89-17.46,18.1-27.12,26.22-2.02,1.81-3.76,1.54-5.98,.19-6.05-3.8-12.28-7.35-18.26-11.27-1.27-.84-2.49-2.57-2.62-4-1-13.2-2.96-26.47-2.96-39.74,.4-4.76,1.14-5.54,5.64-3.29,5.44,2.64,10.61,5.86,15.37,9.54,1.54,1.16,1.68,4.38,2.02,6.7,.94,7.08,1.41,14.24,2.49,21.32,.94,8.63,12.15,4.19,17.93,3.09,6.25-2.7,3.63-11.66,3.36-17.13h0Z"/>
    <path class="cls-5" d="M2145.38,95.89c-.47,8.11-.8,13.98-1.14,19.84-.13,2.06-.94,3.41-3.29,2.64-6.45-2.06-13.16-3.54-19.2-6.51-13.57-5.48-12.55-19.84-8.86-32.01,2.49-11.66,15.37-12.24,25.45-10.37,3.02,.45,4.83,2.38,5.1,5.54,.74,7.73,1.47,15.39,1.95,20.87h0Z"/>
    <path class="cls-11" d="M2289.14,168.09c4.97,18.68,6.18,37.55,4.76,56.81-23.7-8.31-45.66-10.17-61.3,13.46-5.1-6.51-10.14-12.95-15.58-19.9,3.83,0,7.12-.32,10.34,.06,30.48,3.03,59.29-21.57,61.78-50.43h0Z"/>
    <path class="cls-3" d="M2089.18,308.18c-.6-6.83-1.21-13.59-1.68-20.41-1-9.02-1.34-19.39,8.19-24.28,2.96-.84,8.59-7.92,10.61-4.19,7.19,11.27,18.53,2.06,15.91,9.21-3.96,10.7-7.85,21.44-11.88,32.14-.4,1.16-1.27,2.51-2.35,3.03-5.57,2.51-11.21,4.76-16.86,7.02-2.42,.97-2.89-.51-1.95-2.51h0Z"/>
    <path class="cls-20" d="M1863.57,275.2c3.83-9.54,14.84-16.23,22.02-23.7,3.43-2.38,7.32-8.7,11.82-4.83,4.56,3.73,8.93,7.67,13.37,11.59,2.02,1.81,1.74,3.48-.13,5.48-4.56,4.83-9.4,9.54-13.16,14.94-2.89,4.12-5.3,6.38-10.81,4.64-8.39-1.16-22.83,5.92-23.1-8.11h0Z"/>
    <path class="cls-20" d="M2148.6,220.65c8.99,10.56,7.79,23.96,5.64,36.52-1.74,10.11-8.73,16.87-17.06,22.48-8.66,5.54,3.89,9.98-3.02,13.33-5.3,2.32-10.68,4.64-15.98,6.95-.27-.26-.47-.51-.74-.78,9.27-26.6,21.09-52.11,31.15-78.52h0Z"/>
    <path class="cls-5" d="M1972.76,184.52c-.6,4.57-12.82,17.65-15.44,8.82-1.27-15.84-4.43-31.36-9.54-46.57-2.82-11.14-17.13-11.85-10.14-17.27,6.38-6.19,8.66-7.6,15.37-.65,15.64,14.56,15.17,36.58,19.74,55.65h0Z"/>
    <path class="cls-5" d="M2015.19,107.48c-.33,6.51-.8,13.01-1.07,19.52,.47,5.67-14.24,14.87-18.2,7.28-5.71-39.22-31.56-30.01,9.54-45.22,4.7-1.1,8.99-1.87,8.46,4.25,.13,4.7,.4,9.4,.67,14.11,.2,.06,.4,.06,.6,.06h0Z"/>
    <path class="cls-17" d="M2145.58,159.91c.4-2.45,.67-4.83,1.14-7.28,.54,.19,1.07,.38,1.61,.65,1.61,8.11,3.16,16.17,6.58,23.83l-.07,.19,.2,.13c1.81,4.25,4.3,8.18,6.65,12.17v.26c6.18,7.28,11.61,13.08,20.01,18.87-6.38,1.68-11.95,.32-18.33,.45-6.92-.71-6.25,2.19-7.92,7.67-6.25-6.51-13.63-10.3-22.23-12.05-.07-.9-.2-1.74-.27-2.64,.33-.51,.67-1.03,.94-1.61l.2-.13-.07-.19c4.63-9.02,7.59-18.68,9.33-28.54l.27-.06-.2-.19c.87-3.8,1.47-7.67,2.15-11.53h0Z"/>
    <path class="cls-10" d="M2175.19,236.56c13.5,.78,28.14,1.61,42.7,2.51,6.05,.38,6.72,.71,8.06,6.25,1.34,5.28,2.02,10.76,2.82,16.17,.4,2.64-.8,4.19-3.69,4.7-31.15,8.05-9.06-.06-27.86-15.27-9.61-7.98-13.03,6.38-18,.26-2.35-3.86-16.58-15.33-4.03-14.62Z"/>
    <path class="cls-1" d="M2018.95,299.74c-.6-18.29-1.21-36.52-1.74-54.49,23.56,0,16.86-2.84,19.54,21.13-.94,34.27,7.52,29.3-17.8,33.36Z"/>
    <path class="cls-3" d="M2010.62,254.91c1.61,21.77,2.55,41.68,2.69,63.12,.07,4.51-1.14,5.48-5.78,4.96-6.54-.81-9.81-4.42-9.81-10.82,0-14.49,.13-28.98,.07-43.41-.07-7.41,7.65-8.89,12.82-13.85h0Z"/>
    <path class="cls-13" d="M2264.23,292.59c5.57-2.06,11.15-1.87,16.72-1.29,2.82,.32,2.82,2.77,2.76,4.83-.27,6.44-.54,12.82-1.14,19.25-.74,8.11-1.68,16.17-2.62,24.28-.47,4.25-1.27,5.03-5.64,5.03s-8.93,.13-13.37-.19c-7.92,.26-3.56-10.56-4.56-15.39-.74-8.24,17.19,3.29,17.19-15.84,.07-8.24-5.37-14.11-9.33-20.68h0Z"/>
    <path class="cls-14" d="M2115.57,200.04c-11.35-.51-12.15-1.1-13.9-11.92-1.14-8.51-5.51-23.12,6.72-25.51,5.71-.71,15.31,13.59,20.27,17.39,8.32,9.73-1.14,21.13-13.1,20.03h0Z"/>
    <path class="cls-17" d="M2081.8,292.59c-5.44,0-10.41-.06-15.37,.06-2.29,.06-3.16-.78-3.36-2.9-1.47-13.4-.87-26.73,1.27-40.06,.47-5.67,5.91-5.99,10.61-6.7,2.62-.51,3.83,.65,3.96,3.03,.94,15.39,2.35,31.36,2.89,46.57h0Z"/>
    <path class="cls-14" d="M1990.01,137.43c-6.18,.97-11.21,1.29-16.38,4.19-2.82,1.81-3.76,.71-5.37-1.54-5.57-7.15-10.01-14.62-17.19-20.55,6.72-4.96,12.89-9.34,19.54-14.04,2.02-1.54,3.69-1.41,5.64,.19,9.94,7.98,10.74,20.22,13.77,31.76h0Z"/>
    <path class="cls-13" d="M2103.75,228.69c-4.5-.9-16.92,2.9-16.25-4.12-.27-6.44,1.21-13.14,8.86-14.56,14.04-3.54,28.07-.65,41.56,3.16,2.49,.65,2.76,2,1.07,3.73-8.99,10.24-21.69,12.89-35.18,11.85-.07,0-.07-.06-.07-.06h0Z"/>
    <path class="cls-3" d="M2237.97,251.63c1-6.12,.4-13.98,8.59-13.33,5.3,.19,10.68,.84,15.91,1.68,12.08,1.93,24.17,4.12,36.26,6.19,3.69,.51,7.92,3.35,6.52,6.19-1.14,3.16-3.96,1.93-6.31,1.87-4.83-.97-11.28,1.48-14.84-2.51-7.32-9.47-20.07-6.89-22.76,3.6-2.29,6.25-11.48,11.33-18.06,9.4-4.56-2.25-3.89-9.6-5.3-13.08h0Z"/>
    <path class="cls-10" d="M1981.28,233.98c.54-6.76,1.68-13.27,8.99-16.68,4.7-2.13,12.75-2.57,14.91,2.9,1.95,8.31,3.63,16.75,5.17,25.12-.33,2.51-5.78,8.11-8.06,8.57-4.23-.51-8.93-5.28-13.43-6.57-6.25-2.57-8.06-7.28-7.59-13.33h0Z"/>
    <path class="cls-5" d="M2028.42,153.73c-4.16-29.17-8.52-29.44,22.83-41.16,7.32-1.74,5.17,15.65,4.3,19.71-.2,1.03-1.21,2.06-2.09,2.77-7.92,6.38-15.91,12.62-23.9,18.87-.33,0-.74-.06-1.14-.19h0Z"/>
    <path class="cls-14" d="M2055.54,98.72c0,6.76-.13,6.38-6.58,9.02-7.25,3.03-14.17,6.76-21.15,10.37-7.72,6.7-6.65-24.03-6.58-27.7,.13-2.38,1.14-3.03,3.69-2.7,9.06,1.16,18.13,2.19,27.19,3.03,4.97,0,3.09,4.89,3.43,7.98h0Z"/>
    <path class="cls-13" d="M1899.1,241.77c6.18-6.19,11.21-13.59,21.22-14.49,4.76-.45,6.31,.26,7.32,4.64,2.15,9.47,3.83,19.06,5.71,28.66-.27,1.93-1,3.8-1.41,5.67-1.88-.71-4.16-.97-5.64-2.19-9.13-7.15-18-14.62-27.19-22.28h0Z"/>
    <path class="cls-3" d="M2208.5,277.97c3.22,6.83,5.3,13.98,5.1,21.57-2.62,6.05-16.65,7.35-22.76,10.3-4.5,1.54-8.93,3.35-13.3,5.22-3.09,1.29-4.3,1.16-5.37-1.93-2.49-7.21-3.96-14.75-6.31-21.97-2.49-5.6,5.78-4.57,9.13-5.92,7.12-1.41,3.83,8.31,4.83,12.17,.47,5.54,3.09,7.15,8.59,5.54,12.02-3.22,15.98-14.56,19.13-24.79,.33-.19,.67-.19,.94-.19h0Z"/>
    <path class="cls-14" d="M2209.3,195.92c-2.29,4.44-2.62,14.3-10.07,12.05-6.11,0-40.96-21.84-29.81-26.6,11.68-3.6,24.17,.26,34.78,5.16,3.02,1.48,4.43,4.76,5.1,9.4h0Z"/>
    <path class="cls-19" d="M2264.83,120.3c-6.72-.97-12.75-1.93-18.8-2.77-2.15-.32-2.69-1.41-2.29-3.41,2.15-10.63,11.35-17.52,20.75-22.16,1.27-.45,3.76-.19,4.43,.65,4.16,5.67,8.39,11.33,11.82,17.46,5.23,8.7-10.81,8.51-15.91,10.24h0Z"/>
    <path class="cls-14" d="M2233.14,74.89c-8.39,7.35-17.59,13.85-26.86,20.22-6.45,1.68-16.31-2.7-23.3-3.22-3.49-.58-4.23-1.41-2.22-4.32,11.55-14.87,33.71-18.62,51.64-13.92,.27,.38,.54,.78,.74,1.22h0Z"/>
    <path class="cls-19" d="M2192.39,123.39c-8.93-4-18.67-7.92-28.81-6.19-5.44,1.03-3.02-4.83-1.68-7.35,1.14-2.06,2.76-3.93,3.69-6.12,5.17-12.56,20.95-5.09,31.08-3.8,3.63,.84,3.96,2.25,2.76,5.54-2.35,5.86-4.7,11.79-7.05,17.9h0Z"/>
    <path class="cls-10" d="M2063.73,213.24c-8.52,6.63-17.59,12.62-26.25,19.06-4.76,3.6-15.78,9.86-19.2,2-1.21-5.16-4.83-11.92,1.27-15.39,12.89-7.6,29.08-6.63,43.65-6.57,.13,.26,.33,.58,.54,.9h0Z"/>
    <path class="cls-13" d="M1947.31,310.18c14.24-12.56,28.54-25.12,42.77-37.68,3.69,4.51,5.17,38.9,1.27,44.89-2.02-8.57-1.74-16.94-6.11-24.6-1.68-2.38-3.96-3.22-6.98-2-6.98,2.9-10.28,5.86-9.06,13.65,0,2.9,2.29,7.98-.94,9.73-6.92-.71-13.83-1.61-20.75-2.51,0-.45-.13-.97-.2-1.48h0Z"/>
    <path class="cls-20" d="M2218.97,233.07c-17.59-1.1-35.18-1.74-52.77-2.45-3.76-.13-4.63-1.03-4.43-4.7,.54-8.51,1.21-9.27,10.14-9.54,17.33-.71,35.72,2.38,47.94,15.33-.27,.45-.6,.9-.87,1.35h0Z"/>
    <path class="cls-14" d="M1952.2,196.23c.6,6.32-9.2,12.95-10.34,5.48-1.27-14.56-2.49-29.24-5.85-43.54-2.02-10.76-15.51-9.27-11.75-14.94,3.02-5.41,6.78-6.05,11.48-1.87,14.77,14.49,12.62,36.39,16.45,54.88h0Z"/>
    <path class="cls-5" d="M2253.08,139.75c-12.35,.71-13.03-.51-13.77-12.17-.2-9.27,12.08-2.45,17.59-3.29,7.85-.13,15.78-.65,23.63-1.48,2.89-.32,4.16-.19,4.7,2.9,1.54,8.63,1.74,8.89-7.39,10.82-8.12,1.74-16.38,2.77-24.65,4.06-.07-.26-.07-.58-.13-.84h0Z"/>
    <path class="cls-13" d="M2187.41,334.59c-3.09,.32-5.98-.65-8.06-3.48-4.36-6.05-3.76-8.7,2.15-11.59,9.67-4.64,20.27-7.21,30.48-10.5,2.49-.9,3.22,.06,3.89,1.93,2.29,5.99-.07,12.75-5.85,16.75-6.38,4.44-14.17,6.83-22.63,6.89h.02Z"/>
    <path class="cls-5" d="M1877.34,118.17c-11.35-27.63,15.84-36.33,38.94-35.36-11.95,13.46-25.11,24.6-38.94,35.36Z"/>
    <path class="cls-1" d="M2206.15,147.87c.33-17.46,25.72-20.68,28.41-3.35,1.34,19.97-28.27,24.03-28.41,3.35Z"/>
    <path class="cls-13" d="M2162.44,238.42c5.91,6.32,11.28,13.14,16.51,19.97,3.69,5.03,.94,11.4,.74,17-.2,2.38-1.27,3.54-3.83,4-5.57,1.16-10.14,2.9-15.78,4.32,.6-15.33,1.14-30.08,1.68-44.89,.2-.06,.47-.19,.67-.38h0Z"/>
    <path class="cls-13" d="M2056.15,275.07c-3.43-2.9-4.9-4.57-8.12-6.83-8.66-5.41-2.49-19.45-8.59-28.47-.87-12.05,27.32-5.79,35.05-5.86,.07,.38,.07,.71,.13,1.1-1.27,.26-2.62,.84-3.83,.78-21.35-1.93-13.16,26.47-14.64,39.29h0Z"/>
    <path class="cls-13" d="M2122.55,302.83c5.37-.84,18.33-7.73,20.89-3.29,4.9,7.79,6.98,17.27,3.43,26.02-2.22,5.99-9.81,2.97-14.5,2.25-1.27-.38-2.96-2-2.96-3.09-.4-7.54-1.74-14.68-6.85-21.9h0Z"/>
    <path class="cls-5" d="M2210.98,209.31c1.27-5.86,2.49-11.27,3.76-17.06,15.04,7.67,31.63,8.31,49.35,5.16-10.48,16.23-36.13,14.49-53.11,11.92h0Z"/>
    <path class="cls-11" d="M2183.72,295.16c1.14-11.46,2.02-23.06,3.69-34.65,.87-5.86,3.29-6.38,8.06-2.51,13.63,9.34,7.19,40.9-11.75,37.17Z"/>
    <path class="cls-5" d="M2136.52,177.11c-22.76-4.64-8.26-42.12,5.1-50.11,1.54,17-3.76,33.17-5.1,50.11Z"/>
    <path class="cls-10" d="M1910.31,308.43c-3.76-1.1-9.61,.32-11.75-3.41-1.47-4.25-2.89-8.57-3.83-12.95-.8-6.19,15.31-19.97,19.6-25.89,.87-.97,3.22-1.54,4.36-1.1,1.47,.84,7.32,3.73,5.1,5.67-11.08,4.25-15.37,7.28-12.96,19.45-.47,4.06,7.25,19.97-.54,18.22h0Z"/>
    <path class="cls-20" d="M2251.27,331.68c-.07,3.6,1,9.79-4.9,7.35-4.5-1.48-7.45-4.57-9.81-8.31-5.71-9.08-8.26-22.54,.47-30.53,9.54-7.35,7.99,8.89,8.52,14.11,.33,6.7,6.25,9.98,6.25,17.27-.2,.06-.4,.06-.54,.13v-.02Z"/>
    <path class="cls-18" d="M2233.08,292.85c.94-7.54,1.81-14.49,2.69-21.51,.54,.13,.87,.13,.87,.26,2.62,10.37,10.61,17,18.13,24.09,3.02,3.86,14.91,12.49,10.21,17.2-3.49,4.96-3.89,8.05-10.41,4.83-7.05-2.57-1.88-11.66-4.16-17-1.74-9.08-9.2-9.92-17.33-7.86h0Z"/>
    <path class="cls-11" d="M2083.27,208.22c-1.47-1.35-6.45-2.45-5.71-5.6,2.62-7.54,3.09-20.74,8.59-26.22,3.96-3.22,6.45-2.32,7.39,2.57,1.34,7.28,2.82,14.49,4.09,21.77,.13,.78-.2,2.25-.74,2.51-4.76,1.81-8.52,3.93-13.63,4.96h0Z"/>
    <path class="cls-20" d="M1970.27,327.18c0,6.38-.07,6.7-6.25,8.95-5.1,1.22-14.71,6.19-16.51-1.41-.07-4.06-6.98-20.09,1.68-17.52,4.97,.78,9.94,1.41,14.84,2.45,6.31,1.29,6.25,1.41,6.25,7.54h0Z"/>
    <path class="cls-10" d="M1898.96,234.5c-10.88,9.21-22.69,17.65-32.63,27.82-2.35,2.45-3.29,2.25-4.7-.84-3.83-8.38-1-16.36,7.72-19.71,9.33-3.09,18.87-6.89,28.61-8.44,.33,.38,.67,.78,1,1.16h0Z"/>
    <path class="cls-13" d="M2087.71,262.96c-2.02-8.76-.94-16.23-1.14-24.92,0-3.67,.74-4.32,4.56-4.32,5.1,.65,15.17-2.25,15.11,5.28,.94,12.17-9.06,17.52-18.53,23.96h0Z"/>
    <path class="cls-13" d="M2275.98,286.86c-23.56,4.06-20.82,5.73-30.82-15.27-2.42-4.19,9.27-3.86,11.88-4.76,4.43-.65,15.11,15.97,18.93,20.03h0Z"/>
    <path class="cls-8" d="M2045.27,85.97c-7.59-1.54-15.24-3.03-22.83-4.57-9.2-3.67,17.13-16.55,26.52-10.17,4.16,2.19,5.91,5.67,5.98,10.05,.4,5.28-5.91,3.54-9.47,3.8-.07,.32-.13,.58-.2,.9h0Z"/>
    <path class="cls-14" d="M2135.17,123.91c-8.66,10.43-14.17,21.77-15.37,34.71-16.25-3.93-3.96-29.17,3.09-37.1,3.29-4.7,7.92,1.16,12.28,2.38h0Z"/>
    <path class="cls-13" d="M2288.47,258.32c5.57,.65,14.57-1.93,17.33,2.19,3.36,5.35,4.56,24.67-5.71,22.35-3.63-1.16-6.45-3.22-7.45-6.76-1.54-5.48-2.62-11.01-4.16-17.78h0Z"/>
    <path class="cls-11" d="M2129.07,244.74c-1.47,3.41-2.69,6.95-4.56,10.11-3.16,4.57-12.15,5.41-12.35-1.74-.4-4.83-1-9.6-1.07-14.43,2.62-9.6,17.93-6.19,17.19,5.67,.33,.13,.6,.26,.8,.38Z"/>
    <path class="cls-13" d="M2229.25,279.97c-1.14,5.99-2.22,11.98-3.43,17.9-.6,4.06-6.18,3.29-7.25,.06-1.81-6.57-3.22-13.27-4.9-19.9-1.74-4.83,1.88-6.05,6.11-6.95,7.85-1.35,9.67,.71,8.79,8.76,.27,.06,.47,.13,.67,.13h0Z"/>
    <path class="cls-13" d="M2299.42,240.17c-17.13-.26-32.7-6.44-49.48-6.76,6.85-10.82,42.16-5.73,49.48,6.76Z"/>
    <path class="cls-10" d="M2289.07,300.26c8.06,10.56,12.89,30.79-.47,39.22-3.02,1.41-4.23,.78-3.96-2.45,1.07-12.11,2.62-24.22,3.29-36.39,.4-.13,.8-.26,1.14-.38Z"/>
    <path class="cls-11" d="M2280.68,280.03c-6.98-5.22-13.16-10.17-13.43-19.19-1.41-6.76,8.59-9.54,12.35-4,3.16,3.54,4.16,18.29,1.07,23.19Z"/>
    <path class="cls-13" d="M1917.43,321c2.69,7.86,4.43,14.81,3.96,22.09,.13,5.67-7.05,3.67-11.01,4.7-15.37,1.03,4.43-20.55,7.05-26.79h0Z"/>
    <path class="cls-8" d="M2094.01,139.43c-5.17-2.19-17.39-2.7-18.13-7.86-.33-3.73-1.54-8.95,2.89-10.89,17.86-3.03,13.7,5.99,15.24,18.74h0Z"/>
    <path class="cls-13" d="M1960.53,292.21c-6.18,5.09-11.48,9.4-17.06,14.04-3.89-8.38-2.09-17.27-3.56-25.76,.33-.26,.67-.58,1-.84,6.31,4.12,12.69,8.18,19.6,12.56h0Z"/>
    <path class="cls-13" d="M2157.4,326.79c-1.34-12.24-.07-23.83,1-35.43,.33-.13,.67-.26,1-.38,4.97,7.79,5.71,17.46,8.59,26.09,.6,4.64-5.91,8.57-10.61,9.73h0Z"/>
    <path class="cls-13" d="M2067.96,227.73c-4.23-.38-8.93,1.16-12.62-1.29,1.74-3.35,5.71-4.44,8.59-6.63,4.43-1.87,10.88-11.33,14.97-4.96,5.57,12.49,1.54,13.98-10.95,13.33v-.45h0Z"/>
    <path class="cls-13" d="M2107.85,318.29c1.41,11.08-10.95,9.66-17.73,6.51-8.93-4,5.64-11.27,10.07-12.11,7.32-1.74,7.45-1.54,7.65,5.6h0Z"/>
    <path class="cls-8" d="M1945.76,212.47c7.25-8.63,18.2-10.37,25.38-17.39,7.99,14.24-14.5,20.03-25.38,17.39Z"/>
    <path class="cls-13" d="M1902.92,333.36c-1-6.63-2.02-13.27-3.16-20.68,5.17,.45,9.87,.84,15.78,1.35-4.03,7.02-7.65,13.27-11.28,19.52-.47-.13-.87-.13-1.34-.19h0Z"/>
    <path class="cls-8" d="M2047.42,181.74c-7.85,.45-10.14-11.85-.47-11.21,9.87-.65,9.87,11.21,.47,11.21Z"/>
    <path class="cls-18" d="M2141.89,286.54c3.63-2.19,7.32-4.38,11.01-6.57,.33,.13,.6,.19,.94,.32-.74,5.73-1.47,11.4-2.22,17.13-.27,.13-.54,.26-.8,.32-2.82-3.54-5.71-7.15-8.93-11.21h0Z"/>
    <path class="cls-13" d="M2140.88,223.55c-1.47,4.57-3.02,9.14-4.83,14.75-2.62-3.03-4.5-5.22-7.05-8.11,3.49-2.51,6.92-5.03,10.34-7.54,.47,.26,1,.58,1.54,.9Z"/>
    <path class="cls-13" d="M2072.53,300.13c5.57-1.68,10.54,3.48,8.06,12.11-3.96-3.35-6.38-7.35-8.06-12.11Z"/>
    <path class="cls-13" d="M1993.23,326.34c5.37,.71,10.01,1.29,15.58,2-5.1,5.03-13.03,5.35-15.58-2Z"/>
    <path class="cls-20" d="M2169.56,331.3c-2.09-1.29-4.09-1.93-4.97-3.22-.74-1.16,2.96-3.41,5.3-3.35,5.64,.9,3.89,4.38-.33,6.57Z"/>
    <path class="cls-8" d="M2114.63,113.08c1.21,1.03,3.63,2.25,3.43,2.97-.47,2.25-1.88,4.32-2.96,6.44-.47-.13-.87-.32-1.34-.45v-8.44c.33-.13,.6-.32,.87-.51Z"/>
    <path class="cls-13" d="M1958.59,230.69c-2.82-1.54-9.74-5.73-12.08-6.57,5.57-2.25,12.28,1.22,12.08,6.57Z"/>
    <path class="cls-15" d="M2148.4,153.27c-.54-.19-1.07-.38-1.61-.65,0-.58,.07-1.1,.07-1.68,.27-.06,.47-.13,.74-.19,.27,.84,.54,1.68,.8,2.51Z"/>
    <path class="cls-15" d="M2151.16,166.16c-.27-1.22-.6-2.38-.87-3.6,.27,1.22,.54,2.38,.87,3.6Z"/>
    <path class="cls-15" d="M2152.5,170.73c-.33-1.03-.6-2.06-.94-3.09,.33,1.03,.67,2.06,.94,3.09Z"/>
    <path class="cls-15" d="M2139.54,187.6c-.4,1.03-.74,2-1.14,3.03,.4-1.03,.74-2,1.14-3.03Z"/>
    <path class="cls-15" d="M2133.03,202.16c.07,.9,.2,1.74,.27,2.64-1.88-.51-1.88-.78-.27-2.64Z"/>
    <path class="cls-15" d="M2144.91,163.9c-.13,.78-.27,1.54-.4,2.32,.13-.84,.27-1.54,.4-2.32Z"/>
    <path class="cls-15" d="M2145.58,159.91c-.13,.58-.2,1.22-.33,1.81,.13-.58,.27-1.22,.33-1.81Z"/>
    <path class="cls-15" d="M2149.88,160.43c-.13-.58-.2-1.22-.33-1.81,.13,.58,.2,1.22,.33,1.81Z"/>
    <path class="cls-15" d="M2146.25,155.33c-.07,.58-.13,1.1-.2,1.68,.07-.58,.13-1.1,.2-1.68Z"/>
    <path class="cls-15" d="M2157.4,182.19c-.2-.45-.47-.9-.67-1.35,.2,.51,.47,.9,.67,1.35Z"/>
    <path class="cls-15" d="M2141.55,180.58c-.13,.38-.2,.71-.33,1.1,.13-.38,.2-.71,.33-1.1Z"/>
    <path class="cls-15" d="M2144.24,167.63c-.07,.38-.13,.71-.2,1.1,.13-.32,.13-.71,.2-1.1Z"/>
    <path class="cls-15" d="M2142.89,174.73c-.07,.38-.2,.78-.27,1.16,.13-.38,.2-.78,.27-1.16Z"/>
    <path class="cls-15" d="M2136.32,195.79c-.2,.45-.4,.84-.6,1.29,.2-.45,.4-.9,.6-1.29Z"/>
    <path class="cls-15" d="M2142.22,177.95c-.13,.38-.2,.78-.33,1.16,.13-.38,.2-.78,.33-1.16Z"/>
    <path class="cls-15" d="M2140.28,185.03c-.07,.38-.2,.71-.27,1.1,.07-.38,.13-.78,.27-1.1Z"/>
    <path class="cls-15" d="M2162.04,189.99l-.27-.13c0-.32-.07-.32,.27-.19v.32Z"/>
    <path class="cls-15" d="M2143.51,171.5l.2,.19c-.13,.06-.27,.13-.33-.06l.13-.13Z"/>
    <path class="cls-15" d="M2137.66,192.5c-.07,.13-.13,.32-.2,.45l-.07-.32,.27-.13h0Z"/>
    <path class="cls-15" d="M2134.17,200.3l.07,.19c-.13,.09-.22,.04-.27-.13l.2-.06h0Z"/>
    <path class="cls-15" d="M2155.12,177.43l-.2-.13c.05-.17,.16-.19,.33-.06l-.13,.19Z"/>
  </g>
</svg>