<?xml version="1.0" encoding="UTF-8"?><svg id="Layer_1" xmlns="http://www.w3.org/2000/svg" viewBox="0 0 523.4 140.47"><defs><style>.cls-1{fill:#fff;}.cls-2{fill:#dd7360;}.cls-3{fill:#916bad;}.cls-4{fill:#f2f2f2;}</style></defs><g><path class="cls-2" d="M25.23,4.68c112.22,9.43,232.14,3.58,346.79,8.19,190.63-18.05,156.51,56.19,113.22,121.68-157.4-1.51-313.06,6.8-470.78-5.64C-2.81,125.15,3.79-.54,25.23,4.68"/><path class="cls-4" d="M25.23,9.27c59.61,4.96,119.47,5.68,179.25,5.93,30.3,.13,60.6,.13,90.89,.45,14.74,.16,29.47,.39,44.21,.76,7.01,.17,14.01,.38,21.01,.62,8.17,.28,15.96-.04,24.11-.67,22.26-1.71,44.78-2.54,67.05-.52,13.98,1.27,28.72,3.58,41.43,9.86,16.92,8.36,23.7,22.91,20.32,40.83-4.52,23.94-19.03,45.73-32.22,65.71l3.96-2.27c-107.39-1.01-214.78,2.54-322.17,.89-26.72-.41-53.44-1.14-80.14-2.34-13.56-.61-27.11-1.34-40.66-2.21-6.62-.43-13.24-.88-19.86-1.38-2.37-.18-4.77-.3-7.13-.56,.33,.04,.2,.1,.15-.01-.49-1.03,.08,.32-.63-.76-.39-.59-.71-1.23-1.02-1.86-.39-.82-1.11-3.09-1.52-4.63-1.2-4.54-1.83-9.2-2.26-13.87-1.15-12.4-1.02-24.95-.25-37.37,.83-13.57,2.36-27.28,5.92-40.43,1.23-4.54,2.66-9.11,5.11-13.16,.38-.62,1.12-1.61,1.06-1.54,.22-.28,1.73-1.67,.95-1.05,1.25-1,.22,.06,1.05-.58,.08-.06,0-.04,.16-.01,5.75,1.23,8.21-7.61,2.44-8.84C17.2-1.71,12.21,7.76,9.42,14.96,4.8,26.93,3.04,40.1,1.68,52.78,.13,67.27-.44,81.95,.35,96.51c.54,10.01,1.01,22.06,6.11,31.02,2.86,5.01,6.43,5.84,11.97,6.27,15.21,1.17,30.43,2.14,45.66,2.96,30.33,1.62,60.7,2.6,91.07,3.14,60.55,1.07,121.12,.41,181.67-.22,30.31-.32,60.62-.63,90.94-.71,15.19-.04,30.38-.03,45.56,.07,5.57,.04,12.95,2.01,16.49-3.13,1.66-2.42,3.22-4.92,4.8-7.4,11.41-17.88,23.16-37.34,27.48-58.37,3.8-18.46-.55-36.22-16.33-47.6-9.81-7.07-21.95-10.74-33.69-13.04-18.5-3.63-37.55-4.24-56.35-3.86-12.75,.26-25.5,1.05-38.2,2.16-14.37,1.25-29.27-.35-43.7-.68-29.56-.67-59.14-.84-88.71-.94-58.93-.2-117.9-.08-176.77-3.17C53.96,2.25,39.59,1.3,25.23,.1c-5.88-.49-5.85,8.68,0,9.17h0Z"/></g><g><path class="cls-3" d="M63.11,44.31c5.48,1.42,15.13,5.83,14.65-4.85-6.22-9.13-12.33-12.84-22.19-14.19-18.22,2.18-32.19,21.66-33.7,41.5-1.31,32.21,19.48,53.36,51.17,36.45,4.08-3.32,1.12-15.22-3.36-17.97-5.1,1.97-12.69,4.81-18.38,5.21-8.44,.98-13.96-14.03-14.35-21.77-.81-16.14,15.93-27.69,26.16-24.39"/><path class="cls-1" d="M62.3,47.27c6.65,1.81,16.77,4.98,18.38-4.85,.87-5.34-3.75-9.73-7.54-12.98s-8.43-5.46-13.38-6.55c-11.07-2.44-22.34,5.56-29.03,13.77-7.62,9.36-12.1,21.51-11.98,33.6,.18,18.89,9.42,40,30.53,41.87,5.09,.45,10.31-.37,15.16-1.92,4.29-1.37,10.61-3.04,12.64-7.47,2.46-5.36-.51-22.31-8.82-20.23-5.48,1.37-14.94,7.56-20.42,3.89-4.59-3.07-6.79-10.46-7.58-15.6-1.74-11.35,9.22-27.09,22.04-23.54,3.82,1.06,5.45-4.87,1.63-5.93-16.58-4.59-31.62,13.87-29.87,29.26,.83,7.28,4.01,16.61,10.34,20.93,3.32,2.27,6.63,2.22,10.46,1.55,2.51-.44,4.98-1.14,7.41-1.91,1.46-.46,2.91-.97,4.35-1.5,.64-.23,3.04-.67,2.18-1.17,2.52,1.45,4.22,9.47,2.6,11.93-1.04,1.58-5.7,2.87-7.31,3.43-2.45,.86-5,1.56-7.57,1.94-8.31,1.21-16.49-1.14-22.27-7.35-13.74-14.74-11.41-40.4-.41-55.8,3.66-5.12,8.59-9.61,14.37-12.19,5.44-2.43,10.28-2.31,15.67,.19,2.86,1.33,12.59,7.69,10.6,11.55-1.49,2.88-8.26-.25-10.54-.87-3.82-1.04-5.45,4.89-1.63,5.93h0Z"/></g><g><path class="cls-3" d="M126.94,24.87c-16.33-3.39-35.3,.06-38.04,18.22-4.95,15.86-7.39,41.45,5.43,56.17,4.25,4.61,10.42,9.71,17.58,9.72,10.9-2.29,26.89-8.87,29.95-19.81,4.59-21.01-3.43-61.79-14.92-64.3"/><path class="cls-1" d="M127.76,21.91c-14.9-2.92-34.45-1.08-40.53,15.35s-8.28,37.94-1.2,54.34c3.59,8.31,10.52,16.08,19.19,19.22,8.22,2.97,17.71-1.27,25-5.2s13.58-9.46,15-17.66c1.43-8.27,1.25-16.79,.35-25.11-.99-9.16-2.73-18.43-6.19-27.01-2.19-5.44-5.43-12.26-11.62-13.94-3.82-1.04-5.45,4.89-1.63,5.93s6.16,6.76,7.52,10.14c2.39,5.94,3.85,12.28,4.9,18.58,1.18,7.09,1.74,14.34,1.5,21.54-.23,6.75-.83,12.81-6.12,17.58-5.37,4.83-12.99,8.18-20.01,9.68-8.44,1.81-16.49-5.78-20.47-12.61-7.76-13.32-6.38-31.05-2.58-45.39,2.01-7.57,3.71-14.28,11.42-17.91,7.32-3.45,16.08-3.13,23.83-1.61,3.86,.76,5.52-5.16,1.63-5.93h0Z"/></g><path class="cls-1" d="M116.38,41.43c-9.14,3.3-13.08,13.89-13.13,22.94-.04,7.23,4.14,19.87,13.68,18.43,7.92-1.2,8.03-13.61,7.91-19.5s-.17-18.2-6.09-21.57c-3.44-1.96-6.54,3.35-3.1,5.31,2.34,1.33,2.74,10.6,2.92,13.35,.2,3.14,.26,6.35-.12,9.47-.18,1.45-.5,5.83-2.06,6.65-1.77,.93-4.25-2.11-5.04-3.43-1.63-2.73-2.02-6.09-1.94-9.2,.14-5.86,2.43-14.29,8.61-16.52,3.69-1.33,2.1-7.27-1.63-5.93h0Z"/><g><path class="cls-3" d="M171.52,53.62c.84,17.23,.86,35.03-1.24,52.12-1.4,4.63-6.2,3.29-9.22,2.11-10.1-6.28-3.81-25.3-3.37-36.23,1.97-7.62-8.51-44.16,2.61-43.91,18.8-6.19,22.86,11.14,28.17,28.37,2.48,9.04,8.3,16.78,11.82,25.39,2.25,8.94,1.82,.16,.9-4,.38-6.58-1.64-55.81,9.44-44.85,11.38,19.09,3.76,47.06,3.65,68.68,.51,9.14-4.83,5.6-10.05,6.58-4.46,1.59-8.84-6.07-11.62-9.63-10.89-11.01-15.28-29.73-21.1-44.65"/><path class="cls-1" d="M168.45,53.62c.5,10.64,.72,21.29,.33,31.93-.18,4.83-.48,9.66-.94,14.47-.24,2.5-.06,5.65-3.19,5.75-1.67,.05-3.23-1.37-4.12-2.61-3.86-5.39-1.93-14.34-1.08-20.39,.66-4.72,1.61-9.58,1.58-14.36-.07-10.37-3.13-20.54-2.82-30.96,.05-1.58-.07-4.35,.93-5.71,1.07-1.45,2.96-1.44,4.78-1.83,7.07-1.49,11.73,2.04,14.91,8.1,3.91,7.42,5.22,15.83,8.29,23.57,1.83,4.61,4.26,8.92,6.59,13.29,1.15,2.16,2.41,4.36,3.3,6.65,.67,1.72,.88,3.81,1.97,5.36,.86,1.22,2.02,1.67,3.47,1.41l.16-.03c1.05-.19,1.84-1.19,2.15-2.15,1.11-3.53-.45-7.78-.42-11.45,.03-4.16,0-8.32,.07-12.48,.15-9.35,.5-18.53,3.26-27.47,.38-1.24,.1-.52,.19-.45,2.72,2.27,3.78,7.98,4.54,11.3,1.93,8.48,1.62,17.38,1.01,25.99s-1.7,16.95-2.06,25.45c-.08,1.87,.24,4.05-.08,5.88-.38,2.18-.33,1.69-2.26,1.82-3.36,.23-6.57,.7-9.01-1.86-13.61-14.23-18.61-32.15-25.48-50.04-1.4-3.65-7.35-2.07-5.93,1.63,3.77,9.8,6.69,19.93,11.08,29.49,3.85,8.39,9.62,16.57,15.98,23.27,2.66,2.8,5.13,4.05,8.95,3.78,2.85-.2,6.4,.45,9.07-.84,3.13-1.52,3.66-4.87,3.73-8.02,.12-5.23,.39-10.41,.85-15.63,.97-10.9,2.34-21.9,1.48-32.86-.39-4.94-1.18-9.9-2.79-14.59-1.15-3.33-2.52-7.7-5.57-9.78-9.97-6.81-11.91,12.53-12.39,17.86-.65,7.15-.74,14.34-.76,21.52,0,2.49-.05,5-.02,7.49s1.41,5.97,.66,8.38l2.15-2.15-.16,.03,3.47,1.41c-1.01-1.43-1.23-3.7-1.97-5.36-1.12-2.52-2.4-4.95-3.69-7.38-2.98-5.59-5.73-11.02-7.58-17.1-2.34-7.71-4.42-16.2-9.24-22.81-4.38-6.01-10.85-8.68-18.22-7.4-5.55,.96-9.49,2.24-10.91,8.15-2.97,12.35,2.76,25.1,2.21,37.48-.51,11.42-8.48,33.13,4.2,40.85,2.79,1.7,7.05,2.56,10.14,1.17,4.76-2.15,4.45-7.88,4.86-12.31,1.38-15.11,1.24-30.3,.53-45.44-.19-3.94-6.33-3.96-6.15,0h0Z"/></g><g><path class="cls-3" d="M227.33,32.66c-.56,7.09-3.38,15.3,2.48,20.44,1.17,1.4,2.85,2.43,4.32,1.03,3.55-1.38,7.17-.54,10.63,.49,1.49,1.2,.48,3.67,1.24,5.4,1.16,10.38,2.19,20.83,2.09,31.3,.1,6.93-1.11,15.8,4.17,20.62,3.58,.95,7.27,.03,9.84-3.07,2.15-2.41,5.32-4.23,6.41-7.63-1.97-14.34-3.39-29.04-2.15-43.6-.59-4.77,4.54-1.09,6.55-.81,4.62,.47,9.25,1.22,13.83,1.78,3.11-2.76,.06-8.98,1.01-13.03,1.6-13.59-9.38-12.96-17.79-11.54-13.94,1.07-27.81-2.59-41.72-2.07"/><path class="cls-1" d="M224.26,32.66c-.79,8.18-3.23,17.64,4.34,23.56,4.23,3.3,7.28-.75,11.84,.47,2.77,.74,2.32,2.58,2.7,5.27,.51,3.54,.76,7.17,1.07,10.73,.53,6.2,.82,12.4,.81,18.62,0,4.42-.32,8.9,.42,13.28,.56,3.35,2.06,8.18,5.27,9.99s7.98,.65,10.82-1.15,6.36-5.31,8.26-8.07c3.28-4.75,.85-11.01,.31-16.36-.62-6-1.04-12.02-1.11-18.05-.04-3.17,.02-6.35,.19-9.52,.07-1.19,.36-2.65,.27-3.8-1.48,.52-1.59,.88-.34,1.07l.84,.34c3.61,2.05,9.35,1.65,13.37,2.19,4.26,.57,6.88-.04,7.78-4.73,.67-3.55-.49-7.34-.25-10.93s.11-7.43-2.15-10.55c-4.18-5.76-11.92-4.9-18.1-4.18-14.06,1.63-28.23-2.29-42.33-1.95-3.95,.09-3.96,6.24,0,6.15,10.5-.25,20.83,1.58,31.28,2.12,4.29,.22,8.51,.16,12.76-.4,2.65-.35,5.64-.73,8.27-.01,3.03,.84,4.16,2.96,4.28,6.03,.07,1.74-.35,3.45-.34,5.18s1,4.21,.58,5.89,.79,.93-1.37,1.28c-1.16,.19-2.74-.38-3.91-.53-1.95-.26-4-.36-5.92-.78-2.31-.5-4.67-2.14-7.13-1.57-2.23,.52-3.13,2.19-3.48,4.28-.82,4.89-.5,10.42-.41,15.37s.38,9.52,.82,14.26c.23,2.52,.5,5.05,.8,7.56,.23,1.96,1.45,5.42,.8,7.33-.88,2.57-7.58,8.68-10.33,8.17-4.05-.75-3.81-7.95-3.84-11.02-.09-10.19-.2-20.23-1.21-30.39-.39-3.99-.09-9.38-1.55-13.15-1.36-3.51-5.52-4.05-8.87-4.26-1.23-.08-2.36-.04-3.57,.15-.75,.12-2.71,1.08-3.33,.93-1.57-.37-2.78-3.46-3.09-4.78-1.05-4.48,.48-9.54,.92-14.03,.38-3.93-5.77-3.91-6.15,0h0Z"/></g><g><path class="cls-3" d="M298.22,107.02c-3.27-23.32-6.59-54.22,12.77-71,9.48-6.34,21.88-5.55,31.92-.64,5.42,10.42,8.04,22.64,9.37,34.34,1.09,12.19-1.62,24.26-1.86,36.28-4.64,2.37-13.56,4.46-18.91,1.36-2.33-4.47,.43-11.5-1.53-16.82-.54-7.34-7.82-7.88-10.17-1.5-1.25,20.44-3.06,16.2-21.58,17.99"/><path class="cls-1" d="M301.19,106.21c-1.68-12.04-3.08-24.27-2.05-36.44,.96-11.43,5-27.05,16.2-32.71,6.61-3.34,15.52-3.36,22.33-.55,6.47,2.66,8.13,14.24,9.49,20.57,1.73,8,2.59,15.98,2.15,24.17s-1.7,16.48-1.95,24.77l1.52-2.65c-2.33,1.11-4.81,1.86-7.36,2.24-1.44,.22-6.46,.94-7.52-.21-1.2-1.3-.29-5.94-.24-7.6,.08-2.26,.03-4.47-.42-6.69-.71-3.58-1.72-7.36-5.41-8.92-2.81-1.19-5.91-.49-8.16,1.52-3.25,2.9-3.04,6.54-3.43,10.54-.2,2.11-.21,5.97-1.83,7.65-1.2,1.24-3.28,1.23-4.89,1.36-3.8,.3-7.61,.37-11.4,.72s-3.94,6.5,0,6.15c5.62-.51,13.21,.53,18.38-2.19,4.9-2.58,5.41-8.77,5.88-13.68,.16-1.69-.22-4.67,1.26-5.88,2.73-2.23,3.36,2.59,3.67,4.37,.87,4.93-1.34,10.83,1.13,15.46,3.88,7.26,17.86,3.13,23.43,.48,.97-.46,1.49-1.63,1.52-2.65,.47-15.44,3.21-30.09,.56-45.51-1.21-7.03-2.99-13.97-5.7-20.57-.92-2.23-1.75-5.34-3.58-6.95-2.03-1.79-6-2.67-8.55-3.32-12.08-3.09-24.68-.37-32.55,9.63-6.72,8.54-9.63,19.11-10.62,29.78-1.2,12.94,.42,25.96,2.21,38.77,.54,3.9,6.47,2.24,5.93-1.63h0Z"/></g><path class="cls-1" d="M318.29,61.12c1.07-4.79,.41-7.41,4.37-10.67,2.02-1.66,4.74-2.7,7.02-1.25,2.73,1.73,4.28,6.84,5.38,9.65,.23,.6,.46,1.19,.7,1.79,1.27-1.71,1.5-2.41,.69-2.09-.03-.04-2.3,.38-2.48,.4-2.25,.2-4.54,.1-6.79,0-3.78-.17-7.59-.44-11.33-.98s-5.54,5.36-1.63,5.93c6.21,.89,12.67,1.56,18.95,1.25,2.32-.12,5.27-.2,7.14-1.78,2.89-2.43,.88-5.8-.3-8.62-1.71-4.1-3.8-8.56-7.53-11.21-2.92-2.08-7.95-1.28-11.09,.12-2.71,1.21-5.72,4.32-7.18,6.92s-1.2,6.11-1.83,8.92c-.86,3.85,5.06,5.5,5.93,1.63h0Z"/><g><path class="cls-3" d="M405.43,49.17c4.99,1.42,13.77,5.83,13.33-4.85-5.66-9.13-11.22-12.84-20.19-14.19-16.58,2.18-29.29,21.66-30.67,41.5-1.19,32.21,17.72,53.36,46.56,36.45,3.71-3.32,1.02-15.22-3.06-17.97-4.64,1.97-11.55,4.81-16.72,5.21-7.68,.98-12.7-14.03-13.06-21.77-.73-16.14,14.49-27.69,23.8-24.39"/><path class="cls-1" d="M404.61,52.13c4.63,1.39,11,4.23,14.99-.05,5.85-6.27-.7-14.2-5.64-18.49-5.34-4.63-12.99-7.69-19.97-5.63-7.71,2.29-14.02,7.75-18.69,14.15-10.67,14.61-13.27,34.57-7.74,51.7,4.04,12.53,13.62,23.18,27.56,23.3,4.22,.04,8.49-.87,12.43-2.35,3.57-1.34,8.61-2.92,10.53-6.46,3.16-5.82,.55-16.32-4.5-20.38-.79-.63-1.94-1.23-2.99-.79-4.49,1.89-14.93,7.73-19.32,3.77-3.91-3.52-5.68-10.21-6.37-15.25-1.37-9.98,7.24-27.32,19.72-23.54,3.79,1.15,5.41-4.78,1.63-5.93-16.29-4.93-29.03,15.22-27.53,29.26,.75,7.01,3.34,15.73,8.92,20.45,6.87,5.8,17.62,.1,24.58-2.84l-2.99-.79c3.19,2.56,6.03,10.99,2.35,13.89-3.99,3.15-10.93,4.73-15.92,4.79-10.1,.13-17.4-6.89-21.09-15.8-4.67-11.28-4.85-24.68-1.04-36.19,2.12-6.41,5.52-12.57,10.22-17.44,3.6-3.74,9.34-8.21,14.84-8.23,6.3-.01,12.53,5.01,15.81,9.99,4.77,7.23-4.83,3.92-8.16,2.92-3.8-1.14-5.42,4.79-1.63,5.93h0Z"/></g><g><path class="cls-3" d="M431.53,35.21c-.56,7.09-3.38,15.3,2.48,20.44,1.17,1.4,2.85,2.43,4.32,1.03,3.55-1.38,7.17-.54,10.63,.49,1.49,1.2,.48,3.67,1.24,5.4,1.16,10.38,2.19,20.83,2.09,31.3,.1,6.93-1.11,15.8,4.17,20.62,3.58,.95,7.27,.03,9.84-3.07,2.15-2.41,5.32-4.23,6.41-7.63-1.97-14.34-3.39-29.04-2.15-43.6-.59-4.77,4.54-1.09,6.55-.81,4.62,.47,9.25,1.22,13.83,1.78,3.11-2.76,.06-8.98,1.01-13.03,1.6-13.59-9.38-12.96-17.79-11.54-13.94,1.07-27.81-2.59-41.72-2.07"/><path class="cls-1" d="M428.46,35.21c-.79,8.18-3.23,17.64,4.34,23.56,4.23,3.3,7.28-.75,11.84,.47,2.77,.74,2.32,2.58,2.7,5.27,.51,3.54,.76,7.17,1.07,10.73,.53,6.2,.82,12.4,.81,18.62,0,4.42-.32,8.9,.42,13.28,.56,3.35,2.06,8.18,5.27,9.99s7.98,.65,10.82-1.15,6.36-5.31,8.26-8.07c3.28-4.75,.85-11.01,.31-16.36-.62-6-1.04-12.02-1.11-18.05-.04-3.17,.02-6.35,.19-9.52,.07-1.19,.36-2.65,.27-3.8-1.48,.52-1.59,.88-.34,1.07l.84,.34c3.61,2.05,9.35,1.65,13.37,2.19,4.26,.57,6.88-.04,7.78-4.73,.67-3.55-.49-7.34-.25-10.93s.11-7.43-2.15-10.55c-4.18-5.76-11.92-4.9-18.1-4.18-14.06,1.63-28.23-2.29-42.33-1.95-3.95,.09-3.96,6.24,0,6.15,10.5-.25,20.83,1.58,31.28,2.12,4.29,.22,8.51,.16,12.76-.4,2.65-.35,5.64-.73,8.27-.01,3.03,.84,4.16,2.96,4.28,6.03,.07,1.74-.35,3.45-.34,5.18s1,4.21,.58,5.89,.79,.93-1.37,1.28c-1.16,.19-2.74-.38-3.91-.53-1.95-.26-4-.36-5.92-.78-2.31-.5-4.67-2.14-7.13-1.57-2.23,.52-3.13,2.19-3.48,4.28-.82,4.89-.5,10.42-.41,15.37,.09,4.76,.38,9.52,.82,14.26,.23,2.52,.5,5.05,.8,7.56,.23,1.96,1.45,5.42,.8,7.33-.88,2.57-7.58,8.68-10.33,8.17-4.05-.75-3.81-7.95-3.84-11.02-.09-10.19-.2-20.23-1.21-30.39-.39-3.99-.09-9.38-1.55-13.15-1.36-3.51-5.52-4.05-8.87-4.26-1.23-.08-2.36-.04-3.57,.15-.75,.12-2.71,1.08-3.33,.93-1.57-.37-2.78-3.46-3.09-4.78-1.05-4.48,.48-9.54,.92-14.03,.38-3.93-5.77-3.91-6.15,0h0Z"/></g></svg>