<?xml version="1.0" encoding="UTF-8"?>
<svg id="Layer_2" data-name="Layer 2" xmlns="http://www.w3.org/2000/svg" viewBox="0 0 4163.64 839.59">
  <defs>
    <style>
      .cls-1 {
        fill: #fff;
        stroke: #fff;
        stroke-width: 3px;
      }

      .cls-1, .cls-2, .cls-3, .cls-4, .cls-5, .cls-6, .cls-7 {
        stroke-miterlimit: 10;
      }

      .cls-2 {
        fill: #e19692;
      }

      .cls-2, .cls-3, .cls-4, .cls-5, .cls-6, .cls-7 {
        stroke: #f2f2f2;
      }

      .cls-2, .cls-5, .cls-6, .cls-7 {
        stroke-width: 3px;
      }

      .cls-3 {
        stroke-width: 3.04px;
      }

      .cls-3, .cls-4, .cls-7 {
        fill: #dd7360;
      }

      .cls-4 {
        stroke-width: 3.02px;
      }

      .cls-5 {
        fill: #eab5b3;
      }

      .cls-6 {
        fill: #e0857b;
      }
    </style>
  </defs>
  <g>
    <polygon class="cls-4" points="1.51 36.46 1.51 323.99 93.88 323.99 195.22 186.5 95.67 36.46 1.51 36.46"/>
    <polygon class="cls-6" points="96.78 36.46 195.22 186.5 227.12 142.84 227.12 142.84 304.85 36.46 96.78 36.46"/>
    <polygon class="cls-5" points="507.82 159.31 414.21 36.46 304.85 36.46 227.12 142.84 354.7 204.4 354.7 204.4 510.03 279.29 560.01 227.93 507.82 159.31"/>
    <polyline class="cls-2" points="195.22 186.5 94.98 323.99 267.02 323.99 354.7 204.4 227.12 142.84 195.22 186.5"/>
    <path class="cls-7" d="M474.41,316.01l35.76-36.73-155.33-74.89-87.81,119.59h194.41c3.45-3.79,8.01-6.53,12.98-7.97Z"/>
    <path class="cls-6" d="M490.43,312.49c43.08-2.35,86.16-5.62,129.37-6.01l-59.92-78.68-49.84,51.49-35.76,36.73c1.79-.52,3.73-.91,5.52-1.05,3.45-1.44,7.04-2.22,10.63-2.48h0Z"/>
    <polygon class="cls-7" points="620.63 165.58 682.07 102.2 639.82 58.41 507.82 159.31 560.01 227.93 620.63 165.58"/>
    <polygon class="cls-6" points="618.69 36.46 414.21 36.46 507.82 159.31 639.82 58.41 618.69 36.46"/>
    <polygon class="cls-2" points="746 36.46 618.69 36.46 639.82 58.41 639.82 58.41 682.07 102.2 746 36.46"/>
    <path class="cls-2" d="M741.99,322.94c1.1,.26,2.21,.52,3.31,.91h2.21l-126.89-158.4-60.61,62.34,52.74,69.27c43.91,4.18,86.02,16.86,129.24,25.88h0Z"/>
    <polygon class="cls-5" points="797.78 222.18 682.07 102.2 620.63 165.58 747.52 323.99 895.95 323.99 797.78 222.18"/>
    <polygon class="cls-2" points="895.95 323.99 947.17 323.99 1020.76 145.72 797.78 222.18 895.95 323.99"/>
    <path class="cls-6" d="M912.38,57.11c-2.35-.39-25.13-16.08-24.3-20.65h-142.22l-63.93,65.74,115.71,119.98,222.99-76.46,33-79.59c-4.28,1.05-139.59-8.76-141.25-9.02Z"/>
    <polygon class="cls-5" points="1197.63 207.8 1363.74 227.8 1272.61 151.99 1197.63 207.8"/>
    <polygon class="cls-6" points="1363.74 227.8 1197.63 207.8 1041.47 323.99 1370.92 323.99 1447.96 297.72 1363.74 227.8"/>
    <polygon class="cls-5" points="1447.96 297.72 1370.92 323.99 1479.58 323.99 1447.96 297.72"/>
    <polygon class="cls-6" points="1377.41 73.97 1272.61 151.99 1363.74 227.8 1363.74 227.8 1447.96 297.72 1574.44 254.72 1628.7 169.64 1377.41 73.97"/>
    <polygon class="cls-5" points="1427.94 36.46 1377.41 73.97 1628.7 169.64 1713.61 36.46 1427.94 36.46"/>
    <polygon class="cls-2" points="1447.96 297.72 1479.58 323.99 1530.25 323.99 1574.44 254.72 1447.96 297.72"/>
    <polygon class="cls-7" points="1751.86 194.47 1867.84 155 1805.85 36.46 1713.61 36.46 1628.7 169.64 1628.7 169.64 1574.44 254.72 1751.86 194.47"/>
    <polygon class="cls-6" points="1569.05 254.72 1525.01 323.99 1630.36 323.99 1746.48 194.47 1569.05 254.72"/>
    <polygon class="cls-2" points="1867.84 155 1751.86 194.47 1635.74 323.99 1777.4 323.99 1899.18 214.6 1867.84 155"/>
    <polygon class="cls-7" points="1899.18 214.6 1777.4 323.99 1956.48 323.99 1899.18 214.6"/>
    <polygon class="cls-6" points="2216.48 36.46 2124.66 67.69 2240.36 144.41 2349.85 36.46 2216.48 36.46"/>
    <polygon class="cls-5" points="1867.84 155 1899.18 214.6 1899.18 214.6 1956.48 323.99 2058.52 323.99 2112.23 270.93 2073.43 85.08 1867.84 155"/>
    <polygon class="cls-7" points="2124.66 67.69 2073.43 85.08 2112.23 270.93 2240.36 144.41 2124.66 67.69"/>
    <polygon class="cls-5" points="2427.87 36.46 2349.85 36.46 2240.36 144.41 2499.66 316.54 2427.87 36.46"/>
    <polygon class="cls-2" points="2058.52 323.99 2123.28 323.99 2112.23 270.93 2058.52 323.99"/>
    <polygon class="cls-2" points="2499.66 316.54 2240.36 144.41 2112.23 270.93 2123.28 323.99 2501.6 323.99 2499.66 316.54"/>
    <polygon class="cls-7" points="2501.6 323.99 2510.85 323.99 2499.66 316.54 2501.6 323.99"/>
    <polygon class="cls-7" points="2607.5 204.4 2464.18 36.46 2427.87 36.46 2499.66 316.54 2510.85 323.99 2709.4 323.99 2607.5 204.4"/>
    <polygon class="cls-7" points="2885.16 36.46 2710.09 36.46 2870.39 98.02 2885.16 36.46"/>
    <polygon class="cls-6" points="2602.53 204.4 2704.56 323.99 2811.43 323.99 2855.75 138.79 2602.53 204.4"/>
    <polygon class="cls-2" points="2870.39 98.02 2710.09 36.46 2464.18 36.46 2607.5 204.4 2860.59 138.79 2870.39 98.02"/>
    <polygon class="cls-5" points="3320.09 323.99 3459.27 323.99 3371.18 290.14 3320.09 323.99"/>
    <polygon class="cls-7" points="3966 36.46 3855.4 36.46 3903.73 107.56 3966 36.46"/>
    <polygon class="cls-5" points="3855.4 36.46 3754.47 36.46 3657.68 100.5 3786.23 242.04 3903.73 107.56 3855.4 36.46"/>
    <polygon class="cls-2" points="3572.21 157.09 3768.55 262.04 3786.23 242.04 3657.68 100.5 3572.21 157.09"/>
    <polygon class="cls-7" points="3371.18 290.14 3459.27 323.99 3714.43 323.99 3743.7 290.53 3407.49 266.09 3371.18 290.14"/>
    <polygon class="cls-5" points="3572.21 157.09 3407.49 266.09 3743.7 290.53 3768.55 262.04 3572.21 157.09"/>
    <polygon class="cls-7" points="3903.73 107.56 3786.23 242.04 3786.23 242.04 3768.55 262.04 3838.28 299.29 3965.58 198.52 3903.73 107.56"/>
    <polygon class="cls-2" points="3992.78 238.64 3992.78 238.64 3965.58 198.52 3838.28 299.29 3884.54 323.99 4050.91 323.99 3992.78 238.64"/>
    <polygon class="cls-7" points="3838.28 299.29 3768.55 262.04 3743.7 290.53 3743.7 290.53 3714.43 323.99 3884.54 323.99 3838.28 299.29"/>
    <polygon class="cls-5" points="3966 36.46 3903.73 107.56 3965.58 198.52 3965.58 198.52 3992.78 238.64 4031.17 36.46 3966 36.46"/>
    <polygon class="cls-3" points="4032.41 36.46 3992.78 238.64 4052.57 323.99 4152.12 323.99 4152.12 36.46 4032.41 36.46"/>
    <polygon class="cls-7" points="3249.54 323.99 3320.09 323.99 3371.18 290.14 3292.48 259.95 3249.54 323.99"/>
    <polygon class="cls-6" points="3134.52 323.99 3249.54 323.99 3292.48 259.95 3020.75 155.65 3134.52 323.99"/>
    <polygon class="cls-5" points="3346.33 36.46 3417.02 74.23 3442.29 36.46 3346.33 36.46"/>
    <polygon class="cls-6" points="3657.68 100.5 3754.47 36.46 3442.29 36.46 3417.02 74.23 3572.21 157.09 3657.68 100.5"/>
    <polygon class="cls-2" points="2940.12 36.46 3020.75 155.65 3292.48 259.95 3347.71 177.61 3163.24 36.46 2940.12 36.46"/>
    <polygon class="cls-7" points="3346.33 36.46 3163.24 36.46 3347.71 177.61 3417.02 74.23 3346.33 36.46"/>
    <polygon class="cls-2" points="3407.49 266.09 3572.21 157.09 3417.02 74.23 3347.71 177.61 3347.71 177.61 3292.48 259.95 3371.18 290.14 3407.49 266.09"/>
    <polygon class="cls-7" points="2870.39 98.02 2860.59 138.79 2860.59 138.79 2816.26 323.99 3134.52 323.99 3020.75 155.65 2870.39 98.02"/>
    <polygon class="cls-5" points="2940.12 36.46 2885.16 36.46 2870.39 98.02 3020.75 155.65 2940.12 36.46"/>
    <polygon class="cls-7" points="2216.48 36.46 2077.57 36.46 2124.66 67.69 2216.48 36.46"/>
    <polygon class="cls-2" points="2073.43 85.08 2124.66 67.69 2077.57 36.46 1805.85 36.46 1867.84 155 2073.43 85.08"/>
    <path class="cls-7" d="M1133.29,36.46h-46.39c3.18,5.1,3.31,12.29-1.93,16.08-9.39,6.93-20.16,10.85-31.48,13.59l-32.86,79.59-73.59,178.27h94.3l156.3-116.19,74.97-55.68-139.32-115.67Z"/>
    <polygon class="cls-2" points="1377.41 73.97 1427.94 36.46 1133.29 36.46 1272.61 151.99 1377.41 73.97"/>
  </g>
  <path class="cls-1" d="M4147.56,14.11s-140.14,26.53-229.2,22.35c-89.06-4.18-173.42-21.83-330.13-22.35-156.71-.52-210.84,20.52-415.05,17.77-204.21-2.74-216.5-17.25-338.69-17.91s-307.21,25.49-414.36,22.48c-106.87-2.88-207.66-18.69-300.58-22.61-92.92-3.92-307.9,22.48-441.97,19.47-134.07-3.01-213.18-17.12-327.65-19.47s-272.97,26.14-351.12,27.84c-78.29,1.57-263.44-35.03-381.77-39.73s-234.72,28.62-361.48,31.76C128.81,36.85,5.37,13.72,5.37,13.72l.28,28.49s123.16,23.26,249.91,20,241.35-30.45,359.68-25.75c118.33,4.71,305.28,35.16,383.57,33.59s236.66-30.06,351.12-27.71c114.46,2.35,193.44,24.7,327.65,27.84,134.21,3.14,349.19-31.76,441.97-27.84s193.72,25.09,300.72,27.97,292.16-28.62,414.36-27.97c122.19,.65,133.65,25.35,337.73,28.1,204.21,2.74,259.16-28.62,415.88-28.1,156.71,.52,240.66,24.44,329.72,28.62,89.06,4.18,229.62-28.36,229.62-28.36V14.11Z"/>
  <path class="cls-1" d="M4147.56,294.58s-140.14,26.53-229.2,22.35c-89.06-4.18-173.42-21.83-330.13-22.35-156.71-.52-210.84,20.52-415.05,17.77s-216.5-17.25-338.69-17.91-307.21,25.49-414.36,22.48c-107.14-2.88-207.8-18.69-300.72-22.61-92.92-3.92-307.9,22.48-441.97,19.47s-213.18-17.12-327.65-19.47c-114.46-2.35-272.83,26.14-351.12,27.84-78.29,1.57-263.31-35.03-381.63-39.73s-234.72,28.62-361.48,31.76c-126.75,3.14-250.19-20-250.19-20l.28,28.49s123.16,23.26,249.91,20c126.75-3.27,241.35-30.45,359.68-25.75,118.33,4.71,305.28,35.29,383.57,33.72,78.29-1.57,236.66-30.19,351.12-27.84,114.46,2.35,193.44,24.7,327.65,27.84,134.21,3.14,349.19-31.76,441.97-27.84s193.58,25.09,300.72,27.97,292.16-28.62,414.36-27.97c122.19,.65,133.65,25.35,337.73,28.1,204.21,2.74,259.16-28.62,415.88-27.97s240.66,24.44,329.72,28.62,229.62-28.49,229.62-28.49v-28.49h0Z"/>
</svg>