<?xml version="1.0" encoding="UTF-8"?>
<svg id="Layer_1" data-name="Layer 1" xmlns="http://www.w3.org/2000/svg" viewBox="0 0 3009.13 230.22">
  <defs>
    <style>
      .cls-1 {
        fill: #f2f2f2;
      }

      .cls-1, .cls-2, .cls-3, .cls-4, .cls-5 {
        stroke: #f2f2f2;
        stroke-miterlimit: 10;
        stroke-width: 3px;
      }

      .cls-2 {
        fill: #c29fc9;
      }

      .cls-6 {
        fill: none;
      }

      .cls-3 {
        fill: #916bad;
      }

      .cls-4 {
        fill: #a17cb6;
      }

      .cls-5 {
        fill: #d5b8d7;
      }
    </style>
  </defs>
  <path class="cls-6" d="M392.88,182.63c-.97-.74-1.91-1.54-2.82-2.41,.91,.87,1.85,1.67,2.82,2.41Z"/>
  <path class="cls-6" d="M394.57,183.82c-.34-.22-.67-.44-1-.68,.33,.23,.66,.46,1,.68Z"/>
  <path class="cls-6" d="M390.06,180.22c-.25-.24-.51-.49-.76-.74,.25,.25,.5,.5,.76,.74Z"/>
  <path class="cls-6" d="M402.16,186.94c-1.28-.25-2.5-.62-3.68-1.09,1.18,.47,2.4,.83,3.68,1.09Z"/>
  <path class="cls-6" d="M406.63,187.34c-.74,.01-1.47-.01-2.18-.07,.71,.06,1.43,.09,2.18,.07Z"/>
  <path class="cls-6" d="M404.45,187.27c-.65-.05-1.29-.14-1.92-.25,.63,.11,1.26,.2,1.92,.25Z"/>
  <path class="cls-6" d="M385.69,175.38c-.41-.51-.81-1.04-1.21-1.57,.4,.53,.8,1.06,1.21,1.57Z"/>
  <path class="cls-6" d="M398.48,185.85c-.62-.25-1.23-.53-1.82-.83,.6,.3,1.2,.58,1.82,.83Z"/>
  <path class="cls-6" d="M374.69,158.76c-.34-.55-.69-1.1-1.03-1.64,.35,.55,.69,1.09,1.03,1.64Z"/>
  <path class="cls-6" d="M373.19,156.39c-.35-.54-.7-1.09-1.05-1.62,.35,.54,.7,1.08,1.05,1.62Z"/>
  <path class="cls-6" d="M372.14,154.77c-.43-.65-.86-1.3-1.3-1.94,.44,.64,.87,1.29,1.3,1.94Z"/>
  <path class="cls-6" d="M379.98,167.24c-.17-.26-.33-.52-.5-.78,.17,.26,.33,.52,.5,.78Z"/>
  <path class="cls-6" d="M369.53,150.94c-.44-.62-.89-1.23-1.35-1.83,.45,.6,.9,1.21,1.35,1.83Z"/>
  <path class="cls-6" d="M384.14,173.34c-.39-.53-.78-1.07-1.16-1.61,.38,.55,.77,1.08,1.16,1.61Z"/>
  <path class="cls-6" d="M378.71,165.23c-.5-.8-1-1.61-1.5-2.42,.5,.81,1,1.61,1.5,2.42Z"/>
  <path class="cls-6" d="M382.98,171.73c-.44-.63-.88-1.27-1.31-1.92,.43,.65,.87,1.29,1.31,1.92Z"/>
  <path class="cls-6" d="M2741.8,159.82c-2.41,1.08-4.85,2-7.32,2.8,2.5-.8,4.98-1.72,7.42-2.8,28.49-12.9,42.38-49.7,38.28-78.5,4,28.8-9.79,65.6-38.38,78.5Z"/>
  <path class="cls-6" d="M2599.97,157.82c22.98-5.7,36.97-24.29,43.87-46.38h0c-6.9,22.09-20.99,40.68-43.87,46.38Z"/>
  <path class="cls-6" d="M2780.18,81.32s.05,0,.08,0c-.02,0-.05,0-.08,0h0Z"/>
  <path class="cls-6" d="M2423.95,20.87s0,0,0,0c.4,37.02,67.06,66.33,43.3,110.45,23.84-44.02-42.84-73.47-43.29-110.45Z"/>
  <path class="cls-6" d="M2639.27,110.11c1.14,.28,2.28,.6,3.42,.95-.25-.08-.5-.16-.74-.24-.89-.26-1.78-.49-2.67-.71Z"/>
  <path class="cls-6" d="M2854.66,144.19s0,.01,0,.02c1.51-.36,3.03-.75,4.54-1.14-1.52,.38-3.03,.76-4.55,1.11Z"/>
  <path class="cls-6" d="M2511.65,70.62c-18.08-17.89-28.31-39.73-14.01-59.15-.01,0-.03,0-.04,0-14.31,19.39-4.06,41.24,14.05,59.14Z"/>
  <path class="cls-6" d="M974.77,170.35c-1.45-1.4-2.79-3.04-4-4.93,1.21,1.89,2.55,3.53,4,4.93Z"/>
  <path class="cls-6" d="M1015.38,174.72c6.9-1.73,13.8-4.01,20.15-6.02-6.41,2.01-13.25,4.3-20.15,6.02,0,0,0,0,0,0,0,0,0,0,0,0Z"/>
  <path class="cls-6" d="M2950.64,200.75c-.31-14.18-1.21-23.51-3.55-31.17,.27,1.06,.51,2.14,.7,3.24,1.53,9.42,2.43,18.68,2.85,27.93Z"/>
  <path class="cls-6" d="M970.7,165.32s-.01-.02-.02-.03c0,0,.01,.02,.02,.03Z"/>
  <path class="cls-6" d="M1168.66,150.48c-6.09,5.39-13.88,10.93-23.74,16.63,9.86-5.7,17.65-11.24,23.74-16.63Z"/>
  <path class="cls-6" d="M2857.9,27.05c9.87,33.83,29.9,64.05,51.31,92.07-3.51,3.27-7.39,6.16-11.54,8.74,4.19-2.58,8.1-5.47,11.64-8.74-21.48-28.02-41.53-58.24-51.41-92.07h0Z"/>
  <path class="cls-6" d="M1404.02,13.59c-.06,0-.11,.01-.17,.02,1.15,.9,2.27,1.82,3.38,2.76-1.05-.95-2.12-1.88-3.21-2.78Z"/>
  <path class="cls-6" d="M2117.92,9.51c-.08-.01-.15-.02-.23-.03-3.18,5.35-5.02,10.44-5.76,15.32,.87-4.78,2.8-9.85,5.99-15.29Z"/>
  <path class="cls-6" d="M187.94,82.96c-.04-6.08,.9-11.86,3.95-16.94-3.06,5.08-4,10.86-3.95,16.94Z"/>
  <path class="cls-6" d="M697.44,36.62c-27.06,4.82-61.84-15.4-86.5-4.99,24.72-10.35,59.52,9.89,86.5,4.99Z"/>
  <path class="cls-6" d="M589.66,50.73c.61,.27,1.22,.53,1.84,.79,0-.01,.01-.02,.02-.03-.61-.25-1.23-.5-1.85-.75Z"/>
  <path class="cls-6" d="M659.64,111.05c6.18,3.07,13.61,3.86,21.18,3.83-7.28-.36-14.38-1.48-21.18-3.84,0,0,0,0,0,0Z"/>
  <path class="cls-6" d="M659.59,110.96c1.66-2.55,2.84-5.07,3.59-7.54-.8,2.54-1.99,5.07-3.59,7.54h0Z"/>
  <path class="cls-6" d="M697.36,39.49c-.01-.95,.02-1.9,.08-2.87-.07,.97-.1,1.93-.08,2.87Z"/>
  <path class="cls-6" d="M459.15,185.87c2.9,2.15,5.52,4.57,7.88,7.22-2.36-2.65-4.98-5.07-7.88-7.22Z"/>
  <path class="cls-6" d="M620.62,128.3c-44.91-92-113.78,58.35-164.46-26.58,50.67,85.03,119.55-65.42,164.46,26.58Z"/>
  <path class="cls-6" d="M415.08,185.82c-3.05,1.01-5.85,1.49-8.45,1.52,2.6-.04,5.4-.52,8.45-1.52,9.99-3,19.99-11,30.98-7,4.87,1.8,9.22,4.19,13.08,7.06-3.86-2.87-8.21-5.26-13.08-7.06-10.99-4-20.99,4-30.98,7Z"/>
  <path class="cls-6" d="M851.79,81c.04,1.67-.1,3.4-.43,5.21,.33-1.81,.46-3.55,.43-5.21Z"/>
  <path class="cls-6" d="M726.81,85.91c8.55,8.35,16.85,16.63,21.61,25.71,22.19-.1,44.68,6.9,60.57,23,.01-.02,.02-.04,.03-.06-15.89-16.05-38.44-23.04-60.5-22.94-4.79-9.08-13.13-17.36-21.71-25.71Z"/>
  <path class="cls-6" d="M324.86,128.59c2.3-.06,4.57,0,6.81,.17-2.24-.18-4.51-.23-6.81-.17Z"/>
  <path class="cls-6" d="M1137.73,34.88c.21-4.68-.26-9.39-1.51-14.08-.04,0-.09,0-.13-.01,1.26,4.75,1.78,9.47,1.64,14.09Z"/>
  <path class="cls-6" d="M943.5,80.89c19.94-21.33,15.02-50.19,5.32-75.73,0,0,0,0-.01,0,9.62,25.54,14.63,54.4-5.3,75.73Z"/>
  <path class="cls-6" d="M1108.21,86.29s-.09,.08-.14,.11c.05-.04,.09-.08,.14-.11Z"/>
  <path class="cls-6" d="M1107.76,86.65c-11.83,9.53-25.77,16.69-39.11,20.36,13.49-3.37,27.36-10.65,39.11-20.36Z"/>
  <path class="cls-6" d="M368.18,149.11c-.45-.6-.92-1.18-1.38-1.75,.47,.57,.93,1.16,1.38,1.75Z"/>
  <path class="cls-6" d="M1035.64,33.43c-7.78,12.07-12.1,24.49-6.87,37.38,.22,.52,.47,1.01,.71,1.51-4.45-11.92-1.91-24.82,6.16-38.89Z"/>
  <path class="cls-6" d="M339.94,130.04c-1.62-.39-3.26-.69-4.92-.92,1.66,.23,3.3,.53,4.92,.92Z"/>
  <path class="cls-6" d="M349.42,133.38c-1.54-.74-3.1-1.38-4.68-1.93,1.58,.55,3.14,1.2,4.68,1.93Z"/>
  <path class="cls-6" d="M323.14,128.66c-2.31,.11-4.64,.33-6.98,.65,2.35-.31,4.68-.53,6.98-.65Z"/>
  <path class="cls-6" d="M312.62,129.84c-1.18,.2-2.37,.42-3.55,.66,1.19-.24,2.37-.46,3.55-.66Z"/>
  <path class="cls-6" d="M366.8,147.35c-.47-.57-.94-1.13-1.42-1.67,.48,.54,.95,1.1,1.42,1.67Z"/>
  <path class="cls-6" d="M350.12,161.82c-.08,.22-.15,.44-.23,.66,2.78-6.97,7.3-13.27,14.02-18.36-6.3,4.8-11.29,10.7-13.79,17.7Z"/>
  <path class="cls-6" d="M353.96,135.88c-.99-.62-1.99-1.2-3.01-1.73,1.01,.53,2.02,1.11,3.01,1.73Z"/>
  <path class="cls-6" d="M303.7,131.7c-1.79,.44-3.59,.92-5.4,1.42,1.8-.51,3.6-.98,5.4-1.42Z"/>
  <path class="cls-6" d="M2570.86,105.68c-.19-.05-.39-.1-.58-.16,.19,.06,.39,.1,.58,.16Z"/>
  <path class="cls-6" d="M351.61,4.31s0,0,0,0c-18.76,88.31-108.41,25.14-159.71,61.7,51.5-36.56,140.96,26.71,159.71-61.7Z"/>
  <path class="cls-6" d="M152.72,145.62c32.3-2.62,38.67-15.02,38.52-30.19,.15,15.14-6.25,27.53-38.52,30.19Z"/>
  <path class="cls-6" d="M164.72,167.95c2.81,6.2,5.32,12.58,7.55,19.07-2.22-6.49-4.73-12.87-7.55-19.07Z"/>
  <path class="cls-6" d="M291.09,135.3c-1.2,.38-2.41,.78-3.61,1.18,1.2-.4,2.41-.79,3.61-1.18Z"/>
  <path class="cls-6" d="M237.06,116.36c8.35,8.31,15.35,17.96,18.5,31.45-3.13-13.49-10.14-23.14-18.5-31.45Z"/>
  <path class="cls-6" d="M208.15,90.7c-6.81-6.85-12.68-14.62-16.25-24.68,3.57,10.07,9.45,17.84,16.25,24.68Z"/>
  <path class="cls-6" d="M2599.97,157.82c-6.65,1.67-13.38,3.27-20.14,4.88,6.77-1.61,13.5-3.21,20.14-4.88Z"/>
  <path class="cls-6" d="M1351.51,127.02c-37.08,5.1-73.46,4.1-108.04,16.7,34.58-12.6,70.86-11.5,108.04-16.7Z"/>
  <path class="cls-6" d="M1251.66,58.82c-5.84,7.64-10.12,15.84-12.91,24.32,5.75-14.32,15.84-25.97,23.92-38.57-3.38,4.94-7.16,9.68-11.01,14.25Z"/>
  <path class="cls-6" d="M1499.07,148.68c-1.78,1.57-3.62,3.1-5.52,4.56,1.9-1.47,3.74-2.99,5.52-4.56Z"/>
  <path class="cls-6" d="M2430.67,103.13c-15.12-7.11-31.64-11.14-48.55-14.54,16.92,3.43,33.44,7.47,48.55,14.54Z"/>
  <path class="cls-6" d="M2381.28,88.42c-.32-.06-.63-.13-.95-.19,.32,.06,.63,.13,.95,.19Z"/>
  <path class="cls-6" d="M1932.9,179.12c-4.1,1.8-9.89,3.89-15.94,6.38,5.46-2.18,10.97-4.16,15.94-6.38Z"/>
  <path class="cls-6" d="M1504.23,143.81c-1.66,1.67-3.38,3.3-5.16,4.87,1.78-1.57,3.5-3.2,5.16-4.87Z"/>
  <path class="cls-6" d="M1243.36,143.72c-10.79,3.34-19.16,7.9-25.3,13.43,7.31-5.94,16.86-10.22,25.42-13.4,0-.01,0-.02-.01-.03-2.6-5.67-4.58-10.97-6.03-15.97,1.41,5.43,3.39,10.77,5.93,15.97Z"/>
  <path class="cls-6" d="M1528.72,101.82c-4.02,14.95-11.67,28.23-22.04,39.44,10.37-11.21,18.02-24.49,22.04-39.44-.02,0-.03,0-.05-.01,.02,0,.03,0,.05,.01Z"/>
  <path class="cls-6" d="M2025.94,5.43s-.07,0-.1,0c14.09,16.25,23.19,36.88,25.88,57.96-2.36-21.01-11.12-41.54-25.78-57.96Z"/>
  <path class="cls-6" d="M1427.2,46.08c2.28,8.73,2.32,17.33,.66,25.43,2.23-8.95,1.75-17.49-.66-25.43Z"/>
  <path class="cls-6" d="M1863.89,64.04c1.55,.68,3.1,1.38,4.64,2.1-1.47-.78-3.01-1.49-4.64-2.1Z"/>
  <path class="cls-6" d="M1446.55,175.82h.01c16.4-4.27,31.41-11.21,44.1-20.41-12.7,9.2-27.7,16.14-44.1,20.41,0,0,0,0-.01,0Z"/>
  <path class="cls-6" d="M1375.38,122.61c15.04-3.92,28.45-12.22,38.11-23.19-9.84,10.79-23.49,18.64-38.11,23.19Z"/>
  <path class="cls-6" d="M1427.77,71.52c-.32,1.69-.73,3.35-1.2,4.97,.51-1.64,.95-3.29,1.3-4.97,.22,.1,.45,.18,.67,.28-.22-.1-.45-.18-.67-.28-23.15-11.28-59.96-26.17-66.14-53.69h0c6.17,27.52,42.97,42.4,66.04,53.69Z"/>
  <path class="cls-6" d="M2220.57,130.2s0-.03,0-.04h0s0,.03,0,.04Z"/>
  <path class="cls-6" d="M2782.88,196.82c2.45-7.18,5.97-13.39,10.28-18.8-4.79,5.75-8.44,12.17-10.41,19.24,.05-.15,.09-.29,.14-.44Z"/>
  <path class="cls-6" d="M2866.36,205.73c-1.76-17.76-4.46-35.43-9.09-52.55,4.58,17.11,7.32,34.78,9.09,52.55Z"/>
  <path class="cls-6" d="M2432.23,103.89c-.44-.21-.87-.43-1.31-.64,.44,.21,.88,.42,1.31,.64Z"/>
  <path class="cls-6" d="M2862.82,221.82h-19.83c6.35,.19,13,.18,19.83,0Z"/>
  <path class="cls-6" d="M851.36,86.22c19.67,.9,40.24,10.78,52.24,25.46,0,0,0,0,0,0-12-14.78-32.57-24.56-52.24-25.46Z"/>
  <path class="cls-6" d="M2909.31,119.12c4.81,7.12,11.3,13.55,17.61,20.11-4.84-5.48-10.64-11.95-17.61-20.11Z"/>
  <path class="cls-6" d="M2933.39,42.48c0,16.55-2.34,32.98-6.96,49.12,5.66-15.19,7.41-32.19,6.96-49.12Z"/>
  <path class="cls-6" d="M2826.35,153.86c9.07-4.03,18.7-7.13,28.17-9.71,0,0,0,0,0,0-9.02,2.09-18.79,5.33-28.17,9.72Z"/>
  <path class="cls-6" d="M2385.13,164.57c10.05,1.41,20.26,2.04,30.93,1.25,7.68-.68,15.25-2.95,22.23-6.41-15.68,6.89-34.45,7.43-53.17,5.17Z"/>
  <path class="cls-6" d="M2467.24,131.32c-.31,.63-.64,1.25-.97,1.86,.33-.62,.66-1.24,.97-1.86Z"/>
  <path class="cls-6" d="M2459.36,212.14c11.13-9.76,23.67-17.43,37.08-23.68,0-.01,0-.03-.01-.04-13.44,6.27-25.95,13.94-37.08,23.73,0,0,.01,0,.02,0Z"/>
  <path class="cls-6" d="M2433.65,104.58s0,0,0,0c0,0,0,0,0,0Z"/>
  <path class="cls-6" d="M2477.05,144.36c-2.22-3.38-4.61-6.68-7.18-9.88,2.57,3.2,4.96,6.49,7.18,9.88Z"/>
  <path class="cls-6" d="M2494.09,180.68c-.83-2.56-1.71-5.1-2.65-7.61,.94,2.51,1.82,5.05,2.65,7.61Z"/>
  <path class="cls-6" d="M2486.79,161.95c-1.69-3.64-3.53-7.22-5.53-10.71,2,3.49,3.83,7.07,5.53,10.71Z"/>
  <path class="cls-6" d="M1514.28,4.81s0,0,0,0c17.37,29.06,21.88,65.79,14.44,97.01,7.53-31.31,3.02-67.95-14.43-97.01Z"/>
  <path class="cls-6" d="M2631.46,108.69c-.41-.05-.83-.1-1.24-.15,.41,.05,.83,.1,1.24,.15Z"/>
  <path class="cls-6" d="M2639.03,110.05c-.67-.16-1.34-.31-2.01-.45,.67,.14,1.34,.29,2.01,.45Z"/>
  <path class="cls-6" d="M2636.47,109.5c-.57-.11-1.14-.22-1.71-.32,.57,.1,1.14,.21,1.71,.32Z"/>
  <path class="cls-6" d="M1889.27,204.97c-.09,.21-.17,.42-.25,.63,.08-.21,.16-.42,.25-.63Z"/>
  <path class="cls-6" d="M2127.09,62.23c12.06,13.14,28.9,25.22,42.28,37.73-12.92-13.47-30-25.1-42.28-37.73Z"/>
  <path class="cls-6" d="M2277.9,48.34c5.98,6.53,12.88,12.17,20.52,16.78-17.47,28.87-46.12,51.35-77.76,64.96h0c31.65-13.6,60.29-36.09,77.76-64.96-7.09-4.43-14.25-10.14-20.52-16.78Z"/>
  <path class="cls-6" d="M2185.13,123.5c1.8,5.64,2.62,11.43,2.57,17.25,.02,0,.05-.01,.07-.02,.3-6.18-.69-11.89-2.65-17.23Z"/>
  <path class="cls-6" d="M1587.82,153.11s-.02,0-.03,0c6.2,16.9,8.6,36.33,8.3,55.68,.01,0,.03,0,.04,0,.36-19.28-2.04-38.71-8.31-55.69Z"/>
  <path class="cls-6" d="M2577.59,107.17c-.11-.02-.22-.03-.33-.05,.11,.02,.22,.03,.33,.05Z"/>
  <path class="cls-6" d="M2575.38,106.76c-.16-.03-.31-.06-.47-.09,.16,.03,.31,.06,.47,.09Z"/>
  <path class="cls-6" d="M2579.8,107.5c-.06,0-.11-.01-.17-.02,.06,0,.11,.01,.17,.02Z"/>
  <path class="cls-6" d="M2621.48,107.98c-.09,0-.17,0-.26,0,.09,0,.17,0,.26,0Z"/>
  <path class="cls-6" d="M2626.49,108.21c-.27-.02-.54-.04-.81-.06,.27,.02,.54,.04,.81,.06Z"/>
  <path class="cls-6" d="M2628.97,108.42c-.34-.03-.68-.07-1.03-.1,.34,.03,.68,.06,1.03,.1Z"/>
  <path class="cls-6" d="M2623.99,108.07c-.18,0-.37-.02-.55-.03,.18,0,.37,.02,.55,.03Z"/>
  <path class="cls-6" d="M2320.28,26.53c-6.85,13.24-13.84,26.31-21.85,38.58,8.08-12.27,15.09-25.35,21.92-38.58-.02,0-.05,0-.07,0Z"/>
  <path class="cls-6" d="M1657.95,178.32c6.64,3.93,12.76,6.49,18.48,8.06-5.71-1.57-11.83-4.14-18.48-8.06Z"/>
  <path class="cls-6" d="M1657.28,186.27c.04-2.68,.26-5.34,.67-7.96,0,0,0,0-.01,0-.41,2.62-.62,5.28-.66,7.96Z"/>
  <path class="cls-6" d="M1672.47,148.51c-2.9,3.46-5.5,7.15-7.7,11.07,2.32-3.99,4.9-7.68,7.7-11.07Z"/>
  <path class="cls-6" d="M1607.78,24.72c.25-.16,.51-.31,.77-.47-.28,.15-.54,.31-.77,.47Z"/>
  <path class="cls-6" d="M2573.14,106.27c-.19-.04-.37-.08-.56-.13,.19,.05,.37,.08,.56,.13Z"/>
  <path class="cls-6" d="M1932.91,179.12s0,.01,0,.02c0,0,0-.01,0-.02h0s0,0,0,0Z"/>
  <path class="cls-6" d="M1789.6,138.22c-20.2-6.29-44.99,8.92-64.85,3.35,19.86,5.68,44.64-9.57,64.85-3.35Z"/>
  <path class="cls-6" d="M1889.35,204.79c2.9-4.82,7.04-8.53,11.82-11.59-5.43,3.32-9.84,7.14-11.82,11.59Z"/>
  <path class="cls-6" d="M1625.67,143.42c3.86,9.19,10.06,17.48,17.71,24.37-7.65-6.93-13.85-15.25-17.71-24.37Z"/>
  <path class="cls-6" d="M1704.77,123.79h0c48.47-25.46,121.47-12.5,158.35-60.05h0c-36.88,47.55-109.98,34.58-158.35,60.05Z"/>
  <path class="cls-6" d="M1625.67,143.42c4.84-2.12,9.7-4.69,14.22-7.6-4.51,2.9-9.37,5.48-14.22,7.6Z"/>
  <path class="cls-6" d="M1641.46,83.82c4.07,2.08,7.43,4.22,10.18,6.4-2.74-2.18-6.1-4.33-10.18-6.4Z"/>
  <path class="cls-6" d="M1615.23,74.21l10.42,69.21s0,0,.01,0l-10.43-69.2s0,0,0,0Z"/>
  <path class="cls-6" d="M1639.19,82.96c.76,.28,1.52,.57,2.27,.85-.75-.29-1.51-.57-2.27-.85Z"/>
  <path class="cls-6" d="M1689.48,69.1c-14.64-32.47-48.49-42.95-81.7-44.38l.41,2.74c32.02,1.97,66.79,10.8,81.29,41.65Z"/>
  <path class="cls-6" d="M2633.95,109.05c-.49-.08-.98-.15-1.47-.22,.49,.07,.98,.14,1.47,.22Z"/>
  <path class="cls-6" d="M688.84,188.82c28.89-16.6,73.06-45.5,59.57-77.2-10.43-.68-21.3,.29-32.22,1.37,10.71-.73,21.53-1.57,32.22-1.37,13.39,31.7-30.68,60.6-59.57,77.2-13.19,8.4-13.89,20.7-9.79,33h-10.41c22.14,2.55,41.38,4.1,55.69,3.8,13.45-.31,30.16-1.77,48.94-3.8h-94.21c-4-12.3-3.4-24.6,9.79-33Z"/>
  <path class="cls-6" d="M808.98,134.62c22.26,20.05,23.95,52.23,22.73,80.35,.03,0,.05,0,.08,0,1.13-28.2-.55-60.29-22.81-80.34Z"/>
  <path class="cls-6" d="M467.03,193.09c1,1.12,1.93,2.29,2.84,3.48h0c-.91-1.19-1.84-2.36-2.84-3.48Z"/>
  <path class="cls-6" d="M1205.63,179.14c-2.06,11.83,1.11,25.49,8.9,40.04,.05,0,.1,0,.15,0-6.56-12.66-10.94-26.3-9.05-40.05Z"/>
  <path class="cls-6" d="M1048.78,165.95c21.39-.16,27.82,24.16,28.95,44.37,.04,0,.07,0,.11,0-1.11-20.25-7.51-44.63-29.05-44.38Z"/>
  <path class="cls-6" d="M70.75,121.21c-12.67,32.34-15.64,57.67,9.33,93.66,0,0,0,0,0,0-24.9-35.92-21.97-61.34-9.34-93.66Z"/>
  <path class="cls-6" d="M348.58,201.11s.07,0,.11-.01c-.93-3.82-1.61-7.69-2-11.55,.34,3.86,.98,7.72,1.89,11.56Z"/>
  <path class="cls-6" d="M1068.65,107.02s-.06,.02-.09,.03c.03-.01,.06-.02,.09-.03,29.29,13.4,64.17,27.9,76.26,60.1-12.09-32.2-46.98-46.8-76.26-60.1Z"/>
  <path class="cls-6" d="M180.97,219.63h0c-2.18-10.99-5.05-21.95-8.7-32.61,3.65,10.65,6.52,21.61,8.7,32.61Z"/>
  <path class="cls-6" d="M152.72,145.62c-15.99-25.4-38.38-45.8-68.57-55.6,0,.01-.01,.02-.02,.04,0-.01,.01-.02,.02-.04,30.08,9.8,52.57,30.2,68.57,55.6Z"/>
  <path class="cls-6" d="M2282.13,181.82c7.86-17.47,28.69-28.08,48.49-27.81-19.83-.3-40.72,10.3-48.59,27.81-4.85,12.58,3.21,24.84,9.39,36.19,.03,0,.07,0,.1,0-6.18-11.35-14.24-23.61-9.39-36.19Z"/>
  <path class="cls-6" d="M470.39,1.82c-8.31-.6-16.32-1.08-23.93-1.4-22.28-.94-44.37-.21-66.47,1.4h90.4Z"/>
  <path class="cls-6" d="M2679.42,169.31c-.7,.07-1.4,.13-2.09,.21,.16-5.54-.09-11.16-.86-16.62,.74,5.46,.96,11.08,.76,16.62-24.02,1.6-50.84,14.36-64.23,35.12,.03,0,.07,0,.1,0,13.4-20.76,40.21-33.53,64.24-35.12,.07,12.77-1.86,25.29-5.68,37.19,.03,0,.07,0,.1,0,3.81-11.88,5.74-24.37,5.67-37.2,.66-.07,1.33-.14,1.99-.21Z"/>
  <path class="cls-6" d="M1015.38,174.72c-31.12-56.41-3.57-54.33,33.29-62.25-36.82,7.89-64.49,5.77-33.29,62.25Z"/>
  <path class="cls-6" d="M2142.15,209.54c.34,.03,.67,.07,1.01,.1,5.98-6.2,11.59-12.37,16.73-18.58-6.21,7.01-12.48,13.38-17.74,18.48Z"/>
  <path class="cls-6" d="M1421.18,189.4s0,0,0,.01c3.85,5.47,5.81,12.06,6.62,19.12,.01,0,.02,0,.03,0-.83-7.1-2.79-13.69-6.65-19.11,0,0,0,0,0-.01Z"/>
  <path class="cls-2" d="M164.72,167.95c-3.52-7.76-7.51-15.24-12-22.33-15.99-25.4-38.48-45.8-68.57-55.6,0,.01-.01,.02-.02,.04-5,11.31-9.62,21.54-13.39,31.16-12.63,32.32-15.56,57.74,9.34,93.66,29.47,3.05,64.85,5.4,100.88,4.76-2.18-10.99-5.05-21.95-8.7-32.61-2.22-6.49-4.73-12.87-7.55-19.07Z"/>
  <path class="cls-4" d="M152.72,145.62c32.27-2.66,38.66-15.05,38.52-30.19-.11-10.28-3.21-21.83-3.29-32.47-.05-6.08,.9-11.86,3.95-16.94-6.05-14.54-7.77-30.49-5.16-45.92-.18,0-.36,.01-.54,.02-34.79,.95-69.19-1.02-98.52-3.83,9.99,21.09,5.35,48.43-3.53,73.73,30.18,9.8,52.57,30.2,68.57,55.6Z"/>
  <path class="cls-5" d="M351.61,4.31c-53.39,5.41-107.38,14.17-164.85,15.78-2.59,15.43-.84,31.38,5.14,45.92,51.3-36.56,140.95,26.61,159.71-61.7Z"/>
  <path class="cls-5" d="M186.76,20.1s-.01,0-.02,0c-2.61,15.43-.89,31.38,5.16,45.92-5.98-14.54-7.73-30.49-5.14-45.92Z"/>
  <path class="cls-5" d="M259.37,213.53c2.82-21.98,2.58-45.3-3.81-65.71-3.16-13.5-10.16-23.15-18.5-31.45-9.12-9.06-19.84-16.54-28.91-25.67-6.8-6.84-12.68-14.61-16.25-24.68-3.05,5.08-4,10.86-3.95,16.94,.08,10.64,3.19,22.19,3.29,32.47,.16,15.17-6.22,27.58-38.52,30.19,4.5,7.09,8.49,14.58,12,22.33,2.81,6.2,5.32,12.58,7.55,19.07,3.65,10.65,6.52,21.61,8.7,32.61,1.81-.03,3.62-.07,5.43-.12,24.81-.65,49.08-2.99,72.97-5.99Z"/>
  <path class="cls-5" d="M191.23,115.42c-.1-10.28-3.21-21.83-3.29-32.47,.08,10.64,3.18,22.19,3.29,32.47Z"/>
  <path class="cls-2" d="M349.89,162.47c.08-.22,.15-.44,.23-.66,2.5-7,7.5-12.9,13.79-17.7-3.16-3.35-6.49-6.07-9.95-8.24-.99-.62-1.99-1.2-3.01-1.73-.51-.27-1.02-.52-1.53-.77-1.54-.74-3.1-1.38-4.68-1.93-1.58-.55-3.18-1.02-4.81-1.41-1.62-.39-3.26-.69-4.92-.92-1.11-.15-2.22-.27-3.34-.36-2.24-.18-4.51-.23-6.81-.17-.57,.01-1.15,.04-1.73,.07-2.31,.11-4.64,.33-6.98,.65-1.17,.16-2.35,.34-3.53,.54-1.18,.2-2.37,.42-3.55,.66-1.78,.36-3.57,.76-5.37,1.2-1.79,.44-3.59,.92-5.4,1.42-2.4,.68-4.81,1.4-7.22,2.17-1.2,.38-2.41,.78-3.61,1.18-10.83,3.61-21.62,7.85-31.91,11.34,6.39,20.41,6.63,43.73,3.88,65.7,30.19-3.79,59.79-8.61,89.14-12.41-.91-3.84-1.55-7.7-1.89-11.56-.95-9.41-.13-18.73,3.19-27.07Z"/>
  <path class="cls-2" d="M259.37,213.53s.05,0,.07,0c2.75-21.97,2.51-45.29-3.88-65.7,6.39,20.41,6.63,43.73,3.81,65.71Z"/>
  <path class="cls-3" d="M459.15,185.87c-3.86-2.87-8.21-5.26-13.08-7.06-10.99-4-20.99,4-30.98,7-3.05,1.01-5.85,1.49-8.45,1.52-.74,.01-1.47-.01-2.18-.07-.65-.05-1.29-.14-1.92-.25-.13-.02-.25-.05-.38-.07-1.28-.25-2.5-.62-3.68-1.09-.62-.25-1.23-.53-1.82-.83-.3-.15-.59-.31-.88-.48-.41-.23-.8-.48-1.2-.73-.34-.22-.67-.44-1-.68-.23-.17-.47-.34-.7-.51-.97-.74-1.91-1.54-2.82-2.41-.25-.24-.51-.49-.76-.74s-.5-.51-.74-.77c-.49-.52-.98-1.06-1.45-1.62-.48-.56-.95-1.13-1.41-1.71-.41-.51-.81-1.04-1.21-1.57-.12-.16-.23-.31-.35-.47-.39-.53-.78-1.07-1.16-1.61-.44-.63-.88-1.27-1.31-1.92-.22-.32-.43-.65-.65-.98-.35-.53-.69-1.06-1.03-1.59-.17-.26-.33-.52-.5-.78-.26-.41-.52-.82-.78-1.23-.5-.8-1-1.61-1.5-2.42-.42-.68-.84-1.36-1.26-2.03-.42-.68-.84-1.35-1.26-2.03-.34-.55-.69-1.1-1.03-1.64-.15-.24-.31-.48-.46-.72-.35-.54-.7-1.09-1.05-1.62-.43-.65-.86-1.3-1.3-1.94-.44-.64-.88-1.27-1.32-1.89s-.89-1.23-1.35-1.83c-.45-.6-.92-1.18-1.38-1.75-.47-.57-.94-1.13-1.42-1.67-.48-.54-.97-1.06-1.47-1.57-6.72,5.09-11.24,11.39-14.02,18.36-3.09,8.76-4,17.91-3.19,27.07,.39,3.86,1.07,7.73,2,11.55,33.26-4.3,66.21-7.28,99.38-5.88,6.97,.3,14.26,.76,21.8,1.36-.91-1.19-1.84-2.36-2.84-3.48-2.36-2.65-4.98-5.07-7.88-7.22Z"/>
  <path class="cls-3" d="M346.69,189.55c-.8-9.17,.11-18.32,3.19-27.07-3.33,8.35-4.14,17.67-3.19,27.07Z"/>
  <path class="cls-4" d="M191.9,66.02c3.57,10.07,9.44,17.84,16.25,24.68,9.07,9.12,19.8,16.59,28.91,25.67,8.37,8.32,15.37,17.97,18.5,31.45,10.29-3.49,21.08-7.73,31.91-11.34,1.2-.4,2.41-.79,3.61-1.18,2.41-.77,4.82-1.5,7.22-2.17,1.8-.51,3.6-.98,5.4-1.42,1.79-.44,3.58-.84,5.37-1.2,1.19-.24,2.37-.46,3.55-.66,1.18-.2,2.36-.38,3.53-.54,2.35-.31,4.68-.53,6.98-.65,.58-.03,1.15-.05,1.73-.07,2.3-.06,4.57,0,6.81,.17,1.12,.09,2.24,.21,3.34,.36,1.66,.23,3.3,.53,4.92,.92,1.62,.39,3.23,.85,4.81,1.41,1.58,.55,3.14,1.2,4.68,1.93,.51,.25,1.02,.5,1.53,.77,1.01,.53,2.02,1.11,3.01,1.73,3.47,2.17,6.79,4.89,9.95,8.24,27.49-20.3,66.07-21.6,92.25-42.4,30.78-22.5,31.38-69.5,11.79-99.9h-87.96c-9.45,.69-18.91,1.54-28.38,2.5-18.75,88.41-108.22,25.14-159.71,61.7Z"/>
  <path class="cls-4" d="M208.15,90.7c9.07,9.13,19.8,16.6,28.91,25.67-9.12-9.08-19.84-16.54-28.91-25.67Z"/>
  <path class="cls-5" d="M621.58,130.52s.06,0,.09-.01c-.35-.75-.7-1.49-1.05-2.21-44.91-92-113.78,58.45-164.46-26.58-26.19,20.8-64.77,22.1-92.25,42.4,.5,.51,.98,1.03,1.47,1.57,.48,.54,.95,1.1,1.42,1.67,.47,.57,.93,1.16,1.38,1.75,.45,.6,.9,1.21,1.35,1.83s.88,1.25,1.32,1.89c.44,.64,.87,1.29,1.3,1.94,.35,.54,.7,1.08,1.05,1.62,.15,.24,.31,.48,.46,.72,.35,.55,.69,1.09,1.03,1.64,.42,.67,.84,1.35,1.26,2.03,.42,.68,.84,1.36,1.26,2.03,.5,.81,1,1.61,1.5,2.42,.26,.41,.52,.82,.78,1.23,.17,.26,.33,.52,.5,.78,.34,.53,.69,1.07,1.03,1.59,.22,.33,.43,.65,.65,.98,.43,.65,.87,1.29,1.31,1.92,.38,.55,.77,1.08,1.16,1.61,.12,.16,.23,.31,.35,.47,.4,.53,.8,1.06,1.21,1.57,.46,.58,.93,1.15,1.41,1.71,.48,.56,.96,1.1,1.45,1.62,.25,.26,.49,.52,.74,.77s.5,.5,.76,.74c.91,.87,1.85,1.67,2.82,2.41,.23,.17,.46,.34,.7,.51,.33,.23,.66,.46,1,.68,.39,.25,.79,.5,1.2,.73,.29,.16,.59,.32,.88,.48,.6,.3,1.2,.58,1.82,.83,1.18,.47,2.4,.83,3.68,1.09,.13,.02,.25,.05,.38,.07,.63,.11,1.26,.2,1.92,.25,.71,.06,1.43,.09,2.18,.07,2.6-.04,5.4-.52,8.45-1.52,9.99-3,19.99-11,30.98-7,4.87,1.8,9.22,4.19,13.08,7.06,2.9,2.15,5.52,4.57,7.88,7.22,1,1.12,1.93,2.29,2.84,3.48,48.56,3.82,107.56,13.08,158.96,20.14-.12-29.55,3.15-60.95-7.24-86.2Z"/>
  <path class="cls-5" d="M379.49,166.47c-.26-.41-.52-.82-.78-1.23,.26,.41,.52,.82,.78,1.23Z"/>
  <path class="cls-5" d="M381.02,168.84c-.35-.53-.69-1.06-1.03-1.59,.34,.53,.69,1.07,1.03,1.59Z"/>
  <path class="cls-5" d="M373.66,157.12c-.15-.24-.31-.48-.46-.72,.15,.24,.31,.48,.46,.72Z"/>
  <path class="cls-5" d="M375.95,160.79c-.42-.68-.84-1.35-1.26-2.03,.42,.67,.84,1.35,1.26,2.03Z"/>
  <path class="cls-5" d="M402.54,187.01c-.13-.02-.25-.05-.38-.07,.13,.02,.25,.05,.38,.07Z"/>
  <path class="cls-5" d="M395.77,184.55c-.41-.23-.8-.48-1.2-.73,.39,.25,.79,.5,1.2,.73Z"/>
  <path class="cls-5" d="M387.1,177.09c-.48-.56-.95-1.13-1.41-1.71,.46,.58,.93,1.15,1.41,1.71Z"/>
  <path class="cls-5" d="M393.57,183.14c-.23-.17-.47-.34-.7-.51,.23,.17,.46,.34,.7,.51Z"/>
  <path class="cls-5" d="M388.55,178.7c-.49-.52-.98-1.06-1.45-1.62,.48,.56,.96,1.1,1.45,1.62Z"/>
  <path class="cls-5" d="M389.3,179.48c-.25-.25-.5-.51-.74-.77,.25,.26,.49,.52,.74,.77Z"/>
  <path class="cls-5" d="M384.48,173.81c-.12-.16-.23-.31-.35-.47,.12,.16,.23,.31,.35,.47Z"/>
  <path class="cls-2" d="M663.19,103.42c4.07-13.38-4.63-25.27-20.22-32.6-18.49-8.8-33.98-12-51.47-19.3l68.1,59.44c1.6-2.47,2.79-5,3.59-7.54Z"/>
  <path class="cls-2" d="M659.56,111.02s.05,.02,.08,.04c0,0,0,0,0,0-.03,0-.06-.02-.08-.03Z"/>
  <path class="cls-2" d="M456.16,101.72c50.67,84.93,119.55-65.42,164.46,26.58,.35,.72,.7,1.46,1.05,2.21,14.37-2,30.31-5.52,37.89-19.49l-68.07-59.5c-.62-.26-1.23-.52-1.84-.79-14.95-5.98-33.78-11.69-30.05-31.81,.48-2.91,1.86-5.47,4.01-7.67-32.21-3.78-64.52-7.36-93.22-9.43h-2.44c19.59,30.4,18.99,77.4-11.79,99.9Z"/>
  <path class="cls-2" d="M659.59,110.96s-.02,.04-.03,.06c.01-.02,.02-.04,.04-.06h0Z"/>
  <path class="cls-2" d="M591.49,51.52l68.07,59.5s.02-.04,.03-.06l-68.1-59.44Z"/>
  <path class="cls-3" d="M589.66,50.73c.62,.25,1.24,.5,1.85,.75,5.17-10.6,11.83-16.68,19.43-19.86,24.65-10.41,59.43,9.81,86.5,4.99,9.98-.7,19.82-4.42,28.23-10.44-.52,.01-1.04,.03-1.54,.04-32.6,.69-91.23-6.76-151.46-13.9-2.64,1.71-5.2,3.52-7.66,5.5-.48,17.46,10.36,26.63,24.65,32.91Z"/>
  <path class="cls-3" d="M559.61,18.92c-3.73,20.12,15.1,25.83,30.05,31.81-14.29-6.28-25.13-15.45-24.65-32.91,2.46-1.98,5.02-3.79,7.66-5.5-3.01-.36-6.03-.71-9.05-1.07-2.14,2.19-3.53,4.75-4.01,7.67Z"/>
  <path class="cls-4" d="M688.84,188.82c28.89-16.6,72.96-45.5,59.57-77.2-10.69-.2-21.51,.64-32.22,1.37-11.89,1.18-23.85,2.47-35.37,1.9-7.57,.03-15-.77-21.18-3.83-7.6,13.87-23.58,17.47-37.96,19.46,10.39,25.34,7.03,56.67,7.23,86.21,13.92,1.91,27.29,3.66,39.74,5.09h10.41c-4.1-12.3-3.4-24.6,9.79-33Z"/>
  <path class="cls-4" d="M621.58,130.52c10.39,25.24,7.12,56.65,7.24,86.2,.03,0,.06,0,.09,.01-.19-29.54,3.17-60.87-7.23-86.21,0,0,0,0,0-.01-.03,0-.06,0-.09,.01Z"/>
  <path class="cls-4" d="M621.67,130.5s0,0,0,.01c14.38-2,30.36-5.59,37.96-19.46-.03-.01-.05-.02-.08-.04-7.58,13.97-23.52,17.48-37.89,19.49Z"/>
  <path class="cls-5" d="M726.81,85.91c-14.29-13.92-29.23-28.04-29.45-46.42-.01-.95,.02-1.9,.08-2.87-26.97,4.89-61.78-15.35-86.5-4.99-7.58,3.2-14.2,9.29-19.35,19.89-.03-.01-.06-.02-.08-.03,0,.01-.01,.02-.02,.03,17.49,7.3,36.88,9.3,51.47,19.3,16.88,3.82,24.75,18.29,20.22,32.6-.75,2.47-1.94,4.99-3.59,7.54l.06,.06s-.01,.02-.02,.03c6.8,2.36,13.9,3.48,21.18,3.84,6.87-.03,13.85-.74,20.12-1.07,5.04-.16,10.14-.48,15.26-.83,10.92-1.08,21.79-2.05,32.22-1.37-4.75-9.07-13.06-17.35-21.61-25.71Z"/>
  <path class="cls-5" d="M591.49,51.52c17.49,7.3,32.98,10.5,51.47,19.3-14.59-10-33.98-12-51.47-19.3Z"/>
  <path class="cls-5" d="M663.19,103.42c4.53-14.32-3.35-28.79-20.22-32.6,15.59,7.34,24.29,19.22,20.22,32.6Z"/>
  <path class="cls-5" d="M659.66,111.02l-.06-.06s-.02,.04-.04,.06c.03,0,.06,.02,.08,.03,0,0,.01-.02,.02-.03Z"/>
  <path class="cls-5" d="M610.94,31.62c-7.6,3.18-14.26,9.26-19.43,19.86,.03,.01,.06,.02,.08,.03,5.15-10.6,11.77-16.7,19.35-19.89Z"/>
  <path class="cls-5" d="M680.82,114.88c11.52,.58,23.48-.72,35.37-1.9-5.12,.35-10.22,.67-15.26,.83-6.26,.33-13.24,1.04-20.12,1.07Z"/>
  <path class="cls-3" d="M808.98,134.62c-15.89-16.1-38.38-23.1-60.57-23,13.49,31.7-30.68,60.6-59.57,77.2-13.19,8.4-13.79,20.7-9.79,33h94.21c17.95-1.94,37.78-4.39,58.45-6.85,1.21-28.13-.48-60.3-22.73-80.35Z"/>
  <path class="cls-4" d="M697.36,39.49c.23,18.34,15.18,32.48,29.45,46.42,8.57,8.35,16.91,16.63,21.71,25.71,22.06-.1,44.61,6.88,60.5,22.94,8.93-18.75,38.95-25.96,42.35-48.34,.33-1.81,.46-3.55,.43-5.21-.63-28.29-51.03-36.18-50.6-61.76-29.46,3.5-55.81,6.4-75.51,6.93-8.41,6.02-18.25,9.74-28.23,10.44-.07,.97-.1,1.93-.08,2.87Z"/>
  <path class="cls-4" d="M726.81,85.91c-14.27-13.94-29.22-28.08-29.45-46.42,.22,18.38,15.16,32.5,29.45,46.42Z"/>
  <path class="cls-2" d="M903.53,111.72s.04-.03,.06-.04c-12-14.68-32.57-24.56-52.24-25.46-3.4,22.5-33.48,29.7-42.28,48.4-.02-.02-.05-.04-.07-.06-.01,.02-.02,.04-.03,.06,22.26,20.05,23.95,52.15,22.81,80.34,32.42-3.85,66.9-7.7,99.4-9.58-26.89-41.62-7.5-66.38-27.66-93.67Z"/>
  <path class="cls-2" d="M809.02,134.55s.05,.04,.07,.06c8.8-18.7,38.88-25.9,42.28-48.4-3.39,22.37-33.41,29.58-42.35,48.34Z"/>
  <path class="cls-5" d="M943.5,80.89c19.94-21.33,14.93-50.19,5.3-75.73-47.63,1.62-101.42,8.59-147.62,14.08-.38,25.52,49.97,33.47,50.6,61.76,.04,1.66-.1,3.4-.43,5.21,19.67,.9,40.24,10.68,52.24,25.46,13.47-8.52,27.03-16.78,37.47-28.06,.7-.75,1.38-1.52,2.05-2.3h0c.13-.14,.25-.28,.38-.42Z"/>
  <path class="cls-5" d="M851.79,81c-.63-28.29-50.98-36.24-50.6-61.76,0,0,0,0,0,0-.42,25.58,49.97,33.47,50.6,61.76Z"/>
  <path class="cls-3" d="M903.6,111.67s.02,.03,.04,.04c-.01-.01-.02-.03-.04-.04,0,0,0,0,0,0Z"/>
  <path class="cls-3" d="M1048.78,165.95c-2.18,.03-4.52,.3-7.02,.86-2.02,.57-4.1,1.21-6.24,1.88-6.35,2.01-13.25,4.3-20.15,6.02,0,0,0,0,0,0-15.27,3.97-30.6,5.3-40.61-4.36-1.45-1.4-2.79-3.04-4-4.93-.02-.03-.05-.07-.07-.1,0,0-.01-.02-.02-.03-.3-.48-.6-.97-.88-1.48-8-12,8-27,3-41-4.9-16.2-15.69-31.1-29.68-41.5-.67,.78-1.35,1.55-2.05,2.3-10.46,11.3-24.03,19.57-37.43,28.1,20.26,27.65,.62,51.99,27.64,93.66,16.42-.94,32.34-1.39,47.23-1.06,36.14,.79,67.41,3.26,99.23,6.01-1.13-20.21-7.56-44.52-28.95-44.37Z"/>
  <path class="cls-3" d="M903.53,111.72c20.17,27.29,.77,52.05,27.66,93.67h.07c-27.01-41.68-7.37-66.01-27.64-93.67-.01-.01-.02-.03-.04-.04-.02,.01-.04,.03-.06,.04Z"/>
  <path class="cls-3" d="M903.6,111.67s.02,.03,.04,.04c13.4-8.53,26.97-16.8,37.43-28.1-10.44,11.28-23.99,19.54-37.47,28.06Z"/>
  <path class="cls-4" d="M1029.48,72.33c-.23-.5-.49-.99-.71-1.51-5.23-12.89-.91-25.31,6.87-37.38,4.21-7.34,9.92-15.01,16.93-23.02-23.56-2.75-47.58-4.92-74.28-5.5-9.46-.21-19.33-.1-29.48,.25,9.7,25.54,14.62,54.4-5.32,75.73-.13,.14-.25,.28-.38,.42,14.09,10.4,24.79,25.3,29.68,41.5,5,14-10.99,29-3,41,.29,.51,.58,1,.88,1.48,0,0,.01,.02,.02,.03,.02,.03,.05,.07,.07,.1,1.21,1.89,2.55,3.53,4,4.93,9.98,9.63,25.26,8.24,40.61,4.36,0,0,0,0,0,0-31.2-56.48-3.54-54.36,33.29-62.25,6.44-1.38,13.16-3.07,19.9-5.42,.03-.01,.06-.02,.09-.03-22-10.62-34.48-22.11-39.17-34.69Z"/>
  <path class="cls-4" d="M943.5,80.89c-.13,.14-.25,.28-.38,.42h0c.13-.14,.25-.28,.38-.42Z"/>
  <path class="cls-4" d="M974.77,170.35c10,9.66,25.34,8.33,40.61,4.36-15.35,3.88-30.62,5.27-40.61-4.36Z"/>
  <path class="cls-4" d="M970.77,165.42s-.05-.07-.07-.1c.02,.03,.05,.07,.07,.1Z"/>
  <path class="cls-4" d="M972.8,122.82c-4.9-16.2-15.59-31.1-29.68-41.5h0c13.99,10.4,24.79,25.3,29.68,41.5,5,14-10.99,29-3,41,.29,.51,.58,1,.88,1.48-.3-.48-.6-.97-.88-1.48-8-12,8-27,3-41Z"/>
  <path class="cls-5" d="M1029.48,72.33c7.89,16.94,22.67,26.53,39.17,34.69,13.35-3.67,27.28-10.83,39.11-20.36,.1-.08,.21-.17,.31-.25,.05-.04,.09-.08,.14-.11,16.47-13.76,28.66-32.29,29.52-51.41,.14-4.63-.38-9.34-1.64-14.09-29.21-3.17-55.68-7.1-82.73-10.28-6.26,7.52-12.71,15.15-17.71,22.93-8.07,14.07-10.61,26.97-6.16,38.89Z"/>
  <path class="cls-5" d="M1053.36,10.51c-.26-.03-.52-.06-.78-.09-7.01,8.01-12.72,15.67-16.93,23.02,5.01-7.77,11.45-15.4,17.71-22.93Z"/>
  <path class="cls-5" d="M1029.48,72.33c4.69,12.58,17.17,24.07,39.17,34.69-16.5-8.16-31.28-17.75-39.17-34.69Z"/>
  <path class="cls-2" d="M1144.91,167.12c-12.09-32.2-46.98-46.7-76.26-60.1-.03,.01-.06,.02-.09,.03-6.74,2.36-13.46,4.04-19.9,5.42-36.86,7.91-64.41,5.84-33.29,62.25,6.9-1.73,13.74-4.01,20.15-6.02,2.11-.67,4.16-1.3,6.14-1.88,2.54-.57,4.91-.85,7.12-.86,21.54-.25,27.94,24.13,29.05,44.38,23.04,1.99,46.37,4.11,72.05,5.83,3.02-16.72,1.49-33.77-4.98-49.05Z"/>
  <path class="cls-2" d="M1048.78,165.95c-2.21,.02-4.58,.29-7.12,.86-1.97,.57-4.02,1.21-6.14,1.88,2.13-.67,4.21-1.3,6.24-1.88,2.5-.56,4.84-.84,7.02-.86Z"/>
  <path class="cls-2" d="M1068.56,107.05c-6.74,2.36-13.46,4.04-19.9,5.42,6.44-1.38,13.16-3.06,19.9-5.42Z"/>
  <path class="cls-4" d="M1187.87,25.11c-18.44-1.03-35.47-2.55-51.65-4.3,1.25,4.69,1.72,9.4,1.51,14.08-.58,19.72-12.92,37.9-29.52,51.41-.05,.04-.09,.08-.14,.11-.1,.08-.21,.17-.31,.25-11.75,9.71-25.62,17-39.11,20.36,29.29,13.3,64.17,27.9,76.26,60.1,9.86-5.7,17.65-11.24,23.74-16.63,49.58-43.93-13.4-78.68,13.04-118.67,1.96-2.44,4.03-4.65,6.18-6.71Z"/>
  <path class="cls-4" d="M1108.07,86.4c-.1,.08-.21,.17-.31,.25,.1-.08,.21-.17,.31-.25Z"/>
  <path class="cls-4" d="M1108.21,86.29c16.6-13.51,28.94-31.69,29.52-51.41-.86,19.12-13.05,37.65-29.52,51.41Z"/>
  <path class="cls-2" d="M1264.36,218.87c5.65-26.43-10.67-51.8-20.89-75.12-8.56,3.18-18.11,7.46-25.42,13.4-6.89,6.21-10.97,13.64-12.43,22-1.89,13.75,2.49,27.39,9.05,40.05,.33,0,.66,.02,1,.03,15.01,.37,31.42,.2,48.69-.35Z"/>
  <path class="cls-5" d="M1205.63,179.14c.24-1.77,.59-3.55,1.05-5.33,1.55-6.68,5.82-12.15,11.38-16.67,6.14-5.53,14.51-10.09,25.3-13.43-2.54-5.2-4.52-10.55-5.93-15.97-5.33-18.29-3.58-32.41,1.32-44.6,2.79-8.48,7.07-16.69,12.91-24.32,3.85-4.57,7.63-9.32,11.01-14.25,3.93-6.14,7.39-12.51,9.63-19.52-20.25,1.09-39.47,1.6-56.82,1.17-9.56-.24-18.73-.62-27.57-1.11-2.15,2.06-4.23,4.27-6.21,6.71-26.44,40.08,36.65,74.69-13.04,118.67-6.09,5.4-13.88,10.93-23.74,16.63,6.47,15.28,8.07,32.33,5,49.05,19.82,1.33,41.05,2.42,64.62,3.02-7.79-14.55-10.97-28.21-8.9-40.04Z"/>
  <path class="cls-5" d="M1149.89,216.17s.02,0,.02,0c3.07-16.72,1.46-33.78-5-49.05,6.47,15.28,7.99,32.33,4.98,49.05Z"/>
  <path class="cls-5" d="M1181.69,31.82c1.98-2.44,4.06-4.65,6.21-6.71-.01,0-.02,0-.03,0-2.15,2.06-4.22,4.27-6.18,6.71Z"/>
  <path class="cls-5" d="M1168.66,150.48c49.69-43.98-13.41-78.58,13.04-118.67-26.44,39.99,36.55,74.74-13.04,118.67Z"/>
  <path class="cls-5" d="M1206.68,173.82c-.46,1.78-.81,3.55-1.05,5.33,1.46-8.35,5.53-15.79,12.43-22-5.56,4.51-9.83,9.99-11.38,16.67Z"/>
  <path class="cls-2" d="M1375.38,122.61c14.62-4.55,28.27-12.41,38.11-23.19,5.95-6.77,10.48-14.54,13.08-22.93,.47-1.63,.88-3.28,1.2-4.97-23.06-11.28-59.86-26.17-66.04-53.69-30.12,2.94-60.53,5.65-88.93,7.19-2.27,6.83-5.88,13.34-10.13,19.54-8.08,12.6-18.17,24.26-23.92,38.57-4.77,14.51-5.16,29.85-1.32,44.6,1.46,5,3.44,10.31,6.03,15.97,34.58-12.6,70.96-11.6,108.04-16.7,7.7-1.1,15.39-2.4,23.09-4.2,.26-.07,.52-.14,.78-.21Z"/>
  <path class="cls-2" d="M1238.75,83.14c-4.9,12.19-6.65,26.32-1.32,44.6-3.84-14.76-3.45-30.09,1.32-44.6Z"/>
  <path class="cls-2" d="M1272.29,25.05c-2.24,7.01-5.69,13.38-9.63,19.52,4.25-6.21,7.86-12.71,10.13-19.54-.17,0-.33,.02-.5,.03Z"/>
  <path class="cls-5" d="M1427.87,71.52c1.66-8.1,1.61-16.71-.66-25.43-3.43-11.3-10.8-21.39-19.98-29.71-1.1-.94-2.23-1.86-3.38-2.76-13.81,1.4-27.93,2.83-42.12,4.22,6.18,27.52,42.99,42.4,66.14,53.69Z"/>
  <path class="cls-4" d="M1407.58,178.82c-24.89-9.9-52.37-25.3-56.07-51.8-37.18,5.2-73.46,4.1-108.04,16.7,0,.01,0,.02,.01,.03,.03-.01,.06-.02,.09-.03,10.22,23.33,26.46,48.71,20.89,75.15,51.63-1.63,110.92-6.59,163.34-10.34-.81-7.06-2.77-13.65-6.62-19.12-3.2-4.4-7.5-8.1-13.59-10.6Z"/>
  <path class="cls-4" d="M1264.36,218.87s.06,0,.09,0c5.57-26.44-10.68-51.82-20.89-75.15-.03,.01-.06,.02-.09,.03,10.22,23.33,26.54,48.69,20.89,75.12Z"/>
  <path class="cls-2" d="M1535.61,204.32c19.68,.88,39.85,2.53,60.47,4.48,.3-19.35-2.1-38.78-8.3-55.68-9-26.1-29.88-46-59.07-51.3-4.02,14.95-11.67,28.23-22.04,39.44-.8,.86-1.61,1.71-2.44,2.55-1.66,1.67-3.38,3.3-5.16,4.87-1.78,1.57-3.62,3.1-5.52,4.56-.95,.73-1.91,1.46-2.89,2.16-12.7,9.2-27.7,16.14-44.1,20.41h-.01c-8.09,2.2-20.07,5-25.37,13.59,0,0,0,0,0,.01,3.86,5.42,5.82,12.01,6.65,19.11,43.38-3.1,82.05-5.36,107.79-4.21Z"/>
  <path class="cls-5" d="M1651.63,90.21c-2.74-2.18-6.1-4.32-10.18-6.4-.76-.28-1.51-.57-2.27-.85-8.02-2.98-16.36-5.79-23.95-8.75l10.43,69.2c4.84-2.13,9.7-4.7,14.22-7.6,18.69-12.06,31.37-29.96,11.75-45.6Z"/>
  <polygon class="cls-5" points="1608.19 27.45 1607.78 24.72 1608.19 27.45 1608.19 27.45"/>
  <path class="cls-5" d="M1587.79,153.02c13.09-1.6,26.08-4.5,37.87-9.59l-10.42-69.21c-25.36-9.88-42.39-21.46-11.45-46.99,.33,.01,.67,.03,1.01,.05,.95-.84,1.94-1.68,2.99-2.55,.23-.16,.49-.31,.77-.47,6.01-3.73,13.91-6.85,23.26-9.46-33.22-4.32-65.35-8.49-96.29-9.87-6.33-.28-13.45-.3-21.23-.11,17.46,29.05,21.97,65.69,14.43,97.01,29.19,5.3,50.07,25.2,59.07,51.3,.01,0,.02,0,.03,0-.01-.03-.02-.06-.03-.1Z"/>
  <path class="cls-5" d="M1607.78,24.72c-1.05,.87-2.04,1.71-2.99,2.55,1.13,.05,2.27,.12,3.4,.19l-.41-2.74Z"/>
  <path class="cls-4" d="M1754.4,180.82c-27.33-7.54-46.43,14.24-77.97,5.56-5.72-1.57-11.84-4.13-18.48-8.06-.41,2.62-.63,5.28-.67,7.96-.13,9.54,1.95,19.39,5.25,29.12,29.47,2.83,59.74,5.3,90.77,6.22,9.7,.29,20.27,.23,31.53-.1-2.78-17.49-14.14-34.04-30.43-40.7Z"/>
  <path class="cls-5" d="M1657.28,186.27c.04-2.68,.25-5.34,.66-7.96-5.23-2.97-10.14-6.52-14.56-10.52-7.65-6.89-13.85-15.18-17.71-24.37,0,0,0,0-.01,0v.09c-11.77,5.1-24.65,7.89-37.83,9.6,6.26,16.97,8.67,36.4,8.31,55.69,21.63,2.05,43.76,4.42,66.37,6.59-3.3-9.73-5.36-19.58-5.22-29.12Z"/>
  <path class="cls-5" d="M1587.82,153.11c13.18-1.7,26.06-4.5,37.85-9.6v-.09c-11.8,5.1-24.79,7.99-37.88,9.59,.01,.03,.02,.06,.03,.1Z"/>
  <path class="cls-5" d="M1662.5,215.39s.02,0,.03,0c-3.3-9.73-5.38-19.58-5.25-29.12-.15,9.54,1.92,19.39,5.22,29.12Z"/>
  <path class="cls-3" d="M1789.6,138.22c-20.21-6.22-44.99,9.03-64.85,3.35-7.54-2.11-14.36-7.22-19.96-17.63-11.76,5.7-23.45,14.02-32.32,24.57-2.81,3.4-5.38,7.08-7.7,11.07-3.24,5.77-5.62,12.03-6.82,18.73,6.65,3.92,12.77,6.49,18.48,8.06,31.53,8.65,50.81-13.18,77.97-5.56,16.3,6.66,27.65,23.21,30.43,40.7,12.52-.36,25.89-1.05,39.83-1.96-5.17-56.75-18.58-76.21-35.07-81.34Z"/>
  <path class="cls-3" d="M1754.4,180.82c-27.16-7.62-46.44,14.21-77.97,5.56,31.54,8.68,50.64-13.1,77.97-5.56Z"/>
  <polygon class="cls-2" points="1615.14 73.55 1615.13 73.55 1615.23 74.21 1615.24 74.21 1615.14 73.55"/>
  <path class="cls-2" d="M1704.75,123.86s-.01-.03-.02-.04c-7.7-16-6.5-33.7-13.29-50-.6-1.63-1.26-3.19-1.95-4.72-14.5-30.85-49.27-39.68-81.29-41.65l6.95,46.1c7.44,3.29,15.81,6.33,24.05,9.41,.76,.28,1.52,.57,2.27,.85,4.07,2.07,7.43,4.21,10.18,6.4,19.73,15.69,7.01,33.52-11.75,45.6-4.51,2.91-9.38,5.49-14.22,7.6,3.86,9.12,10.06,17.44,17.71,24.37,4.43,3.98,9.34,7.5,14.58,10.43,0,.03,0,.06-.01,.09,0,0,0,0,.01,0,.7-5,2.2-9.8,4.5-14.5,.74-1.45,1.52-2.86,2.32-4.23,2.2-3.92,4.8-7.62,7.7-11.07,8.8-10.66,19.85-18.56,32.28-24.65Z"/>
  <path class="cls-2" d="M1704.73,123.82s.03-.02,.05-.02h0s-.03,.02-.05,.02Z"/>
  <path class="cls-2" d="M1639.88,135.81c18.76-12.07,31.48-29.91,11.75-45.6,19.62,15.63,6.93,33.54-11.75,45.6Z"/>
  <polygon class="cls-2" points="1615.13 73.55 1615.14 73.55 1608.19 27.45 1608.19 27.45 1615.13 73.55"/>
  <path class="cls-2" d="M1639.19,82.96c-8.24-3.08-16.61-6.12-24.05-9.41l.1,.66c7.59,2.96,15.93,5.77,23.95,8.75Z"/>
  <path class="cls-2" d="M1604.78,27.27c-.33-.02-.67-.04-1.01-.05-30.94,25.53-13.91,37.11,11.45,46.99l-.1-.66c-23.03-10.18-37.07-22.73-10.35-46.28Z"/>
  <path class="cls-2" d="M1615.13,73.55l-6.94-46.1c-1.14-.07-2.27-.13-3.4-.19-31.72,24.15-16.1,36.51,10.35,46.28Z"/>
  <path class="cls-2" d="M1643.37,167.79c4.42,4.01,9.33,7.56,14.56,10.52,0-.03,0-.06,.01-.09-5.24-2.93-10.15-6.45-14.58-10.43Z"/>
  <path class="cls-2" d="M1657.95,178.32c1.2-6.71,3.58-12.96,6.82-18.73-.8,1.38-1.58,2.78-2.32,4.23-2.3,4.7-3.8,9.5-4.5,14.5Z"/>
  <path class="cls-2" d="M1672.47,148.51c8.87-10.56,20.56-18.88,32.32-24.57-.01-.03-.03-.05-.04-.08-12.43,6.09-23.48,13.99-32.28,24.65Z"/>
  <path class="cls-4" d="M1607.78,24.72c33.22,1.43,67.06,11.91,81.7,44.38,.73,1.56,1.43,3.15,2.05,4.82,6.78,16.16,5.61,33.81,13.24,49.88,48.37-25.46,121.47-12.5,158.35-60.05-.03,0-.05-.02-.08-.03,10.43-12.78,16.51-28.94,18.82-45.66-48.08,4.98-94,9.25-128.66,8.26-35.76-1.01-70.52-5.01-104.19-9.31-20.27,1.8-34.89,4.12-40.47,7.24-.25,.16-.52,.31-.77,.47Z"/>
  <path class="cls-4" d="M1649.01,17.01c-5.77-.74-11.5-1.48-17.2-2.22-9.35,2.61-17.25,5.73-23.26,9.46,5.58-4.68,20.2-8.89,40.47-7.24Z"/>
  <path class="cls-4" d="M1704.73,123.82s.03-.02,.05-.02c-7.63-16.07-6.46-33.72-13.24-49.88-.62-1.67-1.32-3.26-2.05-4.82,.69,1.53,1.35,3.09,1.95,4.72,6.8,16.3,5.6,34,13.29,50Z"/>
  <path class="cls-5" d="M1932.91,179.13s0-.01,0-.02c0,0,0,0,0,0-4.97,2.22-10.48,4.2-15.94,6.38-5.39,2.22-10.98,4.76-15.79,7.7-4.78,3.06-8.92,6.77-11.82,11.59-.03,.06-.05,.12-.08,.18-.09,.21-.17,.42-.25,.63-1.02,2.74-1.11,5.72,.06,8.96,14.48-1.23,29.11-2.51,43.66-3.72,1.93-10.3,1.57-20.89,.18-31.71Z"/>
  <path class="cls-4" d="M1889.02,205.6c.08-.21,.16-.42,.25-.63,.02-.05,.04-.1,.06-.15,0,0,.01-.02,.02-.03,1.98-4.45,6.39-8.27,11.82-11.59,4.81-3.08,10.28-5.49,15.79-7.7,6.05-2.49,11.84-4.58,15.94-6.38,0,0,0,0,0,0-47.35,8.86-19.65-89.09-64.38-112.97-1.54-.72-3.09-1.42-4.64-2.1-.26-.1-.5-.21-.76-.3-36.88,47.55-109.88,34.58-158.35,60.05,0,.01,.01,.03,.02,.04,.01,0,.02-.01,.04-.02,5.59,10.45,12.4,15.6,19.92,17.75,19.86,5.57,44.65-9.64,64.85-3.35,16.5,5.08,29.95,24.5,35.16,81.34,20.46-1.33,42.14-3.11,64.19-4.99-.99-2.8-1.13-5.82,.07-8.97Z"/>
  <path class="cls-4" d="M1789.6,138.22c16.48,5.13,29.9,24.59,35.07,81.34,.03,0,.07,0,.1,0-5.21-56.84-18.66-76.25-35.16-81.34Z"/>
  <path class="cls-4" d="M1704.79,123.93c5.59,10.41,12.42,15.52,19.96,17.63-7.52-2.15-14.33-7.3-19.92-17.75-.01,0-.02,.01-.04,.02,.01,.03,.02,.05,.04,.08-.01,0-.02,.01-.04,.02Z"/>
  <path class="cls-4" d="M1704.75,123.86s.03-.01,.04-.02c0-.01-.01-.03-.02-.04-.02,0-.03,.02-.05,.02,0,.01,.01,.03,.02,.04Z"/>
  <path class="cls-4" d="M1704.79,123.93s.02-.01,.04-.02c-.01-.03-.02-.05-.04-.08-.01,0-.03,.01-.04,.02,.01,.03,.03,.05,.04,.08Z"/>
  <path class="cls-4" d="M1889.27,204.97c.03-.06,.05-.12,.08-.18,0,0-.01,.02-.02,.03-.02,.05-.04,.1-.06,.15Z"/>
  <path class="cls-4" d="M1916.96,185.5c-5.52,2.2-10.98,4.62-15.79,7.7,4.81-2.94,10.4-5.48,15.79-7.7Z"/>
  <path class="cls-4" d="M1889.02,205.6c-1.21,3.15-1.06,6.16-.07,8.97,.04,0,.09,0,.13-.01-1.16-3.24-1.07-6.21-.06-8.96Z"/>
  <polygon class="cls-4" points="1932.91 179.12 1932.9 179.12 1932.91 179.12 1932.91 179.12 1932.91 179.12"/>
  <path class="cls-3" d="M1932.91,179.12h0s0,.01,0,.02c1.47,10.74,1.85,21.37-.12,31.7,35.13-2.92,69.72-5.48,100.34-6.21-10.7-17.4-14.96-38.5-16.24-59.73-24.27,15.89-60.99,29.86-83.98,34.22Z"/>
  <path class="cls-3" d="M1932.91,179.13c1.4,10.81,1.75,21.41-.18,31.71,.02,0,.04,0,.06,0,1.97-10.33,1.59-20.96,.12-31.7Z"/>
  <path class="cls-4" d="M2159.89,191.05c12.78-15.47,22.61-31.27,27.68-48.81-50.14,14.16-103.97,10.65-148.02-18.93-.03,.07-.07,.13-.11,.2l.11-.1c-.06,.08-.12,.15-.18,.23-3.62,6.91-11.64,14.09-21.99,20.92,1.32,21.19,9.29,42.47,21.98,59.93,4.73-.08,9.36-.11,13.87-.08,38.79,.22,62.28,2.48,88.9,5.12,5.26-5.1,11.53-11.47,17.74-18.48Z"/>
  <path class="cls-4" d="M2187.68,142.19c.04-.49,.07-.97,.09-1.45-.02,0-.05,.01-.07,.02,0,.48,0,.95-.02,1.43,0,0,0,0,0,0Z"/>
  <path class="cls-4" d="M2033.13,204.62c2.1-.05,4.18-.09,6.25-.13-10.97-2.65-22.6-36.36-21.98-59.93-.17,.11-.33,.22-.5,.33,1.28,21.23,5.53,42.32,16.24,59.73Z"/>
  <path class="cls-2" d="M2025.94,5.43c14.66,16.42,23.42,36.95,25.78,57.96,2.65,20.8-.93,42.03-12.16,59.92,43.72,29.43,98.21,31.37,148.15,17.44,.05-5.83-.77-11.61-2.57-17.25-3.17-8.66-8.87-16.36-15.75-23.54-13.38-12.51-30.22-24.59-42.28-37.73-10.76-11.07-17.82-22.91-15.17-37.44,.74-4.88,2.59-9.97,5.76-15.32-18.22-2.56-37.68-4.41-64.54-4.56-8.66-.05-17.77,.14-27.21,.52Z"/>
  <path class="cls-2" d="M2187.68,142.19c.02-.48,.02-.95,.02-1.43-49.94,13.93-104.42,11.99-148.15-17.44,44.05,29.58,97.87,33.09,148.02,18.93,0,0,0-.02,0-.03,.03,0,.07-.02,.1-.03Z"/>
  <path class="cls-2" d="M2297.62,26.42c-12.6-.18-24.16-.48-34.87-.88,3.89,8.48,9.03,16.12,15.15,22.81,6.27,6.64,13.43,12.34,20.52,16.78,8.01-12.27,15-25.35,21.85-38.58-7.27,.03-14.8,0-22.65-.12Z"/>
  <path class="cls-3" d="M2220.66,130.07c31.65-13.6,60.29-36.09,77.76-64.96-7.64-4.61-14.55-10.24-20.52-16.78-6.39-6.76-11.86-14.48-15.4-22.82-24.22-.91-43.96-2.34-60.77-4.03-22.4,41.21,15.25,59.57,18.93,108.58Z"/>
  <path class="cls-3" d="M2262.75,25.53c-.08,0-.17,0-.25,0,3.54,8.34,9.01,16.06,15.4,22.82-6.12-6.69-11.25-14.33-15.15-22.81Z"/>
  <path class="cls-5" d="M2220.56,130.12s0,.03,0,.04h0s0-.03,0-.04c.03-.01,.06-.03,.1-.04h0s-.06,.03-.1,.04Z"/>
  <path class="cls-5" d="M2127.09,62.23c12.28,12.63,29.36,24.26,42.28,37.73,2.78,2.6,5.41,5.21,7.81,7.85,3.61,5.02,6.22,10.28,7.94,15.68,1.96,5.35,2.95,11.06,2.65,17.23,.27-.07,.54-.14,.8-.22-.03,.48-.06,.96-.12,1.44,10.98-3.16,21.68-7.07,32.1-11.84-3.58-49.04-41.24-67.4-18.9-108.63-36.15-3.63-58.81-8.47-83.75-11.98-3.19,5.43-5.12,10.51-5.99,15.29-2.11,13.9,4.73,26.07,15.17,37.44Z"/>
  <path class="cls-5" d="M2188.46,141.96c.05-.48,.09-.96,.12-1.44-.27,.08-.54,.14-.8,.22-.02,.48-.05,.96-.09,1.45,.26-.07,.52-.15,.78-.23Z"/>
  <path class="cls-5" d="M2169.37,99.96c6.89,7.18,12.59,14.88,15.75,23.54-1.72-5.4-4.33-10.66-7.94-15.68-2.4-2.64-5.04-5.26-7.81-7.85Z"/>
  <path class="cls-5" d="M2111.92,24.79c-2.65,14.53,4.41,26.37,15.17,37.44-10.44-11.37-17.28-23.54-15.17-37.44Z"/>
  <path class="cls-5" d="M2201.73,21.49s-.04,0-.06,0c-22.35,41.23,15.32,59.58,18.9,108.63,.03-.01,.06-.03,.1-.04-3.68-49.01-41.33-67.37-18.93-108.58Z"/>
  <path class="cls-3" d="M2220.57,130.2s0-.03,0-.04c-10.42,4.77-21.21,8.67-32.11,11.83-1.58,15.07-14.92,33.63-28.58,49.07-5.14,6.22-10.75,12.38-16.73,18.58,17.94,1.78,37.41,3.73,63.99,5.34,12.83-26.21,17.18-55.57,13.43-84.78Z"/>
  <path class="cls-3" d="M2187.57,142.25c-5.08,17.53-14.9,33.33-27.68,48.81,13.66-15.43,26.99-33.99,28.58-49.07-.26,.08-.52,.16-.78,.23-.04,.01-.07,.02-.11,.03Z"/>
  <path class="cls-3" d="M2187.68,142.22s0-.02,0-.03c0,0,0,0,0,0,0,0,0,.02,0,.03Z"/>
  <path class="cls-3" d="M2187.68,142.19s-.07,.02-.1,.03c0,0,0,.02,0,.03,.04-.01,.07-.02,.11-.03,0,0,0-.02,0-.03Z"/>
  <path class="cls-3" d="M2188.46,141.96s0,.02,0,.03c10.9-3.15,21.69-7.06,32.11-11.83,0-.01,0-.03,0-.04-10.41,4.77-21.12,8.68-32.1,11.84Z"/>
  <path class="cls-3" d="M2187.68,142.19s0,.02,0,.03c.26-.07,.52-.16,.78-.23,0,0,0-.02,0-.03-.26,.08-.52,.16-.78,.23Z"/>
  <path class="cls-4" d="M2423.94,20.87c-28.76,3.12-61.54,5.5-103.59,5.66-6.84,13.24-13.85,26.31-21.92,38.58,25.22,13.42,54.04,17.55,81.91,23.11,.32,.06,.63,.13,.95,.19,.28,.06,.56,.11,.84,.17,16.91,3.4,33.43,7.43,48.55,14.54,.08,.04,.17,.08,.25,.11,.44,.21,.88,.42,1.31,.64,.47,.23,.95,.46,1.42,.69,0,0,0,0,0,0,12.42,6.23,23.82,14.68,33.59,26.73,23.76-44.12-42.9-73.43-43.3-110.45Z"/>
  <path class="cls-5" d="M2282.03,181.82c7.87-17.5,28.76-28.11,48.59-27.81,2.86,.04,5.7,.3,8.48,.81,15.7,3.63,30.68,7.6,46.03,9.75,18.72,2.26,37.49,1.72,53.17-5.17,11.88-5.9,22.02-15.27,27.98-26.23,.33-.61,.65-1.23,.97-1.86-.7-.8-1.4-1.7-2.2-2.5-9.29-10.74-19.91-18.45-31.39-24.23,0,0,0,0,0,0-.47-.24-.94-.46-1.42-.69-.44-.21-.87-.43-1.31-.64-.08-.04-.17-.08-.25-.11-15.11-7.07-31.63-11.12-48.55-14.54-.28-.06-.56-.11-.84-.17-.32-.06-.63-.13-.95-.19-27.85-5.53-56.65-9.59-81.91-23.11-17.47,28.87-46.12,51.35-77.76,64.96,0,.01,0,.03,0,.04-.03,.01-.06,.03-.09,.04,0,.01,0,.03,0,.04,3.84,29.21-.59,58.57-13.43,84.78,22.1,1.34,49.12,2.45,84.28,3.03-6.18-11.35-14.24-23.61-9.39-36.19Z"/>
  <path class="cls-5" d="M2220.57,130.16s.06-.03,.09-.04c0-.01,0-.03,0-.04-.03,.01-.06,.03-.1,.04,0,.01,0,.03,0,.04Z"/>
  <path class="cls-5" d="M2207.14,214.98s0,0,0,0c12.84-26.21,17.27-55.57,13.43-84.78,3.75,29.21-.6,58.57-13.43,84.78Z"/>
  <path class="cls-5" d="M2433.65,104.58c11.48,5.79,22.1,13.49,31.39,24.23,.8,.8,1.5,1.7,2.2,2.5-9.77-12.05-21.16-20.5-33.59-26.73Z"/>
  <path class="cls-5" d="M2433.65,104.58c-.47-.24-.94-.46-1.42-.69,.47,.23,.95,.46,1.42,.69Z"/>
  <path class="cls-5" d="M2430.92,103.25c-.08-.04-.17-.08-.25-.11,.08,.04,.17,.08,.25,.11Z"/>
  <path class="cls-5" d="M2380.33,88.23c-27.87-5.57-56.69-9.7-81.91-23.11,25.26,13.52,54.06,17.59,81.91,23.11Z"/>
  <path class="cls-5" d="M2382.12,88.59c-.28-.06-.56-.11-.84-.17,.28,.06,.56,.11,.84,.17Z"/>
  <path class="cls-5" d="M2501.01,208.52c-1.25-6.77-2.77-13.47-4.58-20.07-13.41,6.26-25.94,13.92-37.08,23.68,14.12-1.23,27.73-2.49,41.65-3.62Z"/>
  <path class="cls-4" d="M2459.34,212.14c11.13-9.79,23.64-17.46,37.08-23.73-.72-2.6-1.5-5.18-2.33-7.74-.83-2.56-1.71-5.1-2.65-7.61-1.41-3.77-2.96-7.48-4.65-11.12-1.69-3.64-3.53-7.22-5.53-10.71-1.33-2.33-2.73-4.62-4.21-6.88-2.22-3.38-4.61-6.68-7.18-9.88-.86-1.07-1.74-2.12-2.64-3.16-.31,.63-.63,1.24-.97,1.86-6.92,12.96-16.64,21.25-27.98,26.23-6.98,3.46-14.55,5.73-22.23,6.41-10.68,.79-20.89,.16-30.93-1.25-16.08-1.94-32.11-5.94-46.13-9.75-2.74-.5-5.55-.76-8.38-.81-19.8-.27-40.63,10.33-48.49,27.81-4.85,12.58,3.21,24.84,9.39,36.19,2.27,.04,4.56,.07,6.9,.11,72.64,1.03,119.04-2.33,160.92-5.97Z"/>
  <path class="cls-4" d="M2438.3,159.4c11.33-4.98,21.05-13.27,27.98-26.23-5.95,10.96-16.1,20.33-27.98,26.23Z"/>
  <path class="cls-4" d="M2330.62,154.01c2.83,.04,5.64,.31,8.38,.81,14.01,3.81,30.05,7.81,46.13,9.75-15.35-2.15-30.32-6.13-46.03-9.75-2.78-.51-5.62-.77-8.48-.81Z"/>
  <path class="cls-2" d="M2643.84,111.44s-.06-.02-.09-.02c0,0,0-.02,0-.03-.38-.11-.73-.22-1.07-.33-1.13-.35-2.27-.67-3.42-.95-.08-.02-.16-.04-.24-.06-.67-.16-1.34-.31-2.01-.45-.18-.04-.37-.07-.55-.11-.57-.11-1.14-.22-1.71-.32-.27-.05-.54-.09-.8-.13-.49-.08-.98-.15-1.47-.22-.34-.05-.69-.09-1.03-.13-.41-.05-.83-.1-1.24-.15-.41-.05-.83-.09-1.24-.13-.34-.03-.68-.07-1.03-.1-.48-.04-.97-.08-1.45-.11-.27-.02-.54-.04-.81-.06-.56-.03-1.12-.06-1.69-.09-.18,0-.37-.02-.55-.03-.65-.03-1.31-.05-1.96-.07-.09,0-.17,0-.26,0-13.77-.33-27.8,1.39-41.42-.47-.06,0-.11-.01-.17-.02-.68-.09-1.36-.2-2.04-.31-.11-.02-.22-.03-.33-.05-.63-.11-1.25-.23-1.88-.35-.16-.03-.31-.06-.47-.09-.59-.12-1.18-.26-1.77-.4-.19-.04-.37-.08-.56-.13-.58-.14-1.15-.3-1.73-.46-.19-.05-.39-.1-.58-.16-.76-.22-1.53-.46-2.29-.71-16.89-4.9-39.86-17.91-56.33-34.2-18.11-17.9-28.36-39.75-14.05-59.14-23.9,2.99-47.07,6.51-73.66,9.39,.45,36.98,67.14,66.42,43.29,110.45,.9,1.04,1.78,2.1,2.64,3.16,2.57,3.2,4.96,6.49,7.18,9.88,1.48,2.26,2.88,4.55,4.21,6.88,2,3.49,3.83,7.07,5.53,10.71,1.69,3.64,3.23,7.35,4.65,11.12,.94,2.51,1.82,5.05,2.65,7.61s1.6,5.14,2.33,7.74c25.84-12.12,54.95-18.95,83.41-25.72,6.76-1.61,13.49-3.22,20.14-4.88,22.88-5.7,36.97-24.29,43.87-46.38Z"/>
  <path class="cls-5" d="M2511.65,70.62c16.48,16.29,39.46,29.3,56.33,34.2,.76,.25,1.52,.49,2.29,.71,.19,.06,.39,.1,.58,.16,.57,.16,1.15,.32,1.73,.46,.19,.05,.37,.08,.56,.13,.59,.14,1.18,.28,1.77,.4,.16,.03,.31,.06,.47,.09,.63,.12,1.25,.25,1.88,.35,.11,.02,.22,.03,.33,.05,.68,.11,1.36,.22,2.04,.31,.06,0,.11,.01,.17,.02,13.61,1.85,27.65,.13,41.42,.47,.09,0,.17,0,.26,0,.65,.02,1.31,.04,1.96,.07,.18,0,.37,.02,.55,.03,.56,.03,1.13,.06,1.69,.09,.27,.02,.54,.04,.81,.06,.48,.03,.97,.07,1.45,.11,.34,.03,.68,.06,1.03,.1,.41,.04,.83,.08,1.24,.13,.41,.05,.83,.1,1.24,.15,.34,.04,.69,.08,1.03,.13,.49,.07,.98,.15,1.47,.22,.27,.04,.54,.08,.8,.13,.57,.1,1.14,.21,1.71,.32,.18,.04,.37,.07,.55,.11,.67,.14,1.34,.29,2.01,.45,.08,.02,.16,.04,.24,.06,.89,.22,1.79,.45,2.67,.71,.24,.08,.49,.16,.74,.24,.36,.11,.71,.21,1.07,.33,12.08-37.27,2.86-76.74-22.24-106.02-7.38-.19-14.98-.32-22.84-.35-40.23-.18-71.21,2.73-101.03,6.46-14.29,19.42-4.07,41.26,14.01,59.15Z"/>
  <path class="cls-5" d="M2577.26,107.11c-.63-.11-1.25-.23-1.88-.35,.63,.13,1.25,.25,1.88,.35Z"/>
  <path class="cls-5" d="M2632.49,108.83c-.34-.05-.69-.09-1.03-.13,.34,.04,.69,.09,1.03,.13Z"/>
  <path class="cls-5" d="M2634.75,109.18c-.27-.05-.54-.09-.8-.13,.27,.04,.54,.08,.8,.13Z"/>
  <path class="cls-5" d="M2574.91,106.67c-.59-.12-1.18-.26-1.77-.4,.59,.14,1.18,.28,1.77,.4Z"/>
  <path class="cls-5" d="M2630.21,108.54c-.41-.05-.83-.09-1.24-.13,.41,.04,.83,.08,1.24,.13Z"/>
  <path class="cls-5" d="M2579.63,107.48c-.68-.09-1.36-.2-2.04-.31,.68,.11,1.36,.22,2.04,.31Z"/>
  <path class="cls-5" d="M2627.95,108.32c-.48-.04-.97-.08-1.45-.11,.48,.03,.97,.07,1.45,.11Z"/>
  <path class="cls-5" d="M2623.44,108.04c-.65-.03-1.31-.05-1.96-.07,.65,.02,1.31,.04,1.96,.07Z"/>
  <path class="cls-5" d="M2625.68,108.16c-.56-.03-1.12-.06-1.69-.09,.56,.03,1.13,.06,1.69,.09Z"/>
  <path class="cls-5" d="M2572.58,106.14c-.58-.14-1.15-.3-1.73-.46,.57,.16,1.15,.32,1.73,.46Z"/>
  <path class="cls-5" d="M2639.27,110.11c-.08-.02-.16-.04-.24-.06,.08,.02,.16,.04,.24,.06Z"/>
  <path class="cls-5" d="M2567.99,104.82c-16.88-4.9-39.85-17.91-56.33-34.2,16.47,16.29,39.44,29.3,56.33,34.2Z"/>
  <path class="cls-5" d="M2642.69,111.06c.34,.11,.69,.22,1.07,.33,0,0,0,0,0,0-.35-.12-.71-.22-1.07-.33Z"/>
  <path class="cls-5" d="M2579.8,107.5c13.62,1.86,27.65,.14,41.42,.47-13.77-.33-27.81,1.39-41.42-.47Z"/>
  <path class="cls-5" d="M2570.27,105.53c-.76-.22-1.53-.46-2.29-.71,.76,.25,1.52,.49,2.29,.71Z"/>
  <path class="cls-5" d="M2637.02,109.6c-.18-.04-.37-.07-.55-.11,.18,.04,.37,.07,.55,.11Z"/>
  <path class="cls-3" d="M2677.23,169.52c.2-5.55-.02-11.16-.76-16.62-2.7-19.18-11.84-36.44-32.63-41.45-6.9,22.09-20.89,40.68-43.87,46.38-6.64,1.67-13.37,3.28-20.14,4.88-28.51,6.79-57.56,13.67-83.41,25.72,0,.01,0,.03,.01,.04,.03-.01,.06-.03,.09-.04,1.82,6.61,3.3,13.32,4.55,20.1,28.79-2.34,58.94-4.14,97.8-4,4.8,.02,9.51,.06,14.13,.12,13.4-20.76,40.21-33.52,64.23-35.12Z"/>
  <path class="cls-3" d="M2501.07,208.52c-1.25-6.78-2.73-13.5-4.55-20.1-.03,.01-.06,.03-.09,.04,1.81,6.59,3.33,13.3,4.58,20.07,.02,0,.04,0,.06,0Z"/>
  <path class="cls-3" d="M2579.83,162.7c-28.47,6.77-57.57,13.6-83.41,25.72,25.85-12.04,54.91-18.93,83.41-25.72Z"/>
  <path class="cls-2" d="M2613.1,204.64c21.28,.29,40.67,1.04,58.56,2.07,3.82-11.91,5.75-24.43,5.68-37.19-24.02,1.6-50.84,14.36-64.24,35.12Z"/>
  <path class="cls-2" d="M2724.91,79.82c-33.85-2.81-59.25-39.34-50.96-71.67-16.12-1.29-33.46-2.28-52.33-2.78,25.11,29.29,34.33,68.77,22.23,106.04,20.79,4.99,29.99,22.23,32.62,41.48,.77,5.47,1.02,11.09,.86,16.62,.7-.07,1.4-.14,2.09-.21,18.67-1.84,37.57-1.12,55.05-6.69,2.47-.8,4.91-1.72,7.32-2.8,28.59-12.9,42.38-49.7,38.38-78.5-18.49,.3-37.08,.4-55.27-1.5Z"/>
  <path class="cls-2" d="M2643.84,111.44h0s0-.02,0-.02c0,0,0,.02,0,.02Z"/>
  <path class="cls-2" d="M2643.75,111.42s.06,.02,.09,.02c0,0,0-.02,0-.02-.03,0-.06-.02-.09-.03,0,0,0,.02,0,.03Z"/>
  <path class="cls-2" d="M2643.76,111.39s.06,.02,.09,.03c12.1-37.27,2.88-76.75-22.23-106.04-.03,0-.07,0-.1,0,25.11,29.28,34.33,68.75,22.24,106.02Z"/>
  <path class="cls-2" d="M2643.76,111.39s.06,.02,.09,.03c-.03-.01-.06-.02-.09-.03,0,0,0,0,0,0Z"/>
  <path class="cls-2" d="M2643.85,111.42s0,.02,0,.02c20.79,5.01,29.93,22.27,32.63,41.45-2.63-19.25-11.83-36.49-32.62-41.48Z"/>
  <path class="cls-3" d="M2780.08,81.32c-3.14-23.04-16.01-43.74-30.09-64.45-22.68-3.17-47.44-6.42-76.03-8.71-8.21,32.33,17.19,68.85,50.94,71.67,18.19,1.9,36.78,1.8,55.27,1.5h0s-.07,0-.1,0Z"/>
  <path class="cls-3" d="M2724.91,79.82c-33.75-2.81-59.15-39.33-50.94-71.67,0,0-.01,0-.02,0-8.29,32.33,17.11,68.85,50.96,71.67Z"/>
  <path class="cls-2" d="M2866.36,205.73c-1.78-17.76-4.51-35.43-9.09-52.55-.81-3.01-1.68-6-2.62-8.97,0,0,.02,0,.03,0,0,0,0-.01,0-.02-.04,0-.08,.02-.12,.03,0-.02-.02-.04-.02-.07-9.47,2.59-19.1,5.68-28.17,9.71-12.74,5.96-24.75,14.02-33.2,24.15-4.31,5.42-7.82,11.63-10.28,18.8-.05,.15-.09,.29-.14,.44-1.69,6.05-2.15,12.58-1.06,19.59,19.33,2.07,37.61,3.85,56.17,4.77,1.69,.08,3.4,.15,5.14,.2h19.83c1.62-.04,3.26-.09,4.9-.16-.39-5.31-.83-10.62-1.36-15.93Z"/>
  <path class="cls-3" d="M2782.74,197.25c1.97-7.08,5.62-13.49,10.41-19.24,8.58-10.8,20.33-18.43,33.2-24.15,9.38-4.38,19.14-7.63,28.17-9.72-5.81-16.22-18.88-49.04-30.26-54.03-9.64-5.87-32.94-8.97-44-8.8-.03,0-.05,0-.08,0,4.1,28.8-9.79,65.6-38.28,78.5-2.44,1.08-4.91,2-7.42,2.8-17.46,5.66-36.3,4.94-55.05,6.69-.67,.07-1.33,.13-1.99,.21,.07,12.83-1.86,25.32-5.67,37.2,43.34,2.51,77.94,6.7,109.69,10.11-1.1-6.42-.81-13.02,1.29-19.57Z"/>
  <path class="cls-3" d="M2734.48,162.62c-17.48,5.57-36.38,4.85-55.05,6.69,18.75-1.75,37.59-1.04,55.05-6.69Z"/>
  <path class="cls-3" d="M2793.15,178.01c8.45-10.13,20.46-18.19,33.2-24.15-12.87,5.72-24.62,13.35-33.2,24.15Z"/>
  <path class="cls-3" d="M2781.45,216.82c.08,0,.15,.02,.23,.02-1.08-7.01-.62-13.54,1.06-19.59-2.1,6.55-2.39,13.15-1.29,19.57Z"/>
  <path class="cls-4" d="M2859.21,143.07c-1.51,.39-3.03,.77-4.54,1.14,.93,2.97,1.79,5.97,2.59,8.98,4.63,17.11,7.33,34.78,9.09,52.55,.53,5.3,.98,10.62,1.37,15.93,27.81-1.03,58.12-4.6,83.06-8.22-.02-4.63-.06-8.84-.14-12.69-.42-9.25-1.32-18.51-2.85-27.93-.18-1.1-.42-2.18-.7-3.24-3.22-10.55-9.2-17.91-20.17-30.35-6.3-6.56-12.8-12.99-17.61-20.11-3.54,3.27-7.45,6.16-11.64,8.74-11.41,7.09-24.87,11.77-38.46,15.22Z"/>
  <path class="cls-4" d="M2854.64,144.22c.94,2.97,1.81,5.96,2.62,8.97-.81-3.01-1.67-6-2.59-8.98,0,0-.02,0-.03,0Z"/>
  <path class="cls-4" d="M2867.71,221.66s0,0,0,0c-.38-5.31-.83-10.62-1.37-15.93,.53,5.3,.97,10.62,1.36,15.93Z"/>
  <path class="cls-3" d="M3003.56,5.12s-32.1,7.86-71.66,14.19c1,7.74,1.49,15.47,1.49,23.18,.44,16.93-1.31,33.93-6.96,49.12-.21,.74-.4,1.47-.62,2.21-3.4,10.3-9.2,18.6-16.49,25.3,6.97,8.17,12.77,14.63,17.61,20.11,8.75,9.11,17.13,18.49,20.17,30.35,2.34,7.65,3.24,16.98,3.55,31.17,.19,4.22,.28,8.44,.27,12.67,30.44-4.42,52.85-8.9,52.85-8.9V1.82"/>
  <path class="cls-3" d="M2926.92,139.23c10.98,12.44,16.95,19.8,20.17,30.35-3.04-11.86-11.42-21.24-20.17-30.35Z"/>
  <path class="cls-3" d="M2950.91,213.42c0-4.23-.08-8.45-.27-12.67,.08,3.85,.13,8.06,.14,12.69,.04,0,.09-.01,.13-.02Z"/>
  <path class="cls-5" d="M2897.67,127.85c4.15-2.58,8.02-5.47,11.54-8.74-21.4-28.02-41.44-58.24-51.31-92.07-7.14,.2-14.04,.18-20.56-.13-28.24-1.36-55.76-5.63-87.32-10.05,14.06,20.75,27,41.4,30.15,64.45,.02,0,.05,0,.08,0,10.97-.2,21.84-.5,32.61-.5,19.89,2,35.98,47.2,41.78,63.3h0s.01,.05,.02,.07c1.52-.36,3.03-.73,4.55-1.11,13.54-3.5,27.03-8.18,38.46-15.22Z"/>
  <path class="cls-5" d="M2854.51,144.15s0,0,0,0c.04-.01,.08-.02,.12-.03-.04,0-.08,.02-.12,.03Z"/>
  <path class="cls-5" d="M2780.18,81.31c-3.14-23.05-16.09-43.69-30.15-64.45-.01,0-.03,0-.04,0,14.08,20.72,26.95,41.42,30.09,64.45,.03,0,.07,0,.1,0Z"/>
  <path class="cls-5" d="M2854.64,144.12s-.08,.02-.12,.03c0,.02,.02,.04,.02,.07,.04,0,.08-.02,.12-.03,0-.02-.01-.05-.02-.07,0,0,0,0,0,0Z"/>
  <path class="cls-5" d="M2854.64,144.12h0s0,0,0,0c-5.8-16.1-21.89-61.3-41.78-63.3-10.77,0-21.64,.3-32.61,.5,11.06,.17,38.85-.5,44,8.8,11.38,4.99,24.45,37.81,30.26,54.03,.04,0,.08-.02,.12-.03h0Z"/>
  <path class="cls-5" d="M2897.67,127.85c-11.44,7.04-24.93,11.72-38.46,15.22,13.59-3.45,27.05-8.13,38.46-15.22Z"/>
  <path class="cls-4" d="M2857.91,27.05c9.87,33.83,29.92,64.05,51.41,92.07,7.81-7.97,13.33-17.34,17.12-27.51,4.62-16.15,6.96-32.57,6.96-49.12-.2-7.79-.87-15.55-1.83-23.12-23.67,3.78-49.97,7.01-73.66,7.69Z"/>
  <path class="cls-4" d="M2933.39,42.48c0-7.7-.49-15.43-1.49-23.18-.11,.02-.23,.04-.34,.05,.96,7.57,1.63,15.34,1.83,23.12Z"/>
  <path class="cls-4" d="M2925.8,93.82c.22-.73,.41-1.47,.62-2.21-3.79,10.17-9.31,19.53-17.12,27.51,7.3-6.7,13.09-15,16.49-25.3Z"/>
  <path class="cls-3" d="M2039.56,123.42l-.11,.1s-.05,.08-.07,.13c.06-.08,.12-.15,.18-.23Z"/>
  <path class="cls-3" d="M1528.67,101.8c-34.43-8.83-68.26-16.4-100.13-30.01-.22-.1-.45-.18-.67-.28-.36,1.68-.8,3.34-1.3,4.97-2.5,8.67-7.07,16.35-13.08,22.93-9.66,10.97-23.07,19.27-38.11,23.19-7.83,2.44-15.93,3.93-23.87,4.41,3.7,26.5,31.28,41.9,56.07,51.8,6.1,2.5,10.49,6.2,13.59,10.6,0,0,0,0,0-.01,5.2-8.59,17.18-11.39,25.37-13.59,0,0,0,0,.01,0,16.4-4.27,31.41-11.2,44.1-20.41,.98-.71,1.94-1.43,2.89-2.16,1.9-1.47,3.74-2.99,5.52-4.56,1.78-1.57,3.5-3.2,5.16-4.87,.83-.84,1.64-1.69,2.44-2.55,10.37-11.21,18.02-24.49,22.04-39.44-.02,0-.03,0-.05-.01Z"/>
  <path class="cls-3" d="M1426.56,76.49c-2.6,8.39-7.12,16.16-13.08,22.93,6-6.58,10.58-14.26,13.08-22.93Z"/>
  <path class="cls-3" d="M1374.59,122.82c-7.7,1.8-15.39,3.1-23.09,4.2,7.94-.47,16.04-1.97,23.87-4.41-.26,.07-.52,.14-.78,.21Z"/>
  <path class="cls-3" d="M1351.51,127.02c3.7,26.5,31.18,41.9,56.07,51.8-24.79-9.9-52.37-25.3-56.07-51.8Z"/>
  <path class="cls-3" d="M1407.58,178.82c6.1,2.5,10.39,6.2,13.59,10.6-3.1-4.4-7.5-8.1-13.59-10.6Z"/>
  <path class="cls-3" d="M1421.18,189.4c5.3-8.59,17.28-11.39,25.37-13.59-8.19,2.2-20.17,5-25.37,13.59Z"/>
  <path class="cls-4" d="M1426.57,43.82c.23,.76,.44,1.51,.64,2.27,2.41,7.95,2.89,16.49,.66,25.43,.22,.1,.45,.18,.67,.28,31.87,13.61,65.8,21.18,100.13,30.01,.02,0,.03,0,.05,.01,7.44-31.22,2.92-67.95-14.44-97.01-29.48,.74-68.46,4.56-110.26,8.78,1.09,.9,2.16,1.83,3.21,2.78,8.55,7.32,15.56,16.03,19.34,27.45Z"/>
  <path class="cls-4" d="M1407.23,16.37c9.18,8.32,16.54,18.41,19.98,29.71-.2-.75-.4-1.51-.64-2.27-3.78-11.41-10.79-20.13-19.34-27.45Z"/>
  <path class="cls-4" d="M1428.54,71.8c31.87,13.61,65.7,21.18,100.13,30.01-34.33-8.83-68.25-16.4-100.13-30.01Z"/>
  <path class="cls-4" d="M70.75,121.21c3.76-9.62,8.38-19.85,13.39-31.16,0-.01,.01-.02,.02-.04,8.88-25.3,13.52-52.65,3.53-73.73C39.67,11.68,5.29,4.82,5.29,4.82V204.22s30.8,6.1,74.79,10.65c-24.97-35.99-22-61.32-9.33-93.66Z"/>
  <path class="cls-4" d="M70.75,121.21c3.77-9.61,8.39-19.84,13.39-31.16-5,11.3-9.63,21.54-13.39,31.16Z"/>
  <path class="cls-5" d="M1863.12,63.75s.02-.02,.02-.03c0,.01-.02,.02-.02,.03h0Z"/>
  <path class="cls-5" d="M2051.72,63.39c-2.69-21.08-11.79-41.71-25.88-57.96-43.84,1.75-95,7.54-143.93,12.61-2.34,16.72-8.4,32.88-18.76,45.67,.25,.11,.49,.22,.74,.33,1.63,.62,3.17,1.32,4.64,2.1,9.32,4.35,18.41,9.45,26.8,16.67,27.79,23.9,31.28,62.4,37.58,96.3,28.39-10.53,60.12-18.8,83.96-34.58,0,0,0-.01,0-.02,.24-.16,.47-.33,.71-.49l21.71-20.35c.09-.12,.19-.23,.27-.36,10.61-18.12,14.48-39.25,12.16-59.92Z"/>
  <path class="cls-5" d="M1863.05,63.72s.05,.02,.08,.03c0-.01,.02-.02,.02-.03,10.36-12.78,16.42-28.95,18.76-45.67-.02,0-.03,0-.05,0-2.3,16.72-8.38,32.88-18.82,45.66Z"/>
  <path class="cls-5" d="M1863.89,64.04c-.25-.11-.49-.22-.74-.33,0,.01-.02,.02-.02,.03,.26,.09,.51,.2,.76,.3Z"/>
  <path class="cls-5" d="M1932.91,179.12s0,0,0,0h0s0,0,0,0h0c-6.3-33.9-9.79-72.4-37.58-96.3-8.39-7.22-17.48-12.32-26.8-16.67,44.73,23.88,17.03,121.83,64.38,112.97Z"/>
  <path class="cls-5" d="M1932.91,179.12c22.99-4.37,59.71-18.33,83.98-34.22,0-.12-.02-.24-.02-.36-23.83,15.79-55.57,24.05-83.96,34.58h0Z"/>
  <path class="cls-5" d="M2017.37,144.22c0,.12,.02,.23,.03,.35,10.35-6.83,18.37-14.01,21.99-20.92-5.97,8.1-13.5,14.83-22.01,20.57Z"/>
  <path class="cls-5" d="M2039.45,123.52c.03-.07,.07-.13,.11-.2-.09,.12-.18,.24-.27,.36l.16-.15Z"/>
  <path class="cls-5" d="M2017.57,144.02c-.24,.16-.47,.33-.71,.49,0,0,0,.01,0,.02,.16-.11,.34-.21,.5-.32l.21-.19Z"/>
  <path class="cls-5" d="M2016.87,144.53c0,.12,.02,.24,.02,.36,.17-.11,.33-.22,.5-.33,0-.12-.02-.23-.03-.35-.16,.11-.33,.21-.5,.32Z"/>
  <path class="cls-5" d="M2051.72,63.39c2.32,20.67-1.56,41.81-12.16,59.92,11.24-17.89,14.82-39.12,12.16-59.92Z"/>
  <path class="cls-5" d="M2039.28,123.67l-21.71,20.35c8.21-5.62,15.91-12.43,21.71-20.35Z"/>
  <path class="cls-5" d="M2017.57,144.02l-.21,.19c8.51-5.75,16.04-12.48,22.01-20.57,.02-.04,.05-.08,.07-.13l-.16,.15c-5.8,7.92-13.5,14.73-21.71,20.35Z"/>
  <path class="cls-1" d="M1149.91,216.17s-.02,0-.02,0"/>
  <path class="cls-1" d="M1824.66,219.56c-13.94,.9-27.3,1.59-39.83,1.96,.02,.1,.04,.2,.05,.3"/>
  <path class="cls-1" d="M2862.82,221.82h4.91c0-.05,0-.1-.01-.16-1.64,.06-3.27,.11-4.9,.16Z"/>
  <path class="cls-1" d="M2781.68,216.85c-.08,0-.15-.02-.23-.02"/>
  <path class="cls-1" d="M2867.72,221.66s0,0,0,0c0,.05,0,.1,.01,.16h0c0-.05,0-.1-.01-.16Z"/>
  <path class="cls-1" d="M351.61,4.31s0,0,0,0"/>
  <path class="cls-1" d="M186.74,20.1s.01,0,.02,0"/>
  <path class="cls-1" d="M801.18,19.2s0,.03,0,.04c0,0,0,0,0,0,0-.01,0-.03,0-.04Z"/>
  <path class="cls-1" d="M5.29,1.82v3s34.37,6.86,82.39,11.47"/>
</svg>