<?xml version="1.0" encoding="UTF-8"?>
<svg id="Layer_1" data-name="Layer 1" xmlns="http://www.w3.org/2000/svg" viewBox="0 0 3009.76 271.13">
  <defs>
    <style>
      .cls-1 {
        fill: #fff;
        stroke: #fff;
        stroke-width: 3px;
      }

      .cls-1, .cls-2, .cls-3, .cls-4, .cls-5, .cls-6, .cls-7 {
        stroke-miterlimit: 10;
      }

      .cls-2 {
        fill: #e19692;
      }

      .cls-2, .cls-3, .cls-4, .cls-5, .cls-6, .cls-7 {
        stroke: #f2f2f2;
      }

      .cls-2, .cls-5, .cls-6, .cls-7 {
        stroke-width: 3px;
      }

      .cls-3 {
        stroke-width: 3.04px;
      }

      .cls-3, .cls-4, .cls-7 {
        fill: #dd7360;
      }

      .cls-4 {
        stroke-width: 3.02px;
      }

      .cls-5 {
        fill: #eab5b3;
      }

      .cls-6 {
        fill: #e0857b;
      }
    </style>
  </defs>
  <g>
    <polygon class="cls-4" points="2.14 28.25 2.14 248.25 69.04 248.25 142.44 143.05 70.34 28.25 2.14 28.25"/>
    <polygon class="cls-6" points="71.14 28.25 142.44 143.05 165.54 109.65 165.54 109.65 221.84 28.25 71.14 28.25"/>
    <polygon class="cls-5" points="368.84 122.25 301.04 28.25 221.84 28.25 165.54 109.65 257.94 156.75 257.94 156.75 370.44 214.05 406.64 174.75 368.84 122.25"/>
    <polyline class="cls-2" points="142.44 143.05 69.84 248.25 194.44 248.25 257.94 156.75 165.54 109.65 142.44 143.05"/>
    <path class="cls-7" d="M344.64,242.15l25.9-28.1-112.5-57.3-63.6,91.5h140.8c2.5-2.9,5.8-5,9.4-6.1Z"/>
    <path class="cls-6" d="M356.24,239.45c31.2-1.8,62.4-4.3,93.7-4.6l-43.4-60.2-36.1,39.4-25.9,28.1c1.3-.4,2.7-.7,4-.8,2.5-1.1,5.1-1.7,7.7-1.9h0Z"/>
    <polygon class="cls-7" points="450.54 127.05 495.04 78.55 464.44 45.05 368.84 122.25 406.64 174.75 450.54 127.05"/>
    <polygon class="cls-6" points="449.14 28.25 301.04 28.25 368.84 122.25 464.44 45.05 449.14 28.25"/>
    <polygon class="cls-2" points="541.34 28.25 449.14 28.25 464.44 45.05 464.44 45.05 495.04 78.55 541.34 28.25"/>
    <path class="cls-2" d="M538.44,247.45c.8,.2,1.6,.4,2.4,.7h1.6l-91.9-121.2-43.9,47.7,38.2,53c31.8,3.2,62.3,12.9,93.6,19.8h0Z"/>
    <polygon class="cls-5" points="578.84 170.35 495.04 78.55 450.54 127.05 542.44 248.25 649.94 248.25 578.84 170.35"/>
    <polygon class="cls-2" points="649.94 248.25 687.04 248.25 740.34 111.85 578.84 170.35 649.94 248.25"/>
    <path class="cls-6" d="M661.84,44.05c-1.7-.3-18.2-12.3-17.6-15.8h-103l-46.3,50.3,83.8,91.8,161.5-58.5,23.9-60.9c-3.1,.8-101.1-6.7-102.3-6.9Z"/>
    <polygon class="cls-5" points="868.44 159.35 988.74 174.65 922.74 116.65 868.44 159.35"/>
    <polygon class="cls-6" points="988.74 174.65 868.44 159.35 755.34 248.25 993.94 248.25 1049.74 228.15 988.74 174.65"/>
    <polygon class="cls-5" points="1049.74 228.15 993.94 248.25 1072.64 248.25 1049.74 228.15"/>
    <polygon class="cls-6" points="998.64 56.95 922.74 116.65 988.74 174.65 988.74 174.65 1049.74 228.15 1141.34 195.25 1180.64 130.15 998.64 56.95"/>
    <polygon class="cls-5" points="1035.24 28.25 998.64 56.95 1180.64 130.15 1242.14 28.25 1035.24 28.25"/>
    <polygon class="cls-2" points="1049.74 228.15 1072.64 248.25 1109.34 248.25 1141.34 195.25 1049.74 228.15"/>
    <polygon class="cls-7" points="1269.84 149.15 1353.84 118.95 1308.94 28.25 1242.14 28.25 1180.64 130.15 1180.64 130.15 1141.34 195.25 1269.84 149.15"/>
    <polygon class="cls-6" points="1137.44 195.25 1105.54 248.25 1181.84 248.25 1265.94 149.15 1137.44 195.25"/>
    <polygon class="cls-2" points="1353.84 118.95 1269.84 149.15 1185.74 248.25 1288.34 248.25 1376.54 164.55 1353.84 118.95"/>
    <polygon class="cls-7" points="1376.54 164.55 1288.34 248.25 1418.04 248.25 1376.54 164.55"/>
    <polygon class="cls-6" points="1606.34 28.25 1539.84 52.15 1623.64 110.85 1702.94 28.25 1606.34 28.25"/>
    <polygon class="cls-5" points="1353.84 118.95 1376.54 164.55 1376.54 164.55 1418.04 248.25 1491.94 248.25 1530.84 207.65 1502.74 65.45 1353.84 118.95"/>
    <polygon class="cls-7" points="1539.84 52.15 1502.74 65.45 1530.84 207.65 1623.64 110.85 1539.84 52.15"/>
    <polygon class="cls-5" points="1759.44 28.25 1702.94 28.25 1623.64 110.85 1811.44 242.55 1759.44 28.25"/>
    <polygon class="cls-2" points="1491.94 248.25 1538.84 248.25 1530.84 207.65 1491.94 248.25"/>
    <polygon class="cls-2" points="1811.44 242.55 1623.64 110.85 1530.84 207.65 1538.84 248.25 1812.84 248.25 1811.44 242.55"/>
    <polygon class="cls-7" points="1812.84 248.25 1819.54 248.25 1811.44 242.55 1812.84 248.25"/>
    <polygon class="cls-7" points="1889.54 156.75 1785.74 28.25 1759.44 28.25 1811.44 242.55 1819.54 248.25 1963.34 248.25 1889.54 156.75"/>
    <polygon class="cls-7" points="2090.64 28.25 1963.84 28.25 2079.94 75.35 2090.64 28.25"/>
    <polygon class="cls-6" points="1885.94 156.75 1959.84 248.25 2037.24 248.25 2069.34 106.55 1885.94 156.75"/>
    <polygon class="cls-2" points="2079.94 75.35 1963.84 28.25 1785.74 28.25 1889.54 156.75 2072.84 106.55 2079.94 75.35"/>
    <polygon class="cls-5" points="2405.64 248.25 2506.44 248.25 2442.64 222.35 2405.64 248.25"/>
    <polygon class="cls-7" points="2873.44 28.25 2793.34 28.25 2828.34 82.65 2873.44 28.25"/>
    <polygon class="cls-5" points="2793.34 28.25 2720.24 28.25 2650.14 77.25 2743.24 185.55 2828.34 82.65 2793.34 28.25"/>
    <polygon class="cls-2" points="2588.24 120.55 2730.44 200.85 2743.24 185.55 2650.14 77.25 2588.24 120.55"/>
    <polygon class="cls-7" points="2442.64 222.35 2506.44 248.25 2691.24 248.25 2712.44 222.65 2468.94 203.95 2442.64 222.35"/>
    <polygon class="cls-5" points="2588.24 120.55 2468.94 203.95 2712.44 222.65 2730.44 200.85 2588.24 120.55"/>
    <polygon class="cls-7" points="2828.34 82.65 2743.24 185.55 2743.24 185.55 2730.44 200.85 2780.94 229.35 2873.14 152.25 2828.34 82.65"/>
    <polygon class="cls-2" points="2892.84 182.95 2892.84 182.95 2873.14 152.25 2780.94 229.35 2814.44 248.25 2934.94 248.25 2892.84 182.95"/>
    <polygon class="cls-7" points="2780.94 229.35 2730.44 200.85 2712.44 222.65 2712.44 222.65 2691.24 248.25 2814.44 248.25 2780.94 229.35"/>
    <polygon class="cls-5" points="2873.44 28.25 2828.34 82.65 2873.14 152.25 2873.14 152.25 2892.84 182.95 2920.64 28.25 2873.44 28.25"/>
    <polygon class="cls-3" points="2921.54 28.25 2892.84 182.95 2936.14 248.25 3008.24 248.25 3008.24 28.25 2921.54 28.25"/>
    <polygon class="cls-7" points="2354.54 248.25 2405.64 248.25 2442.64 222.35 2385.64 199.25 2354.54 248.25"/>
    <polygon class="cls-6" points="2271.24 248.25 2354.54 248.25 2385.64 199.25 2188.84 119.45 2271.24 248.25"/>
    <polygon class="cls-5" points="2424.64 28.25 2475.84 57.15 2494.14 28.25 2424.64 28.25"/>
    <polygon class="cls-6" points="2650.14 77.25 2720.24 28.25 2494.14 28.25 2475.84 57.15 2588.24 120.55 2650.14 77.25"/>
    <polygon class="cls-2" points="2130.44 28.25 2188.84 119.45 2385.64 199.25 2425.64 136.25 2292.04 28.25 2130.44 28.25"/>
    <polygon class="cls-7" points="2424.64 28.25 2292.04 28.25 2425.64 136.25 2475.84 57.15 2424.64 28.25"/>
    <polygon class="cls-2" points="2468.94 203.95 2588.24 120.55 2475.84 57.15 2425.64 136.25 2425.64 136.25 2385.64 199.25 2442.64 222.35 2468.94 203.95"/>
    <polygon class="cls-7" points="2079.94 75.35 2072.84 106.55 2072.84 106.55 2040.74 248.25 2271.24 248.25 2188.84 119.45 2079.94 75.35"/>
    <polygon class="cls-5" points="2130.44 28.25 2090.64 28.25 2079.94 75.35 2188.84 119.45 2130.44 28.25"/>
    <polygon class="cls-7" points="1606.34 28.25 1505.74 28.25 1539.84 52.15 1606.34 28.25"/>
    <polygon class="cls-2" points="1502.74 65.45 1539.84 52.15 1505.74 28.25 1308.94 28.25 1353.84 118.95 1502.74 65.45"/>
    <path class="cls-7" d="M821.84,28.25h-33.6c2.3,3.9,2.4,9.4-1.4,12.3-6.8,5.3-14.6,8.3-22.8,10.4l-23.8,60.9-53.3,136.4h68.3l113.2-88.9,54.3-42.6-100.9-88.5Z"/>
    <polygon class="cls-2" points="998.64 56.95 1035.24 28.25 821.84 28.25 922.74 116.65 998.64 56.95"/>
  </g>
  <path class="cls-1" d="M3004.94,11.15s-101.5,20.3-166,17.1-125.6-16.7-239.1-17.1-152.7,15.7-300.6,13.6-156.8-13.2-245.3-13.7-222.5,19.5-300.1,17.2c-77.4-2.2-150.4-14.3-217.7-17.3s-223,17.2-320.1,14.9-154.4-13.1-237.3-14.9-197.7,20-254.3,21.3c-56.7,1.2-190.8-26.8-276.5-30.4S277.94,23.75,186.14,26.15,4.94,10.85,4.94,10.85l.2,21.8s89.2,17.8,181,15.3,174.8-23.3,260.5-19.7,221.1,26.9,277.8,25.7,171.4-23,254.3-21.2,140.1,18.9,237.3,21.3,252.9-24.3,320.1-21.3,140.3,19.2,217.8,21.4,211.6-21.9,300.1-21.4c88.5,.5,96.8,19.4,244.6,21.5,147.9,2.1,187.7-21.9,301.2-21.5s174.3,18.7,238.8,21.9,166.3-21.7,166.3-21.7V11.15Z"/>
  <path class="cls-1" d="M3004.94,225.75s-101.5,20.3-166,17.1-125.6-16.7-239.1-17.1-152.7,15.7-300.6,13.6-156.8-13.2-245.3-13.7-222.5,19.5-300.1,17.2c-77.6-2.2-150.5-14.3-217.8-17.3s-223,17.2-320.1,14.9-154.4-13.1-237.3-14.9c-82.9-1.8-197.6,20-254.3,21.3-56.7,1.2-190.7-26.8-276.4-30.4s-170,21.9-261.8,24.3S4.94,225.45,4.94,225.45l.2,21.8s89.2,17.8,181,15.3,174.8-23.3,260.5-19.7,221.1,27,277.8,25.8,171.4-23.1,254.3-21.3,140.1,18.9,237.3,21.3,252.9-24.3,320.1-21.3,140.2,19.2,217.8,21.4,211.6-21.9,300.1-21.4c88.5,.5,96.8,19.4,244.6,21.5,147.9,2.1,187.7-21.9,301.2-21.4s174.3,18.7,238.8,21.9,166.3-21.8,166.3-21.8v-21.8h0Z"/>
</svg>