<?xml version="1.0" encoding="UTF-8"?><svg id="Layer_1" xmlns="http://www.w3.org/2000/svg" viewBox="0 0 3009.15 271.18"><defs><style>.cls-1{stroke-width:3.02px;}.cls-1,.cls-2,.cls-3,.cls-4,.cls-5,.cls-6,.cls-7{stroke-miterlimit:10;}.cls-1,.cls-2,.cls-4,.cls-5,.cls-6,.cls-7{stroke:#f2f2f2;}.cls-1,.cls-2,.cls-7{fill:#dd7360;}.cls-2{stroke-width:3.04px;}.cls-3{fill:#fff;stroke:#fff;stroke-width:3px;}.cls-4{fill:#eab5b3;}.cls-4,.cls-5,.cls-6,.cls-7{stroke-width:3px;}.cls-5{fill:#e0857b;}.cls-6{fill:#e19692;}</style></defs><g><polygon class="cls-1" points="1.51 28.28 1.51 248.28 68.44 248.28 141.86 143.14 69.75 28.28 1.51 28.28"/><polygon class="cls-5" points="70.53 28.28 141.86 143.14 164.94 109.72 164.94 109.72 221.2 28.28 70.53 28.28"/><polygon class="cls-4" points="368.23 122.33 300.45 28.28 221.2 28.28 164.94 109.72 257.39 156.78 257.39 156.78 369.88 214.05 406.02 174.76 368.23 122.33 368.23 122.33"/><polyline class="cls-6" points="141.86 143.14 69.24 248.28 193.89 248.28 257.39 156.78 164.94 109.72 141.86 143.14"/><path class="cls-7" d="M344.03,242.15l25.85-28.1-112.49-57.26-63.5,91.49h140.77c2.46-2.86,5.76-5.03,9.36-6.13Z"/><path class="cls-5" d="M355.68,239.52c31.22-1.75,62.43-4.33,93.72-4.56l-43.38-60.19-36.14,39.29-25.85,28.1c1.32-.4,2.67-.66,4.04-.75,2.39-1.08,4.98-1.73,7.6-1.88h0Z"/><polygon class="cls-7" points="449.91 127.05 494.46 78.62 463.82 45.06 368.23 122.33 406.02 174.76 449.91 127.05 449.91 127.05"/><polygon class="cls-5" points="448.5 28.28 300.45 28.28 368.23 122.33 463.82 45.06 448.5 28.28"/><polygon class="cls-6" points="540.77 28.28 448.5 28.28 463.82 45.06 463.82 45.06 494.46 78.62 540.77 28.28"/><path class="cls-6" d="M537.83,247.53c.83,.18,1.62,.45,2.38,.74h1.63l-91.93-121.22-43.89,47.71,38.19,52.98c31.8,3.19,62.31,12.85,93.62,19.79h0Z"/><polygon class="cls-4" points="578.3 170.44 494.46 78.62 449.91 127.05 541.84 248.28 649.37 248.28 578.3 170.44 578.3 170.44"/><polygon class="cls-6" points="649.37 248.28 686.42 248.28 739.77 111.89 578.3 170.44 649.37 248.28"/><path class="cls-5" d="M661.3,44.08c-1.74-.26-18.21-12.25-17.56-15.81h-102.97l-46.31,50.34,83.84,91.82,161.47-58.55,23.82-60.92c-3.13,.81-101.15-6.71-102.29-6.88Z"/><polygon class="cls-4" points="867.84 159.36 988.18 174.68 922.1 116.72 867.84 159.36"/><polygon class="cls-5" points="988.18 174.68 867.84 159.36 754.7 248.28 993.32 248.28 1049.19 228.21 988.18 174.68"/><polygon class="cls-4" points="1049.19 228.21 993.32 248.28 1072.07 248.28 1049.19 228.21"/><polygon class="cls-5" points="998.05 57.03 922.1 116.72 988.18 174.68 988.18 174.68 1049.19 228.21 1140.74 195.32 1180.01 130.23 998.05 57.03"/><polygon class="cls-4" points="1034.63 28.28 998.05 57.03 1180.01 130.23 1241.55 28.28 1034.63 28.28"/><polygon class="cls-6" points="1049.19 228.21 1072.07 248.28 1108.77 248.28 1140.74 195.32 1049.19 228.21"/><polygon class="cls-7" points="1269.2 149.17 1353.28 118.97 1308.3 28.28 1241.55 28.28 1180.01 130.23 1180.01 130.23 1140.74 195.32 1269.2 149.17 1269.2 149.17"/><polygon class="cls-5" points="1136.88 195.32 1104.93 248.28 1181.29 248.28 1265.35 149.17 1136.88 195.32"/><polygon class="cls-6" points="1353.28 118.97 1269.2 149.17 1185.15 248.28 1287.74 248.28 1375.93 164.63 1353.28 118.97"/><polygon class="cls-7" points="1375.93 164.63 1287.74 248.28 1417.41 248.28 1375.93 164.63"/><polygon class="cls-5" points="1605.72 28.28 1539.23 52.16 1623.05 110.93 1702.32 28.28 1605.72 28.28"/><polygon class="cls-4" points="1353.28 118.97 1375.93 164.63 1375.93 164.63 1417.41 248.28 1491.34 248.28 1530.26 207.69 1502.11 65.5 1353.28 118.97"/><polygon class="cls-7" points="1539.23 52.16 1502.11 65.5 1530.26 207.69 1623.05 110.93 1539.23 52.16"/><polygon class="cls-4" points="1758.82 28.28 1702.32 28.28 1623.05 110.93 1810.89 242.64 1758.82 28.28"/><polygon class="cls-6" points="1491.34 248.28 1538.29 248.28 1530.26 207.69 1491.34 248.28"/><polygon class="cls-6" points="1810.89 242.64 1623.05 110.93 1530.26 207.69 1538.29 248.28 1812.27 248.28 1810.89 242.64"/><polygon class="cls-7" points="1812.27 248.28 1818.94 248.28 1810.89 242.64 1812.27 248.28"/><polygon class="cls-7" points="1888.9 156.77 1785.12 28.28 1758.82 28.28 1810.89 242.64 1818.94 248.28 1962.79 248.28 1888.9 156.77 1888.9 156.77"/><polygon class="cls-7" points="2090.05 28.28 1963.25 28.28 2079.37 75.35 2090.05 28.28"/><polygon class="cls-5" points="1885.38 156.77 1959.27 248.28 2036.64 248.28 2068.76 106.63 1885.38 156.77"/><polygon class="cls-6" points="2079.37 75.35 1963.25 28.28 1785.12 28.28 1888.9 156.77 2072.28 106.63 2079.37 75.35"/><polygon class="cls-4" points="2405.08 248.28 2505.88 248.28 2442.08 222.41 2405.08 248.28"/><polygon class="cls-7" points="2872.8 28.28 2792.75 28.28 2827.76 82.68 2872.8 28.28"/><polygon class="cls-4" points="2792.75 28.28 2719.64 28.28 2649.56 77.29 2742.61 185.54 2827.76 82.68 2792.75 28.28"/><polygon class="cls-6" points="2587.61 120.61 2729.89 200.91 2742.61 185.54 2649.56 77.29 2587.61 120.61"/><polygon class="cls-7" points="2442.08 222.41 2505.88 248.28 2690.68 248.28 2711.87 222.68 2468.36 204.02 2442.08 222.41"/><polygon class="cls-4" points="2587.61 120.61 2468.36 204.02 2711.87 222.68 2729.89 200.91 2587.61 120.61"/><polygon class="cls-7" points="2827.76 82.68 2742.61 185.54 2742.61 185.54 2729.89 200.91 2780.31 229.36 2872.56 152.3 2827.76 82.68"/><polygon class="cls-6" points="2892.28 182.95 2892.28 182.95 2872.56 152.3 2780.31 229.36 2813.82 248.28 2934.31 248.28 2892.28 182.95"/><polygon class="cls-7" points="2780.31 229.36 2729.89 200.91 2711.87 222.68 2711.87 222.68 2690.68 248.28 2813.82 248.28 2780.31 229.36 2780.31 229.36"/><polygon class="cls-4" points="2872.8 28.28 2827.76 82.68 2872.56 152.3 2872.56 152.3 2892.28 182.95 2920.09 28.28 2872.8 28.28"/><polygon class="cls-2" points="2920.9 28.28 2892.28 182.95 2935.54 248.28 3007.62 248.28 3007.62 28.28 2920.9 28.28"/><polygon class="cls-7" points="2353.97 248.28 2405.08 248.28 2442.08 222.41 2385.05 199.29 2353.97 248.28"/><polygon class="cls-5" points="2270.69 248.28 2353.97 248.28 2385.05 199.29 2188.26 119.5 2270.69 248.28"/><polygon class="cls-4" points="2424 28.28 2475.21 57.18 2493.54 28.28 2424 28.28"/><polygon class="cls-5" points="2649.56 77.29 2719.64 28.28 2493.54 28.28 2475.21 57.18 2587.61 120.61 2649.56 77.29 2649.56 77.29"/><polygon class="cls-6" points="2129.87 28.28 2188.26 119.5 2385.05 199.29 2425.04 136.25 2291.42 28.28 2129.87 28.28"/><polygon class="cls-7" points="2424 28.28 2291.42 28.28 2425.04 136.25 2475.21 57.18 2424 28.28"/><polygon class="cls-6" points="2468.36 204.02 2587.61 120.61 2475.21 57.18 2425.04 136.25 2425.04 136.25 2385.05 199.29 2442.08 222.41 2468.36 204.02 2468.36 204.02"/><polygon class="cls-7" points="2079.37 75.35 2072.28 106.63 2072.28 106.63 2040.15 248.28 2270.69 248.28 2188.26 119.5 2079.37 75.35"/><polygon class="cls-4" points="2129.87 28.28 2090.05 28.28 2079.37 75.35 2188.26 119.5 2129.87 28.28"/><polygon class="cls-7" points="1605.72 28.28 1505.16 28.28 1539.23 52.16 1605.72 28.28"/><polygon class="cls-6" points="1502.11 65.5 1539.23 52.16 1505.16 28.28 1308.3 28.28 1353.28 118.97 1502.11 65.5 1502.11 65.5"/><path class="cls-7" d="M821.28,28.28h-33.57c2.34,3.91,2.41,9.37-1.35,12.32-6.83,5.35-14.61,8.26-22.77,10.37l-23.82,60.92-53.34,136.39h68.28l113.14-88.92,54.25-42.64-100.81-88.44Z"/><polygon class="cls-6" points="998.05 57.03 1034.63 28.28 821.28 28.28 922.1 116.72 998.05 57.03 998.05 57.03"/></g><path class="cls-3" d="M3004.37,11.2s-101.54,20.26-166.03,17.08-125.6-16.7-239.06-17.14-152.68,15.71-300.57,13.62-156.8-13.18-245.26-13.69-222.53,19.46-300.08,17.22c-77.56-2.24-150.5-14.27-217.78-17.29-67.28-3.02-222.97,17.25-320.14,14.86s-154.39-13.05-237.31-14.86c-82.93-1.8-197.65,20.04-254.32,21.26-56.67,1.22-190.74-26.75-276.43-30.4S277.38,23.73,185.57,26.16,4.37,10.86,4.37,10.86l.23,21.77s89.16,17.75,180.97,15.32,174.77-23.32,260.46-19.68,221.12,26.97,277.79,25.76,171.39-23.06,254.32-21.26c82.93,1.8,140.15,18.9,237.31,21.3s252.86-24.32,320.14-21.3,140.23,19.21,217.78,21.45,211.63-21.88,300.08-21.37c88.45,.51,96.75,19.42,244.64,21.52,147.89,2.09,187.73-21.88,301.19-21.45s174.3,18.68,238.79,21.86,166.3-21.79,166.3-21.79V11.2Z"/><path class="cls-3" d="M3004.37,225.82s-101.54,20.26-166.03,17.08-125.6-16.7-239.06-17.14-152.68,15.71-300.57,13.62-156.8-13.18-245.26-13.69-222.53,19.46-300.08,17.22c-77.56-2.24-150.5-14.27-217.78-17.29-67.28-3.02-222.97,17.25-320.14,14.86s-154.39-13.05-237.31-14.86c-82.93-1.8-197.65,20.04-254.32,21.26-56.67,1.22-190.74-26.75-276.43-30.4s-170.01,21.88-261.82,24.32S4.37,225.48,4.37,225.48l.23,21.77s89.16,17.75,180.97,15.32,174.77-23.32,260.46-19.68,221.12,26.97,277.79,25.76,171.39-23.06,254.32-21.26,140.15,18.9,237.31,21.3,252.86-24.32,320.14-21.3,140.23,19.21,217.78,21.45,211.63-21.88,300.08-21.37c88.45,.51,96.75,19.42,244.64,21.52,147.89,2.09,187.73-21.88,301.19-21.45s174.3,18.68,238.79,21.86,166.3-21.79,166.3-21.79v-21.79h0Z"/></svg>