<?xml version="1.0" encoding="UTF-8"?>
<svg id="Layer_1" data-name="Layer 1" xmlns="http://www.w3.org/2000/svg" viewBox="0 0 688.82 649.04">
  <defs>
    <style>
      .cls-1 {
        fill: #12838a;
      }

      .cls-2 {
        fill: #d03435;
      }

      .cls-3 {
        fill: #f8f7f8;
      }

      .cls-4 {
        fill: #0f8188;
      }

      .cls-5 {
        fill: #d87274;
      }

      .cls-6 {
        fill: #8956a3;
      }

      .cls-7 {
        fill: #0d8188;
      }

      .cls-8 {
        fill: #7a4199;
      }

      .cls-9 {
        fill: #19858c;
      }

      .cls-10 {
        fill: #d65757;
      }

      .cls-11 {
        fill: #118289;
      }

      .cls-12 {
        fill: #b281b9;
      }

      .cls-13 {
        fill: #13838a;
      }

      .cls-14 {
        fill: #999;
      }

      .cls-15 {
        fill: #e69b9b;
      }

      .cls-16 {
        fill: #c9a1ca;
      }
    </style>
  </defs>
  <path class="cls-3" d="M650.1,442.84c43.7,57.2,22,119.7-55.5,99-3.6-1.4-5.7-.5-8.2,2.2-120.1,138-351.9,140.3-474.9,5-5.9-6.4-15.3,2.5-23,2.6-9,1.8-14.8-.8-17.6-9.7-6.7-19.9-7.5-41.4-11.8-61.7-2.9-10.3-8-20-12.4-29.9-9.2-4.4-24.8,7.3-31.8-3.1-7.4-23.5-31.9-72,4.7-82.3,4-1.2,4.4-3.7,4.1-7.2-2.2-21.6-2.7-43.3,.1-64.9,2.2-17.1,6.1-34.1,8.8-51.2,.6-3.5,.2-7.6-1-10.9-11-30.7-23.7-97.4,19.5-106.7,14.4-2.9,28.8-5.6,43.1-8.7,2.8-.6,6.1-2.1,8-4.2C154,52.84,226.2,12.54,304.1,3.34c109.3-16.7,213.5,30.9,289.9,106.8,48.2,20,64.2,70.8,62.9,119.2,15.3,42.5,13,87.3,14.9,130.9,13.2,13,17.4,29.3,17,47,.3,26.6-8.1,53.8-38.7,35.6h0Zm-205.4-185.7c-2-7.9-2.7-16.1-5.3-23.9l-1.1,.3c-1.1,10.7-3.1,21.3-5,31.9l-.2,.2,.1,.2c-1.9,11-4.6,21.9-8.7,32.3l-.4,.3,.1,.5c-1.5,3.9-3.1,7.6-4.9,11.3l-.3,.2,.1,.3c-10.3,12.1,10.4,1.2,32,25.3,2.5-8.5,1.5-13,11.8-11.9,9.5-.1,17.8,1.9,27.3-.7-12.2-9.1-20.7-17.5-29.4-29.2v-.4l-.4-.2c-3.5-6.2-7.1-12.3-9.9-18.9l.1-.3-.3-.2c-2-5.7-4-11.3-5.6-17.1h0Zm109.1,240.2c-16.3,21.1-36.3,36.6-64.4,29.6-10.4-2.3-21-3.5-31.5-5.5-4.7-.6-10-5-14.8-4.5-10.3,6-20.7,4.6-31.4,1-5.4-1.8-7.7-5-8.5-10.4-1.5-4.9-2.8-30.1-9.9-27.2-4.5,.9-4.1,5.5-4.3,9.1-1.7,7.9,3.5,24.6-8.3,25.1-12.4-.1-24.8-2.2-37.1-1.7-22.4,3.2-44.8,6.6-67.3,9.5-10.2,1.4-20-.5-28.5-6.8-6.3-4.9-10.9,12.4-35.5,8.4-6.8-.8-10.8-4.3-11.8-10.8-1.6-10.4-2.5-20.8-4.2-31.1-.9-5.4-2.6-10.6-4.3-15.8-7.1-9.9-8.8,9.5-8.4,14,3,26,6.8,54.1-27.9,55-17.4,.4-17.4,2.6-24.3-16.4-6.2-17.1-6.9-35.2-8.2-53.2-.8-10.3-1.3-20.6-2.1-30.9,.2-10.9-14.5-1.4-20.2-.5-4.3,1.6-6.1,5-5,9.6,2.1,9.4,4,18.9,6.5,28.2,5.1,18.8,10.9,37.5,10.9,57.3,0,1.6,1.1,3.6,2.2,4.8,117.2,135.6,344.5,135.3,461.9,.2-12.3-10.9-18.7-21.2-23.6-37h0Zm7.4-398.3C439.9-18.86,234.3-13.76,120.6,111.44c29.3,.6,58.8-8.3,87.9-12.1,25.4-5.5,29.1,15.5,41.4,8.2,6-3.3,12-6.6,18.3-9.1,50-16.4,48.8,44.1,47.4,76.6,1.5,12.2-10.5,34.1,4.4,40.2,3.7-34.5-3.4-38.6,35.8-37.8,19,.2,7.7,26.2,15.6,37.3,.7-.1,1.5-.1,2.2-.2,4.2-12.4,1.3-25.8,2.1-38.7,.2-18.5,.4-36.9,.9-55.4,.1-5.9,2.5-11.1,7.3-14.8,15.6-12.5,48.6-18.3,59.6,2.2,8.1,19.8,1.1,41.2,2.5,61.8l1.7,.3c30.3-53.1,47.7-75.3,113.5-70.9h0Zm82.5,117.8c-17.1,3.6-34.4,8.7-52.4,6.7-9.8-.6-11-.5-12.8,8.9-5,25.8-31.7,30.1-47.5,21.4-24-12.4-3.5-36.7-22.4-49.3-11.1-10.8-51.6-29.7-56-5.1-2.5,9-.5,81.3,13.5,74.6,9.5-4.8,19.9-5.9,29.7-2.9,39.8,11.3,76.3,37.9,119.5,27.3,7.8-1.7,13.5-5.6,17.2-12.4,10.4-21.2,9.3-46.2,11.2-69.2h0ZM214.3,108.04c-32.7,3.9-61.2,10.2-93,15.4-7.5,1.2-14,3.1-19.2,9.1-17.9,20.8-37.7,39.5-60.1,55.4-6.9,3.5,2.6,30.9,3.4,38.5,2,8.3,4.4,9.1,12.7,7.2,7.1-1.6,14.2-3.7,21.4-4.7,8.9-1.2,16.1-4.9,21.9-11.7,18.6-21.8,39.2-41.2,63.1-57,21.4-14.1,44.3-25,68.9-32.5,9.6-1.8,5.3-10.4-.4-13.8-6.6-2.4-13.4-4.3-18.7-5.9h0Zm32.7,106.8c-14.8,8.2-30.3,7.1-46.3,10.2-15.2,2.4-17.9,1.3-16.5,21.5,2,22.1,7.2,44.2,5,66.5-1.1,14.7-8.1,19.8-22.3,21.9-3.5,1-4.7,2.4-3.1,6.5,2.3,6,4.2,12.3,4.9,18.7,1.5,14.2,2.1,28.5,3.1,42.8,.2,3.4,.8,6.8,5.6,6.7,5.3-.2,8.3-2.5,8-7.4-.6-17.3-3.8-34.3-5.2-51.5-.5-24.7,35.8-30.6,53.9-21.2,1.5,.7,4.4,1.1,5.1,.3,10.5-10.9,24.5-8.5,38.1-13.1-22.8-30.2-18.8-67.6-30.3-101.9h0Zm-116.7,123c-20.4-25,7.1-97-34.6-98.2-15.4,1.1-30.6,5.1-45.9,6.5-3.5,.4-4.8,1.1-5.7,4.4-8.8,35.6-10.7,71.5-7.3,108.2,22.5-6.2,44.2-21.5,68-16.8,9.3,2.8,17.3,.6,25.5-4.1h0Zm143.1-53.8c4.7,18.4,12,34.1,35.1,32,19.2,.1,19.4-27.9,24-42.5,3.9-13.8,11.5-18.4,25.4-15.3,7.4,1.7,9.2-8.5,15.1-11.3,7.2-3.9,2.4-9.2-1.6-13.5-9.7-9.9-22.4-13.3-35.2-16.7-5,1-7.5,8.2-11.9,10.6-17.2,12.8-16-17.1-27.3-8.4-9.7,9.4-19.3,18.8-28.9,28.3-4.3,5.9,1.3,12.9,2.1,20.4,10.1-15.6,32.7-18.7,39.6-.4,2.9,11.5-9.5,24.9-21.2,22.6-4.6-1-9-3.5-15.2-5.8h0Zm335.6-150.8c.2-.6,.4-1.3,.6-1.9-7.6-4.9-15.1-10-23-14.5-5.9-3.4-8.8-2.6-12.9,2.8-14.4,20.1-40,28.3-52.5,49.9-5.5,9.9-7.7,20.3-1.3,30.8,1.4,2.4,3.1,4.6,6.2,1.7,12.5-12.4,27.8-7,42.3-1.7,3.3-27.8,16.1-53.2,40.6-67.1h0ZM286.8,424.44c-.1,13.4,.5,24.1-1,36.8-1.9,12.7-18.2,9.7-27.5,13.6-4.6,1.2-7.9,4.3-7.9,9.1,.8,7.8-2.2,21,7.9,23.3,24.8,1.9,49.6,1.8,74.4-.9,21.7,1.1-17.9-42.3-24-46.6-11.9-11.9-.9-22.7-21.9-35.3h0Zm-91.1-34.3c.4,8.5,4.3,22.4-5,26.6-8.6,1.7-25.3,8.6-26.7-4.8-1.6-11-2.3-22.1-3.7-33.1-.4-3.6-.7-8.6-3-10.4-7.1-5.6-14.8-10.7-22.9-14.8-6.8-3.4-7.8-2.3-8.4,5.1,.1,20.6,2.9,41.2,4.4,61.7,.2,2.2,2,5,3.9,6.2,8.9,6,18.2,11.5,27.2,17.5,3.3,2.2,6,2.5,8.9-.3,14.4-12.6,27.1-26.9,40.4-40.7,4.9-6.1-9.3-12.4-15.1-13h0Zm240.5-242.1c-.8-8.5-1.9-20.4-2.8-32.3-.4-4.9-3.2-7.9-7.6-8.6-14.9-2.9-34.2-2-37.9,16.1-5.5,18.9-7,41.2,13.2,49.7,8.9,4.6,19,6.9,28.6,10.1,3.6,1.2,4.8-.9,4.9-4.1,.4-9.2,.9-18.3,1.6-30.9h0Zm214.1,112.1c-3.7,44.7-46.6,83-92.1,78.3-4.8-.6-9.7-.1-15.4-.1,8.1,10.8,15.6,20.8,23.2,30.9,23.3-36.7,56-33.8,91.3-20.9,2.2-29.8,.3-59.1-7-88.2h0Zm-297.8,217.5c-1.4,3.1-.7,5.4,2.9,3.9,8.4-3.5,16.9-7.1,25.1-10.9,1.6-.7,2.8-2.9,3.5-4.7,6-16.6,11.8-33.3,17.7-49.9,3.9-11-13.1,3.2-23.7-14.2-3-5.9-11.5,5.1-15.8,6.5-14.2,7.6-13.7,23.7-12.2,37.7,.7,10.5,1.6,21,2.5,31.6h0ZM16.5,426.44c.4,21.8,21.8,10.8,34.4,12.6,8.2,2.6,11.8-.8,16.1-7.2,5.6-8.4,12.8-15.7,19.6-23.2,2.8-3.1,3.2-5.7,.2-8.5-6.6-6.1-13.1-12.1-19.9-18-6.7-6-12.5,3.9-17.6,7.5-10.7,11.6-27.1,22-32.8,36.8h0Zm424.5-84.7c-15,41-32.6,80.6-46.3,121.9,.4,.4,.7,.8,1.1,1.2,7.9-3.6,15.9-7.2,23.8-10.8,10.3-5.1-8.4-12.1,4.5-20.7,12.3-8.8,22.8-19.2,25.4-34.9,3-19.5,4.9-40.3-8.5-56.7h0Zm-262-56.1c-6.8-29.6-6.1-63.9-29.4-86.4-9.9-10.8-13.4-8.6-22.9,1-10.3,8.4,10.9,9.6,15.1,26.8,7.6,23.5,12.3,47.6,14.2,72.3,4,13.7,22.1-6.6,23-13.7h0Zm63.2-119.6h-.9c-.3-7.3-.7-14.6-1-21.9,.8-9.4-5.6-8.3-12.6-6.6-61.2,23.7-22.8,9.2-14.2,70.2,5.9,11.7,27.8-2.6,27.1-11.3,.5-10.2,1.1-20.3,1.6-30.4Zm238.3,200.4c-18.7-1.1,2.6,16.7,6,22.6,7.4,9.5,12.6-12.8,26.8-.4,28,23.6-5,36.2,41.5,23.7,4.4-.9,6.1-3.2,5.5-7.3-1.2-8.4-2.2-16.9-4.2-25.1-2-8.6-3-9.1-12-9.7-21.7-1.3-43.5-2.6-63.6-3.8h0Zm-232.6,98.1c37.7-6.3,25,1.4,26.5-51.8-4.1-37.2,6-32.8-29.1-32.8,.9,27.9,1.7,56.2,2.6,84.6Zm-12.4-69.6c-7.7,7.6-19.2,9.9-19.1,21.5,.1,22.5-.1,45-.1,67.4,0,9.9,4.9,15.5,14.6,16.8,6.9,.9,8.7-.7,8.6-7.7-.2-33.2-1.6-64.2-4-98h0Zm377.7,58.5c5.9,10.2,14,19.3,13.8,32,0,29.7-26.6,11.8-25.6,24.6,1.5,7.5-5,24.2,6.8,23.9,6.6,.5,13.3,.3,19.9,.3s7.7-1.2,8.4-7.8c1.3-12.6,2.8-25.1,3.9-37.7,.8-9.9,1.3-19.9,1.7-29.9,.1-3.1,.1-7-4.1-7.5-8.2-.8-16.5-1.1-24.8,2.1h0Zm-221.4-143.7c17.8,1.7,31.9-16,19.6-31.1-8-8.2-15.6-16.8-23.7-24.9-9.1-6.9-20.5,5.1-19.3,15.3,.6,7.5,1.6,14.9,2.7,22.3,2.6,16.7,3.8,17.6,20.7,18.4h0Zm-50.3,143.7c-.8-23.5-3-48.4-4.3-72.3-.2-3.7-2.1-5.5-5.9-4.7-7,1.1-15.2,1.6-15.9,10.4-3.2,20.6-4.1,41.4-1.9,62.2,.4,3.3,1.6,4.6,5,4.5,7.5-.3,14.9-.1,23-.1h0ZM204.8,212.54c-4.6-17.9-5.7-36.9-20.5-49.3-2.9-2.4-5.4-2.6-8.4-.2-9.9,7.2-19,14-29.1,21.8,10.7,9.2,17.3,20.8,25.6,31.9,2.4,3.5,3.7,5.2,8,2.4,7.7-4.6,15.2-5.1,24.4-6.6h0Zm169.3,141.7v.1c20.1,1.5,39-2.6,52.5-18.4,2.5-2.7,2.1-4.7-1.6-5.8-20.2-5.9-41-10.5-61.9-4.9-11.4,2.2-13.5,12.6-13.1,22.6-1.1,10.8,17.5,5,24.1,6.4h0Zm200,35.6c2,5.4,1.2,16.8,7.9,20.1,9.9,3,23.5-4.9,26.9-14.6,4-16.3,23.1-20.2,33.9-5.6,2,2.5,4,3.5,7.1,3.5,5-.1,10,.3,15,.5,3.5,.1,7.6,2,9.4-2.9,1.3-3.7-1.2-6.8-6.8-8.9-26.7-4.9-53.5-11.1-80.6-12.9-12.2-.9-11.3,11.3-12.8,20.8h0Zm-382.3-27.4c-.8,9.4,2,16.8,11.2,20.7,6.7,2,13.7,9.5,20,10.2,3.4-.6,11.6-9.4,12-13.3-2.3-13.1-4.8-26.1-7.7-39-3.2-8.5-15.1-7.8-22.2-4.5-10.8,5.3-12.5,15.4-13.3,25.9h0Zm70.2-124.6c.6,.1,1.2,.2,1.8,.4,11.9-9.8,23.8-19.5,35.6-29.4,1.3-1.1,2.8-2.7,3.1-4.3,1.2-6.3,4.4-33.2-6.4-30.6-46.9,18.3-40.3,18.7-34.1,63.9h0Zm40.4-85.4c-.5-4.9,2.3-12.4-5.2-12.4-13.5-1.3-27.1-2.9-40.5-4.7-3.8-.5-5.3,.6-5.5,4.2-.1,5.6-1.6,53.4,9.8,43,10.4-5.5,20.7-11.4,31.5-16.1,9.7-4.1,9.9-3.5,9.9-14h0ZM69.3,374.54c13.8,11.9,27,23.4,40.5,34.7,2.2,1.8,5.5,2.3,8.3,3.4,.7-3,1.8-5.9,2.2-8.8-2.8-14.8-5.3-29.7-8.5-44.5-1.5-6.8-3.8-7.9-10.9-7.2-14.9,1.4-22.4,12.9-31.6,22.4h0Zm460.9,56.2h-1.4c-4.7,15.9-10.6,33.5-28.5,38.5-8.2,2.5-12.1,0-12.8-8.6-1.5-6,3.4-21.1-7.2-18.9-5,2.2-17.3,.6-13.6,9.2,3.4,11.2,5.7,22.9,9.4,34.1,1.5,4.9,3.4,5.1,8,3,15.2-7.1,31.5-11.7,47.1-17.6,13.9-4.2,2.7-30.3-1-39.7h0Zm1.2-127.4c-1-7.2-3.2-12.3-7.6-14.6-15.8-7.7-34.4-13.7-51.8-8-16.6,7.5,35.2,41.3,44.4,41.3,11.1,3.5,11.6-11.8,15-18.7h0Zm82.7-117.4c7.6-2.7,31.5-2.4,23.7-15.9-5.1-9.4-11.4-18.3-17.6-27.1-5.1-4.1-12,1.8-16.4,4.8-10.1,7.2-18.7,15.6-21.1,28.6-.6,3.1,.2,4.8,3.4,5.3,9,1.3,18,2.7,28,4.3h0Zm-47.2-70.5c-.3-.6-.7-1.3-1.1-1.9-26.7-7.2-59.7-1.5-76.9,21.6-3,4.5-2,5.7,3.3,6.7,10.5,.8,24.9,7.6,34.7,5,13.8-9.9,27.5-20,40-31.4h0Zm-60.7,75.3c3.5-9.5,7-18.7,10.3-27.8,1.9-5.1,1.3-7.3-4.1-8.6-15-2-38.5-13.6-46.3,5.9-1.3,3.4-3.8,6.3-5.5,9.5-2,3.9-5.5,13,2.5,11.4,15.2-2.7,29.8,3.4,43.1,9.6h0Zm-191.6,139.5c-.3-.5-.6-1-.8-1.4-21.7-.1-45.7-1.7-65,10.2-9.1,5.5-3.7,16-1.9,23.9,5.1,12.3,21.5,2.5,28.6-3.1,12.8-10.1,26.3-19.4,39.1-29.6h0Zm-173.4,150.5l.4,2.4c10.3,1.3,20.6,2.8,30.9,3.9,4.8-2.7,1.3-10.5,1.4-15.1-1.8-12.1,3.1-16.7,13.5-21.2,4.5-2,7.8-.6,10.4,3,6.5,11.9,6.1,24.8,9.1,38.2,5.8-9.2,3.6-62.6-1.9-69.7-21.3,19.5-42.6,39-63.8,58.5h0Zm404.6-119.7c.4-.7,.8-1.3,1.2-2-18.2-20.1-45.5-25-71.4-23.8-13.3,.4-14.2,1.6-15.1,14.8-.4,5.7,1,7.1,6.6,7.3,26.3,1,52.5,2,78.7,3.7h0Zm-397.4-57.1c-5.7-28.8-2.5-62.7-24.6-85.1-7-6.5-12.6-5.5-17.1,2.9-5.6,8.7,14.6,6.6,17.5,23.1,5,22.2,6.9,44.9,8.7,67.6,1.9,11.6,16.5,1.3,15.5-8.5h0Zm448.2-87.8l.2,1.4c12.2-2.1,24.6-3.6,36.7-6.3,13.6-3,13.3-3.4,11-16.8-.8-4.8-2.8-5-7-4.5-11.7,1.3-23.4,2.1-35.2,2.3-8.2,1.3-26.5-9.3-26.2,5.1,1.1,18,2,19.9,20.5,18.8h0Zm-97.8,302.5c12.6,0,24.2-3.8,33.8-10.8,8.7-6.3,12.1-16.7,8.7-26-1-2.9-2.2-4.4-5.8-3-15.2,5.2-31,9.1-45.4,16.3-8.9,4.6-9.8,8.6-3.2,18,3,4.5,7.3,6,11.9,5.5h0ZM37,182.64c20.6-16.7,40.2-33.9,58-54.9-34.5-1.5-74.9,12-58,54.9Zm489.7,46.1c.2,32.1,44.3,25.8,42.3-5.2-4-26.9-41.8-21.8-42.3,5.2Zm-65.1,140.7l-1.1,.7c-.8,22.9-1.6,45.9-2.5,69.7,8.5-2.2,15.3-5,23.5-6.7,3.9-.7,5.4-2.5,5.7-6.2,.3-8.7,4.4-18.6-1.1-26.4-7.7-10.8-15.7-21.3-24.5-31.1h0Zm-158.3,56.8c2.2-19.9-10-64,21.7-61.1,1.9,.1,3.8-.8,5.7-1.2-.1-.6-.1-1.1-.2-1.7-11.4,.1-53.5-9.5-52.2,9.1,9.1,14-.2,35.7,12.8,44.2,4.9,3.6,7.1,6.3,12.2,10.7h0Zm98.9,43.1c12.7,16.4,6.4,36.5,14.6,38.8,7.1,1.1,18.4,5.8,21.6-3.5,5.2-13.6,2.2-28.3-5.1-40.4-3.7-6.9-23.1,3.8-31.1,5.1h0Zm131.7-145.2c25.3,4,63.5,6.8,79.1-18.5-26.4,5-51.1,3.9-73.5-8-1.9,8.9-3.7,17.4-5.6,26.5h0Zm-40.6,133.3c28.2,5.8,37.7-43.2,17.4-57.6-7.1-6-10.7-5.2-12,3.9-2.4,17.9-3.7,36-5.4,53.7h0Zm-70.3-183.3c2-26.2,9.9-51.4,7.6-77.8-19.8,12.4-41.5,70.6-7.6,77.8ZM86.1,478.04c11.7,2.7,.2-22.1,.8-28.3-3.6-18.9,2.8-23.6,19.3-30.2,3.3-3.1-5.4-7.5-7.6-8.8-1.7-.7-5.2,.2-6.5,1.7-6.4,9.2-30.3,30.5-29.2,40.2,1.4,6.8,3.6,13.5,5.7,20.1,3.1,5.8,11.9,3.7,17.5,5.3h0Zm507.7,36.1l.9-.2c-.1-11.3-8.8-16.5-9.3-26.8-.9-8.2,1.5-33.3-12.7-21.9-13,12.4-9.2,33.3-.7,47.4,3.6,5.8,8,10.7,14.6,12.9,8.8,3.8,7.2-5.8,7.2-11.4h0Zm-27.1-60.3c12.2-3.2,23.2-1.8,25.8,12.1,3.5,8.3-4.3,22.4,6.2,26.4,9.7,5,10.4,.3,15.5-7.5,7-7.3-10.7-20.7-15.2-26.7-11.2-10.9-23.1-21.2-27-37.4,0-.1-.6-.2-1.3-.4-1.3,11-2.6,21.8-4,33.5h0Zm-223.1-131.4c7.6-1.6,13.2-4.9,20.2-7.8,.8-.4,1.3-2.6,1.1-3.9-1.9-11.3-4.1-22.5-6.1-33.8-1.4-7.6-5.1-9-11-4-8.2,8.4-8.9,29-12.8,40.7-1,5,6.5,6.7,8.6,8.8h0Zm-168.2,184.7c0-9.5,0-9.7-9.2-11.7-7.3-1.6-14.7-2.6-22.1-3.8-12.9-4-2.6,20.9-2.6,27.2,2.7,11.8,17,4.1,24.6,2.2,9.2-3.5,9.3-4,9.3-13.9Zm-106.2-143.8c-.5-.6-1-1.2-1.5-1.8-14.4,2.4-28.7,8.3-42.6,13.1-13,5.2-17.2,17.6-11.5,30.6,2.1,4.8,3.5,5,7,1.3,14.8-15.8,32.3-28.9,48.6-43.2h0Zm281.1,44.2c14-10,28.9-18.3,27.6-37.1,.1-11.7-14.9-7.2-22.5-8.2-5.7,0-6.7,1.1-6.8,6.7,.3,13.4-1.3,24.9,1.7,38.6h0Zm280.4,37.1c-5.8-6.3-21.5-32.1-28.2-31-3.9,1.4-21.3,.9-17.7,7.4,14.9,32.5,10.8,29.8,45.9,23.6h0ZM287.1,132.64l.3-1.4c5.3-.5,14.7,2.3,14.1-5.9-.1-6.8-2.7-12.3-8.9-15.6-11.6-6.3-34.4-.3-41.5,10.8-1.9,2.9-.9,4.3,2,5,11.3,2.4,22.6,4.7,34,7.1h0Zm133.8,58.9c-6.5-1.9-13.4-11-18.3-3.8-10.5,12.4-28.8,51.5-4.6,57.6,1.8-20,10.1-37.5,22.9-53.8h0Zm228.4,208.7c2.3,10.5,3.9,19.1,6.2,27.6,1.5,5.5,5.7,8.8,11.1,10.5,15.3,3.6,13.5-26.4,8.5-34.7-4.1-6.4-17.5-2.3-25.8-3.4h0Zm-237.4-21.1l-1.1-.5c1.1-18.4-21.8-23.7-25.6-8.8,0,7.5,.9,14.9,1.6,22.4,.3,11.1,13.7,9.8,18.4,2.7,2.8-5,4.5-10.5,6.7-15.8h0Zm149.2,54.8l-1-.2c1.3-12.5-1.4-15.8-13.1-13.6-6.2,1.4-11.7,3.3-9.1,10.8,2.4,10.3,4.6,20.7,7.2,30.9,1.6,5,9.8,6.3,10.8-.1,1.9-9.3,3.5-18.6,5.2-27.8h0Zm104.5-61.9c-10.9-19.4-63.5-27.3-73.7-10.5,25,.5,48.2,10.1,73.7,10.5Zm-15.4,93.3c-.6,.2-1.1,.4-1.7,.6-1,18.9-3.3,37.7-4.9,56.5-.4,5,1.4,6,5.9,3.8,19.9-13,12.7-44.5,.7-60.9h0Zm-12.5-31.4c4.6-7.6,3-30.6-1.6-36-5.6-8.6-20.5-4.3-18.4,6.2,.4,14,9.6,21.7,20,29.8ZM96.7,497.54c-3.9,9.6-33.5,43.2-10.5,41.6,5.9-1.6,16.5,1.5,16.4-7.3,.7-11.3-1.9-22-5.9-34.3h0ZM359.7,215.74c-2.3-19.9,3.8-33.9-22.6-29-6.6,3-4.8,11.1-4.3,16.9,1,7.9,19.2,8.6,26.9,12.1h0Zm-198.9,237.1c-10.3-6.8-19.8-13.2-29.3-19.5l-1.5,1.3c2.3,13.2-.5,27,5.3,40,8.4-7.1,16.3-13.9,25.5-21.8h0Zm293.3,53.8c7-1.9,16.7-8,15.8-15.1-4.4-13.4-5.5-28.4-12.9-40.5-.5,.2-1,.4-1.5,.5-1.5,18-3.5,36.1-1.4,55.1h0Zm-133.2-153.9v.6c18.7,1,24.6-1.3,16.3-20.7-6.2-9.9-15.7,4.8-22.3,7.7-4.3,3.4-10.2,5.1-12.8,10.3,5.4,3.9,12.5,1.5,18.8,2.1h0Zm59.4,140.6c-.2-11.1-.5-11.4-11.4-8.6-6.6,1.4-12.5,5.5-17.3,9.9-7.4,8.1,8,11.3,13.6,12.3,8.7,.8,16.5-2.1,15.1-13.6Zm-241.4-164.2c16.2,4.1,49.7-4.9,37.8-27-10.7,10.9-27,13.5-37.8,27Zm-63.8,187.6c.7,.1,1.4,.2,2.1,.3,5.4-9.7,10.8-19.4,16.8-30.3-8.9-.8-15.8-1.4-23.5-2.1,1.6,11.5,3.1,21.8,4.6,32.1h0Zm215.1-235.4c14,.1,14-18.3-.7-17.4-14.3-1-11,18.1,.7,17.4Zm140.8,162.7c4.8,6.3,9.1,11.9,13.4,17.4,.4-.2,.8-.4,1.2-.5l3.3-26.6-1.4-.5c-5.6,3.4-11.1,6.8-16.5,10.2h0Zm-1.5-97.8c-.8-.5-1.5-1-2.3-1.5-5.1,3.9-10.2,7.7-15.4,11.7,3.8,4.6,6.6,8,10.5,12.6,2.7-8.6,4.9-15.7,7.2-22.8h0Zm-101.8,118.9c2.5,7.4,6.1,13.6,12,18.8,3.6-13.4-3.7-21.4-12-18.8Zm-118.1,40.7c3.8,11.5,15.6,11,23.2,3.1-8.3-1.1-15.2-2.1-23.2-3.1Zm262.6,9.8c6.2-3.4,8.9-8.9,.5-10.2-3.5-.2-9,3.4-7.9,5.2,1.3,2,4.3,3,7.4,5Zm-81.8-340.9c-.4,.3-.9,.6-1.3,.9v13.1l2,.7c1.6-3.3,3.7-6.5,4.4-10,.3-1.2-3.3-3.1-5.1-4.7h0Zm-234.9,180.6c.4-8.2-3.6-10.5-12-6.9,4.2,2.4,7.8,4.4,12,6.9Z"/>
  <path class="cls-7" d="M553.8,497.34c4.8,15.8,11.2,26.1,23.7,37.1-117.4,135.1-344.7,135.4-461.9-.2-1.2-1.2-2.2-3.2-2.2-4.8,0-19.8-5.9-38.4-10.9-57.3-2.5-9.3-4.4-18.8-6.5-28.2-1.1-4.6,.7-8,5-9.6,5.6-.9,20.5-10.3,20.2,.5,.8,10.3,1.3,20.6,2.1,30.9,1.3,17.9,2.1,36.1,8.2,53.2,6.9,19,7,16.8,24.3,16.4,34.8-1,30.8-29,27.9-55,.8-26.4,9.8-18.6,12.7,1.8,1.7,10.3,2.6,20.8,4.2,31.1,1,6.5,5,10.1,11.8,10.8,24.4,4,29.3-13.3,35.5-8.4,8.5,6.3,18.3,8.1,28.5,6.8,22.5-3,44.8-6.4,67.3-9.5,12.4-.4,24.8,1.7,37.1,1.7,11.9-.6,6.5-17.2,8.3-25.1,.2-3.6-.3-8.2,4.3-9.1,7.2-2.9,8.4,22.3,9.9,27.2,.8,5.4,3.1,8.6,8.5,10.4,10.7,3.6,21,5,31.4-1,4.7-.6,10,3.8,14.8,4.5,10.5,2,21.1,3.2,31.5,5.5,27.9,6.9,48-8.5,64.3-29.7h0Z"/>
  <path class="cls-7" d="M561.2,99.04c-65.9-4.4-83.2,17.8-113.5,71.1l-1.7-.3c-1.4-20.6,5.6-42-2.5-61.8-11.1-20.6-44-14.7-59.6-2.2-4.8,3.7-7.2,8.9-7.3,14.8-.5,18.5-.7,36.9-.9,55.4-.7,12.9,2.1,26.2-2.1,38.7-.7,.1-1.5,.1-2.2,.2-7.9-11.1,3.4-37.2-15.6-37.3-39.3-.8-32.2,3.4-35.8,37.8-14.9-6.1-3-28-4.4-40.2,1.4-32.4,2.6-93-47.4-76.6-6.3,2.5-12.4,5.8-18.3,9.1-12.2,7.3-16-13.8-41.4-8.2-29.2,3.8-58.6,12.7-87.9,12.1C234.3-13.76,439.9-18.86,561.2,99.04Z"/>
  <path class="cls-8" d="M643.7,216.84c-1.8,23.1-.8,48-11.1,69.3-3.6,6.7-9.3,10.7-17.2,12.4-43.2,10.6-79.7-16-119.5-27.3-9.9-3-20.2-1.9-29.7,2.9-13.9,7-16-65.7-13.5-74.6,4.4-24.6,45-5.6,56,5.1,18.8,12.6-1.6,37,22.4,49.3,15.8,8.6,42.5,4.4,47.5-21.4,1.8-9.4,3-9.5,12.8-8.9,17.9,1.9,35.2-3.3,52.3-6.8h0Z"/>
  <path class="cls-8" d="M214.3,108.04c5.3,1.6,12.1,3.5,18.7,5.8,5.6,3.5,10.1,12.1,.4,13.8-24.6,7.5-47.5,18.4-68.9,32.5-24,15.8-44.6,35.3-63.2,57-5.8,6.8-13,10.5-21.9,11.7-7.2,1-14.3,3.1-21.4,4.7-8.3,1.9-10.7,1-12.7-7.2-.9-7.6-10.2-35-3.4-38.5,22.4-15.9,42.2-34.5,60.1-55.3,5.2-6.1,11.6-7.9,19.2-9.1,31.9-5.2,60.3-11.5,93.1-15.4h0Z"/>
  <path class="cls-4" d="M247,214.84c11.5,34.3,7.5,71.7,30.3,102-13.6,4.5-27.6,2.2-38.1,13.1-.8,.8-3.7,.4-5.1-.3-18-9.4-54.4-3.5-53.9,21.2,1.4,17.1,4.6,34.2,5.2,51.5,.2,4.9-2.8,7.2-8,7.4-4.7,.1-5.3-3.2-5.6-6.7-1.1-14.3-1.6-28.6-3.1-42.8-.7-6.4-2.6-12.7-4.9-18.7-1.5-4-.4-5.5,3.1-6.5,14.1-2.1,21.2-7.2,22.3-21.9,2.2-22.3-3.1-44.4-5-66.5-1.4-20.2,1.3-19.1,16.5-21.5,16-3.1,31.5-2,46.3-10.3h0Z"/>
  <path class="cls-7" d="M130.3,337.84c-8.2,4.7-16.2,6.9-25.5,4.1-23.9-4.7-45.6,10.6-68,16.8-3.4-36.6-1.5-72.5,7.3-108.2,.8-3.4,2.2-4.1,5.7-4.4,15.4-1.4,30.6-5.5,45.9-6.5,41.7,1.3,14.1,73.1,34.6,98.2h0Z"/>
  <path class="cls-12" d="M273.4,284.04c6.2,2.3,10.6,4.7,15.4,5.7,11.8,2.3,24.1-11.1,21.2-22.6-6.9-18.3-29.5-15.2-39.6,.4-.9-7.4-6.5-14.5-2.1-20.4,9.5-9.5,19.2-18.9,28.9-28.3,11.2-8.7,10.1,21.3,27.3,8.4,4.3-2.4,6.9-9.6,11.9-10.6,12.7,3.4,25.5,6.8,35.2,16.7,4,4.3,8.8,9.6,1.6,13.5-5.8,2.8-7.7,13-15.1,11.3-13.9-3.1-21.5,1.5-25.4,15.3-4.6,14.6-4.8,42.6-24,42.5-23.3,2.2-30.6-13.5-35.3-31.9h0Z"/>
  <path class="cls-8" d="M609,133.24c-24.5,14-37.3,39.3-40.6,67-14.6-5.3-29.8-10.7-42.3,1.7-3.1,2.9-4.8,.7-6.2-1.7-6.4-10.5-4.1-20.9,1.3-30.8,12.5-21.6,38.1-29.8,52.5-49.9,4.1-5.4,7-6.1,12.9-2.8,7.8,4.5,15.3,9.6,23,14.5-.2,.7-.4,1.3-.6,2h0Z"/>
  <path class="cls-10" d="M286.8,424.44c21.1,12.8,10,23.4,21.8,35.3,6.1,4.3,45.7,47.8,24,46.6-24.7,2.7-49.6,2.8-74.4,.9-10.1-2.3-7.1-15.5-7.9-23.3,.1-4.8,3.3-7.9,8-9.1,9.3-3.9,25.6-.9,27.5-13.6,1.5-12.7,.8-23.4,1-36.8h0Z"/>
  <path class="cls-2" d="M195.7,390.14c5.9,.7,19.9,7,15.1,13-13.2,13.8-26,28.1-40.4,40.7-2.9,2.8-5.6,2.4-8.9,.3-9-5.9-18.3-11.4-27.2-17.5-1.9-1.3-3.7-4-3.9-6.2-1.5-20.5-4.4-41.1-4.4-61.7,.6-7.5,1.7-8.6,8.4-5.1,8.1,4.1,15.8,9.1,22.9,14.8,2.3,1.8,2.5,6.8,3,10.4,1.4,11,2.1,22.1,3.7,33.1,1.4,13.4,18.1,6.5,26.7,4.8,9.4-4.2,5.4-18.1,5-26.6h0Z"/>
  <path class="cls-6" d="M436.2,148.04c-.7,12.6-1.2,21.7-1.6,30.9-.2,3.2-1.4,5.3-4.9,4.1-9.6-3.2-19.6-5.5-28.6-10.1-20.2-8.5-18.7-30.8-13.2-49.7,3.7-18.1,23-19,37.9-16.1,4.5,.7,7.2,3.7,7.6,8.6,.9,11.9,2,23.8,2.8,32.3h0Z"/>
  <path class="cls-13" d="M650.3,260.24c7.4,29,9.2,58.3,7.1,88.2-35.3-12.9-68-15.8-91.3,20.9-7.6-10.1-15.1-20.1-23.2-30.9,5.7,0,10.6-.5,15.4,.1,45.4,4.6,88.3-33.6,92-78.3h0Z"/>
  <path class="cls-5" d="M352.5,477.64c-.9-10.6-1.8-21.1-2.5-31.7-1.5-14-2-30.1,12.2-37.7,4.4-1.3,12.8-12.3,15.8-6.5,10.7,17.5,27.6,3.2,23.7,14.2-5.9,16.6-11.7,33.3-17.7,49.9-.6,1.8-1.9,3.9-3.5,4.7-8.3,3.9-16.7,7.4-25.1,10.9-3.7,1.6-4.4-.7-2.9-3.8h0Z"/>
  <path class="cls-10" d="M16.5,426.44c5.7-14.8,22.1-25.2,32.8-36.8,5.1-3.7,10.9-13.5,17.6-7.5,6.8,5.8,13.3,11.9,19.9,18,3,2.8,2.6,5.4-.2,8.5-6.8,7.5-14,14.8-19.6,23.2-4.3,6.4-7.9,9.9-16.1,7.2-12.6-1.8-34,9.2-34.4-12.6h0Z"/>
  <path class="cls-10" d="M441,341.74c13.4,16.4,11.6,37.2,8.4,56.7-2.6,15.7-13,26.2-25.4,34.9-12.9,8.6,5.8,15.5-4.5,20.7-7.9,3.6-15.9,7.2-23.8,10.8-.4-.4-.7-.8-1.1-1.2,13.8-41.2,31.4-80.9,46.4-121.9h0Z"/>
  <path class="cls-6" d="M179.1,285.64c-.9,7.1-19.1,27.4-23,13.7-1.9-24.6-6.6-48.7-14.2-72.3-4.2-17.2-25.4-18.4-15.1-26.8,9.4-9.6,12.9-11.8,22.9-1,23.3,22.6,22.6,56.8,29.4,86.4h0Z"/>
  <path class="cls-6" d="M242.2,166.04c-.5,10.1-1.2,20.2-1.6,30.3,.7,8.8-21.2,23.1-27.1,11.3-8.5-60.9-47-46.6,14.2-70.2,7-1.7,13.4-2.9,12.6,6.6,.2,7.3,.6,14.6,1,21.9l.9,.1h0Z"/>
  <path class="cls-1" d="M436.5,247.44c.6-3.8,1-7.5,1.7-11.3,.8,.3,1.6,.6,2.5,1,2.4,12.6,4.7,25.1,9.8,37l-.1,.3,.3,.2c2.7,6.6,6.4,12.7,9.9,18.9v.5c9.2,11.3,17.3,20.3,29.8,29.3-9.5,2.6-17.8,.5-27.3,.7-10.3-1.1-9.3,3.4-11.8,11.9-9.3-10.1-20.3-16-33-18.7-.1-1.4-.2-2.7-.4-4.1,.5-.8,1-1.6,1.5-2.5l.3-.2-.1-.3c6.9-14,11.2-29,13.9-44.3l.4-.1-.3-.3c1-6,1.8-12,2.9-18h0Z"/>
  <path class="cls-15" d="M480.5,366.44c20.1,1.2,41.9,2.5,63.6,3.9,9,.6,10,1.1,12,9.7,2,8.2,3,16.7,4.2,25.1,.6,4.1-1.2,6.5-5.5,7.3-46.4,12.5-13.5-.1-41.5-23.7-14.3-12.4-19.4,9.9-26.8,.4-3.4-6-24.6-23.8-6-22.7h0Z"/>
  <path class="cls-11" d="M247.9,464.54c-.9-28.4-1.8-56.7-2.6-84.6,35.2,0,25.1-4.4,29.2,32.8-1.5,53.2,11.1,45.5-26.6,51.8h0Z"/>
  <path class="cls-5" d="M235.5,395.04c2.4,33.8,3.8,64.7,4,98,.1,7-1.7,8.5-8.6,7.7-9.7-1.2-14.6-6.8-14.6-16.8,0-22.5,.2-45,.1-67.4-.1-11.6,11.4-13.9,19.1-21.5h0Z"/>
  <path class="cls-2" d="M613.1,453.44c8.3-3.2,16.6-2.9,24.9-2,4.2,.5,4.2,4.3,4.1,7.5-.4,10-.8,19.9-1.7,29.9-1.1,12.6-2.5,25.1-3.9,37.7-.7,6.6-1.9,7.8-8.4,7.8s-13.3,.2-19.9-.3c-11.8,.4-5.3-16.4-6.8-23.9-1.1-12.8,25.6,5.1,25.6-24.6,.2-12.8-7.9-21.8-13.9-32.1h0Z"/>
  <path class="cls-16" d="M391.8,309.74c-16.9-.8-18.1-1.7-20.7-18.5-1.7-13.2-8.2-35.9,10-39.6,8.5-1.1,22.8,21.1,30.2,27,12.3,15.2-1.7,32.8-19.5,31.1h0Z"/>
  <path class="cls-1" d="M341.5,453.44c-8.1,0-15.5-.1-22.9,.1-3.4,.1-4.7-1.2-5-4.5-2.2-20.8-1.3-41.5,1.9-62.2,.7-8.8,8.8-9.3,15.9-10.4,3.9-.8,5.7,1,5.9,4.7,1.2,23.9,3.4,48.7,4.2,72.3h0Z"/>
  <path class="cls-16" d="M204.8,212.54c-9.2,1.5-16.7,2-24.4,6.5-4.2,2.8-5.6,1.1-8-2.4-8.3-11.1-14.9-22.7-25.6-31.9,10-7.7,19.2-14.5,29.1-21.8,3-2.4,5.5-2.2,8.4,.2,14.8,12.5,15.9,31.5,20.5,49.4h0Z"/>
  <path class="cls-2" d="M374.1,354.24c-6.7-1.4-25.2,4.5-24.2-6.4-.4-10,1.8-20.4,13.1-22.6,20.9-5.5,41.8-1,61.9,4.9,3.7,1,4.1,3.1,1.6,5.8-13.4,15.9-32.3,20-52.5,18.4l.1-.1h0Z"/>
  <path class="cls-5" d="M574.1,389.84c1.5-9.5,.6-21.7,12.8-20.7,7.9,.3,15.9,1.3,23.7,2.6,18,3,36,6.4,54,9.6,5.5,.8,11.8,5.2,9.7,9.6-1.7,4.9-5.9,3-9.4,2.9-7.2-1.5-16.8,2.3-22.1-3.9-10.9-14.7-29.9-10.7-33.9,5.6-3.4,9.7-17,17.5-26.9,14.6-6.8-3.5-5.8-14.9-7.9-20.3h0Z"/>
  <path class="cls-15" d="M191.8,362.44c.8-10.5,2.5-20.6,13.4-25.9,7-3.3,19-4,22.2,4.5,2.9,13,5.4,26,7.7,39-.5,4-8.6,12.6-12,13.3-6.3-.8-13.3-8.2-20-10.2-9.3-4-12.1-11.3-11.3-20.7h0Z"/>
  <path class="cls-6" d="M262,237.94c-6.2-45.3-12.7-45.7,34-63.9,10.9-2.7,7.7,24.3,6.5,30.6-.3,1.6-1.8,3.2-3.1,4.3-11.8,9.9-23.7,19.6-35.6,29.4-.7-.2-1.2-.3-1.8-.4h0Z"/>
  <path class="cls-16" d="M302.4,152.44c0,10.5-.2,9.9-9.8,14-10.8,4.7-21.1,10.5-31.5,16.1-11.5,10.4-9.9-37.3-9.8-43,.2-3.7,1.7-4.7,5.5-4.2,13.5,1.8,27,3.4,40.5,4.7,7.4,0,4.6,7.6,5.1,12.4h0Z"/>
  <path class="cls-2" d="M69.3,374.54c9.2-9.5,16.7-21.1,31.6-22.5,7.1-.7,9.4,.4,10.9,7.2,3.2,14.8,5.7,29.6,8.5,44.5-.4,3-1.5,5.9-2.2,8.8-2.8-1.1-6.2-1.5-8.3-3.4-13.5-11.1-26.7-22.7-40.5-34.6h0Z"/>
  <path class="cls-5" d="M530.2,430.74c4.8,10.6,7.9,21.7,7.6,33.5-3.9,9.4-24.8,11.4-33.9,16-6.7,2.5-13.3,5.2-19.8,8.1-4.6,2-6.4,1.8-8-3-3.7-11.2-6-22.9-9.4-34.1-3.7-8.7,8.6-7.1,13.6-9.2,10.6-2.2,5.7,12.9,7.2,18.9,.7,8.6,4.6,11.1,12.8,8.6,17.9-5,23.8-22.6,28.5-38.5l1.4-.3h0Z"/>
  <path class="cls-16" d="M531.4,303.34c-3.4,6.9-3.9,22.1-15,18.7-9.1,0-61-33.9-44.4-41.3,17.4-5.6,36,.4,51.8,8,4.4,2.3,6.6,7.5,7.6,14.6h0Z"/>
  <path class="cls-12" d="M614,185.94c-10-1.5-19-3-28-4.3-3.2-.5-4-2.2-3.4-5.3,3.2-16.5,16.9-27.2,31-34.4,1.9-.7,5.6-.3,6.6,1,6.2,8.8,12.5,17.6,17.6,27.1,7.7,13.5-16.1,13.2-23.8,15.9h0Z"/>
  <path class="cls-16" d="M566.9,115.44c-12.5,11.4-26.2,21.5-40,31.4-9.6,2.6-24.3-4.2-34.7-5-5.2-.9-6.3-2.2-3.3-6.7,17.2-23.2,50.2-28.9,76.9-21.6,.4,.6,.8,1.3,1.1,1.9h0Z"/>
  <path class="cls-12" d="M506.2,190.74c-13.3-6.2-27.8-12.3-42.9-9.6-8.1,1.6-4.5-7.5-2.5-11.4,1.7-3.2,4.1-6.1,5.5-9.5,7.7-19.5,31.2-7.9,46.3-5.9,5.4,1.3,6,3.5,4.1,8.6-3.6,9.2-7,18.3-10.5,27.8h0Z"/>
  <path class="cls-15" d="M314.5,330.24c-12.7,10.3-26.2,19.5-39.1,29.6-7.1,5.5-23.5,15.3-28.6,3.1-1.8-8-7.2-18.5,1.9-23.9,19.2-11.8,43.3-10.3,65-10.2,.3,.4,.6,.9,.8,1.4Z"/>
  <path class="cls-2" d="M141.2,480.74c21.2-19.5,42.5-39,63.7-58.5,5.5,7,7.6,60.4,1.9,69.7-3-13.3-2.6-26.3-9.1-38.2-2.5-3.7-5.9-5-10.4-3-10.4,4.5-15.3,9.1-13.5,21.2,0,4.5,3.4,12.4-1.4,15.1-10.3-1.1-20.6-2.5-30.9-3.9l-.3-2.4h0Z"/>
  <path class="cls-10" d="M545.8,361.04c-26.2-1.7-52.4-2.7-78.6-3.8-5.6-.2-6.9-1.6-6.6-7.3,.9-13.2,1.8-14.4,15.1-14.8,25.8-1.1,53.2,3.7,71.4,23.8-.5,.7-.9,1.4-1.3,2.1h0Z"/>
  <path class="cls-16" d="M148.4,303.94c.9,9.8-13.7,20.1-15.4,8.5-1.9-22.6-3.7-45.4-8.7-67.6-3-16.7-23.1-14.4-17.5-23.1,4.5-8.4,10.1-9.4,17.1-2.9,22,22.3,18.9,56.3,24.5,85.1h0Z"/>
  <path class="cls-6" d="M596.5,216.14c-18.4,1.1-19.4-.8-20.5-18.9-.3-14.4,18-3.8,26.2-5.1,11.7-.2,23.5-1,35.2-2.3,4.3-.5,6.2-.3,7,4.5,2.3,13.4,2.6,13.8-11,16.8-12.1,2.7-24.4,4.3-36.7,6.3l-.2-1.3h0Z"/>
  <path class="cls-2" d="M498.8,518.64c-4.6,.5-8.9-1-12-5.4-6.5-9.4-5.6-13.5,3.2-18,14.4-7.2,30.3-11.2,45.4-16.3,3.7-1.4,4.8,.1,5.8,3,3.4,9.4,0,19.8-8.7,26-9.6,6.9-21.1,10.6-33.7,10.7Z"/>
  <path class="cls-6" d="M37,182.64c-16.9-42.9,23.5-56.4,58-54.9-17.8,20.9-37.5,38.2-58,54.9Z"/>
  <path class="cls-11" d="M526.7,228.74c.5-27.1,38.3-32.1,42.3-5.2,2,31-42.2,37.3-42.3,5.2Z"/>
  <path class="cls-2" d="M461.6,369.34c8.8,9.8,16.8,20.4,24.6,31,5.5,7.8,1.4,17.7,1.1,26.4-.3,3.7-1.9,5.5-5.8,6.2-8.3,1.8-15,4.5-23.5,6.7,.9-23.8,1.7-46.7,2.5-69.7l1.1-.6h0Z"/>
  <path class="cls-2" d="M303.3,426.24c-5.1-4.5-7.2-7.1-12.1-10.6-12.9-8.4-3.7-30.2-12.8-44.2-1.3-18.7,40.7-9,52.2-9.1,.1,.6,.1,1.1,.2,1.7-1.9,.4-3.9,1.3-5.7,1.2-31.8-3-19.6,41.2-21.8,61h0Z"/>
  <path class="cls-2" d="M402.2,469.34c8-1.4,27.3-12,31.1-5.1,7.3,12.1,10.4,26.8,5.1,40.4-3.2,9.3-14.6,4.6-21.6,3.5-1.9-.6-4.4-3.1-4.4-4.8-.6-11.7-2.6-22.8-10.2-34h0Z"/>
  <path class="cls-6" d="M533.8,324.14c1.9-9.1,3.7-17.5,5.6-26.5,22.4,11.9,47.1,12.9,73.5,8-15.5,25.2-53.7,22.5-79.1,18.5h0Z"/>
  <path class="cls-13" d="M493.3,457.44c1.7-17.8,3-35.9,5.5-53.8,1.2-9.1,4.9-9.9,12-3.9,20.2,14.5,10.7,63.5-17.5,57.7h0Z"/>
  <path class="cls-6" d="M423,274.14c-33.9-7.2-12.2-65.4,7.6-77.8,2.3,26.4-5.6,51.5-7.6,77.8Z"/>
  <path class="cls-15" d="M86.1,478.04c-5.6-1.6-14.3,.5-17.5-5.3-2.2-6.6-4.3-13.3-5.7-20.1-1.2-9.6,22.8-31,29.2-40.2,1.3-1.5,4.8-2.4,6.5-1.7,2.2,1.3,10.9,5.8,7.6,8.8-16.5,6.6-22.9,11.3-19.3,30.2-.7,6.3,10.8,31-.8,28.3Z"/>
  <path class="cls-10" d="M593.8,514.14c-.1,5.6,1.5,15.2-7.3,11.4-6.7-2.3-11.1-7.1-14.6-12.9-8.5-14.1-12.3-35,.7-47.4,14.2-11.4,11.9,13.8,12.7,21.9,.5,10.4,9.3,15.5,9.3,26.8l-.8,.2h0Z"/>
  <path class="cls-9" d="M566.7,453.84c1.4-11.7,2.7-22.5,4-33.4,.8,.2,1.3,.2,1.3,.4,3.9,16.1,15.8,26.4,27,37.4,4.5,6,22.2,19.5,15.2,26.7-5.2,7.7-5.8,12.5-15.5,7.5-10.5-4-2.8-18.1-6.2-26.4-2.5-14-13.6-15.4-25.8-12.2h0Z"/>
  <path class="cls-13" d="M343.6,322.44c-2.2-2.1-9.6-3.9-8.5-8.7,3.9-11.7,4.6-32.2,12.8-40.7,5.9-5,9.6-3.6,11,4,2,11.3,4.2,22.5,6.1,33.8,.2,1.2-.3,3.5-1.1,3.9-7,2.8-12.6,6.2-20.3,7.7h0Z"/>
  <path class="cls-10" d="M175.4,507.14c0,9.9-.1,10.4-9.3,13.9-7.6,1.9-21.9,9.6-24.6-2.2-.1-6.3-10.4-31.2,2.5-27.2,7.4,1.2,14.8,2.2,22.1,3.8,9.3,2,9.3,2.2,9.3,11.7h0Z"/>
  <path class="cls-15" d="M69.2,363.24c-16.2,14.3-33.8,27.4-48.6,43.2-3.5,3.8-4.9,3.5-7-1.3-5.7-13-1.5-25.4,11.5-30.6,13.9-4.8,28.1-10.7,42.6-13.1,.5,.7,1,1.2,1.5,1.8h0Z"/>
  <path class="cls-2" d="M350.3,407.54c-3-13.6-1.4-25.2-1.7-38.6,0-5.7,1.1-6.7,6.8-6.7,7.6,1,22.6-3.5,22.5,8.2,1.3,18.7-13.6,27-27.6,37.1h0Z"/>
  <path class="cls-2" d="M630.7,444.54c-35.1,6.3-31,8.9-45.9-23.7-3.6-6.5,13.8-6,17.7-7.4,6.6-1,22.4,24.9,28.2,31.1h0Z"/>
  <path class="cls-8" d="M287.1,132.64c-11.3-2.4-22.7-4.7-34-7.1-13.7-5.7,25.5-25.7,39.5-15.8,6.2,3.4,8.8,8.8,8.9,15.6,.6,8.2-8.8,5.5-14.1,5.9l-.3,1.4h0Z"/>
  <path class="cls-16" d="M420.9,191.54c-12.9,16.2-21.1,33.8-22.9,53.9-24.2-6.1-5.9-45.3,4.6-57.6,5-7.3,11.9,1.8,18.3,3.7h0Z"/>
  <path class="cls-2" d="M649.3,400.24c8.3,1,21.7-3,25.8,3.4,5,8.3,6.8,38.3-8.5,34.7-5.4-1.8-9.7-5-11.1-10.5-2.3-8.5-3.9-17.1-6.2-27.6h0Z"/>
  <path class="cls-13" d="M411.9,379.14c-2.2,5.3-4,10.8-6.8,15.7-4.6,7.1-18.1,8.4-18.4-2.7-.6-7.5-1.5-14.9-1.6-22.4,3.9-14.9,26.7-9.6,25.6,8.8l1.2,.6h0Z"/>
  <path class="cls-2" d="M561.1,433.94c-1.7,9.3-3.3,18.6-5.1,27.8-.9,6.4-9.2,5.1-10.8,.1-2.7-10.2-4.8-20.6-7.2-30.9-2.6-7.5,2.8-9.4,9.1-10.8,11.7-2.1,14.3,1,13.1,13.6l.9,.2h0Z"/>
  <path class="cls-2" d="M665.6,372.04c-25.5-.4-48.7-10-73.7-10.5,10.2-16.8,62.8-8.9,73.7,10.5Z"/>
  <path class="cls-15" d="M650.2,465.44c12,16.4,19.2,47.8-.7,60.9-4.5,2.2-6.3,1.2-5.9-3.8,1.6-18.8,3.9-37.6,4.9-56.5,.6-.2,1.1-.4,1.7-.6h0Z"/>
  <path class="cls-13" d="M637.7,433.94c-10.4-8.1-19.6-15.8-20-29.8-2.1-10.5,12.8-14.9,18.4-6.2,4.6,5.5,6.2,28.4,1.6,36h0Z"/>
  <path class="cls-2" d="M96.7,497.54c4,12.2,6.7,23,5.9,34.3,.2,8.8-10.5,5.7-16.4,7.3-23,1.7,6.6-31.9,10.5-41.6h0Z"/>
  <path class="cls-8" d="M359.7,215.74c-7.7-3.4-25.9-4.2-27-12.2-.5-5.8-2.3-13.9,4.3-16.9,26.5-4.8,20.4,9.2,22.7,29.1h0Z"/>
  <path class="cls-2" d="M160.8,452.84c-9.2,7.9-17.1,14.6-25.4,21.8-5.8-13-3.1-26.8-5.3-40l1.5-1.3c9.4,6.4,19,12.7,29.2,19.5h0Z"/>
  <path class="cls-2" d="M454.1,506.54c-2-19-.1-37,1.5-55,.5-.2,1-.4,1.5-.5,7.4,12.1,8.5,27.1,12.9,40.5,.7,7.1-8.9,13.2-15.9,15h0Z"/>
  <path class="cls-2" d="M320.9,352.74c-6.2-.6-13.4,1.8-18.8-2,2.6-5.2,8.5-6.9,12.8-10.3,6.6-2.9,16.2-17.6,22.3-7.7,8.3,19.4,2.4,21.7-16.3,20.7v-.7h0Z"/>
  <path class="cls-2" d="M380.3,493.34c2.1,17.2-16.3,15-26.4,10.1-13.2-6.2,8.4-17.5,15-18.8,10.8-2.6,11.1-2.4,11.4,8.7Z"/>
  <path class="cls-8" d="M138.9,329.14c10.8-13.4,27.1-16.1,37.8-27,11.9,22.1-21.7,31.1-37.8,27Z"/>
  <path class="cls-2" d="M75.1,516.74c-1.5-10.3-3-20.6-4.7-32.1,7.7,.7,14.7,1.3,23.5,2.1-6.1,10.9-11.4,20.6-16.8,30.3-.7-.2-1.4-.2-2-.3Z"/>
  <path class="cls-8" d="M290.2,281.34c-11.7,.7-15.1-18.4-.7-17.4,14.8-1,14.8,17.5,.7,17.4Z"/>
  <path class="cls-9" d="M431,444.04c5.4-3.4,10.9-6.8,16.4-10.2l1.4,.5-3.3,26.6c-.4,.2-.8,.4-1.2,.5-4.2-5.5-8.5-11.1-13.3-17.4h0Z"/>
  <path class="cls-2" d="M429.5,346.24c-2.2,7.1-4.5,14.2-7.2,22.9-3.9-4.7-6.7-8.1-10.5-12.6,5.2-4,10.3-7.8,15.4-11.7,.7,.5,1.5,.9,2.3,1.4h0Z"/>
  <path class="cls-2" d="M327.7,465.14c8.3-2.6,15.7,5.4,12,18.8-5.9-5.2-9.5-11.4-12-18.8Z"/>
  <path class="cls-2" d="M209.6,505.84c8,1.1,14.9,2,23.2,3.1-7.7,7.8-19.5,8.3-23.2-3.1Z"/>
  <path class="cls-10" d="M472.2,513.54c-3.1-2-6.1-3-7.4-5-1.1-1.8,4.4-5.3,7.9-5.2,8.4,1.4,5.7,6.8-.5,10.2Z"/>
  <path class="cls-8" d="M390.4,174.74c1.8,1.6,5.4,3.5,5.1,4.6-.7,3.5-2.8,6.7-4.4,10l-2-.7v-13.1c.5-.2,.9-.5,1.3-.8h0Z"/>
  <path class="cls-2" d="M157.9,357.34c-4.2-2.4-14.5-8.9-18-10.2,8.4-3.5,18.4,1.9,18,10.2Z"/>
  <path class="cls-14" d="M440.7,237.14c-.8-.3-1.6-.6-2.5-1,0-.9,.1-1.7,.1-2.6l1.1-.3c.5,1.3,.9,2.6,1.3,3.9h0Z"/>
  <path class="cls-14" d="M444.7,257.14c-.4-1.9-.9-3.7-1.3-5.6,.5,1.9,.9,3.8,1.3,5.6Z"/>
  <path class="cls-14" d="M446.8,264.24c-.5-1.6-.9-3.2-1.4-4.8,.5,1.6,.9,3.2,1.4,4.8Z"/>
  <path class="cls-14" d="M427.4,290.44c-.5,1.6-1.1,3.1-1.6,4.7,.5-1.6,1.1-3.1,1.6-4.7Z"/>
  <path class="cls-14" d="M417.8,313.04c.1,1.4,.3,2.7,.4,4.1-2.8-.8-2.8-1.2-.4-4.1Z"/>
  <path class="cls-14" d="M435.5,253.64c-.2,1.2-.4,2.4-.6,3.6,.2-1.2,.4-2.4,.6-3.6Z"/>
  <path class="cls-14" d="M436.5,247.44c-.2,.9-.3,1.9-.5,2.8,.2-.9,.4-1.8,.5-2.8Z"/>
  <path class="cls-14" d="M442.9,248.24c-.2-.9-.3-1.9-.5-2.8,.2,1,.3,1.9,.5,2.8Z"/>
  <path class="cls-14" d="M437.5,240.44c-.1,.9-.2,1.7-.3,2.6,.1-.9,.2-1.8,.3-2.6Z"/>
  <path class="cls-14" d="M454.1,282.04c-.3-.7-.7-1.4-1-2.1,.3,.8,.7,1.5,1,2.1Z"/>
  <path class="cls-14" d="M430.5,279.54c-.2,.6-.3,1.1-.5,1.7,.1-.6,.3-1.1,.5-1.7Z"/>
  <path class="cls-14" d="M434.5,259.44c-.1,.6-.2,1.1-.3,1.7,.1-.5,.2-1.1,.3-1.7Z"/>
  <path class="cls-14" d="M432.5,270.44c-.1,.6-.3,1.2-.4,1.8,.1-.6,.3-1.2,.4-1.8Z"/>
  <path class="cls-14" d="M422.7,303.14c-.3,.7-.6,1.3-.9,2,.3-.7,.6-1.4,.9-2Z"/>
  <path class="cls-14" d="M431.4,275.44c-.1,.6-.3,1.2-.5,1.8,.2-.6,.4-1.2,.5-1.8Z"/>
  <path class="cls-14" d="M428.6,286.44c-.1,.6-.3,1.1-.4,1.7,.1-.6,.2-1.2,.4-1.7Z"/>
  <path class="cls-14" d="M461,294.14l-.4-.2q0-.5,.4-.3v.5h0Z"/>
  <path class="cls-14" d="M433.4,265.44l.3,.3c-.2,.1-.4,.2-.5-.1l.2-.2Z"/>
  <path class="cls-14" d="M424.6,298.04c-.1,.2-.2,.5-.3,.7l-.1-.5,.4-.2h0Z"/>
  <path class="cls-14" d="M419.4,310.14l.1,.3q-.3,.2-.4-.2l.3-.1h0Z"/>
  <path class="cls-14" d="M450.6,274.64l-.3-.2q.1-.4,.5-.1l-.2,.3Z"/>
</svg>