<?xml version="1.0" standalone="no"?>
<!DOCTYPE svg PUBLIC "-//W3C//DTD SVG 20010904//EN"
 "http://www.w3.org/TR/2001/REC-SVG-20010904/DTD/svg10.dtd">
<svg version="1.0" xmlns="http://www.w3.org/2000/svg"
 width="689.000000pt" height="689.000000pt" viewBox="0 0 689.000000 689.000000"
 preserveAspectRatio="xMidYMid meet">
<metadata>
Created by potrace 1.14, written by Peter Selinger 2001-2017
</metadata>
<g transform="translate(0.000000,689.000000) scale(0.100000,-0.100000)"
fill="#000000" stroke="none">
<path d="M3289 6686 c-2 -2 -40 -7 -84 -10 -44 -3 -93 -8 -110 -11 -79 -12
-103 -16 -140 -20 -22 -3 -51 -7 -65 -10 -58 -12 -77 -16 -106 -20 -17 -3 -44
-9 -58 -15 -15 -5 -30 -9 -34 -8 -9 2 -52 -9 -109 -28 -23 -7 -52 -15 -65 -18
-13 -2 -60 -18 -106 -34 -45 -17 -83 -31 -85 -31 -1 0 -15 -5 -32 -12 -16 -7
-32 -13 -35 -14 -69 -24 -293 -132 -400 -195 -81 -47 -293 -184 -325 -211 -11
-9 -67 -54 -125 -100 -58 -46 -176 -155 -264 -241 -87 -87 -164 -158 -170
-158 -7 0 -16 -3 -20 -7 -3 -4 -14 -8 -24 -9 -14 -2 -59 -11 -97 -19 -33 -7
-125 -26 -146 -30 -35 -7 -67 -13 -124 -25 -27 -6 -61 -12 -74 -15 -75 -14
-174 -93 -212 -168 -12 -23 -22 -44 -21 -47 0 -3 -5 -14 -11 -25 -24 -46 -37
-161 -32 -295 2 -74 6 -146 9 -160 2 -14 7 -41 10 -60 12 -65 57 -238 75 -288
18 -50 20 -113 7 -192 -4 -19 -8 -47 -11 -62 -2 -15 -6 -35 -9 -45 -3 -10 -7
-34 -10 -53 -3 -19 -8 -46 -11 -60 -3 -14 -7 -39 -9 -55 -3 -17 -7 -42 -10
-55 -7 -28 -14 -77 -24 -170 -9 -80 -9 -446 0 -557 7 -93 4 -98 -73 -127 -55
-20 -108 -69 -134 -122 -34 -70 -27 -216 19 -385 22 -84 108 -305 124 -321 23
-23 76 -27 161 -13 61 11 80 12 127 6 10 -1 87 -161 86 -178 0 -4 7 -16 15
-25 9 -10 13 -18 9 -18 -4 0 -2 -9 4 -21 7 -11 13 -30 16 -42 9 -47 13 -69 18
-85 5 -18 11 -58 21 -137 4 -27 8 -57 10 -65 2 -8 7 -37 11 -65 3 -27 8 -59
11 -70 2 -11 7 -35 10 -54 8 -51 49 -185 65 -210 15 -24 87 -63 100 -54 6 3
29 6 52 8 23 1 64 12 91 24 26 11 64 21 84 21 32 0 45 -9 107 -73 102 -104
177 -173 279 -256 87 -70 303 -219 375 -257 19 -11 37 -22 40 -25 7 -8 298
-149 308 -149 5 0 26 -8 48 -19 35 -17 262 -98 274 -99 3 0 37 -9 75 -20 39
-12 81 -23 95 -26 14 -3 36 -8 50 -11 27 -6 34 -8 150 -29 104 -20 148 -27
200 -31 25 -2 70 -7 100 -12 67 -9 520 -9 610 0 138 14 165 18 180 22 8 2 38
6 65 10 28 3 70 11 95 16 25 6 54 12 65 14 35 6 68 14 145 35 98 27 107 29
128 34 29 7 225 76 257 91 17 7 53 22 80 33 137 55 430 219 570 319 124 89
252 199 393 340 84 84 159 153 166 153 7 0 26 -4 42 -10 29 -9 57 -15 149 -30
66 -11 228 -5 285 9 288 75 401 339 293 681 -23 71 -106 234 -146 284 -26 32
-28 38 -12 32 98 -40 147 -47 208 -34 28 7 83 62 105 105 37 73 42 108 47 292
2 119 -1 157 -16 214 -26 91 -63 167 -103 211 -46 52 -48 61 -52 219 -12 518
-29 706 -85 947 -11 47 -29 110 -39 140 -13 38 -20 96 -24 185 -5 126 -10 182
-21 235 -2 14 -7 40 -10 58 -9 56 -64 217 -96 284 -106 219 -231 350 -444 463
-36 19 -98 66 -138 104 -101 97 -237 213 -342 290 -33 25 -76 56 -95 71 -103
77 -322 211 -475 290 -176 90 -498 221 -583 236 -14 3 -33 9 -44 15 -10 5 -18
7 -18 4 0 -3 -8 -1 -17 4 -10 5 -34 12 -54 15 -20 3 -48 10 -62 15 -14 5 -44
13 -68 16 -24 4 -46 8 -49 10 -3 1 -27 6 -54 9 -27 4 -52 9 -55 11 -4 2 -36 6
-71 10 -36 3 -78 8 -95 11 -37 7 -480 15 -486 10z m1465 -5107 c14 14 26 21
26 16 0 -14 -42 -55 -57 -55 -16 0 -55 21 -65 35 -16 22 -6 22 31 2 l40 -22
25 24z"/>
</g>
</svg>
